0
SECTION
2
HEADER
9
$INSUNITS
70
4
9
$ACADVER
1
AC1014
9
$HANDSEED
5
FFFF
0
ENDSEC
0
SECTION
2
TABLES
0
TABLE
2
VPORT
5
8
100
AcDbSymbolTable
0
ENDTAB
0
TABLE
2
LTYPE
5
5
100
AcDbSymbolTable
0
LTYPE
5
14
100
AcDbSymbolTableRecord
100
AcDbLinetypeTableRecord
2
BYBLOCK
70
0
0
LTYPE
5
15
100
AcDbSymbolTableRecord
100
AcDbLinetypeTableRecord
2
BYLAYER
70
0
0
LTYPE
5
16
100
AcDbSymbolTableRecord
100
AcDbLinetypeTableRecord
2
DASHED
70
0
3
Dashed __ __ __ __ __ __ __ __ __ __ __ __ __ _
72
65
73
2
40
0.75
49
0.5
74
0
49
-0.25
74
0
0
ENDTAB
0
TABLE
2
LAYER
5
2
100
AcDbSymbolTable
70
3
0
LAYER
5
50
100
AcDbSymbolTableRecord
100
AcDbLayerTableRecord
2
1
70
0
62
7
6
DASHED
0
LAYER
5
51
100
AcDbSymbolTableRecord
100
AcDbLayerTableRecord
2
0
70
0
62
7
6
CONTINUOUS
0
ENDTAB
0
TABLE
2
STYLE
5
3
100
AcDbSymbolTable
70
1
0
STYLE
5
11
100
AcDbSymbolTableRecord
100
AcDbTextStyleTableRecord
2
STANDARD
70
0
0
ENDTAB
0
TABLE
2
VIEW
5
6
100
AcDbSymbolTable
70
0
0
ENDTAB
0
TABLE
2
UCS
5
7
100
AcDbSymbolTable
70
0
0
ENDTAB
0
TABLE
2
APPID
5
9
100
AcDbSymbolTable
70
2
0
APPID
5
12
100
AcDbSymbolTableRecord
100
AcDbRegAppTableRecord
2
ACAD
70
0
0
ENDTAB
0
TABLE
2
DIMSTYLE
5
A
100
AcDbSymbolTable
70
1
0
ENDTAB
0
TABLE
2
BLOCK_RECORD
5
1
100
AcDbSymbolTable
70
1
0
BLOCK_RECORD
5
1F
100
AcDbSymbolTableRecord
100
AcDbBlockTableRecord
2
*MODEL_SPACE
0
BLOCK_RECORD
5
1B
100
AcDbSymbolTableRecord
100
AcDbBlockTableRecord
2
*PAPER_SPACE
0
ENDTAB
0
ENDSEC
0
SECTION
2
BLOCKS
0
BLOCK
5
20
100
AcDbEntity
100
AcDbBlockBegin
2
*MODEL_SPACE
0
ENDBLK
5
21
100
AcDbEntity
100
AcDbBlockEnd
0
BLOCK
5
1C
100
AcDbEntity
100
AcDbBlockBegin
2
*PAPER_SPACE
0
ENDBLK
5
1D
100
AcDbEntity
100
AcDbBlockEnd
0
ENDSEC
0
SECTION
2
ENTITIES
0
LWPOLYLINE
5
100
100
AcDbEntity
8
0
100
AcDbPolyline
90
56
70
1
43
0.0
10
-12.999999999999993
20
-1.4999999999999949
10
-12.999999999999996
20
-9.4120351930193902
10
-14.499999999999996
20
-9.4120351930193902
10
-14.499999999999996
20
-7.0000000782310945
42
0.41421356237309503
10
-14.999999999999996
20
-6.5000000782310963
10
-23.999999977648258
20
-6.5000000782310963
10
-23.999999977648258
20
-7.5000000558793456
10
-23
20
-7.5000000558793456
42
-0.99999999999999989
10
-23
20
-7.9999999999999982
10
-23
20
-11.999999999999993
42
-0.99999999999999989
10
-23
20
-12.499999944120646
10
-23.999999977648258
20
-12.499999944120642
10
-23.999999977648258
20
-13.4999999217689
10
-14.999999999999998
20
-13.4999999217689
42
0.41421356237309503
10
-14.5
20
-12.9999999217689
10
-14.499999999999996
20
-10.912035193019388
10
-12.999999999999996
20
-10.912035193019388
10
-12.999999999999993
20
-16.499999999999993
42
-0.4142135623730957
10
-13.999999999999996
20
-17.499999999999996
10
-16.499999999999993
20
-17.499999999999996
42
0.4142135623730937
10
-17.499999999999996
20
-18.499999999999996
10
-17.499999999999996
20
-25.499999999999989
42
0.41421356237309548
10
-2.4999999999999889
20
-40.499999999999986
10
2.5000000000000044
20
-40.499999999999986
42
0.41421356237309537
10
17.499999999999993
20
-25.499999999999979
10
17.499999999999996
20
-18.499999999999993
42
0.4142135623730937
10
16.499999999999993
20
-17.499999999999993
10
14
20
-17.499999999999989
42
-0.41421356237309631
10
12.999999999999996
20
-16.499999999999989
10
12.999999999999993
20
-10.912035193019388
10
14.499999999999996
20
-10.912035193019388
10
14.499999999999996
20
-12.9999999217689
42
0.41421356237309503
10
14.999999999999998
20
-13.499999921768902
10
23.999999977648258
20
-13.4999999217689
10
23.999999977648258
20
-12.499999944120642
10
23
20
-12.499999944120647
42
-0.99999999999999989
10
23
20
-11.999999999999995
10
23
20
-8
42
-0.99999999999999989
10
23
20
-7.5000000558793474
10
23.999999977648258
20
-7.5000000558793474
10
23.999999977648258
20
-6.5000000782310945
10
14.999999999999996
20
-6.5000000782310945
42
0.41421356237309503
10
14.499999999999993
20
-7.0000000782310963
10
14.499999999999996
20
-9.4120351930193884
10
12.999999999999993
20
-9.4120351930193884
10
12.999999999999998
20
-1.4999999999999947
42
-0.4142135623730937
10
14
20
-0.49999999999999334
10
17.999999999999993
20
-0.49999999999999378
42
0.41421356237309503
10
18.999999999999993
20
0.50000000000000755
10
18.999999999999993
20
9.4999999999999947
42
0.41421356237309503
10
0.99999999999998535
20
27.499999999999993
10
-0.99999999999999867
20
27.499999999999996
42
0.41421356237309509
10
-18.999999999999996
20
9.4999999999999858
10
-18.999999999999993
20
0.50000000000000711
42
0.41421356237309614
10
-17.999999999999993
20
-0.49999999999999539
10
-13.999999999999995
20
-0.49999999999999212
42
-0.41421356237309431
0
CIRCLE
5
101
100
AcDbEntity
8
0
100
AcDbCircle
10
11.499999999999995
20
-1.4999999999999947
30
0
40
0.80000000000000071
210
0
220
-0
230
1
0
CIRCLE
5
102
100
AcDbEntity
8
0
100
AcDbCircle
10
-11.499999999999995
20
-1.4999999999999958
30
0
40
0.80000000000000071
210
0
220
-0
230
1
0
CIRCLE
5
103
100
AcDbEntity
8
0
100
AcDbCircle
10
11.499999999999995
20
-18.499999999999996
30
0
40
0.80000000000000071
210
0
220
-0
230
1
0
CIRCLE
5
104
100
AcDbEntity
8
0
100
AcDbCircle
10
0
20
5.5000000000000053
30
0
40
4
210
0
220
-0
230
1
0
CIRCLE
5
105
100
AcDbEntity
8
0
100
AcDbCircle
10
-11.499999999999995
20
-18.499999999999996
30
0
40
0.80000000000000071
210
0
220
-0
230
1
0
ENDSEC
0
SECTION
2
OBJECTS
0
DICTIONARY
5
C
100
AcDbDictionary
3
ACAD_GROUP
350
D
3
ACAD_MLINESTYLE
350
17
0
DICTIONARY
5
D
100
AcDbDictionary
0
DICTIONARY
5
1A
330
C
100
AcDbDictionary
0
DICTIONARY
5
17
100
AcDbDictionary
0
ENDSEC
0
EOF
