0
SECTION
2
HEADER
9
$INSUNITS
70
4
9
$ACADVER
1
AC1014
9
$HANDSEED
5
FFFF
0
ENDSEC
0
SECTION
2
TABLES
0
TABLE
2
VPORT
5
8
100
AcDbSymbolTable
0
ENDTAB
0
TABLE
2
LTYPE
5
5
100
AcDbSymbolTable
0
LTYPE
5
14
100
AcDbSymbolTableRecord
100
AcDbLinetypeTableRecord
2
BYBLOCK
70
0
0
LTYPE
5
15
100
AcDbSymbolTableRecord
100
AcDbLinetypeTableRecord
2
BYLAYER
70
0
0
ENDTAB
0
TABLE
2
LAYER
5
2
100
AcDbSymbolTable
70
2
0
LAYER
5
50
100
AcDbSymbolTableRecord
100
AcDbLayerTableRecord
2
0
70
0
6
CONTINUOUS
0
ENDTAB
0
TABLE
2
STYLE
5
3
100
AcDbSymbolTable
70
1
0
STYLE
5
11
100
AcDbSymbolTableRecord
100
AcDbTextStyleTableRecord
2
STANDARD
70
0
0
ENDTAB
0
TABLE
2
VIEW
5
6
100
AcDbSymbolTable
70
0
0
ENDTAB
0
TABLE
2
UCS
5
7
100
AcDbSymbolTable
70
0
0
ENDTAB
0
TABLE
2
APPID
5
9
100
AcDbSymbolTable
70
2
0
APPID
5
12
100
AcDbSymbolTableRecord
100
AcDbRegAppTableRecord
2
ACAD
70
0
0
ENDTAB
0
TABLE
2
DIMSTYLE
5
A
100
AcDbSymbolTable
70
1
0
ENDTAB
0
TABLE
2
BLOCK_RECORD
5
1
100
AcDbSymbolTable
70
1
0
BLOCK_RECORD
5
1F
100
AcDbSymbolTableRecord
100
AcDbBlockTableRecord
2
*MODEL_SPACE
0
BLOCK_RECORD
5
1B
100
AcDbSymbolTableRecord
100
AcDbBlockTableRecord
2
*PAPER_SPACE
0
ENDTAB
0
ENDSEC
0
SECTION
2
BLOCKS
0
BLOCK
5
20
100
AcDbEntity
100
AcDbBlockBegin
2
*MODEL_SPACE
0
ENDBLK
5
21
100
AcDbEntity
100
AcDbBlockEnd
0
BLOCK
5
1C
100
AcDbEntity
100
AcDbBlockBegin
2
*PAPER_SPACE
0
ENDBLK
5
1D
100
AcDbEntity
100
AcDbBlockEnd
0
ENDSEC
0
SECTION
2
ENTITIES
0
LWPOLYLINE
5
100
100
AcDbEntity
8
0
100
AcDbPolyline
90
28
70
1
43
0.0
10
19
20
26.499999999999993
42
0.41421356237309503
10
18
20
27.499999999999996
10
-18
20
27.499999999999996
42
0.41421356237309503
10
-19
20
26.499999999999993
10
-19
20
18.499999999999993
42
0.4142135623730957
10
-18
20
17.499999999999993
10
-13.999999999999996
20
17.499999999999993
42
-0.41421356237309503
10
-12.999999999999996
20
16.499999999999989
10
-12.999999999999996
20
1.4999999999999947
42
-0.41421356237309537
10
-13.999999999999996
20
0.49999999999999334
10
-17.999999999999993
20
0.49999999999999384
42
0.41421356237309481
10
-18.999999999999993
20
-0.50000000000000666
10
-18.999999999999993
20
-9.1141942712639477
42
0.041027724254001148
10
-18.93289513560536
20
-9.9306166993738962
42
0.24499232266409529
10
-6.0945378840276714
20
-27.011465223024594
42
0.11189787625154242
10
-3.938921605224869
20
-27.5
10
3.9389216052248379
20
-27.499999999999996
42
0.11189787625153928
10
6.0945378840276367
20
-27.011465223024601
42
0.24499232266409535
10
18.932895135605357
20
-9.9306166993738927
42
0.041027724254006262
10
18.999999999999993
20
-9.114194271263937
10
18.999999999999993
20
-0.50000000000000711
42
0.41421356237309609
10
17.999999999999993
20
0.49999999999999273
10
13.999999999999995
20
0.49999999999999295
42
-0.41421356237309537
10
12.999999999999993
20
1.4999999999999949
10
12.999999999999996
20
16.499999999999993
42
-0.41421356237309503
10
13.999999999999996
20
17.499999999999996
10
18
20
17.499999999999996
42
0.4142135623730937
10
19
20
18.499999999999996
0
CIRCLE
5
101
100
AcDbEntity
8
0
100
AcDbCircle
10
11.499999999999995
20
7.4999999999999956
30
0
40
0.80000000000000071
210
0
220
-0
230
1
0
CIRCLE
5
102
100
AcDbEntity
8
0
100
AcDbCircle
10
11.499999999999995
20
15.999999999999996
30
0
40
0.80000000000000071
210
0
220
-0
230
1
0
CIRCLE
5
103
100
AcDbEntity
8
0
100
AcDbCircle
10
-11.499999999999995
20
7.4999999999999956
30
0
40
0.80000000000000071
210
0
220
-0
230
1
0
CIRCLE
5
104
100
AcDbEntity
8
0
100
AcDbCircle
10
-11.499999999999995
20
15.999999999999996
30
0
40
0.80000000000000071
210
0
220
-0
230
1
0
LWPOLYLINE
5
105
100
AcDbEntity
8
0
100
AcDbPolyline
90
4
70
1
43
0.0
10
12.999999999999996
20
17.499999999999996
10
9.9999999999999964
20
17.499999999999996
10
9.9999999999999964
20
3.4999999999999942
10
12.999999999999996
20
3.4999999999999942
0
LWPOLYLINE
5
106
100
AcDbEntity
8
0
100
AcDbPolyline
90
4
70
1
43
0.0
10
-12.999999999999996
20
17.499999999999993
10
-9.9999999999999964
20
17.499999999999993
10
-9.9999999999999964
20
3.4999999999999898
10
-12.999999999999996
20
3.4999999999999898
0
LWPOLYLINE
5
107
100
AcDbEntity
8
0
100
AcDbPolyline
90
4
70
1
43
0.0
10
15.323721538418631
20
-7.2209909637960941
10
18.319095478279831
20
-7.0544527987998684
10
18.008224236953538
20
-1.4630881110589422
10
15.012850297092333
20
-1.6296262760551725
0
LWPOLYLINE
5
108
100
AcDbEntity
8
0
100
AcDbPolyline
90
4
70
1
43
0.0
10
10.816782448210454
20
-7.2211837163018799
10
13.812156388071662
20
-7.054645551305649
10
13.515163327161719
20
-1.7128953585531588
10
10.519789387300509
20
-1.8794335235493886
0
LWPOLYLINE
5
109
100
AcDbEntity
8
0
100
AcDbPolyline
90
4
70
1
43
0.0
10
18.319095478279831
20
-7.0544527987998684
10
18.008224236953538
20
-1.4630881110589422
10
15.012850297092333
20
-1.6296262760551725
10
15.323721538418631
20
-7.2209909637960941
0
LWPOLYLINE
5
110
100
AcDbEntity
8
0
100
AcDbPolyline
90
4
70
1
43
0.0
10
13.812156388071662
20
-7.054645551305649
10
13.515163327161719
20
-1.7128953585531588
10
10.519789387300509
20
-1.8794335235493886
10
10.816782448210454
20
-7.2211837163018799
0
LWPOLYLINE
5
111
100
AcDbEntity
8
0
100
AcDbPolyline
90
4
70
1
43
0.0
10
10.227902120869723
20
-17.790232334251009
10
6.2407085288351318
20
-14.22305035688596
10
4.2404195695650211
20
-16.458859847746464
10
8.2276131615996171
20
-20.026041825111513
0
LWPOLYLINE
5
112
100
AcDbEntity
8
0
100
AcDbPolyline
90
4
70
1
43
0.0
10
7.4137861395361675
20
-21.310637317147538
10
3.2402750899298676
20
-17.576764593176634
10
1.2399861306597517
20
-19.812574084037145
10
5.4134971802660559
20
-23.546446808008046
0
LINE
5
113
100
AcDbEntity
8
0
100
AcDbLine
10
0
20
-32.497733008908575
30
0
11
0
21
31.451080055457624
31
0
0
LWPOLYLINE
5
114
100
AcDbEntity
8
0
100
AcDbPolyline
90
4
70
1
43
0.0
10
-6.2407085288351318
20
-14.22305035688596
10
-4.2404195695650211
20
-16.458859847746464
10
-8.2276131615996171
20
-20.026041825111513
10
-10.227902120869723
20
-17.790232334251009
0
LWPOLYLINE
5
115
100
AcDbEntity
8
0
100
AcDbPolyline
90
4
70
1
43
0.0
10
-5.4134971802660559
20
-23.546446808008046
10
-7.4137861395361675
20
-21.310637317147538
10
-3.2402750899298676
20
-17.576764593176634
10
-1.2399861306597517
20
-19.812574084037145
0
LWPOLYLINE
5
116
100
AcDbEntity
8
0
100
AcDbPolyline
90
4
70
1
43
0.0
10
-13.812156388071662
20
-7.0546455513056472
10
-13.515163327161719
20
-1.7128953585531592
10
-10.519789387300509
20
-1.8794335235493875
10
-10.816782448210454
20
-7.2211837163018799
0
LWPOLYLINE
5
117
100
AcDbEntity
8
0
100
AcDbPolyline
90
4
70
1
43
0.0
10
-13.515163327161719
20
-1.7128953585531592
10
-10.519789387300509
20
-1.8794335235493875
10
-10.816782448210454
20
-7.2211837163018799
10
-13.812156388071662
20
-7.0546455513056472
0
ARC
5
118
100
AcDbEntity
8
0
100
AcDbCircle
10
-14.000000000000057
20
-9.1141942712639512
30
0
40
4.9999999999999361
210
0
220
0
230
1
100
AcDbArc
50
180
51
189.39759122842017
0
LWPOLYLINE
5
119
100
AcDbEntity
8
0
100
AcDbPolyline
90
4
70
1
43
0.0
10
-15.012850297092333
20
-1.6296262760551716
10
-15.323721538418631
20
-7.2209909637960923
10
-18.319095478279831
20
-7.0544527987998684
10
-18.008224236953538
20
-1.4630881110589433
0
LWPOLYLINE
5
120
100
AcDbEntity
8
0
100
AcDbPolyline
90
4
70
1
43
0.0
10
-15.012850297092333
20
-1.6296262760551716
10
-15.323721538418631
20
-7.2209909637960923
10
-18.319095478279831
20
-7.0544527987998684
10
-18.008224236953538
20
-1.4630881110589433
0
LWPOLYLINE
5
121
100
AcDbEntity
8
0
100
AcDbPolyline
90
4
70
1
43
0.0
10
6.2999999999999954
20
9.9999999999999964
10
5.6999999999999948
20
9.9999999999999964
10
5.6999999999999948
20
4.9999999999999956
10
6.2999999999999954
20
4.9999999999999956
0
LINE
5
122
100
AcDbEntity
8
0
100
AcDbLine
10
6.2999999999999954
20
9.9999999999999964
30
0
11
5.6999999999999948
21
4.9999999999999956
31
0
0
LINE
5
123
100
AcDbEntity
8
0
100
AcDbLine
10
5.6999999999999948
20
9.9999999999999964
30
0
11
6.2999999999999954
21
4.9999999999999956
31
0
0
LWPOLYLINE
5
124
100
AcDbEntity
8
0
100
AcDbPolyline
90
4
70
1
43
0.0
10
-5.6999999999999948
20
4.9999999999999956
10
-6.2999999999999954
20
4.9999999999999956
10
-6.2999999999999954
20
9.9999999999999964
10
-5.6999999999999948
20
9.9999999999999964
0
LINE
5
125
100
AcDbEntity
8
0
100
AcDbLine
10
-5.6999999999999948
20
4.9999999999999956
30
0
11
-6.2999999999999954
21
9.9999999999999964
31
0
0
LINE
5
126
100
AcDbEntity
8
0
100
AcDbLine
10
-6.2999999999999954
20
4.9999999999999956
30
0
11
-5.6999999999999948
21
9.9999999999999964
31
0
0
ENDSEC
0
SECTION
2
OBJECTS
0
DICTIONARY
5
C
100
AcDbDictionary
3
ACAD_GROUP
350
D
3
ACAD_MLINESTYLE
350
17
0
DICTIONARY
5
D
100
AcDbDictionary
0
DICTIONARY
5
1A
330
C
100
AcDbDictionary
0
DICTIONARY
5
17
100
AcDbDictionary
0
ENDSEC
0
EOF
