0
SECTION
2
HEADER
9
$INSUNITS
70
4
9
$ACADVER
1
AC1014
9
$HANDSEED
5
FFFF
0
ENDSEC
0
SECTION
2
TABLES
0
TABLE
2
VPORT
5
8
100
AcDbSymbolTable
0
ENDTAB
0
TABLE
2
LTYPE
5
5
100
AcDbSymbolTable
0
LTYPE
5
14
100
AcDbSymbolTableRecord
100
AcDbLinetypeTableRecord
2
BYBLOCK
70
0
0
LTYPE
5
15
100
AcDbSymbolTableRecord
100
AcDbLinetypeTableRecord
2
BYLAYER
70
0
0
ENDTAB
0
TABLE
2
LAYER
5
2
100
AcDbSymbolTable
70
2
0
LAYER
5
50
100
AcDbSymbolTableRecord
100
AcDbLayerTableRecord
2
0
70
0
6
CONTINUOUS
0
ENDTAB
0
TABLE
2
STYLE
5
3
100
AcDbSymbolTable
70
1
0
STYLE
5
11
100
AcDbSymbolTableRecord
100
AcDbTextStyleTableRecord
2
STANDARD
70
0
0
ENDTAB
0
TABLE
2
VIEW
5
6
100
AcDbSymbolTable
70
0
0
ENDTAB
0
TABLE
2
UCS
5
7
100
AcDbSymbolTable
70
0
0
ENDTAB
0
TABLE
2
APPID
5
9
100
AcDbSymbolTable
70
2
0
APPID
5
12
100
AcDbSymbolTableRecord
100
AcDbRegAppTableRecord
2
ACAD
70
0
0
ENDTAB
0
TABLE
2
DIMSTYLE
5
A
100
AcDbSymbolTable
70
1
0
ENDTAB
0
TABLE
2
BLOCK_RECORD
5
1
100
AcDbSymbolTable
70
1
0
BLOCK_RECORD
5
1F
100
AcDbSymbolTableRecord
100
AcDbBlockTableRecord
2
*MODEL_SPACE
0
BLOCK_RECORD
5
1B
100
AcDbSymbolTableRecord
100
AcDbBlockTableRecord
2
*PAPER_SPACE
0
ENDTAB
0
ENDSEC
0
SECTION
2
BLOCKS
0
BLOCK
5
20
100
AcDbEntity
100
AcDbBlockBegin
2
*MODEL_SPACE
0
ENDBLK
5
21
100
AcDbEntity
100
AcDbBlockEnd
0
BLOCK
5
1C
100
AcDbEntity
100
AcDbBlockBegin
2
*PAPER_SPACE
0
ENDBLK
5
1D
100
AcDbEntity
100
AcDbBlockEnd
0
ENDSEC
0
SECTION
2
ENTITIES
0
ARC
5
100
100
AcDbEntity
8
0
100
AcDbCircle
10
-16.5
20
-5.5000000000000053
30
0
40
0.99999999999999756
210
0
220
-0
230
1
100
AcDbArc
50
89.999999999999801
51
180
0
LINE
5
101
100
AcDbEntity
8
0
100
AcDbLine
10
-17.5
20
-5.5000000000000071
30
0
11
-17.499999999999996
21
-8.8016717306285059
31
0
0
SPLINE
5
102
100
AcDbEntity
8
0
100
AcDbSpline
70
0
71
3
72
10
73
6
74
0
42
0.000000001
43
0.0000000001
44
0.0000000001
40
0
40
0
40
0
40
0
40
0.072079638207573307
40
0.072079638207573307
40
0.14415927641515358
40
0.14415927641515358
40
0.14415927641515358
40
0.14415927641515358
10
-17.29379379344801
20
-10.222777309359117
30
0
10
-17.362082310761124
20
-9.9924206945101552
30
0
10
-17.413678079988561
20
-9.7574411682238562
30
0
10
-17.482681752519543
20
-9.281890477357738
30
0
10
-17.500000000000004
20
-9.0419371913204021
30
0
10
-17.500000000000004
20
-8.8016717306284686
30
0
0
SPLINE
5
103
100
AcDbEntity
8
0
100
AcDbSpline
70
4
71
5
72
21
73
15
74
0
42
0.000000001
43
0.0000000001
44
0.0000000001
40
-0.98020953537513988
40
-0.98020953537513988
40
-0.98020953537513988
40
-0.98020953537513988
40
-0.98020953537513988
40
-0.98020953537513988
40
-0.89999999999999991
40
-0.79999999999999993
40
-0.69999999999999996
40
-0.59999999999999998
40
-0.5
40
-0.40000000000000002
40
-0.30000000000000004
40
-0.20000000000000001
40
-0.10000000000000001
40
0
40
0
40
0
40
0
40
0
40
0
41
1
41
1
41
1
41
1
41
1
41
1
41
1
41
1
41
1
41
1
41
1
41
1
41
1
41
1
41
1
10
-17.293793793448003
20
-10.222777309359135
30
0
10
-17.122422728374442
20
-10.800860711761946
30
0
10
-16.71822840954998
20
-12.064217082484204
30
0
10
-16.02384848609924
20
-13.905327792801698
30
0
10
-14.957542344496542
20
-16.150586067776594
30
0
10
-13.476760145204567
20
-18.586888755261121
30
0
10
-11.903237451860573
20
-20.729315966306274
30
0
10
-10.412388048717279
20
-22.514440734312984
30
0
10
-9.0916306992897358
20
-23.967812424433749
30
0
10
-7.9799553205862681
20
-25.102016192171909
30
0
10
-7.0248827448354101
20
-25.919682853856617
30
0
10
-6.27792313937735
20
-26.317242557919368
30
0
10
-5.6669339537213919
20
-26.467072269321509
30
0
10
-5.2276362044170046
20
-26.500158272064567
30
0
10
-4.9999999999999982
20
-26.500000000000004
30
0
0
LINE
5
104
100
AcDbEntity
8
0
100
AcDbLine
10
-4.9999999999999982
20
-26.500000000000007
30
0
11
4.9999999999999982
21
-26.500000000000004
31
0
0
SPLINE
5
105
100
AcDbEntity
8
0
100
AcDbSpline
70
4
71
5
72
21
73
15
74
0
42
0.000000001
43
0.0000000001
44
0.0000000001
40
0
40
0
40
0
40
0
40
0
40
0
40
0.10000000000000001
40
0.20000000000000001
40
0.30000000000000004
40
0.40000000000000002
40
0.5
40
0.59999999999999998
40
0.69999999999999996
40
0.79999999999999993
40
0.89999999999999991
40
0.98020953537513988
40
0.98020953537513988
40
0.98020953537513988
40
0.98020953537513988
40
0.98020953537513988
40
0.98020953537513988
41
1
41
1
41
1
41
1
41
1
41
1
41
1
41
1
41
1
41
1
41
1
41
1
41
1
41
1
41
1
10
4.9999999999999982
20
-26.500000000000004
30
0
10
5.2276362044170046
20
-26.500158272064567
30
0
10
5.6669339537213919
20
-26.467072269321509
30
0
10
6.27792313937735
20
-26.317242557919368
30
0
10
7.0248827448354101
20
-25.919682853856617
30
0
10
7.9799553205862681
20
-25.102016192171909
30
0
10
9.0916306992897358
20
-23.967812424433749
30
0
10
10.412388048717279
20
-22.514440734312984
30
0
10
11.903237451860573
20
-20.729315966306274
30
0
10
13.476760145204567
20
-18.586888755261121
30
0
10
14.957542344496542
20
-16.150586067776594
30
0
10
16.02384848609924
20
-13.905327792801698
30
0
10
16.71822840954998
20
-12.064217082484204
30
0
10
17.122422728374442
20
-10.800860711761946
30
0
10
17.293793793448003
20
-10.222777309359135
30
0
0
SPLINE
5
106
100
AcDbEntity
8
0
100
AcDbSpline
70
0
71
3
72
10
73
6
74
0
42
0.000000001
43
0.0000000001
44
0.0000000001
40
0
40
0
40
0
40
0
40
0.072079638207580343
40
0.072079638207580343
40
0.14415927641515375
40
0.14415927641515375
40
0.14415927641515375
40
0.14415927641515375
10
17.499999999999996
20
-8.8016717306284686
30
0
10
17.499999999999996
20
-9.0419371913204021
30
0
10
17.48268175251955
20
-9.281890477357738
30
0
10
17.413678079988564
20
-9.757441168223858
30
0
10
17.362082310761121
20
-9.9924206945101552
30
0
10
17.293793793448007
20
-10.222777309359117
30
0
0
LINE
5
107
100
AcDbEntity
8
0
100
AcDbLine
10
17.499999999999996
20
-8.8016717306284686
30
0
11
17.499999999999996
21
-5.5000000000000071
31
0
0
ARC
5
108
100
AcDbEntity
8
0
100
AcDbCircle
10
16.5
20
-5.5000000000000053
30
0
40
0.99999999999999645
210
0
220
0
230
1
100
AcDbArc
50
0
51
90.000000000000199
0
LINE
5
109
100
AcDbEntity
8
0
100
AcDbLine
10
16.499999999999996
20
-4.5000000000000089
30
0
11
11.499999999999995
21
-4.5000000000000053
31
0
0
ARC
5
110
100
AcDbEntity
8
0
100
AcDbCircle
10
11.499999999999995
20
-3.5000000000000058
30
0
40
1.0000000000000009
210
0
220
0
230
1
100
AcDbArc
50
180
51
270
0
LINE
5
111
100
AcDbEntity
8
0
100
AcDbLine
10
10.499999999999993
20
-3.5000000000000053
30
0
11
10.5
21
11.499999999999995
31
0
0
ARC
5
112
100
AcDbEntity
8
0
100
AcDbCircle
10
11.5
20
11.499999999999995
30
0
40
1.0000000000000009
210
0
220
-0
230
1
100
AcDbArc
50
90
51
180
0
LINE
5
113
100
AcDbEntity
8
0
100
AcDbLine
10
11.5
20
12.499999999999996
30
0
11
16.5
21
12.499999999999996
31
0
0
ARC
5
114
100
AcDbEntity
8
0
100
AcDbCircle
10
16.500000000000004
20
13.499999999999996
30
0
40
1.0000000000000009
210
0
220
0
230
1
100
AcDbArc
50
-90.000000000000199
51
0
0
LINE
5
115
100
AcDbEntity
8
0
100
AcDbLine
10
17.500000000000004
20
13.499999999999996
30
0
11
17.500000000000004
21
17.499999999999993
31
0
0
ARC
5
116
100
AcDbEntity
8
0
100
AcDbCircle
10
16.500000000000004
20
17.499999999999993
30
0
40
0.99999999999999867
210
0
220
0
230
1
100
AcDbArc
50
0
51
90.000000000000199
0
LINE
5
117
100
AcDbEntity
8
0
100
AcDbLine
10
16.5
20
18.499999999999989
30
0
11
-16.5
21
18.499999999999993
31
0
0
ARC
5
118
100
AcDbEntity
8
0
100
AcDbCircle
10
-16.500000000000004
20
17.499999999999993
30
0
40
1.0000000000000009
210
0
220
-0
230
1
100
AcDbArc
50
89.999999999999801
51
180
0
LINE
5
119
100
AcDbEntity
8
0
100
AcDbLine
10
-17.500000000000004
20
17.499999999999993
30
0
11
-17.500000000000004
21
13.499999999999996
31
0
0
ARC
5
120
100
AcDbEntity
8
0
100
AcDbCircle
10
-16.500000000000004
20
13.499999999999996
30
0
40
0.99999999999999867
210
0
220
0
230
1
100
AcDbArc
50
180
51
270.00000000000023
0
LINE
5
121
100
AcDbEntity
8
0
100
AcDbLine
10
-16.5
20
12.499999999999998
30
0
11
-11.500000000000002
21
12.499999999999996
31
0
0
ARC
5
122
100
AcDbEntity
8
0
100
AcDbCircle
10
-11.500000000000002
20
11.499999999999995
30
0
40
1.0000000000000009
210
0
220
-0
230
1
100
AcDbArc
50
0
51
90
0
LINE
5
123
100
AcDbEntity
8
0
100
AcDbLine
10
-10.5
20
11.499999999999995
30
0
11
-10.499999999999993
21
-3.5000000000000053
31
0
0
ARC
5
124
100
AcDbEntity
8
0
100
AcDbCircle
10
-11.499999999999995
20
-3.5000000000000058
30
0
40
1.0000000000000004
210
0
220
0
230
1
100
AcDbArc
50
-90
51
0
0
LINE
5
125
100
AcDbEntity
8
0
100
AcDbLine
10
-11.499999999999995
20
-4.5000000000000062
30
0
11
-16.499999999999996
21
-4.5000000000000071
31
0
0
CIRCLE
5
126
100
AcDbEntity
8
0
100
AcDbCircle
10
9
20
-3.0000000000000053
30
0
40
0.7999999999999996
210
0
220
-0
230
1
0
CIRCLE
5
127
100
AcDbEntity
8
0
100
AcDbCircle
10
-9
20
3.9999999999999947
30
0
40
0.80000000000000071
210
0
220
-0
230
1
0
CIRCLE
5
128
100
AcDbEntity
8
0
100
AcDbCircle
10
0
20
-10
30
0
40
4
210
0
220
-0
230
1
0
CIRCLE
5
129
100
AcDbEntity
8
0
100
AcDbCircle
10
-9
20
10.999999999999993
30
0
40
0.80000000000000071
210
0
220
-0
230
1
0
CIRCLE
5
130
100
AcDbEntity
8
0
100
AcDbCircle
10
-9
20
-3.0000000000000071
30
0
40
0.7999999999999996
210
0
220
-0
230
1
0
CIRCLE
5
131
100
AcDbEntity
8
0
100
AcDbCircle
10
9
20
10.999999999999996
30
0
40
0.80000000000000071
210
0
220
-0
230
1
0
CIRCLE
5
132
100
AcDbEntity
8
0
100
AcDbCircle
10
9
20
3.9999999999999947
30
0
40
0.80000000000000071
210
0
220
-0
230
1
0
ENDSEC
0
SECTION
2
OBJECTS
0
DICTIONARY
5
C
100
AcDbDictionary
3
ACAD_GROUP
350
D
3
ACAD_MLINESTYLE
350
17
0
DICTIONARY
5
D
100
AcDbDictionary
0
DICTIONARY
5
1A
330
C
100
AcDbDictionary
0
DICTIONARY
5
17
100
AcDbDictionary
0
ENDSEC
0
EOF
