0
SECTION
2
HEADER
9
$INSUNITS
70
4
9
$ACADVER
1
AC1014
9
$HANDSEED
5
FFFF
0
ENDSEC
0
SECTION
2
TABLES
0
TABLE
2
VPORT
5
8
100
AcDbSymbolTable
0
ENDTAB
0
TABLE
2
LTYPE
5
5
100
AcDbSymbolTable
0
LTYPE
5
14
100
AcDbSymbolTableRecord
100
AcDbLinetypeTableRecord
2
BYBLOCK
70
0
0
LTYPE
5
15
100
AcDbSymbolTableRecord
100
AcDbLinetypeTableRecord
2
BYLAYER
70
0
0
ENDTAB
0
TABLE
2
LAYER
5
2
100
AcDbSymbolTable
70
2
0
LAYER
5
50
100
AcDbSymbolTableRecord
100
AcDbLayerTableRecord
2
0
70
0
6
CONTINUOUS
0
ENDTAB
0
TABLE
2
STYLE
5
3
100
AcDbSymbolTable
70
1
0
STYLE
5
11
100
AcDbSymbolTableRecord
100
AcDbTextStyleTableRecord
2
STANDARD
70
0
0
ENDTAB
0
TABLE
2
VIEW
5
6
100
AcDbSymbolTable
70
0
0
ENDTAB
0
TABLE
2
UCS
5
7
100
AcDbSymbolTable
70
0
0
ENDTAB
0
TABLE
2
APPID
5
9
100
AcDbSymbolTable
70
2
0
APPID
5
12
100
AcDbSymbolTableRecord
100
AcDbRegAppTableRecord
2
ACAD
70
0
0
ENDTAB
0
TABLE
2
DIMSTYLE
5
A
100
AcDbSymbolTable
70
1
0
ENDTAB
0
TABLE
2
BLOCK_RECORD
5
1
100
AcDbSymbolTable
70
1
0
BLOCK_RECORD
5
1F
100
AcDbSymbolTableRecord
100
AcDbBlockTableRecord
2
*MODEL_SPACE
0
BLOCK_RECORD
5
1B
100
AcDbSymbolTableRecord
100
AcDbBlockTableRecord
2
*PAPER_SPACE
0
ENDTAB
0
ENDSEC
0
SECTION
2
BLOCKS
0
BLOCK
5
20
100
AcDbEntity
100
AcDbBlockBegin
2
*MODEL_SPACE
0
ENDBLK
5
21
100
AcDbEntity
100
AcDbBlockEnd
0
BLOCK
5
1C
100
AcDbEntity
100
AcDbBlockBegin
2
*PAPER_SPACE
0
ENDBLK
5
1D
100
AcDbEntity
100
AcDbBlockEnd
0
ENDSEC
0
SECTION
2
ENTITIES
0
LINE
5
100
100
AcDbEntity
8
0
100
AcDbLine
10
3.2626541714249746
20
33.499999999999993
30
0
11
12
21
33.499999999999993
31
0
0
LINE
5
101
100
AcDbEntity
8
0
100
AcDbLine
10
3.2626541714249746
20
32.499999999999993
30
0
11
3.2626541714249746
21
33.499999999999993
31
0
0
LWPOLYLINE
5
102
100
AcDbEntity
8
0
100
AcDbPolyline
90
4
70
1
43
0.0
10
9.9999999999999964
20
17.499999999999996
10
9.9999999999999964
20
3.4999999999999942
10
12.999999999999996
20
3.4999999999999942
10
12.999999999999996
20
17.499999999999996
0
LINE
5
103
100
AcDbEntity
8
0
100
AcDbLine
10
12
20
33.499999999999993
30
0
11
12.000000000000004
21
28.499999999999993
31
0
0
LWPOLYLINE
5
104
100
AcDbEntity
8
0
100
AcDbPolyline
90
4
70
1
43
0.0
10
6.2999999999999954
20
4.9999999999999956
10
6.2999999999999954
20
9.9999999999999964
10
5.699999999999994
20
9.9999999999999964
10
5.699999999999994
20
4.9999999999999956
0
LINE
5
105
100
AcDbEntity
8
0
100
AcDbLine
10
-9.9682470880165255
20
28.5
30
0
11
-9.9682470880165255
21
27.5
31
0
0
LINE
5
106
100
AcDbEntity
8
0
100
AcDbLine
10
-11.73734582857503
20
33.5
30
0
11
-3.0000000000000062
21
33.500000000000007
31
0
0
LINE
5
107
100
AcDbEntity
8
0
100
AcDbLine
10
-13.999999999999995
20
0.49999999999999328
30
0
11
-17.999999999999993
21
0.49999999999999378
31
0
0
LWPOLYLINE
5
108
100
AcDbEntity
8
0
100
AcDbPolyline
90
4
70
1
43
0.0
10
-9.9999999999999964
20
3.4999999999999898
10
-12.999999999999996
20
3.4999999999999898
10
-12.999999999999996
20
17.499999999999993
10
-9.9999999999999964
20
17.499999999999993
0
LINE
5
109
100
AcDbEntity
8
0
100
AcDbLine
10
-12.999999999999996
20
16.499999999999989
30
0
11
-12.999999999999996
21
1.4999999999999949
31
0
0
LWPOLYLINE
5
110
100
AcDbEntity
8
0
100
AcDbPolyline
90
4
70
1
43
0.0
10
-5.040386730431945
20
28.500000000000007
10
-5.040386730431945
20
27.5
10
-9.4682470880165255
20
27.5
10
-9.4682470880165255
20
28.500000000000007
0
LINE
5
111
100
AcDbEntity
8
0
100
AcDbLine
10
-4.540386730431945
20
28.500000000000007
30
0
11
-4.540386730431945
21
27.5
31
0
0
ARC
5
112
100
AcDbEntity
8
0
100
AcDbCircle
10
-18.000000000000004
20
18.499999999999989
30
0
40
0.99999999999999645
210
0
220
0
230
1
100
AcDbArc
50
180
51
270.00000000000023
0
LINE
5
113
100
AcDbEntity
8
0
100
AcDbLine
10
-11.73734582857503
20
29.5
30
0
11
-11.137345828575029
21
29.5
31
0
0
LINE
5
114
100
AcDbEntity
8
0
100
AcDbLine
10
-19
20
26.5
30
0
11
-19
21
18.499999999999996
31
0
0
ARC
5
115
100
AcDbEntity
8
0
100
AcDbCircle
10
-17.999999999999993
20
26.499999999999989
30
0
40
1.0000000000000098
210
0
220
0
230
1
100
AcDbArc
50
90.000000000000398
51
180
0
LWPOLYLINE
5
116
100
AcDbEntity
8
0
100
AcDbPolyline
90
2
70
1
43
0.0
10
-18.999999999999993
20
-9.1141942712639494
42
0.041027724254005062
10
-18.93289513560536
20
-9.9306166993738838
42
-0.041027724254001856
0
ARC
5
117
100
AcDbEntity
8
0
100
AcDbCircle
10
17.999999999999993
20
18.500000000000007
30
0
40
1.0000000000000098
210
-0
220
0
230
1
100
AcDbArc
50
270.0000000000004
51
360
0
ARC
5
118
100
AcDbEntity
8
0
100
AcDbCircle
10
-3.9389216052248823
20
-22.50000000000005
30
0
40
4.9999999999999458
210
0
220
0
230
1
100
AcDbArc
50
244.46113408593979
51
270.00000000000017
0
ARC
5
119
100
AcDbEntity
8
0
100
AcDbCircle
10
-13.999999999999996
20
1.4999999999999951
30
0
40
1.0000000000000022
210
-0
220
0
230
-1
100
AcDbArc
50
270.00000000000011
51
360
0
LINE
5
120
100
AcDbEntity
8
0
100
AcDbLine
10
3.8626541714249796
20
29.499999999999993
30
0
11
3.8626541714249796
21
32.499999999999993
31
0
0
ARC
5
121
100
AcDbEntity
8
0
100
AcDbCircle
10
18
20
-0.50000000000000533
30
0
40
0.99999999999999867
210
-0
220
0
230
1
100
AcDbArc
50
0
51
90.000000000000398
0
ARC
5
122
100
AcDbEntity
8
0
100
AcDbCircle
10
14.000000000000147
20
-9.1141942712639583
30
0
40
4.999999999999849
210
-0
220
0
230
1
100
AcDbArc
50
-9.3975912284202536
51
0
0
LINE
5
123
100
AcDbEntity
8
0
100
AcDbLine
10
9.9682470880165255
20
28.5
30
0
11
9.9682470880165255
21
27.5
31
0
0
LINE
5
124
100
AcDbEntity
8
0
100
AcDbLine
10
12.000000000000004
20
28.499999999999993
30
0
11
9.9682470880165255
21
28.5
31
0
0
ARC
5
125
100
AcDbEntity
8
0
100
AcDbCircle
10
3.9389216052248557
20
-22.5
30
0
40
5
210
0
220
0
230
1
100
AcDbArc
50
269.99999999999983
51
295.53886591405984
0
LINE
5
126
100
AcDbEntity
8
0
100
AcDbLine
10
17.999999999999993
20
0.49999999999999267
30
0
11
13.999999999999995
21
0.49999999999999295
31
0
0
ARC
5
127
100
AcDbEntity
8
0
100
AcDbCircle
10
-3.8700977580872342
20
-6.1565906325988298
30
0
40
23.113194449545318
210
-0
220
0
230
1
100
AcDbArc
50
295.53886591406001
51
350.60240877157975
0
LINE
5
128
100
AcDbEntity
8
0
100
AcDbLine
10
13.999999999999995
20
17.499999999999996
30
0
11
18
21
17.499999999999996
31
0
0
CIRCLE
5
129
100
AcDbEntity
8
0
100
AcDbCircle
10
11.499999999999995
20
7.4999999999999956
30
0
40
0.80000000000000071
210
0
220
0
230
1
0
LINE
5
130
100
AcDbEntity
8
0
100
AcDbLine
10
12.999999999999993
20
1.4999999999999949
30
0
11
12.999999999999996
21
16.499999999999993
31
0
0
ARC
5
131
100
AcDbEntity
8
0
100
AcDbCircle
10
3.8700977580872098
20
-6.15659063259886
30
0
40
23.11319444954529
210
0
220
0
230
1
100
AcDbArc
50
189.39759122842014
51
244.46113408593993
0
LINE
5
132
100
AcDbEntity
8
0
100
AcDbLine
10
3.2626541714249746
20
29.499999999999993
30
0
11
3.8626541714249796
21
29.499999999999993
31
0
0
LWPOLYLINE
5
133
100
AcDbEntity
8
0
100
AcDbPolyline
90
4
70
1
43
0.0
10
9.4682470880165255
20
28.500000000000007
10
9.4682470880165255
20
27.5
10
5.040386730431945
20
27.5
10
5.040386730431945
20
28.500000000000007
0
LINE
5
134
100
AcDbEntity
8
0
100
AcDbLine
10
3.2626541714249746
20
28.499999999999993
30
0
11
3.2626541714249746
21
29.499999999999993
31
0
0
ARC
5
135
100
AcDbEntity
8
0
100
AcDbCircle
10
-13.999999999999993
20
16.5
30
0
40
0.99999999999999645
210
-0
220
0
230
-1
100
AcDbArc
50
0
51
90.000000000000099
0
LINE
5
136
100
AcDbEntity
8
0
100
AcDbLine
10
-18.999999999999996
20
-0.50000000000000655
30
0
11
-18.999999999999993
21
-9.1141942712639494
31
0
0
LINE
5
137
100
AcDbEntity
8
0
100
AcDbLine
10
18.999999999999996
20
-9.1141942712639352
30
0
11
18.999999999999996
21
-0.50000000000000711
31
0
0
LINE
5
138
100
AcDbEntity
8
0
100
AcDbLine
10
-3.938921605224869
20
-27.5
30
0
11
3.9389216052248379
21
-27.5
31
0
0
ARC
5
139
100
AcDbEntity
8
0
100
AcDbCircle
10
18.000000000000011
20
26.500000000000014
30
0
40
0.99999999999999201
210
-0
220
0
230
1
100
AcDbArc
50
0
51
90.000000000000611
0
LWPOLYLINE
5
140
100
AcDbEntity
8
0
100
AcDbPolyline
90
4
70
1
43
0.0
10
-6.2999999999999954
20
4.9999999999999956
10
-6.2999999999999954
20
9.9999999999999964
10
-5.699999999999994
20
9.9999999999999964
10
-5.699999999999994
20
4.9999999999999956
0
LINE
5
141
100
AcDbEntity
8
0
100
AcDbLine
10
-3.0000000000000018
20
28.500000000000007
30
0
11
-4.540386730431945
21
28.500000000000007
31
0
0
LINE
5
142
100
AcDbEntity
8
0
100
AcDbLine
10
19.000000000000004
20
18.5
30
0
11
19
21
26.5
31
0
0
CIRCLE
5
143
100
AcDbEntity
8
0
100
AcDbCircle
10
-11.499999999999995
20
15.999999999999996
30
0
40
0.80000000000000071
210
0
220
0
230
1
0
ARC
5
144
100
AcDbEntity
8
0
100
AcDbCircle
10
-18
20
-0.50000000000000455
30
0
40
0.99999999999999845
210
0
220
-0
230
1
100
AcDbArc
50
89.999999999999588
51
180
0
ARC
5
145
100
AcDbEntity
8
0
100
AcDbCircle
10
14.000000000000002
20
16.499999999999989
30
0
40
1.0000000000000053
210
0
220
0
230
-1
100
AcDbArc
50
90.000000000000398
51
180
0
ARC
5
146
100
AcDbEntity
8
0
100
AcDbCircle
10
13.999999999999996
20
1.4999999999999933
30
0
40
1.0000000000000009
210
0
220
0
230
-1
100
AcDbArc
50
180
51
269.99999999999989
0
LINE
5
147
100
AcDbEntity
8
0
100
AcDbLine
10
-11.137345828575029
20
29.5
30
0
11
-11.137345828575029
21
32.5
31
0
0
LINE
5
148
100
AcDbEntity
8
0
100
AcDbLine
10
3.8626541714249796
20
32.499999999999993
30
0
11
3.2626541714249746
21
32.499999999999993
31
0
0
LINE
5
149
100
AcDbEntity
8
0
100
AcDbLine
10
-11.137345828575029
20
32.5
30
0
11
-11.73734582857503
21
32.5
31
0
0
LINE
5
150
100
AcDbEntity
8
0
100
AcDbLine
10
-11.73734582857503
20
28.5
30
0
11
-11.73734582857503
21
29.5
31
0
0
LINE
5
151
100
AcDbEntity
8
0
100
AcDbLine
10
-11.73734582857503
20
32.5
30
0
11
-11.73734582857503
21
33.5
31
0
0
LINE
5
152
100
AcDbEntity
8
0
100
AcDbLine
10
-18
20
17.499999999999993
30
0
11
-13.999999999999995
21
17.499999999999993
31
0
0
LINE
5
153
100
AcDbEntity
8
0
100
AcDbLine
10
-9.9682470880165255
20
28.5
30
0
11
-11.73734582857503
21
28.5
31
0
0
CIRCLE
5
154
100
AcDbEntity
8
0
100
AcDbCircle
10
-11.499999999999995
20
7.4999999999999956
30
0
40
0.80000000000000071
210
0
220
0
230
1
0
LINE
5
155
100
AcDbEntity
8
0
100
AcDbLine
10
4.540386730431945
20
28.500000000000007
30
0
11
4.540386730431945
21
27.5
31
0
0
LINE
5
156
100
AcDbEntity
8
0
100
AcDbLine
10
-3.0000000000000062
20
33.500000000000007
30
0
11
-3.0000000000000018
21
28.500000000000007
31
0
0
LINE
5
157
100
AcDbEntity
8
0
100
AcDbLine
10
4.540386730431945
20
28.500000000000007
30
0
11
3.2626541714249746
21
28.499999999999993
31
0
0
CIRCLE
5
158
100
AcDbEntity
8
0
100
AcDbCircle
10
11.499999999999995
20
15.999999999999996
30
0
40
0.80000000000000071
210
0
220
0
230
1
0
LINE
5
159
100
AcDbEntity
8
0
100
AcDbLine
10
-18
20
27.5
30
0
11
-9.9682470880165255
21
27.5
31
0
0
LINE
5
160
100
AcDbEntity
8
0
100
AcDbLine
10
-4.540386730431945
20
27.5
30
0
11
4.540386730431945
21
27.5
31
0
0
LINE
5
161
100
AcDbEntity
8
0
100
AcDbLine
10
9.9682470880165255
20
27.5
30
0
11
18
21
27.5
31
0
0
ENDSEC
0
SECTION
2
OBJECTS
0
DICTIONARY
5
C
100
AcDbDictionary
3
ACAD_GROUP
350
D
3
ACAD_MLINESTYLE
350
17
0
DICTIONARY
5
D
100
AcDbDictionary
0
DICTIONARY
5
1A
330
C
100
AcDbDictionary
0
DICTIONARY
5
17
100
AcDbDictionary
0
ENDSEC
0
EOF
