0
SECTION
2
HEADER
9
$INSUNITS
70
4
9
$ACADVER
1
AC1014
9
$HANDSEED
5
FFFF
0
ENDSEC
0
SECTION
2
TABLES
0
TABLE
2
VPORT
5
8
100
AcDbSymbolTable
0
ENDTAB
0
TABLE
2
LTYPE
5
5
100
AcDbSymbolTable
0
LTYPE
5
14
100
AcDbSymbolTableRecord
100
AcDbLinetypeTableRecord
2
BYBLOCK
70
0
0
LTYPE
5
15
100
AcDbSymbolTableRecord
100
AcDbLinetypeTableRecord
2
BYLAYER
70
0
0
ENDTAB
0
TABLE
2
LAYER
5
2
100
AcDbSymbolTable
70
2
0
LAYER
5
50
100
AcDbSymbolTableRecord
100
AcDbLayerTableRecord
2
0
70
0
6
CONTINUOUS
0
ENDTAB
0
TABLE
2
STYLE
5
3
100
AcDbSymbolTable
70
1
0
STYLE
5
11
100
AcDbSymbolTableRecord
100
AcDbTextStyleTableRecord
2
STANDARD
70
0
0
ENDTAB
0
TABLE
2
VIEW
5
6
100
AcDbSymbolTable
70
0
0
ENDTAB
0
TABLE
2
UCS
5
7
100
AcDbSymbolTable
70
0
0
ENDTAB
0
TABLE
2
APPID
5
9
100
AcDbSymbolTable
70
2
0
APPID
5
12
100
AcDbSymbolTableRecord
100
AcDbRegAppTableRecord
2
ACAD
70
0
0
ENDTAB
0
TABLE
2
DIMSTYLE
5
A
100
AcDbSymbolTable
70
1
0
ENDTAB
0
TABLE
2
BLOCK_RECORD
5
1
100
AcDbSymbolTable
70
1
0
BLOCK_RECORD
5
1F
100
AcDbSymbolTableRecord
100
AcDbBlockTableRecord
2
*MODEL_SPACE
0
BLOCK_RECORD
5
1B
100
AcDbSymbolTableRecord
100
AcDbBlockTableRecord
2
*PAPER_SPACE
0
ENDTAB
0
ENDSEC
0
SECTION
2
BLOCKS
0
BLOCK
5
20
100
AcDbEntity
100
AcDbBlockBegin
2
*MODEL_SPACE
0
ENDBLK
5
21
100
AcDbEntity
100
AcDbBlockEnd
0
BLOCK
5
1C
100
AcDbEntity
100
AcDbBlockBegin
2
*PAPER_SPACE
0
ENDBLK
5
1D
100
AcDbEntity
100
AcDbBlockEnd
0
ENDSEC
0
SECTION
2
ENTITIES
0
LINE
5
100
100
AcDbEntity
8
0
100
AcDbLine
10
-19
20
0.99999999999999989
30
0
11
-19
21
9
31
0
0
LINE
5
101
100
AcDbEntity
8
0
100
AcDbLine
10
-18
20
10
30
0
11
-14.000000000000002
21
10.000000000000002
31
0
0
LINE
5
102
100
AcDbEntity
8
0
100
AcDbLine
10
-13
20
11
30
0
11
-13
21
26.000000000000007
31
0
0
LINE
5
103
100
AcDbEntity
8
0
100
AcDbLine
10
-14
20
27
30
0
11
-18
21
27
31
0
0
LINE
5
104
100
AcDbEntity
8
0
100
AcDbLine
10
-19
20
28.000000000000004
30
0
11
-19
21
36.386215490426068
31
0
0
LINE
5
105
100
AcDbEntity
8
0
100
AcDbLine
10
0
20
55
30
0
11
-3.7073108949592859
21
55
31
0
0
CIRCLE
5
106
100
AcDbEntity
8
0
100
AcDbCircle
10
-11.5
20
11.5
30
0
40
0.80000000000000071
210
0
220
0
230
1
0
CIRCLE
5
107
100
AcDbEntity
8
0
100
AcDbCircle
10
-11.5
20
20
30
0
40
0.74999999999999944
210
0
220
0
230
1
0
ARC
5
108
100
AcDbEntity
8
0
100
AcDbCircle
10
7.7021088877449184
20
30.676137531753952
30
0
40
27.440733510062682
210
0
220
0
230
1
100
AcDbArc
50
120.55894651768351
51
165.25891451874156
0
ARC
5
109
100
AcDbEntity
8
0
100
AcDbCircle
10
-3.7073108949592681
20
49.999999999999943
30
0
40
5.0000000000000533
210
0
220
0
230
1
100
AcDbArc
50
90.000000000000199
51
120.55894651768328
0
ARC
5
110
100
AcDbEntity
8
0
100
AcDbCircle
10
-14.000000000000373
20
36.386215490426117
30
0
40
4.9999999999996296
210
0
220
0
230
1
100
AcDbArc
50
165.25891451874111
51
180
0
ARC
5
111
100
AcDbEntity
8
0
100
AcDbCircle
10
-18
20
28.000000000000007
30
0
40
1.0000000000000031
210
0
220
0
230
1
100
AcDbArc
50
180
51
270
0
ARC
5
112
100
AcDbEntity
8
0
100
AcDbCircle
10
-14.000000000000005
20
25.999999999999996
30
0
40
1.0000000000000053
210
0
220
-0
230
1
100
AcDbArc
50
0
51
89.999999999999702
0
ARC
5
113
100
AcDbEntity
8
0
100
AcDbCircle
10
-14
20
11
30
0
40
0.99999999999999867
210
0
220
0
230
1
100
AcDbArc
50
-90.000000000000099
51
0
0
ARC
5
114
100
AcDbEntity
8
0
100
AcDbCircle
10
-18.000000000000004
20
9.0000000000000018
30
0
40
0.99999999999999867
210
0
220
-0
230
1
100
AcDbArc
50
89.999999999999801
51
180
0
ARC
5
115
100
AcDbEntity
8
0
100
AcDbCircle
10
-18
20
1
30
0
40
1.0000000000000009
210
0
220
0
230
1
100
AcDbArc
50
180
51
269.99999999999983
0
CIRCLE
5
116
100
AcDbEntity
8
0
100
AcDbCircle
10
11.5
20
20
30
0
40
0.74999999999999944
210
0
220
0
230
1
0
CIRCLE
5
117
100
AcDbEntity
8
0
100
AcDbCircle
10
11.5
20
11.5
30
0
40
0.80000000000000071
210
0
220
0
230
1
0
LINE
5
118
100
AcDbEntity
8
0
100
AcDbLine
10
19
20
0.99999999999999989
30
0
11
19
21
9
31
0
0
ARC
5
119
100
AcDbEntity
8
0
100
AcDbCircle
10
18
20
1
30
0
40
1.0000000000000009
210
0
220
0
230
1
100
AcDbArc
50
270.00000000000023
51
360
0
ARC
5
120
100
AcDbEntity
8
0
100
AcDbCircle
10
18.000000000000004
20
9.0000000000000018
30
0
40
0.99999999999999867
210
-0
220
0
230
1
100
AcDbArc
50
0
51
90.000000000000199
0
LINE
5
121
100
AcDbEntity
8
0
100
AcDbLine
10
18
20
10
30
0
11
14.000000000000002
21
10.000000000000002
31
0
0
ARC
5
122
100
AcDbEntity
8
0
100
AcDbCircle
10
14
20
11
30
0
40
0.99999999999999867
210
0
220
0
230
1
100
AcDbArc
50
180
51
270.00000000000011
0
LINE
5
123
100
AcDbEntity
8
0
100
AcDbLine
10
13
20
11
30
0
11
13
21
26.000000000000007
31
0
0
ARC
5
124
100
AcDbEntity
8
0
100
AcDbCircle
10
14.000000000000005
20
25.999999999999996
30
0
40
1.0000000000000053
210
0
220
0
230
1
100
AcDbArc
50
90.000000000000313
51
180
0
LINE
5
125
100
AcDbEntity
8
0
100
AcDbLine
10
14
20
27
30
0
11
18
21
27
31
0
0
ARC
5
126
100
AcDbEntity
8
0
100
AcDbCircle
10
18
20
28.000000000000007
30
0
40
1.0000000000000053
210
0
220
0
230
1
100
AcDbArc
50
270
51
360
0
LINE
5
127
100
AcDbEntity
8
0
100
AcDbLine
10
19
20
28.000000000000004
30
0
11
19
21
36.386215490426068
31
0
0
ARC
5
128
100
AcDbEntity
8
0
100
AcDbCircle
10
-7.7021088877449184
20
30.676137531753952
30
0
40
27.440733510062682
210
0
220
-0
230
1
100
AcDbArc
50
14.741085481258422
51
59.441053482316519
0
ARC
5
129
100
AcDbEntity
8
0
100
AcDbCircle
10
14.000000000000373
20
36.386215490426117
30
0
40
4.9999999999996287
210
0
220
0
230
1
100
AcDbArc
50
0
51
14.741085481258899
0
ARC
5
130
100
AcDbEntity
8
0
100
AcDbCircle
10
3.7073108949592681
20
49.999999999999943
30
0
40
5.0000000000000524
210
0
220
-0
230
1
100
AcDbArc
50
59.44105348231674
51
89.999999999999801
0
LINE
5
131
100
AcDbEntity
8
0
100
AcDbLine
10
0
20
55
30
0
11
3.7073108949592859
21
55
31
0
0
LWPOLYLINE
5
132
100
AcDbEntity
8
0
100
AcDbPolyline
90
4
70
1
43
0.0
10
-13
20
10
10
-10
20
10
10
-10
20
24.000000000000004
10
-13
20
24.000000000000004
0
LWPOLYLINE
5
133
100
AcDbEntity
8
0
100
AcDbPolyline
90
4
70
1
43
0.0
10
-5.7000000000000011
20
17.5
10
-6.2999999999999989
20
17.5
10
-6.2999999999999989
20
22.5
10
-5.7000000000000011
20
22.5
0
LWPOLYLINE
5
134
100
AcDbEntity
8
0
100
AcDbPolyline
90
4
70
1
43
0.0
10
6.2999999999999989
20
22.5
10
5.7000000000000011
20
22.5
10
5.7000000000000011
20
17.5
10
6.2999999999999989
20
17.5
0
LWPOLYLINE
5
135
100
AcDbEntity
8
0
100
AcDbPolyline
90
4
70
1
43
0.0
10
10
20
10
10
10
20
24.000000000000004
10
13
20
24.000000000000004
10
13
20
10
0
LINE
5
136
100
AcDbEntity
8
0
100
AcDbLine
10
-12.000000000000004
20
-5.9999999999999982
30
0
11
-12.000000000000004
21
-0.99999999999999922
31
0
0
LINE
5
137
100
AcDbEntity
8
0
100
AcDbLine
10
-3.262654171424979
20
-6.0000000000000009
30
0
11
-12.000000000000004
21
-5.9999999999999982
31
0
0
LINE
5
138
100
AcDbEntity
8
0
100
AcDbLine
10
-3.8626541714249782
20
-2
30
0
11
-3.8626541714249782
21
-5
31
0
0
LINE
5
139
100
AcDbEntity
8
0
100
AcDbLine
10
-3.8626541714249782
20
-5
30
0
11
-3.262654171424979
21
-5
31
0
0
LINE
5
140
100
AcDbEntity
8
0
100
AcDbLine
10
-3.262654171424979
20
-5
30
0
11
-3.262654171424979
21
-6.0000000000000009
31
0
0
LINE
5
141
100
AcDbEntity
8
0
100
AcDbLine
10
-3.262654171424979
20
-2.0000000000000009
30
0
11
-3.8626541714249782
21
-2
31
0
0
LINE
5
142
100
AcDbEntity
8
0
100
AcDbLine
10
-3.2626541714249777
20
-1
30
0
11
-3.262654171424979
21
-2.0000000000000009
31
0
0
LINE
5
143
100
AcDbEntity
8
0
100
AcDbLine
10
4.0000000000000018
20
-6.0000000000000036
30
0
11
4.0000000000000018
21
-1.0000000000000031
31
0
0
LINE
5
144
100
AcDbEntity
8
0
100
AcDbLine
10
12.737345828575027
20
-6.0000000000000053
30
0
11
4.0000000000000018
21
-6.0000000000000036
31
0
0
LINE
5
145
100
AcDbEntity
8
0
100
AcDbLine
10
12.137345828575029
20
-2.000000000000004
30
0
11
12.137345828575029
21
-5.0000000000000044
31
0
0
LINE
5
146
100
AcDbEntity
8
0
100
AcDbLine
10
12.137345828575029
20
-5.0000000000000044
30
0
11
12.737345828575027
21
-5.0000000000000044
31
0
0
LINE
5
147
100
AcDbEntity
8
0
100
AcDbLine
10
12.737345828575027
20
-5.0000000000000044
30
0
11
12.737345828575027
21
-6.0000000000000053
31
0
0
LINE
5
148
100
AcDbEntity
8
0
100
AcDbLine
10
12.737345828575027
20
-2.0000000000000044
30
0
11
12.137345828575029
21
-2.000000000000004
31
0
0
LINE
5
149
100
AcDbEntity
8
0
100
AcDbLine
10
12.737345828575029
20
-1.000000000000004
30
0
11
12.737345828575027
21
-2.0000000000000044
31
0
0
LINE
5
150
100
AcDbEntity
8
0
100
AcDbLine
10
-10.189227440902194
20
-4.163336342344337e-16
30
0
11
-10.189227440902194
21
-0.99999999999999933
31
0
0
LWPOLYLINE
5
151
100
AcDbEntity
8
0
100
AcDbPolyline
90
4
70
1
43
0.0
10
-9.6892274409021937
20
-4.4821680815497898e-16
10
-9.6892274409021937
20
-0.99999999999999956
10
-6.082141833997774
20
-0.99999999999999978
10
-6.082141833997774
20
-4.163336342344337e-16
0
LINE
5
152
100
AcDbEntity
8
0
100
AcDbLine
10
-5.582141833997774
20
6.2070062821043107e-16
30
0
11
-5.582141833997774
21
-0.99999999999999978
31
0
0
LINE
5
153
100
AcDbEntity
8
0
100
AcDbLine
10
-10.189227440902194
20
-4.163336342344337e-16
30
0
11
-18.000000000000004
21
-8.3266726846886741e-16
31
0
0
LINE
5
154
100
AcDbEntity
8
0
100
AcDbLine
10
-12.000000000000004
20
-0.99999999999999922
30
0
11
-10.189227440902194
21
-0.99999999999999933
31
0
0
LINE
5
155
100
AcDbEntity
8
0
100
AcDbLine
10
-5.582141833997774
20
-0.99999999999999978
30
0
11
-3.2626541714249777
21
-1
31
0
0
LINE
5
156
100
AcDbEntity
8
0
100
AcDbLine
10
0
20
0
30
0
11
-5.582141833997774
21
6.2070062821043107e-16
31
0
0
LINE
5
157
100
AcDbEntity
8
0
100
AcDbLine
10
10.189227440902194
20
-4.163336342344337e-16
30
0
11
10.189227440902194
21
-0.99999999999999933
31
0
0
LWPOLYLINE
5
158
100
AcDbEntity
8
0
100
AcDbPolyline
90
4
70
1
43
0.0
10
9.6892274409021937
20
-4.4821680815497898e-16
10
9.6892274409021937
20
-0.99999999999999956
10
6.082141833997774
20
-0.99999999999999978
10
6.082141833997774
20
-4.163336342344337e-16
0
LINE
5
159
100
AcDbEntity
8
0
100
AcDbLine
10
5.582141833997774
20
6.2070062821043107e-16
30
0
11
5.582141833997774
21
-0.99999999999999978
31
0
0
LINE
5
160
100
AcDbEntity
8
0
100
AcDbLine
10
0
20
0
30
0
11
5.582141833997774
21
6.2070062821043107e-16
31
0
0
LINE
5
161
100
AcDbEntity
8
0
100
AcDbLine
10
4.0000000000000018
20
-1.0000000000000031
30
0
11
5.582141833997774
21
-0.99999999999999978
31
0
0
LINE
5
162
100
AcDbEntity
8
0
100
AcDbLine
10
10.189227440902194
20
-0.99999999999999933
30
0
11
12.737345828575029
21
-1.000000000000004
31
0
0
LINE
5
163
100
AcDbEntity
8
0
100
AcDbLine
10
10.189227440902194
20
-4.163336342344337e-16
30
0
11
18.000000000000004
21
-8.3266726846886741e-16
31
0
0
ENDSEC
0
SECTION
2
OBJECTS
0
DICTIONARY
5
C
100
AcDbDictionary
3
ACAD_GROUP
350
D
3
ACAD_MLINESTYLE
350
17
0
DICTIONARY
5
D
100
AcDbDictionary
0
DICTIONARY
5
1A
330
C
100
AcDbDictionary
0
DICTIONARY
5
17
100
AcDbDictionary
0
ENDSEC
0
EOF
