0
SECTION
2
HEADER
9
$INSUNITS
70
4
9
$ACADVER
1
AC1014
9
$HANDSEED
5
FFFF
0
ENDSEC
0
SECTION
2
TABLES
0
TABLE
2
VPORT
5
8
100
AcDbSymbolTable
0
ENDTAB
0
TABLE
2
LTYPE
5
5
100
AcDbSymbolTable
0
LTYPE
5
14
100
AcDbSymbolTableRecord
100
AcDbLinetypeTableRecord
2
BYBLOCK
70
0
0
LTYPE
5
15
100
AcDbSymbolTableRecord
100
AcDbLinetypeTableRecord
2
BYLAYER
70
0
0
ENDTAB
0
TABLE
2
LAYER
5
2
100
AcDbSymbolTable
70
2
0
LAYER
5
50
100
AcDbSymbolTableRecord
100
AcDbLayerTableRecord
2
0
70
0
6
CONTINUOUS
0
ENDTAB
0
TABLE
2
STYLE
5
3
100
AcDbSymbolTable
70
1
0
STYLE
5
11
100
AcDbSymbolTableRecord
100
AcDbTextStyleTableRecord
2
STANDARD
70
0
0
ENDTAB
0
TABLE
2
VIEW
5
6
100
AcDbSymbolTable
70
0
0
ENDTAB
0
TABLE
2
UCS
5
7
100
AcDbSymbolTable
70
0
0
ENDTAB
0
TABLE
2
APPID
5
9
100
AcDbSymbolTable
70
2
0
APPID
5
12
100
AcDbSymbolTableRecord
100
AcDbRegAppTableRecord
2
ACAD
70
0
0
ENDTAB
0
TABLE
2
DIMSTYLE
5
A
100
AcDbSymbolTable
70
1
0
ENDTAB
0
TABLE
2
BLOCK_RECORD
5
1
100
AcDbSymbolTable
70
1
0
BLOCK_RECORD
5
1F
100
AcDbSymbolTableRecord
100
AcDbBlockTableRecord
2
*MODEL_SPACE
0
BLOCK_RECORD
5
1B
100
AcDbSymbolTableRecord
100
AcDbBlockTableRecord
2
*PAPER_SPACE
0
ENDTAB
0
ENDSEC
0
SECTION
2
BLOCKS
0
BLOCK
5
20
100
AcDbEntity
100
AcDbBlockBegin
2
*MODEL_SPACE
0
ENDBLK
5
21
100
AcDbEntity
100
AcDbBlockEnd
0
BLOCK
5
1C
100
AcDbEntity
100
AcDbBlockBegin
2
*PAPER_SPACE
0
ENDBLK
5
1D
100
AcDbEntity
100
AcDbBlockEnd
0
ENDSEC
0
SECTION
2
ENTITIES
0
LWPOLYLINE
5
100
100
AcDbEntity
8
0
100
AcDbPolyline
90
18
70
1
43
0.0
10
-3.262654171424979
20
-6.0000000000000009
10
-12.000000000000004
20
-5.9999999999999982
10
-13.000000000000007
20
-5.9999999999999982
10
-13.000000000000005
20
-0.99999999999999922
10
-12.000000000000004
20
-0.99999999999999922
10
-10.189227440902194
20
-0.99999999999999933
10
-9.6892274409021937
20
-0.99999999999999956
10
-6.082141833997774
20
-0.99999999999999978
10
-5.582141833997774
20
-0.99999999999999978
10
-3.2626541714249777
20
-1
10
-3.2626541714249777
20
-1.1000000000000001
10
-2.6967725804282736
20
-1.1000000000000001
10
-2.6967725804282736
20
1.5000000000000002
10
0.30322741957172661
20
1.5000000000000002
10
0.30322741957172661
20
-8.5
10
-2.6967725804282736
20
-8.5
10
-2.6967725804282736
20
-5.8999999999999995
10
-3.2626541714249777
20
-5.8999999999999995
0
LWPOLYLINE
5
101
100
AcDbEntity
8
0
100
AcDbPolyline
90
10
70
1
43
0.0
10
-3.8626541714249782
20
-5
10
-3.262654171424979
20
-5
10
-3.2626541714249777
20
-5.0999999999999988
10
-2.6967725804282736
20
-5.0999999999999988
10
-2.6967725804282736
20
-4.9000000000000004
10
-2.6967725804282736
20
-4.5
10
-2.6967725804282736
20
-4.2999999999999989
10
-3.8626541714249782
20
-4.2999999999999989
10
-3.8626541714249782
20
-4.5
10
-3.8626541714249782
20
-4.9000000000000004
0
LINE
5
102
100
AcDbEntity
8
0
100
AcDbLine
10
-3.262654171424979
20
-2.0000000000000009
30
0
11
-3.8626541714249782
21
-2
31
0
0
LINE
5
103
100
AcDbEntity
8
0
100
AcDbLine
10
-3.8626541714249782
20
-2
30
0
11
-3.8626541714249782
21
-2.1000000000000001
31
0
0
LINE
5
104
100
AcDbEntity
8
0
100
AcDbLine
10
-2.6967725804282736
20
-2.1000000000000001
30
0
11
-2.6967725804282736
21
-1.9000000000000004
31
0
0
LINE
5
105
100
AcDbEntity
8
0
100
AcDbLine
10
-3.8626541714249782
20
-2.5
30
0
11
-3.8626541714249782
21
-2.1000000000000001
31
0
0
LINE
5
106
100
AcDbEntity
8
0
100
AcDbLine
10
-2.6967725804282736
20
-2.5
30
0
11
-2.6967725804282736
21
-1.9691310229197689
31
0
0
LINE
5
107
100
AcDbEntity
8
0
100
AcDbLine
10
-3.8626541714249782
20
-2.5
30
0
11
-3.8626541714249782
21
-2.7000000000000002
31
0
0
LINE
5
108
100
AcDbEntity
8
0
100
AcDbLine
10
-2.6967725804282736
20
-2.7000000000000002
30
0
11
-2.6967725804282736
21
-2.5
31
0
0
LINE
5
109
100
AcDbEntity
8
0
100
AcDbLine
10
-3.2626541714249777
20
-1.9000000000000004
30
0
11
-2.6967725804282736
21
-1.9000000000000004
31
0
0
LINE
5
110
100
AcDbEntity
8
0
100
AcDbLine
10
-3.8626541714249782
20
-2.7000000000000002
30
0
11
-2.6967725804282736
21
-2.7000000000000002
31
0
0
LINE
5
111
100
AcDbEntity
8
0
100
AcDbLine
10
-3.2626541714249777
20
-1.9000000000000004
30
0
11
-3.262654171424979
21
-2.0000000000000009
31
0
0
ENDSEC
0
SECTION
2
OBJECTS
0
DICTIONARY
5
C
100
AcDbDictionary
3
ACAD_GROUP
350
D
3
ACAD_MLINESTYLE
350
17
0
DICTIONARY
5
D
100
AcDbDictionary
0
DICTIONARY
5
1A
330
C
100
AcDbDictionary
0
DICTIONARY
5
17
100
AcDbDictionary
0
ENDSEC
0
EOF
