%TF.GenerationSoftware,KiCad,Pcbnew,8.0.4-8.0.4-0~ubuntu22.04.1*%
%TF.CreationDate,2025-02-28T00:25:37+09:00*%
%TF.ProjectId,main,6d61696e-2e6b-4696-9361-645f70636258,rev?*%
%TF.SameCoordinates,Original*%
%TF.FileFunction,Copper,L2,Bot*%
%TF.FilePolarity,Positive*%
%FSLAX46Y46*%
G04 Gerber Fmt 4.6, Leading zero omitted, Abs format (unit mm)*
G04 Created by KiCad (PCBNEW 8.0.4-8.0.4-0~ubuntu22.04.1) date 2025-02-28 00:25:37*
%MOMM*%
%LPD*%
G01*
G04 APERTURE LIST*
%TA.AperFunction,ComponentPad*%
%ADD10C,1.100000*%
%TD*%
%TA.AperFunction,ComponentPad*%
%ADD11C,0.600000*%
%TD*%
%TA.AperFunction,SMDPad,CuDef*%
%ADD12R,0.900000X2.100000*%
%TD*%
%TA.AperFunction,SMDPad,CuDef*%
%ADD13R,0.700000X1.500000*%
%TD*%
%TA.AperFunction,ComponentPad*%
%ADD14O,1.000000X1.000000*%
%TD*%
%TA.AperFunction,ComponentPad*%
%ADD15R,1.000000X1.000000*%
%TD*%
%TA.AperFunction,ComponentPad*%
%ADD16O,0.850000X0.850000*%
%TD*%
%TA.AperFunction,ComponentPad*%
%ADD17R,0.850000X0.850000*%
%TD*%
%TA.AperFunction,ComponentPad*%
%ADD18O,2.500000X1.800000*%
%TD*%
%TA.AperFunction,ViaPad*%
%ADD19C,0.600000*%
%TD*%
%TA.AperFunction,ViaPad*%
%ADD20C,0.800000*%
%TD*%
%TA.AperFunction,Conductor*%
%ADD21C,0.200000*%
%TD*%
%TA.AperFunction,Conductor*%
%ADD22C,0.400000*%
%TD*%
G04 APERTURE END LIST*
D10*
%TO.P,D12,2,A*%
%TO.N,+3.3V*%
X179746376Y-82255334D03*
%TO.P,D12,1,K*%
%TO.N,Net-(D12-K)*%
X179525000Y-79725000D03*
%TD*%
%TO.P,D14,2,A*%
%TO.N,+3.3V*%
X192234315Y-92349509D03*
%TO.P,D14,1,K*%
%TO.N,Net-(D14-K)*%
X190288563Y-90716829D03*
%TD*%
%TO.P,D15,2,A*%
%TO.N,Net-(D14-K)*%
X190379248Y-102932680D03*
%TO.P,D15,1,K*%
%TO.N,Net-(D15-K)*%
X192325000Y-101300000D03*
%TD*%
%TO.P,Q1,2,E*%
%TO.N,Net-(Q1-E)*%
X194622879Y-94266339D03*
%TO.P,Q1,1,C*%
%TO.N,+3.3V*%
X193649999Y-93449999D03*
%TD*%
%TO.P,D13,2,A*%
%TO.N,Net-(D12-K)*%
X180089312Y-115090167D03*
%TO.P,D13,1,K*%
%TO.N,Net-(D13-K)*%
X180310688Y-112559833D03*
%TD*%
D11*
%TO.P,U4,13,GND_TP*%
%TO.N,GND*%
X142400000Y-96375000D03*
X142400000Y-97375000D03*
X142400000Y-98375000D03*
%TD*%
D12*
%TO.P,J2,4,Pin_4*%
%TO.N,/encoder_R/s_VDD*%
X159175000Y-120325000D03*
D13*
%TO.P,J2,1,Pin_1*%
%TO.N,/encoder_R/s_GND*%
X161175000Y-119625000D03*
X163175000Y-119625000D03*
D12*
X165175000Y-120325000D03*
%TD*%
D14*
%TO.P,J8,10,~{RESET}*%
%TO.N,NRST*%
X145160000Y-82625000D03*
%TO.P,J8,9,GNDDetect*%
%TO.N,GND*%
X145160001Y-81355000D03*
%TO.P,J8,8,NC/TDI*%
%TO.N,unconnected-(J8-NC{slash}TDI-Pad8)*%
X146430000Y-82625000D03*
%TO.P,J8,7,KEY*%
%TO.N,unconnected-(J8-KEY-Pad7)*%
X146430000Y-81355000D03*
%TO.P,J8,6,SWO/TDO*%
%TO.N,unconnected-(J8-SWO{slash}TDO-Pad6)*%
X147700000Y-82625000D03*
%TO.P,J8,5,GND*%
%TO.N,GND*%
X147700000Y-81355000D03*
%TO.P,J8,4,SWDCLK/TCK*%
%TO.N,SYS_JTCK_SWCLK*%
X148970000Y-82625000D03*
%TO.P,J8,3,GND*%
%TO.N,GND*%
X148969999Y-81355000D03*
%TO.P,J8,2,SWDIO/TMS*%
%TO.N,SYS_JTMS_SWDIO*%
X150240000Y-82625001D03*
D15*
%TO.P,J8,1,VTref*%
%TO.N,+3.3V*%
X150240000Y-81355000D03*
%TD*%
D10*
%TO.P,Q4,2,E*%
%TO.N,Net-(Q4-E)*%
X193627124Y-100141340D03*
%TO.P,Q4,1,C*%
%TO.N,+3.3V*%
X194600000Y-99325000D03*
%TD*%
%TO.P,Q5,2,E*%
%TO.N,Net-(Q5-E)*%
X180146376Y-85330335D03*
%TO.P,Q5,1,C*%
%TO.N,+3.3V*%
X180035688Y-84065167D03*
%TD*%
D14*
%TO.P,J5,2,Pin_2*%
%TO.N,GND*%
X149850000Y-105579999D03*
D15*
%TO.P,J5,1,Pin_1*%
%TO.N,Net-(J5-Pin_1)*%
X149850000Y-106850000D03*
%TD*%
D16*
%TO.P,J9,2,Pin_2*%
%TO.N,Net-(J9-Pin_2)*%
X175000000Y-111250000D03*
D17*
%TO.P,J9,1,Pin_1*%
%TO.N,+BATT*%
X175000000Y-110250000D03*
%TD*%
D10*
%TO.P,Q6,2,E*%
%TO.N,Net-(Q6-E)*%
X180489311Y-110790168D03*
%TO.P,Q6,1,C*%
%TO.N,+3.3V*%
X180600001Y-109525000D03*
%TD*%
D16*
%TO.P,J4,2,Pin_2*%
%TO.N,Net-(J4-Pin_2)*%
X146125000Y-93700000D03*
D17*
%TO.P,J4,1,Pin_1*%
%TO.N,Net-(J4-Pin_1)*%
X146125000Y-92700000D03*
%TD*%
D16*
%TO.P,J3,2,Pin_2*%
%TO.N,Net-(J3-Pin_2)*%
X146250000Y-101825000D03*
D17*
%TO.P,J3,1,Pin_1*%
%TO.N,Net-(J3-Pin_1)*%
X146250000Y-100825000D03*
%TD*%
D18*
%TO.P,J1,4,Pin_4*%
%TO.N,GND*%
X161674600Y-104400000D03*
%TO.P,J1,1,Pin_1*%
%TO.N,+3.3V*%
X167674600Y-104400000D03*
%TD*%
D12*
%TO.P,J7,4,Pin_4*%
%TO.N,/encoder_L/s_VDD*%
X165175000Y-74525000D03*
D13*
%TO.P,J7,1,Pin_1*%
%TO.N,/encoder_L/s_GND*%
X163175000Y-75225000D03*
X161175000Y-75225000D03*
D12*
X159175000Y-74525000D03*
%TD*%
D18*
%TO.P,J6,4,Pin_4*%
%TO.N,GND*%
X167575400Y-90450000D03*
%TO.P,J6,1,Pin_1*%
%TO.N,+3.3V*%
X161575400Y-90450000D03*
%TD*%
D19*
%TO.N,NRST*%
X141775000Y-86350000D03*
X150307124Y-100563733D03*
%TO.N,GND*%
X151399999Y-106900002D03*
X138850000Y-99925000D03*
X159380000Y-85770000D03*
X150250000Y-104650000D03*
X183870000Y-106090000D03*
X196600000Y-107125000D03*
X154225000Y-83950000D03*
X186365000Y-104775000D03*
X143050000Y-112200000D03*
X152350000Y-94975000D03*
X186250000Y-99175000D03*
X142700000Y-81000000D03*
X145875000Y-84750000D03*
X162200000Y-109975000D03*
X158175000Y-103250000D03*
X171840000Y-103690000D03*
X147325000Y-85900000D03*
X142100000Y-106800000D03*
X173700000Y-86740000D03*
X195450000Y-104275000D03*
X174880000Y-83490000D03*
X180425000Y-78950000D03*
X173900000Y-110725000D03*
X183890000Y-104510000D03*
X162550000Y-88825000D03*
X183400000Y-98725000D03*
X195522125Y-100196340D03*
X186490000Y-107300000D03*
X189040000Y-107300000D03*
X166525000Y-91650000D03*
X194775000Y-93147500D03*
X155875000Y-87125000D03*
X172900000Y-91975000D03*
X132175000Y-93525000D03*
X161825000Y-97275000D03*
X172125000Y-82550000D03*
X173730000Y-82550000D03*
X164310000Y-93280000D03*
X144625000Y-112175000D03*
X190275000Y-81425000D03*
X167925000Y-86850000D03*
X185125000Y-79300000D03*
X173750000Y-105625000D03*
X177800000Y-88640000D03*
X148200000Y-86975000D03*
X138825000Y-102925000D03*
X152175000Y-83950000D03*
X179510688Y-81015167D03*
X175025000Y-116000000D03*
X186225000Y-92750000D03*
X188800000Y-102650000D03*
X178170000Y-108690000D03*
X151675000Y-103325000D03*
X164590000Y-89475000D03*
X137600000Y-110850000D03*
X188875000Y-98150000D03*
X135725000Y-100000000D03*
X135750000Y-101475000D03*
X168725000Y-98925000D03*
X138825000Y-101475000D03*
X198250000Y-103225000D03*
X178144833Y-86035691D03*
X177750000Y-91110000D03*
X155525000Y-94944669D03*
X169625000Y-95250000D03*
X177460000Y-104590000D03*
X192922125Y-98871340D03*
X137575000Y-83800000D03*
X155200000Y-108700000D03*
X141975000Y-100025000D03*
X169125000Y-105650000D03*
X161110000Y-84850000D03*
X160650000Y-88800000D03*
X140200000Y-106850000D03*
X192275000Y-87200000D03*
X156850000Y-104700000D03*
X155500000Y-91625000D03*
X175750000Y-112400000D03*
X168725000Y-100525000D03*
X193547125Y-101396340D03*
X188850000Y-92349999D03*
X169325000Y-108750000D03*
X183940000Y-108220000D03*
X183400000Y-91025000D03*
X177820000Y-112400000D03*
X173025000Y-108775000D03*
X139425000Y-98000000D03*
X144125000Y-106775000D03*
X192500000Y-93947500D03*
X167925000Y-88425000D03*
X179135000Y-86000003D03*
X153875000Y-80650000D03*
X159550000Y-97525000D03*
X132125000Y-100700000D03*
X135775000Y-102950000D03*
X191300000Y-91474999D03*
X141975000Y-102875000D03*
X184910000Y-112525000D03*
X181250000Y-103275000D03*
X188875000Y-96575000D03*
X175025000Y-113950000D03*
X140550000Y-100025000D03*
X183425000Y-92750000D03*
X172550000Y-78925000D03*
X162175000Y-108750000D03*
X134150000Y-106000000D03*
X188775000Y-83675000D03*
X175425000Y-78900000D03*
X143950000Y-109675000D03*
X151625000Y-110050000D03*
X191447125Y-102296340D03*
X172125000Y-113200000D03*
X164600000Y-91050000D03*
X195700000Y-93147500D03*
X142075000Y-101400000D03*
X135700000Y-93300000D03*
X144500000Y-95800000D03*
X142000000Y-104400000D03*
X138600000Y-112025000D03*
X186490000Y-108350000D03*
X182250000Y-80950000D03*
X144950000Y-92000000D03*
X148330000Y-80480000D03*
X138775000Y-87900000D03*
X185450000Y-111425000D03*
X181020000Y-86230000D03*
X154050000Y-114325000D03*
X186350000Y-86750000D03*
X137050000Y-88625000D03*
X139500000Y-108650000D03*
X151505000Y-80605000D03*
X177900000Y-115925000D03*
X164744999Y-105400001D03*
X156950000Y-106575000D03*
X173300000Y-100525000D03*
X186525000Y-89375000D03*
X152675000Y-106900000D03*
X142325000Y-85225000D03*
X178185688Y-79640167D03*
X192875000Y-95822500D03*
X172350000Y-96200000D03*
X137225000Y-96250000D03*
X150275000Y-94975000D03*
X188925000Y-94950000D03*
X169375000Y-90450000D03*
X165875000Y-95675000D03*
X178550000Y-106120000D03*
X173750000Y-88500000D03*
X176050000Y-90350000D03*
X167400000Y-84825000D03*
X155000000Y-85750000D03*
X164675000Y-97475000D03*
X176125000Y-110775000D03*
X135775000Y-104425000D03*
X186100000Y-101925000D03*
X188425000Y-86675000D03*
X181400000Y-115175000D03*
X154150000Y-82225000D03*
X183600000Y-113275000D03*
X176725000Y-82625000D03*
X180275000Y-101725000D03*
X158800000Y-105550000D03*
X138850000Y-104425000D03*
X191225000Y-110850000D03*
X162525000Y-86875000D03*
X161675000Y-103150000D03*
X137875000Y-105900000D03*
X188940000Y-104500000D03*
X164675000Y-103050000D03*
X157350000Y-89500000D03*
X166929999Y-97920001D03*
X180700000Y-83025000D03*
X186150000Y-95300000D03*
X160525000Y-86925000D03*
X149475000Y-102025000D03*
X137200000Y-98400000D03*
X150650000Y-109025000D03*
X176325000Y-103450000D03*
X191925000Y-107825000D03*
X148950000Y-111850000D03*
X165850000Y-92925000D03*
X143700000Y-103650000D03*
X149475000Y-102750000D03*
X179550000Y-113620000D03*
X143700000Y-85225000D03*
X142950000Y-87050000D03*
X174475000Y-107300000D03*
X147649999Y-104650002D03*
X176125000Y-107825000D03*
X183500000Y-87325000D03*
X145975000Y-108575000D03*
X135675000Y-91825000D03*
X154950000Y-104662500D03*
X134250000Y-87325000D03*
X178810000Y-83520000D03*
D20*
X146150000Y-111525000D03*
D19*
X198225000Y-91250000D03*
X189000000Y-89350000D03*
X169450000Y-103675000D03*
X143425000Y-95250000D03*
X145275000Y-95250000D03*
X183300000Y-101800000D03*
X148600000Y-106075000D03*
X175980000Y-86200000D03*
X191350000Y-112825000D03*
X176830000Y-87650000D03*
X195500000Y-91397500D03*
X184250000Y-115675000D03*
X155525000Y-98075000D03*
X143525000Y-108725000D03*
X138425000Y-85800000D03*
X140950000Y-95250000D03*
X154875000Y-106900000D03*
X179425000Y-111625000D03*
X134127500Y-98600000D03*
X158800000Y-94925000D03*
X150400000Y-90850000D03*
X151850000Y-114300000D03*
X152000000Y-112175000D03*
X140975000Y-92625000D03*
X176830000Y-84675000D03*
X162775000Y-105600000D03*
X175825000Y-92825000D03*
X144155000Y-83905000D03*
X181069833Y-88210691D03*
X136850000Y-91800000D03*
X134155000Y-90225000D03*
X161575000Y-98825000D03*
X175300000Y-101725000D03*
X145675000Y-114425000D03*
X150125001Y-93019668D03*
X134325000Y-107775000D03*
X166350000Y-105625000D03*
X190575000Y-93297500D03*
X152150000Y-82225000D03*
X196600000Y-87750000D03*
X181300000Y-108525000D03*
X174940000Y-84975000D03*
X151300000Y-100675000D03*
X184350000Y-100250000D03*
X137250000Y-93300000D03*
X134150000Y-96225000D03*
X172675000Y-115350000D03*
X148175000Y-108775000D03*
X195522125Y-98296340D03*
D20*
%TO.N,+3.3V*%
X161250000Y-95025000D03*
X149150000Y-92475000D03*
X154900000Y-103587500D03*
X155350000Y-89750000D03*
X147575000Y-84900000D03*
X167720580Y-100800000D03*
X144420000Y-107805000D03*
D19*
%TO.N,/encoder_R/s_GND*%
X163550000Y-114175000D03*
X159440000Y-113515000D03*
X165025000Y-118850000D03*
X160825000Y-117825000D03*
X162075000Y-115450000D03*
X162600000Y-117950000D03*
X163525000Y-116950000D03*
X164315000Y-114690000D03*
X162175000Y-119675000D03*
X161000000Y-112875000D03*
X163049998Y-112865000D03*
X159850000Y-118525000D03*
X160475000Y-114025000D03*
X159200000Y-112400000D03*
X164175000Y-119675000D03*
X160525000Y-116925000D03*
X160250000Y-119700000D03*
X165175000Y-112400000D03*
%TO.N,/encoder_L/s_GND*%
X164125000Y-76212500D03*
X163575000Y-80700000D03*
X165150000Y-82475000D03*
X160125000Y-75225000D03*
X160575000Y-77850000D03*
X159175000Y-82425000D03*
X159125000Y-79125000D03*
X160600000Y-80575000D03*
X162175000Y-75250000D03*
X162050000Y-79312500D03*
X159865000Y-80077500D03*
X164250000Y-77900000D03*
X160965000Y-81927500D03*
X159150000Y-76275000D03*
X161425000Y-76875000D03*
X163175000Y-81775000D03*
X164075000Y-75250000D03*
X164640000Y-81302500D03*
%TO.N,USER_SW*%
X149388909Y-101175000D03*
X145050000Y-105575000D03*
D20*
%TO.N,Net-(D13-K)*%
X185240000Y-108250000D03*
D19*
%TO.N,IR_RCV_FL*%
X159320191Y-99729809D03*
X187025000Y-94825000D03*
%TO.N,USER_SPEAKER*%
X154150000Y-88225000D03*
X151800000Y-90075000D03*
%TO.N,IR_RCV_FR*%
X187075000Y-99825000D03*
X173411091Y-102538909D03*
%TO.N,IR_RCV_SL*%
X174802500Y-91247500D03*
X160448591Y-99651409D03*
%TO.N,BAT_VOL*%
X153775000Y-100677234D03*
X151825000Y-101750000D03*
%TO.N,USER_LED1*%
X159775000Y-89975000D03*
X150123275Y-86942528D03*
%TO.N,USER_LED2*%
X159200000Y-89474063D03*
X150323275Y-87692528D03*
%TO.N,USER_LED3*%
X158581313Y-89050116D03*
X150825000Y-88250000D03*
%TO.N,USER_LED7*%
X148700000Y-97625000D03*
X139800000Y-100750000D03*
%TO.N,USER_LED8*%
X139800000Y-102200000D03*
X147700000Y-98250000D03*
%TO.N,SPI_SCLK*%
X161125000Y-93525000D03*
X163436397Y-93513603D03*
%TO.N,SPI_CS_IMU*%
X164787806Y-94087194D03*
X161875000Y-94100000D03*
%TO.N,USER_LED9*%
X149405899Y-98890158D03*
X139775000Y-103650000D03*
%TO.N,USER_LED10*%
X139775000Y-105175000D03*
X149325000Y-99850000D03*
%TD*%
D21*
%TO.N,BAT_VOL*%
X151825000Y-101750000D02*
X152702234Y-101750000D01*
X152702234Y-101750000D02*
X153775000Y-100677234D01*
%TO.N,NRST*%
X139075000Y-105950000D02*
X143694974Y-105950000D01*
X149081241Y-100563733D02*
X150307124Y-100563733D01*
X143694974Y-105950000D02*
X149081241Y-100563733D01*
X141775000Y-86350000D02*
X139100000Y-86350000D01*
X137950000Y-104825000D02*
X139075000Y-105950000D01*
X139100000Y-86350000D02*
X137950000Y-87500000D01*
X137950000Y-87500000D02*
X137950000Y-104825000D01*
D22*
%TO.N,+3.3V*%
X157212500Y-103587500D02*
X157900000Y-104275000D01*
X167720580Y-100800000D02*
X167674600Y-100845980D01*
X147625000Y-84850000D02*
X147575000Y-84900000D01*
X158470000Y-84850000D02*
X159800000Y-84850000D01*
X162630000Y-90450000D02*
X161575400Y-90450000D01*
X160475000Y-91550400D02*
X161575400Y-90450000D01*
X150725000Y-90100000D02*
X151350000Y-90725000D01*
X157900000Y-106275000D02*
X157900000Y-106975000D01*
X157900000Y-106975000D02*
X157070000Y-107805000D01*
X149075000Y-84850000D02*
X147625000Y-84850000D01*
X177550001Y-106475000D02*
X167774600Y-106475000D01*
X151255761Y-84850000D02*
X149075000Y-84850000D01*
X167599600Y-106450000D02*
X167674600Y-106375000D01*
X180600001Y-109525000D02*
X177550001Y-106475000D01*
X151255761Y-84850000D02*
X158470000Y-84850000D01*
X154375000Y-90725000D02*
X155350000Y-89750000D01*
X149100000Y-91725000D02*
X149100000Y-84875000D01*
X149100000Y-91725000D02*
X149100000Y-90100000D01*
X157900000Y-104275000D02*
X157900000Y-106275000D01*
X167674600Y-104400000D02*
X167674600Y-106375000D01*
X154900000Y-103587500D02*
X157212500Y-103587500D01*
X151350000Y-90725000D02*
X154375000Y-90725000D01*
X149100000Y-84875000D02*
X149075000Y-84850000D01*
X151255761Y-82370761D02*
X151255761Y-84850000D01*
X167674600Y-100845980D02*
X167674600Y-104400000D01*
X167774600Y-106475000D02*
X167674600Y-106375000D01*
X149100000Y-90100000D02*
X150725000Y-90100000D01*
X150240000Y-81355000D02*
X151255761Y-82370761D01*
X160475000Y-94250000D02*
X160475000Y-91550400D01*
X157070000Y-107805000D02*
X144420000Y-107805000D01*
X149100000Y-92425000D02*
X149150000Y-92475000D01*
X159800000Y-84850000D02*
X161575400Y-86625400D01*
X149100000Y-91725000D02*
X149100000Y-92425000D01*
X161250000Y-95025000D02*
X160475000Y-94250000D01*
X158075000Y-106450000D02*
X157900000Y-106275000D01*
X161575400Y-86625400D02*
X161575400Y-89625000D01*
X158075000Y-106450000D02*
X167599600Y-106450000D01*
%TO.N,/encoder_R/s_GND*%
X163125000Y-119675000D02*
X163175000Y-119625000D01*
X161100000Y-119700000D02*
X161175000Y-119625000D01*
X164125000Y-119625000D02*
X164175000Y-119675000D01*
X163175000Y-119625000D02*
X164125000Y-119625000D01*
X162175000Y-119675000D02*
X163125000Y-119675000D01*
X164525000Y-119675000D02*
X165175000Y-120325000D01*
X160250000Y-119700000D02*
X161100000Y-119700000D01*
X164175000Y-119675000D02*
X164525000Y-119675000D01*
X161175000Y-119625000D02*
X162125000Y-119625000D01*
X162125000Y-119625000D02*
X162175000Y-119675000D01*
%TO.N,/encoder_L/s_GND*%
X162150000Y-75225000D02*
X162175000Y-75250000D01*
X159150000Y-76275000D02*
X159150000Y-74550000D01*
X161175000Y-75225000D02*
X160125000Y-75225000D01*
X163175000Y-75225000D02*
X164050000Y-75225000D01*
X159875000Y-75225000D02*
X159175000Y-74525000D01*
X163150000Y-75250000D02*
X163175000Y-75225000D01*
X159150000Y-74550000D02*
X159175000Y-74525000D01*
X160125000Y-75225000D02*
X159875000Y-75225000D01*
X161175000Y-75225000D02*
X162150000Y-75225000D01*
X162175000Y-75250000D02*
X163150000Y-75250000D01*
X164050000Y-75225000D02*
X164075000Y-75250000D01*
D21*
%TO.N,USER_SW*%
X148964948Y-101175000D02*
X149388909Y-101175000D01*
X145050000Y-105575000D02*
X145050000Y-105089948D01*
X145050000Y-105089948D02*
X148964948Y-101175000D01*
D22*
%TO.N,Net-(D13-K)*%
X180940167Y-112559833D02*
X180310688Y-112559833D01*
X185240000Y-108250000D02*
X185240000Y-108260000D01*
X185240000Y-108260000D02*
X180940167Y-112559833D01*
%TO.N,Net-(D14-K)*%
X189725000Y-102278432D02*
X190379248Y-102932680D01*
X189725000Y-91650000D02*
X189725000Y-102050000D01*
X189725000Y-91650000D02*
X189725000Y-91280392D01*
X189725000Y-102050000D02*
X189725000Y-102278432D01*
X189725000Y-91280392D02*
X190288563Y-90716829D01*
D21*
%TO.N,IR_RCV_FL*%
X184100000Y-91900000D02*
X187025000Y-94825000D01*
X174644974Y-91900000D02*
X184100000Y-91900000D01*
X166294974Y-100250000D02*
X174644974Y-91900000D01*
X159320191Y-99729809D02*
X159840382Y-100250000D01*
X159840382Y-100250000D02*
X166294974Y-100250000D01*
%TO.N,USER_SPEAKER*%
X152225000Y-88225000D02*
X151800000Y-88650000D01*
X151800000Y-88650000D02*
X151800000Y-90075000D01*
X154150000Y-88225000D02*
X152225000Y-88225000D01*
%TO.N,IR_RCV_FR*%
X173411091Y-102538909D02*
X173422182Y-102550000D01*
X173422182Y-102550000D02*
X184350000Y-102550000D01*
X184350000Y-102550000D02*
X187075000Y-99825000D01*
%TO.N,IR_RCV_SL*%
X166398591Y-99651409D02*
X160448591Y-99651409D01*
X174802500Y-91247500D02*
X166398591Y-99651409D01*
%TO.N,USER_LED1*%
X158889878Y-87772220D02*
X159775000Y-88657342D01*
X159775000Y-88657342D02*
X159775000Y-89975000D01*
X155464987Y-87772220D02*
X158889878Y-87772220D01*
X154635295Y-86942528D02*
X155464987Y-87772220D01*
X150123275Y-86942528D02*
X154635295Y-86942528D01*
%TO.N,USER_LED2*%
X150690803Y-87325000D02*
X150323275Y-87692528D01*
X155572793Y-88375000D02*
X154522793Y-87325000D01*
X159200000Y-89474063D02*
X159200000Y-88869364D01*
X154522793Y-87325000D02*
X150690803Y-87325000D01*
X159200000Y-88869364D02*
X158705636Y-88375000D01*
X158705636Y-88375000D02*
X155572793Y-88375000D01*
%TO.N,USER_LED3*%
X158256197Y-88725000D02*
X155427818Y-88725000D01*
X154377818Y-87675000D02*
X151400000Y-87675000D01*
X158581313Y-89050116D02*
X158256197Y-88725000D01*
X151400000Y-87675000D02*
X150825000Y-88250000D01*
X155427818Y-88725000D02*
X154377818Y-87675000D01*
%TO.N,USER_LED7*%
X139800000Y-100750000D02*
X143975000Y-100750000D01*
X143975000Y-100750000D02*
X147100000Y-97625000D01*
X147100000Y-97625000D02*
X148700000Y-97625000D01*
%TO.N,USER_LED8*%
X139800000Y-102200000D02*
X143019974Y-102200000D01*
X146969974Y-98250000D02*
X147700000Y-98250000D01*
X143019974Y-102200000D02*
X146969974Y-98250000D01*
%TO.N,SPI_SCLK*%
X163425000Y-93525000D02*
X163436397Y-93513603D01*
X161125000Y-93525000D02*
X163425000Y-93525000D01*
%TO.N,SPI_CS_IMU*%
X164787806Y-94087194D02*
X164775000Y-94100000D01*
X164775000Y-94100000D02*
X161875000Y-94100000D01*
%TO.N,USER_LED9*%
X142064948Y-103650000D02*
X146824790Y-98890158D01*
X146824790Y-98890158D02*
X149405899Y-98890158D01*
X139775000Y-103650000D02*
X142064948Y-103650000D01*
%TO.N,USER_LED10*%
X149300000Y-99850000D02*
X149325000Y-99850000D01*
X143975000Y-105175000D02*
X149300000Y-99850000D01*
X139775000Y-105175000D02*
X143975000Y-105175000D01*
%TD*%
%TA.AperFunction,Conductor*%
%TO.N,/encoder_R/s_GND*%
G36*
X165329294Y-111950919D02*
G01*
X165351398Y-111956841D01*
X165381303Y-111969228D01*
X165466556Y-112018450D01*
X165492236Y-112038155D01*
X165561845Y-112107764D01*
X165581551Y-112133445D01*
X165630768Y-112218692D01*
X165643156Y-112248598D01*
X165669167Y-112345670D01*
X165673326Y-112373718D01*
X165674934Y-112422974D01*
X165675000Y-112427020D01*
X165675000Y-120276000D01*
X165655315Y-120343039D01*
X165602511Y-120388794D01*
X165551000Y-120400000D01*
X164800222Y-120400000D01*
X164799744Y-120399999D01*
X164799280Y-120399997D01*
X164765322Y-120399865D01*
X164698360Y-120379920D01*
X164652811Y-120326938D01*
X164651273Y-120323386D01*
X164635189Y-120284556D01*
X164565444Y-120214810D01*
X164502047Y-120188550D01*
X164474318Y-120177064D01*
X164474317Y-120177064D01*
X164375683Y-120177064D01*
X164375681Y-120177064D01*
X164284555Y-120214810D01*
X164214812Y-120284554D01*
X164199845Y-120320688D01*
X164156003Y-120375091D01*
X164089709Y-120397155D01*
X164084804Y-120397233D01*
X160258106Y-120382434D01*
X160191144Y-120362490D01*
X160145593Y-120309510D01*
X160144024Y-120305886D01*
X160135189Y-120284556D01*
X160065443Y-120214810D01*
X160002046Y-120188550D01*
X159947642Y-120144708D01*
X159925578Y-120078414D01*
X159925499Y-120073989D01*
X159925499Y-119230143D01*
X159925499Y-119230136D01*
X159925497Y-119230117D01*
X159922586Y-119205012D01*
X159922585Y-119205010D01*
X159922585Y-119205009D01*
X159877206Y-119102235D01*
X159797765Y-119022794D01*
X159694992Y-118977415D01*
X159669868Y-118974500D01*
X158799000Y-118974500D01*
X158731961Y-118954815D01*
X158686206Y-118902011D01*
X158675000Y-118850500D01*
X158675000Y-112427020D01*
X158675066Y-112422977D01*
X158676673Y-112373721D01*
X158676674Y-112373718D01*
X158676673Y-112373717D01*
X158680832Y-112345670D01*
X158706843Y-112248598D01*
X158719229Y-112218696D01*
X158768451Y-112133440D01*
X158788154Y-112107764D01*
X158857766Y-112038152D01*
X158883439Y-112018452D01*
X158968699Y-111969227D01*
X158998601Y-111956841D01*
X159013389Y-111952879D01*
X159020707Y-111950919D01*
X159052796Y-111946695D01*
X165297204Y-111946695D01*
X165329294Y-111950919D01*
G37*
%TD.AperFunction*%
%TD*%
%TA.AperFunction,Conductor*%
%TO.N,/encoder_L/s_GND*%
G36*
X159660528Y-74491380D02*
G01*
X159706283Y-74544184D01*
X159708036Y-74548209D01*
X159715096Y-74565253D01*
X159784746Y-74634903D01*
X159875749Y-74672597D01*
X159974247Y-74672597D01*
X159974249Y-74672597D01*
X160065252Y-74634903D01*
X160134902Y-74565253D01*
X160141949Y-74548239D01*
X160185790Y-74493838D01*
X160252084Y-74471774D01*
X160256509Y-74471695D01*
X164093125Y-74471695D01*
X164160164Y-74491380D01*
X164205919Y-74544184D01*
X164207681Y-74548230D01*
X164214811Y-74565444D01*
X164284556Y-74635189D01*
X164347954Y-74661449D01*
X164402357Y-74705290D01*
X164424422Y-74771584D01*
X164424501Y-74776010D01*
X164424501Y-75619856D01*
X164424502Y-75619882D01*
X164427413Y-75644987D01*
X164427415Y-75644991D01*
X164472793Y-75747764D01*
X164472794Y-75747765D01*
X164552235Y-75827206D01*
X164655009Y-75872585D01*
X164680135Y-75875500D01*
X165415473Y-75875499D01*
X165482512Y-75895183D01*
X165528267Y-75947987D01*
X165539473Y-75999499D01*
X165539473Y-82713518D01*
X165519788Y-82780557D01*
X165503150Y-82801203D01*
X165492350Y-82812002D01*
X165466673Y-82831704D01*
X165381379Y-82880949D01*
X165351473Y-82893336D01*
X165330042Y-82899079D01*
X165297950Y-82903304D01*
X159052055Y-82903304D01*
X159019963Y-82899079D01*
X158998529Y-82893336D01*
X158968621Y-82880948D01*
X158883325Y-82831702D01*
X158857644Y-82811996D01*
X158788003Y-82742355D01*
X158768297Y-82716674D01*
X158766475Y-82713518D01*
X158719049Y-82631374D01*
X158706665Y-82601476D01*
X158680687Y-82504524D01*
X158676518Y-82476122D01*
X158675055Y-82426849D01*
X158675000Y-82423168D01*
X158675000Y-74595695D01*
X158694685Y-74528656D01*
X158747489Y-74482901D01*
X158799000Y-74471695D01*
X159593489Y-74471695D01*
X159660528Y-74491380D01*
G37*
%TD.AperFunction*%
%TD*%
%TA.AperFunction,Conductor*%
%TO.N,GND*%
G36*
X181675336Y-78425001D02*
G01*
X182100858Y-78427532D01*
X182105964Y-78427669D01*
X182956356Y-78468178D01*
X182962205Y-78468596D01*
X183719869Y-78540945D01*
X183809314Y-78549486D01*
X183815174Y-78550187D01*
X184657477Y-78671291D01*
X184663238Y-78672260D01*
X185498812Y-78833304D01*
X185504570Y-78834556D01*
X185822447Y-78911672D01*
X186331542Y-79035177D01*
X186337243Y-79036705D01*
X187153716Y-79276444D01*
X187159312Y-79278233D01*
X187963466Y-79556552D01*
X187968955Y-79558599D01*
X188758983Y-79874879D01*
X188764406Y-79877202D01*
X188820473Y-79902807D01*
X189538413Y-80230679D01*
X189543721Y-80233256D01*
X190300099Y-80623197D01*
X190305257Y-80626014D01*
X190823118Y-80925001D01*
X191042190Y-81051482D01*
X191047229Y-81054554D01*
X191763087Y-81514608D01*
X191767962Y-81517907D01*
X192097640Y-81752670D01*
X192461106Y-82011493D01*
X192465831Y-82015029D01*
X193134731Y-82541057D01*
X193139282Y-82544815D01*
X193782372Y-83102056D01*
X193786739Y-83106026D01*
X194402588Y-83693237D01*
X194406761Y-83697410D01*
X194993972Y-84313259D01*
X194997942Y-84317626D01*
X195555183Y-84960717D01*
X195558941Y-84965268D01*
X196084970Y-85634167D01*
X196088506Y-85638892D01*
X196582083Y-86332023D01*
X196585391Y-86336911D01*
X197045445Y-87052769D01*
X197048517Y-87057808D01*
X197473979Y-87794730D01*
X197476808Y-87799910D01*
X197866737Y-88556268D01*
X197869315Y-88561576D01*
X198222799Y-89335597D01*
X198225123Y-89341023D01*
X198541388Y-90131016D01*
X198543450Y-90136546D01*
X198821764Y-90940680D01*
X198823561Y-90946301D01*
X199063293Y-91762755D01*
X199064821Y-91768456D01*
X199265442Y-92595424D01*
X199266696Y-92601191D01*
X199427733Y-93436731D01*
X199428712Y-93442551D01*
X199549812Y-94284824D01*
X199550513Y-94290684D01*
X199631401Y-95137774D01*
X199631822Y-95143661D01*
X199672329Y-95994006D01*
X199672467Y-95999168D01*
X199674998Y-96424661D01*
X199675000Y-96425399D01*
X199675000Y-98424598D01*
X199674998Y-98425336D01*
X199672466Y-98850830D01*
X199672328Y-98855992D01*
X199631821Y-99706337D01*
X199631400Y-99712224D01*
X199550512Y-100559314D01*
X199549811Y-100565174D01*
X199428712Y-101407447D01*
X199427733Y-101413267D01*
X199266695Y-102248807D01*
X199265441Y-102254574D01*
X199064821Y-103081542D01*
X199063293Y-103087243D01*
X198823558Y-103903704D01*
X198821761Y-103909325D01*
X198543453Y-104713445D01*
X198541391Y-104718975D01*
X198225119Y-105508983D01*
X198222795Y-105514408D01*
X197869319Y-106288413D01*
X197866741Y-106293722D01*
X197476807Y-107050088D01*
X197473978Y-107055268D01*
X197048510Y-107792199D01*
X197045438Y-107797238D01*
X196585396Y-108513078D01*
X196582088Y-108517966D01*
X196088505Y-109211106D01*
X196084969Y-109215831D01*
X195558941Y-109884730D01*
X195555183Y-109889281D01*
X194997942Y-110532372D01*
X194993972Y-110536739D01*
X194406761Y-111152588D01*
X194402588Y-111156761D01*
X193786739Y-111743972D01*
X193782372Y-111747942D01*
X193139281Y-112305183D01*
X193134730Y-112308941D01*
X192465831Y-112834969D01*
X192461106Y-112838505D01*
X191767966Y-113332088D01*
X191763078Y-113335396D01*
X191047238Y-113795438D01*
X191042199Y-113798510D01*
X190305268Y-114223978D01*
X190300088Y-114226807D01*
X189543722Y-114616741D01*
X189538413Y-114619319D01*
X188764408Y-114972795D01*
X188758983Y-114975119D01*
X187968975Y-115291391D01*
X187963445Y-115293453D01*
X187159325Y-115571761D01*
X187153704Y-115573558D01*
X186337243Y-115813293D01*
X186331542Y-115814821D01*
X185504574Y-116015441D01*
X185498807Y-116016695D01*
X184663267Y-116177733D01*
X184657447Y-116178712D01*
X183815174Y-116299811D01*
X183809314Y-116300512D01*
X182962224Y-116381400D01*
X182956337Y-116381821D01*
X182105992Y-116422328D01*
X182100830Y-116422466D01*
X181675336Y-116424998D01*
X181674598Y-116425000D01*
X172676439Y-116425000D01*
X172673602Y-116424968D01*
X172670959Y-116424907D01*
X172587503Y-116422997D01*
X172566150Y-116420646D01*
X172395947Y-116386791D01*
X172372685Y-116379735D01*
X172213668Y-116313867D01*
X172192231Y-116302408D01*
X172049126Y-116206789D01*
X172030335Y-116191368D01*
X171908631Y-116069664D01*
X171893210Y-116050873D01*
X171797591Y-115907768D01*
X171786132Y-115886331D01*
X171720261Y-115727307D01*
X171713210Y-115704059D01*
X171679352Y-115533845D01*
X171677002Y-115512496D01*
X171675031Y-115426397D01*
X171674999Y-115423559D01*
X171674999Y-115090167D01*
X179234127Y-115090167D01*
X179252815Y-115267972D01*
X179252816Y-115267974D01*
X179308059Y-115437996D01*
X179308062Y-115438002D01*
X179397453Y-115592832D01*
X179409996Y-115606762D01*
X179517076Y-115725688D01*
X179517079Y-115725690D01*
X179517082Y-115725693D01*
X179661719Y-115830779D01*
X179825045Y-115903496D01*
X179999921Y-115940667D01*
X179999922Y-115940667D01*
X180178701Y-115940667D01*
X180178703Y-115940667D01*
X180353579Y-115903496D01*
X180516905Y-115830779D01*
X180661542Y-115725693D01*
X180681022Y-115704059D01*
X180687460Y-115696908D01*
X180781171Y-115592832D01*
X180870562Y-115438002D01*
X180925809Y-115267970D01*
X180944497Y-115090167D01*
X180925809Y-114912364D01*
X180870562Y-114742332D01*
X180781171Y-114587502D01*
X180714743Y-114513726D01*
X180661547Y-114454645D01*
X180661544Y-114454643D01*
X180661543Y-114454642D01*
X180661542Y-114454641D01*
X180516905Y-114349555D01*
X180353579Y-114276838D01*
X180353577Y-114276837D01*
X180225906Y-114249700D01*
X180178703Y-114239667D01*
X179999921Y-114239667D01*
X179969266Y-114246182D01*
X179825045Y-114276837D01*
X179825040Y-114276839D01*
X179661720Y-114349554D01*
X179517080Y-114454642D01*
X179397452Y-114587503D01*
X179308062Y-114742331D01*
X179308059Y-114742337D01*
X179252816Y-114912359D01*
X179252815Y-114912361D01*
X179234127Y-115090167D01*
X171674999Y-115090167D01*
X171674999Y-111425021D01*
X171674999Y-111425000D01*
X171672750Y-111326730D01*
X171657487Y-111249996D01*
X174269909Y-111249996D01*
X174269909Y-111250003D01*
X174288212Y-111412455D01*
X174342210Y-111566774D01*
X174365285Y-111603497D01*
X174429192Y-111705204D01*
X174544796Y-111820808D01*
X174683225Y-111907789D01*
X174837539Y-111961786D01*
X174837542Y-111961786D01*
X174837544Y-111961787D01*
X174999996Y-111980091D01*
X175000000Y-111980091D01*
X175000004Y-111980091D01*
X175162455Y-111961787D01*
X175162456Y-111961786D01*
X175162461Y-111961786D01*
X175316775Y-111907789D01*
X175455204Y-111820808D01*
X175570808Y-111705204D01*
X175657789Y-111566775D01*
X175711786Y-111412461D01*
X175712271Y-111408156D01*
X175730091Y-111250003D01*
X175730091Y-111249996D01*
X175711787Y-111087544D01*
X175711786Y-111087542D01*
X175711786Y-111087539D01*
X175669948Y-110967973D01*
X175665292Y-110954666D01*
X175661731Y-110884887D01*
X175673379Y-110858636D01*
X175672565Y-110858277D01*
X175722583Y-110744995D01*
X175722585Y-110744991D01*
X175725500Y-110719865D01*
X175725499Y-109780136D01*
X175724357Y-109770286D01*
X175722586Y-109755012D01*
X175722585Y-109755010D01*
X175722585Y-109755009D01*
X175677206Y-109652235D01*
X175597765Y-109572794D01*
X175597763Y-109572793D01*
X175494992Y-109527415D01*
X175469865Y-109524500D01*
X174530143Y-109524500D01*
X174530117Y-109524502D01*
X174505012Y-109527413D01*
X174505008Y-109527415D01*
X174402235Y-109572793D01*
X174322794Y-109652234D01*
X174277415Y-109755006D01*
X174277415Y-109755008D01*
X174274500Y-109780131D01*
X174274500Y-110719856D01*
X174274502Y-110719882D01*
X174277413Y-110744987D01*
X174277415Y-110744991D01*
X174327435Y-110858276D01*
X174325075Y-110859317D01*
X174341612Y-110910064D01*
X174334708Y-110954666D01*
X174288212Y-111087544D01*
X174269909Y-111249996D01*
X171657487Y-111249996D01*
X171634407Y-111133967D01*
X171559194Y-110952388D01*
X171559192Y-110952385D01*
X171559190Y-110952381D01*
X171450002Y-110788971D01*
X171311028Y-110649996D01*
X171147614Y-110540807D01*
X171147613Y-110540806D01*
X171147611Y-110540805D01*
X171147608Y-110540803D01*
X171147603Y-110540801D01*
X170966032Y-110465593D01*
X170966023Y-110465590D01*
X170773273Y-110427250D01*
X170773263Y-110427249D01*
X170675018Y-110424998D01*
X162753556Y-110424998D01*
X162712959Y-110447166D01*
X162686601Y-110450000D01*
X161339328Y-110450000D01*
X161272289Y-110430315D01*
X161265692Y-110424999D01*
X161262965Y-110424999D01*
X155674999Y-110424999D01*
X155576745Y-110427407D01*
X155576743Y-110427407D01*
X155576735Y-110427408D01*
X155384019Y-110465742D01*
X155384007Y-110465745D01*
X155202468Y-110540940D01*
X155202455Y-110540947D01*
X155039071Y-110650118D01*
X155039067Y-110650121D01*
X154900120Y-110789068D01*
X154900117Y-110789072D01*
X154790947Y-110952456D01*
X154790942Y-110952466D01*
X154715743Y-111134012D01*
X154715741Y-111134020D01*
X154677407Y-111326736D01*
X154677406Y-111326744D01*
X154677406Y-111326746D01*
X154675306Y-111412455D01*
X154674998Y-111425009D01*
X154674999Y-113923559D01*
X154674967Y-113926396D01*
X154672997Y-114012493D01*
X154670646Y-114033847D01*
X154636790Y-114204053D01*
X154629734Y-114227314D01*
X154563870Y-114386325D01*
X154552411Y-114407764D01*
X154456789Y-114550872D01*
X154441369Y-114569662D01*
X154319664Y-114691368D01*
X154300873Y-114706789D01*
X154157768Y-114802409D01*
X154136330Y-114813868D01*
X153977315Y-114879735D01*
X153954053Y-114886791D01*
X153783850Y-114920646D01*
X153762496Y-114922997D01*
X153676399Y-114924967D01*
X153673562Y-114924999D01*
X146675351Y-114924999D01*
X146674540Y-114924996D01*
X146285125Y-114922448D01*
X146279446Y-114922281D01*
X145501160Y-114881493D01*
X145494689Y-114880984D01*
X144719988Y-114799560D01*
X144713551Y-114798712D01*
X143944205Y-114676858D01*
X143937822Y-114675675D01*
X143175906Y-114513726D01*
X143169593Y-114512211D01*
X142417168Y-114310599D01*
X142410944Y-114308755D01*
X141670129Y-114068050D01*
X141664009Y-114065883D01*
X140936795Y-113786731D01*
X140930798Y-113784247D01*
X140219193Y-113467421D01*
X140213333Y-113464626D01*
X139519277Y-113110986D01*
X139513572Y-113107888D01*
X138872284Y-112737640D01*
X138838980Y-112718412D01*
X138833452Y-112715024D01*
X138180163Y-112290773D01*
X138174822Y-112287102D01*
X138172738Y-112285588D01*
X137989145Y-112152200D01*
X146422459Y-112152200D01*
X146442563Y-112285587D01*
X146442564Y-112285589D01*
X146453810Y-112308941D01*
X146501093Y-112407127D01*
X146592844Y-112506010D01*
X146592845Y-112506011D01*
X146709668Y-112573459D01*
X146841182Y-112603476D01*
X146975700Y-112593395D01*
X147101271Y-112544112D01*
X147206736Y-112460006D01*
X147282726Y-112348550D01*
X147322487Y-112219648D01*
X147325000Y-112152200D01*
X149422459Y-112152200D01*
X149442563Y-112285587D01*
X149442564Y-112285589D01*
X149453810Y-112308941D01*
X149501093Y-112407127D01*
X149592844Y-112506010D01*
X149592845Y-112506011D01*
X149709668Y-112573459D01*
X149841182Y-112603476D01*
X149975700Y-112593395D01*
X150101271Y-112544112D01*
X150206736Y-112460006D01*
X150282726Y-112348550D01*
X150322487Y-112219648D01*
X150325000Y-112152200D01*
X150322487Y-112084752D01*
X150282726Y-111955850D01*
X150206736Y-111844394D01*
X150149044Y-111798386D01*
X150101271Y-111760287D01*
X149975698Y-111711004D01*
X149975700Y-111711004D01*
X149841183Y-111700923D01*
X149709668Y-111730941D01*
X149709665Y-111730942D01*
X149592849Y-111798386D01*
X149592844Y-111798389D01*
X149501093Y-111897272D01*
X149442564Y-112018811D01*
X149442563Y-112018812D01*
X149422459Y-112152200D01*
X147325000Y-112152200D01*
X147322487Y-112084752D01*
X147282726Y-111955850D01*
X147206736Y-111844394D01*
X147149044Y-111798386D01*
X147101271Y-111760287D01*
X146975698Y-111711004D01*
X146975700Y-111711004D01*
X146841183Y-111700923D01*
X146709668Y-111730941D01*
X146709665Y-111730942D01*
X146592849Y-111798386D01*
X146592844Y-111798389D01*
X146501093Y-111897272D01*
X146442564Y-112018811D01*
X146442563Y-112018812D01*
X146422459Y-112152200D01*
X137989145Y-112152200D01*
X137544645Y-111829251D01*
X137539495Y-111825300D01*
X137446507Y-111750000D01*
X140422408Y-111750000D01*
X140442866Y-111872603D01*
X140502023Y-111981918D01*
X140502025Y-111981921D01*
X140502026Y-111981922D01*
X140593476Y-112066108D01*
X140707307Y-112116038D01*
X140778092Y-112121903D01*
X140831178Y-112126303D01*
X140831178Y-112126302D01*
X140831181Y-112126303D01*
X140951677Y-112095789D01*
X141055736Y-112027804D01*
X141132083Y-111929714D01*
X141172443Y-111812150D01*
X141175000Y-111750000D01*
X141174915Y-111747942D01*
X141172443Y-111687854D01*
X141172443Y-111687850D01*
X141132083Y-111570286D01*
X141055736Y-111472196D01*
X141055732Y-111472193D01*
X140951681Y-111404213D01*
X140951680Y-111404212D01*
X140951677Y-111404211D01*
X140831181Y-111373697D01*
X140831180Y-111373697D01*
X140831176Y-111373696D01*
X140707311Y-111383961D01*
X140707305Y-111383962D01*
X140593478Y-111433890D01*
X140502025Y-111518078D01*
X140502023Y-111518081D01*
X140442866Y-111627396D01*
X140422408Y-111750000D01*
X137446507Y-111750000D01*
X136934129Y-111335084D01*
X136929193Y-111330868D01*
X136350320Y-110809649D01*
X136345611Y-110805180D01*
X135794818Y-110254387D01*
X135790349Y-110249678D01*
X135520518Y-109950000D01*
X140422408Y-109950000D01*
X140442866Y-110072603D01*
X140502023Y-110181918D01*
X140502025Y-110181921D01*
X140502026Y-110181922D01*
X140593476Y-110266108D01*
X140707307Y-110316038D01*
X140778092Y-110321903D01*
X140831178Y-110326303D01*
X140831178Y-110326302D01*
X140831181Y-110326303D01*
X140951677Y-110295789D01*
X141055736Y-110227804D01*
X141132083Y-110129714D01*
X141172443Y-110012150D01*
X141175000Y-109950000D01*
X141172443Y-109887850D01*
X141132083Y-109770286D01*
X141055736Y-109672196D01*
X141055732Y-109672193D01*
X140951681Y-109604213D01*
X140951680Y-109604212D01*
X140951677Y-109604211D01*
X140831181Y-109573697D01*
X140831180Y-109573697D01*
X140831176Y-109573696D01*
X140707311Y-109583961D01*
X140707305Y-109583962D01*
X140593478Y-109633890D01*
X140502025Y-109718078D01*
X140502023Y-109718081D01*
X140442866Y-109827396D01*
X140422408Y-109950000D01*
X135520518Y-109950000D01*
X135269130Y-109670805D01*
X135264914Y-109665869D01*
X134896654Y-109211106D01*
X134774693Y-109060497D01*
X134770746Y-109055352D01*
X134312885Y-108425160D01*
X134309230Y-108419843D01*
X133909946Y-107805000D01*
X143714355Y-107805000D01*
X143734859Y-107973869D01*
X143734860Y-107973874D01*
X143795182Y-108132931D01*
X143845272Y-108205497D01*
X143891817Y-108272929D01*
X143963782Y-108336684D01*
X144019150Y-108385736D01*
X144136159Y-108447147D01*
X144169775Y-108464790D01*
X144334944Y-108505500D01*
X144505056Y-108505500D01*
X144670225Y-108464790D01*
X144820852Y-108385734D01*
X144876218Y-108336683D01*
X144939451Y-108306963D01*
X144958445Y-108305500D01*
X152892090Y-108305500D01*
X152959129Y-108325185D01*
X153004884Y-108377989D01*
X153014828Y-108447147D01*
X152998455Y-108491733D01*
X152998499Y-108491754D01*
X152998284Y-108492199D01*
X152997082Y-108495474D01*
X152995479Y-108498024D01*
X152917504Y-108659940D01*
X152877515Y-108835141D01*
X152877515Y-109014858D01*
X152917504Y-109190059D01*
X152995476Y-109351969D01*
X152995477Y-109351970D01*
X152995478Y-109351972D01*
X153107525Y-109492475D01*
X153248028Y-109604522D01*
X153409941Y-109682496D01*
X153585145Y-109722485D01*
X153764853Y-109722485D01*
X153764855Y-109722485D01*
X153940059Y-109682496D01*
X154101972Y-109604522D01*
X154242475Y-109492475D01*
X154354522Y-109351972D01*
X154432496Y-109190059D01*
X154472485Y-109014855D01*
X154474207Y-108953334D01*
X154475000Y-108925016D01*
X154475000Y-108924983D01*
X154472485Y-108835152D01*
X154472485Y-108835145D01*
X154472484Y-108835141D01*
X169877516Y-108835141D01*
X169877516Y-109014858D01*
X169917505Y-109190059D01*
X169995477Y-109351969D01*
X169995478Y-109351970D01*
X169995479Y-109351972D01*
X170107526Y-109492475D01*
X170248029Y-109604522D01*
X170409942Y-109682496D01*
X170585146Y-109722485D01*
X170764854Y-109722485D01*
X170764856Y-109722485D01*
X170940060Y-109682496D01*
X171101973Y-109604522D01*
X171242476Y-109492475D01*
X171354523Y-109351972D01*
X171432497Y-109190059D01*
X171472486Y-109014855D01*
X171474208Y-108953334D01*
X171475001Y-108925016D01*
X171475001Y-108924983D01*
X171472486Y-108835152D01*
X171472486Y-108835145D01*
X171432497Y-108659941D01*
X171354523Y-108498028D01*
X171242476Y-108357525D01*
X171101973Y-108245478D01*
X171101971Y-108245477D01*
X171101970Y-108245476D01*
X170940060Y-108167504D01*
X170764859Y-108127515D01*
X170764856Y-108127515D01*
X170585146Y-108127515D01*
X170585142Y-108127515D01*
X170409941Y-108167504D01*
X170248031Y-108245476D01*
X170107526Y-108357525D01*
X169995477Y-108498030D01*
X169917505Y-108659940D01*
X169877516Y-108835141D01*
X154472484Y-108835141D01*
X154432496Y-108659941D01*
X154354522Y-108498028D01*
X154354521Y-108498027D01*
X154354520Y-108498024D01*
X154352918Y-108495474D01*
X154352386Y-108493591D01*
X154351501Y-108491754D01*
X154351822Y-108491598D01*
X154333916Y-108428238D01*
X154354282Y-108361402D01*
X154407549Y-108316187D01*
X154457910Y-108305500D01*
X157135890Y-108305500D01*
X157135892Y-108305500D01*
X157263186Y-108271392D01*
X157377314Y-108205500D01*
X158197104Y-107385707D01*
X158197109Y-107385704D01*
X158207312Y-107375500D01*
X158207314Y-107375500D01*
X158300500Y-107282314D01*
X158366392Y-107168186D01*
X158372548Y-107145210D01*
X158400094Y-107042406D01*
X158436459Y-106982746D01*
X158499306Y-106952217D01*
X158519869Y-106950500D01*
X167533708Y-106950500D01*
X167599080Y-106950500D01*
X167631173Y-106954725D01*
X167645816Y-106958648D01*
X167708707Y-106975500D01*
X167708708Y-106975500D01*
X177291325Y-106975500D01*
X177358364Y-106995185D01*
X177379006Y-107011819D01*
X179717009Y-109349822D01*
X179750494Y-109411145D01*
X179752649Y-109450463D01*
X179744868Y-109524501D01*
X179744816Y-109525000D01*
X179753142Y-109604212D01*
X179763504Y-109702805D01*
X179763505Y-109702807D01*
X179818748Y-109872829D01*
X179818750Y-109872832D01*
X179818751Y-109872835D01*
X179863302Y-109950000D01*
X179911257Y-110033061D01*
X179927729Y-110100961D01*
X179904876Y-110166988D01*
X179896019Y-110178032D01*
X179797451Y-110287503D01*
X179708061Y-110442332D01*
X179708058Y-110442338D01*
X179652815Y-110612360D01*
X179652814Y-110612362D01*
X179634126Y-110790168D01*
X179652814Y-110967973D01*
X179652815Y-110967975D01*
X179708058Y-111137997D01*
X179708061Y-111138003D01*
X179797452Y-111292833D01*
X179804644Y-111300820D01*
X179917075Y-111425689D01*
X179917078Y-111425691D01*
X179917081Y-111425694D01*
X179981081Y-111472193D01*
X180066250Y-111534073D01*
X180108916Y-111589404D01*
X180114894Y-111659017D01*
X180082288Y-111720812D01*
X180043800Y-111747670D01*
X179883096Y-111819220D01*
X179738456Y-111924308D01*
X179618828Y-112057169D01*
X179529438Y-112211997D01*
X179529435Y-112212003D01*
X179474192Y-112382025D01*
X179474191Y-112382027D01*
X179455503Y-112559833D01*
X179474191Y-112737638D01*
X179474192Y-112737640D01*
X179529435Y-112907662D01*
X179529438Y-112907668D01*
X179618829Y-113062498D01*
X179659698Y-113107888D01*
X179738452Y-113195354D01*
X179738455Y-113195356D01*
X179738458Y-113195359D01*
X179883095Y-113300445D01*
X180046421Y-113373162D01*
X180221297Y-113410333D01*
X180221298Y-113410333D01*
X180400077Y-113410333D01*
X180400079Y-113410333D01*
X180574955Y-113373162D01*
X180738281Y-113300445D01*
X180882918Y-113195359D01*
X180979424Y-113088177D01*
X181038908Y-113051532D01*
X181039164Y-113051462D01*
X181133353Y-113026225D01*
X181247481Y-112960333D01*
X185220995Y-108986819D01*
X185282318Y-108953334D01*
X185308676Y-108950500D01*
X185325056Y-108950500D01*
X185490225Y-108909790D01*
X185569692Y-108868081D01*
X185640849Y-108830736D01*
X185640850Y-108830734D01*
X185640852Y-108830734D01*
X185768183Y-108717929D01*
X185864818Y-108577930D01*
X185925140Y-108418872D01*
X185945645Y-108250000D01*
X185925140Y-108081128D01*
X185864818Y-107922070D01*
X185768183Y-107782071D01*
X185640852Y-107669266D01*
X185640849Y-107669263D01*
X185490226Y-107590210D01*
X185325056Y-107549500D01*
X185154944Y-107549500D01*
X184989773Y-107590210D01*
X184839150Y-107669263D01*
X184711816Y-107782072D01*
X184615182Y-107922068D01*
X184554860Y-108081125D01*
X184554859Y-108081131D01*
X184538430Y-108216435D01*
X184510808Y-108280613D01*
X184503015Y-108289169D01*
X181412529Y-111379655D01*
X181351206Y-111413140D01*
X181281514Y-111408156D01*
X181225581Y-111366284D01*
X181201164Y-111300820D01*
X181216016Y-111232547D01*
X181217439Y-111230012D01*
X181270561Y-111138003D01*
X181325808Y-110967971D01*
X181344496Y-110790168D01*
X181325808Y-110612365D01*
X181278118Y-110465590D01*
X181270563Y-110442338D01*
X181270560Y-110442332D01*
X181261852Y-110427250D01*
X181181170Y-110287503D01*
X181178055Y-110282107D01*
X181161582Y-110214206D01*
X181184435Y-110148180D01*
X181193281Y-110137147D01*
X181291860Y-110027665D01*
X181381251Y-109872835D01*
X181436498Y-109702803D01*
X181455186Y-109525000D01*
X181436498Y-109347197D01*
X181408874Y-109262181D01*
X181381253Y-109177170D01*
X181381250Y-109177164D01*
X181291860Y-109022335D01*
X181229731Y-108953334D01*
X181172236Y-108889478D01*
X181172233Y-108889476D01*
X181172232Y-108889475D01*
X181172231Y-108889474D01*
X181027594Y-108784388D01*
X180864268Y-108711671D01*
X180864266Y-108711670D01*
X180733343Y-108683842D01*
X180689392Y-108674500D01*
X180510610Y-108674500D01*
X180508677Y-108674500D01*
X180441638Y-108654815D01*
X180420996Y-108638181D01*
X177857317Y-106074502D01*
X177857315Y-106074500D01*
X177800251Y-106041554D01*
X177743188Y-106008608D01*
X177679540Y-105991554D01*
X177615893Y-105974500D01*
X177615892Y-105974500D01*
X168299100Y-105974500D01*
X168232061Y-105954815D01*
X168186306Y-105902011D01*
X168175100Y-105850500D01*
X168175100Y-105697533D01*
X168194785Y-105630494D01*
X168247589Y-105584739D01*
X168279696Y-105575061D01*
X168305718Y-105570940D01*
X168485432Y-105512547D01*
X168653799Y-105426760D01*
X168806673Y-105315690D01*
X168940290Y-105182073D01*
X169051360Y-105029199D01*
X169137147Y-104860832D01*
X169195540Y-104681118D01*
X169200395Y-104650463D01*
X169225100Y-104494486D01*
X169225100Y-104305513D01*
X169195540Y-104118881D01*
X169147321Y-103970480D01*
X169137147Y-103939168D01*
X169137145Y-103939165D01*
X169137145Y-103939163D01*
X169051359Y-103770800D01*
X169040878Y-103756374D01*
X168940290Y-103617927D01*
X168806673Y-103484310D01*
X168653799Y-103373240D01*
X168485432Y-103287453D01*
X168305718Y-103229060D01*
X168305716Y-103229059D01*
X168279701Y-103224939D01*
X168216566Y-103195009D01*
X168179636Y-103135697D01*
X168175100Y-103102466D01*
X168175100Y-102538907D01*
X172805409Y-102538907D01*
X172805409Y-102538910D01*
X172826046Y-102695669D01*
X172826047Y-102695671D01*
X172870970Y-102804126D01*
X172886555Y-102841750D01*
X172982809Y-102967191D01*
X173108250Y-103063445D01*
X173254329Y-103123953D01*
X173332710Y-103134272D01*
X173411090Y-103144591D01*
X173411091Y-103144591D01*
X173411092Y-103144591D01*
X173478648Y-103135697D01*
X173567853Y-103123953D01*
X173713932Y-103063445D01*
X173787798Y-103006766D01*
X173827732Y-102976124D01*
X173892901Y-102950930D01*
X173903218Y-102950500D01*
X184402725Y-102950500D01*
X184402727Y-102950500D01*
X184504588Y-102923207D01*
X184595913Y-102870480D01*
X186999991Y-100466400D01*
X187061312Y-100432917D01*
X187071485Y-100431144D01*
X187074997Y-100430681D01*
X187075000Y-100430682D01*
X187231762Y-100410044D01*
X187377841Y-100349536D01*
X187503282Y-100253282D01*
X187599536Y-100127841D01*
X187660044Y-99981762D01*
X187674835Y-99869413D01*
X187680682Y-99825001D01*
X187680682Y-99824998D01*
X187663335Y-99693237D01*
X187660044Y-99668238D01*
X187599536Y-99522159D01*
X187503282Y-99396718D01*
X187377841Y-99300464D01*
X187354167Y-99290658D01*
X187231762Y-99239956D01*
X187231760Y-99239955D01*
X187075001Y-99219318D01*
X187074999Y-99219318D01*
X186918239Y-99239955D01*
X186918237Y-99239956D01*
X186772160Y-99300463D01*
X186646718Y-99396718D01*
X186550463Y-99522160D01*
X186489956Y-99668237D01*
X186489956Y-99668238D01*
X186468855Y-99828513D01*
X186440588Y-99892409D01*
X186433597Y-99900008D01*
X184220426Y-102113181D01*
X184159103Y-102146666D01*
X184132745Y-102149500D01*
X173929608Y-102149500D01*
X173862569Y-102129815D01*
X173841927Y-102113181D01*
X173839377Y-102110631D01*
X173839374Y-102110629D01*
X173839373Y-102110627D01*
X173713932Y-102014373D01*
X173648946Y-101987455D01*
X173567853Y-101953865D01*
X173567851Y-101953864D01*
X173411092Y-101933227D01*
X173411090Y-101933227D01*
X173254330Y-101953864D01*
X173254328Y-101953865D01*
X173108251Y-102014372D01*
X172982809Y-102110627D01*
X172886554Y-102236069D01*
X172826047Y-102382146D01*
X172826046Y-102382148D01*
X172805409Y-102538907D01*
X168175100Y-102538907D01*
X168175100Y-101388996D01*
X168194785Y-101321957D01*
X168216874Y-101296180D01*
X168248762Y-101267930D01*
X168252664Y-101262278D01*
X168345398Y-101127930D01*
X168405720Y-100968872D01*
X168426225Y-100800000D01*
X168405720Y-100631128D01*
X168345398Y-100472070D01*
X168318372Y-100432917D01*
X168302584Y-100410044D01*
X168248763Y-100332071D01*
X168128427Y-100225463D01*
X168121429Y-100219263D01*
X167970806Y-100140210D01*
X167805636Y-100099500D01*
X167635524Y-100099500D01*
X167470353Y-100140210D01*
X167319730Y-100219263D01*
X167192396Y-100332072D01*
X167095762Y-100472068D01*
X167035440Y-100631125D01*
X167035439Y-100631130D01*
X167014935Y-100800000D01*
X167035439Y-100968869D01*
X167035440Y-100968874D01*
X167095762Y-101127931D01*
X167152150Y-101209622D01*
X167174033Y-101275976D01*
X167174100Y-101280062D01*
X167174100Y-103102466D01*
X167154415Y-103169505D01*
X167101611Y-103215260D01*
X167069499Y-103224939D01*
X167043484Y-103229059D01*
X166863765Y-103287454D01*
X166695400Y-103373240D01*
X166616738Y-103430392D01*
X166542527Y-103484310D01*
X166542525Y-103484312D01*
X166542524Y-103484312D01*
X166408912Y-103617924D01*
X166408912Y-103617925D01*
X166408910Y-103617927D01*
X166385607Y-103650001D01*
X166297840Y-103770800D01*
X166212054Y-103939163D01*
X166153659Y-104118881D01*
X166124100Y-104305513D01*
X166124100Y-104494486D01*
X166153659Y-104681118D01*
X166212054Y-104860836D01*
X166292255Y-105018237D01*
X166297840Y-105029199D01*
X166408910Y-105182073D01*
X166542527Y-105315690D01*
X166695401Y-105426760D01*
X166774947Y-105467290D01*
X166863763Y-105512545D01*
X166863765Y-105512545D01*
X166863768Y-105512547D01*
X166967576Y-105546276D01*
X167043475Y-105570938D01*
X167043476Y-105570938D01*
X167043482Y-105570940D01*
X167069499Y-105575060D01*
X167132631Y-105604988D01*
X167169563Y-105664299D01*
X167174100Y-105697533D01*
X167174100Y-105825500D01*
X167154415Y-105892539D01*
X167101611Y-105938294D01*
X167050100Y-105949500D01*
X158524500Y-105949500D01*
X158457461Y-105929815D01*
X158411706Y-105877011D01*
X158400500Y-105825500D01*
X158400500Y-104209110D01*
X158400500Y-104209108D01*
X158366392Y-104081814D01*
X158300500Y-103967686D01*
X158207314Y-103874500D01*
X157519814Y-103187000D01*
X157430955Y-103135697D01*
X157405687Y-103121108D01*
X157336112Y-103102466D01*
X157278392Y-103087000D01*
X157278391Y-103087000D01*
X155438445Y-103087000D01*
X155371406Y-103067315D01*
X155356218Y-103055816D01*
X155300852Y-103006766D01*
X155300850Y-103006765D01*
X155300849Y-103006764D01*
X155150226Y-102927710D01*
X154985056Y-102887000D01*
X154814944Y-102887000D01*
X154649773Y-102927710D01*
X154499150Y-103006763D01*
X154371816Y-103119572D01*
X154275182Y-103259568D01*
X154214860Y-103418625D01*
X154214859Y-103418630D01*
X154194355Y-103587500D01*
X154214859Y-103756369D01*
X154214860Y-103756374D01*
X154275182Y-103915431D01*
X154337475Y-104005677D01*
X154371817Y-104055429D01*
X154443440Y-104118881D01*
X154499150Y-104168236D01*
X154626442Y-104235044D01*
X154649775Y-104247290D01*
X154814944Y-104288000D01*
X154985056Y-104288000D01*
X155150225Y-104247290D01*
X155300852Y-104168234D01*
X155356218Y-104119183D01*
X155419451Y-104089463D01*
X155438445Y-104088000D01*
X156953824Y-104088000D01*
X157020863Y-104107685D01*
X157041505Y-104124319D01*
X157363181Y-104445995D01*
X157396666Y-104507318D01*
X157399500Y-104533676D01*
X157399500Y-106716324D01*
X157379815Y-106783363D01*
X157363181Y-106804005D01*
X156899005Y-107268181D01*
X156837682Y-107301666D01*
X156811324Y-107304500D01*
X150774500Y-107304500D01*
X150707461Y-107284815D01*
X150661706Y-107232011D01*
X150650500Y-107180500D01*
X150650499Y-106305143D01*
X150650499Y-106305137D01*
X150650499Y-106305136D01*
X150650497Y-106305117D01*
X150647586Y-106280012D01*
X150647585Y-106280010D01*
X150647585Y-106280009D01*
X150602206Y-106177235D01*
X150522765Y-106097794D01*
X150522763Y-106097793D01*
X150419992Y-106052415D01*
X150394865Y-106049500D01*
X149305143Y-106049500D01*
X149305117Y-106049502D01*
X149280012Y-106052413D01*
X149280008Y-106052415D01*
X149177235Y-106097793D01*
X149097794Y-106177234D01*
X149052415Y-106280006D01*
X149052415Y-106280008D01*
X149052415Y-106280009D01*
X149049500Y-106305135D01*
X149049500Y-106804005D01*
X149049501Y-107180500D01*
X149029817Y-107247539D01*
X148977013Y-107293294D01*
X148925501Y-107304500D01*
X144958445Y-107304500D01*
X144891406Y-107284815D01*
X144876218Y-107273316D01*
X144870422Y-107268181D01*
X144820852Y-107224266D01*
X144820850Y-107224265D01*
X144820849Y-107224264D01*
X144670226Y-107145210D01*
X144505056Y-107104500D01*
X144334944Y-107104500D01*
X144169773Y-107145210D01*
X144019150Y-107224263D01*
X143891816Y-107337072D01*
X143795182Y-107477068D01*
X143734860Y-107636125D01*
X143734859Y-107636130D01*
X143714355Y-107805000D01*
X133909946Y-107805000D01*
X133884963Y-107766529D01*
X133881593Y-107761030D01*
X133492111Y-107086426D01*
X133489013Y-107080721D01*
X133303343Y-106716324D01*
X133135364Y-106386648D01*
X133132586Y-106380822D01*
X132815750Y-105669196D01*
X132813268Y-105663203D01*
X132790921Y-105604988D01*
X132534111Y-104935977D01*
X132531949Y-104929869D01*
X132513198Y-104872160D01*
X132291240Y-104189043D01*
X132289400Y-104182830D01*
X132285490Y-104168236D01*
X132087785Y-103430392D01*
X132086273Y-103424092D01*
X132051302Y-103259568D01*
X131944585Y-102757502D01*
X131924323Y-102662176D01*
X131923140Y-102655793D01*
X131910644Y-102576902D01*
X131801282Y-101886415D01*
X131800442Y-101880039D01*
X131719013Y-101105288D01*
X131718508Y-101098863D01*
X131677717Y-100320538D01*
X131677551Y-100314874D01*
X131677365Y-100286539D01*
X131675001Y-99925458D01*
X131674998Y-99924646D01*
X131674998Y-94925352D01*
X131675001Y-94924541D01*
X131676143Y-94749988D01*
X131677549Y-94535110D01*
X131677716Y-94529447D01*
X131718506Y-93751127D01*
X131719010Y-93744723D01*
X131800440Y-92969959D01*
X131801281Y-92963578D01*
X131923138Y-92194202D01*
X131924321Y-92187822D01*
X131949110Y-92071201D01*
X132086276Y-91425884D01*
X132087780Y-91419614D01*
X132289404Y-90667147D01*
X132291235Y-90660965D01*
X132531955Y-89920105D01*
X132534105Y-89914033D01*
X132813272Y-89186778D01*
X132815742Y-89180815D01*
X133132591Y-88469161D01*
X133135355Y-88463365D01*
X133489019Y-87769261D01*
X133492100Y-87763588D01*
X133674727Y-87447269D01*
X137549500Y-87447269D01*
X137549500Y-104877726D01*
X137576793Y-104979589D01*
X137599107Y-105018237D01*
X137629520Y-105070913D01*
X138829087Y-106270480D01*
X138920412Y-106323207D01*
X139022273Y-106350500D01*
X139022275Y-106350500D01*
X143747699Y-106350500D01*
X143747701Y-106350500D01*
X143849562Y-106323207D01*
X143940887Y-106270480D01*
X144342148Y-105869217D01*
X144403471Y-105835733D01*
X144473162Y-105840717D01*
X144528204Y-105881412D01*
X144621718Y-106003282D01*
X144747159Y-106099536D01*
X144893238Y-106160044D01*
X144971619Y-106170363D01*
X145049999Y-106180682D01*
X145050000Y-106180682D01*
X145050001Y-106180682D01*
X145102254Y-106173802D01*
X145206762Y-106160044D01*
X145352841Y-106099536D01*
X145478282Y-106003282D01*
X145574536Y-105877841D01*
X145635044Y-105731762D01*
X145655682Y-105575000D01*
X145655147Y-105570940D01*
X145635044Y-105418239D01*
X145635044Y-105418238D01*
X145574536Y-105272159D01*
X145574534Y-105272156D01*
X145570738Y-105265581D01*
X145554263Y-105197681D01*
X145577114Y-105131654D01*
X145590436Y-105115903D01*
X148841339Y-101864999D01*
X151194318Y-101864999D01*
X151194318Y-101865002D01*
X151214955Y-102021761D01*
X151214956Y-102021763D01*
X151266692Y-102146666D01*
X151275464Y-102167842D01*
X151371718Y-102293283D01*
X151497159Y-102389537D01*
X151643238Y-102450045D01*
X151721619Y-102460364D01*
X151799999Y-102470683D01*
X151800000Y-102470683D01*
X151800001Y-102470683D01*
X151852254Y-102463803D01*
X151956762Y-102450045D01*
X152102841Y-102389537D01*
X152228282Y-102293283D01*
X152228283Y-102293280D01*
X152231093Y-102291125D01*
X152296263Y-102265931D01*
X152306580Y-102265501D01*
X152639958Y-102265501D01*
X152639960Y-102265501D01*
X152741821Y-102238208D01*
X152833146Y-102185481D01*
X153699991Y-101318634D01*
X153761312Y-101285151D01*
X153771485Y-101283378D01*
X153774997Y-101282915D01*
X153775000Y-101282916D01*
X153931762Y-101262278D01*
X154077841Y-101201770D01*
X154203282Y-101105516D01*
X154299536Y-100980075D01*
X154360044Y-100833996D01*
X154380682Y-100677234D01*
X154377162Y-100650500D01*
X154365929Y-100565174D01*
X154360044Y-100520472D01*
X154299536Y-100374393D01*
X154203282Y-100248952D01*
X154077841Y-100152698D01*
X154050420Y-100141340D01*
X153931762Y-100092190D01*
X153931760Y-100092189D01*
X153775001Y-100071552D01*
X153774999Y-100071552D01*
X153618239Y-100092189D01*
X153618237Y-100092190D01*
X153472160Y-100152697D01*
X153346718Y-100248952D01*
X153250463Y-100374394D01*
X153189956Y-100520471D01*
X153189956Y-100520472D01*
X153168855Y-100680747D01*
X153140588Y-100744643D01*
X153133597Y-100752242D01*
X152457659Y-101428182D01*
X152396336Y-101461667D01*
X152369978Y-101464501D01*
X152306580Y-101464501D01*
X152239541Y-101444816D01*
X152231093Y-101438877D01*
X152228283Y-101436721D01*
X152228282Y-101436719D01*
X152102841Y-101340465D01*
X152089751Y-101335043D01*
X151956762Y-101279957D01*
X151956760Y-101279956D01*
X151800001Y-101259319D01*
X151799999Y-101259319D01*
X151643239Y-101279956D01*
X151643237Y-101279957D01*
X151497160Y-101340464D01*
X151371718Y-101436719D01*
X151275463Y-101562161D01*
X151214956Y-101708238D01*
X151214955Y-101708240D01*
X151194318Y-101864999D01*
X148841339Y-101864999D01*
X148971434Y-101734904D01*
X149032755Y-101701421D01*
X149102447Y-101706405D01*
X149106538Y-101708015D01*
X149232147Y-101760044D01*
X149310528Y-101770363D01*
X149388908Y-101780682D01*
X149388909Y-101780682D01*
X149388910Y-101780682D01*
X149441163Y-101773802D01*
X149545671Y-101760044D01*
X149691750Y-101699536D01*
X149817191Y-101603282D01*
X149913445Y-101477841D01*
X149973953Y-101331762D01*
X149984827Y-101249163D01*
X150013093Y-101185267D01*
X150071418Y-101146796D01*
X150141282Y-101145965D01*
X150146122Y-101147640D01*
X150150360Y-101148776D01*
X150150362Y-101148777D01*
X150228743Y-101159096D01*
X150307123Y-101169415D01*
X150307124Y-101169415D01*
X150307125Y-101169415D01*
X150359378Y-101162535D01*
X150463886Y-101148777D01*
X150609965Y-101088269D01*
X150735406Y-100992015D01*
X150831660Y-100866574D01*
X150892168Y-100720495D01*
X150905926Y-100615987D01*
X150912806Y-100563734D01*
X150912806Y-100563731D01*
X150894513Y-100424783D01*
X150892168Y-100406971D01*
X150831660Y-100260892D01*
X150735406Y-100135451D01*
X150609965Y-100039197D01*
X150594159Y-100032650D01*
X150463886Y-99978689D01*
X150463884Y-99978688D01*
X150307125Y-99958051D01*
X150307123Y-99958051D01*
X150150363Y-99978688D01*
X150150361Y-99978689D01*
X150098515Y-100000164D01*
X150029045Y-100007631D01*
X149966567Y-99976355D01*
X149930915Y-99916266D01*
X149928125Y-99869419D01*
X149930682Y-99850000D01*
X149914858Y-99729807D01*
X158714509Y-99729807D01*
X158714509Y-99729810D01*
X158735146Y-99886569D01*
X158735147Y-99886571D01*
X158773303Y-99978689D01*
X158795655Y-100032650D01*
X158891909Y-100158091D01*
X159017350Y-100254345D01*
X159163429Y-100314853D01*
X159320191Y-100335491D01*
X159320192Y-100335490D01*
X159323704Y-100335953D01*
X159387601Y-100364219D01*
X159395200Y-100371211D01*
X159594469Y-100570480D01*
X159685794Y-100623207D01*
X159787655Y-100650500D01*
X159787657Y-100650500D01*
X166347699Y-100650500D01*
X166347701Y-100650500D01*
X166449562Y-100623207D01*
X166540887Y-100570480D01*
X169686367Y-97425000D01*
X173672509Y-97425000D01*
X173692397Y-97823518D01*
X173742904Y-98158607D01*
X173751868Y-98218078D01*
X173785170Y-98348863D01*
X173850328Y-98604755D01*
X173986802Y-98979714D01*
X174159924Y-99339206D01*
X174159926Y-99339210D01*
X174367982Y-99679678D01*
X174367990Y-99679689D01*
X174608905Y-99997741D01*
X174608913Y-99997751D01*
X174608922Y-99997760D01*
X174608924Y-99997763D01*
X174880302Y-100290240D01*
X174880306Y-100290244D01*
X174880312Y-100290250D01*
X175179487Y-100554272D01*
X175179490Y-100554274D01*
X175179491Y-100554275D01*
X175192648Y-100563734D01*
X175503462Y-100787195D01*
X175849020Y-100986703D01*
X176212724Y-101150812D01*
X176590962Y-101277893D01*
X176979973Y-101366683D01*
X177375892Y-101416298D01*
X177492235Y-101419199D01*
X177774766Y-101426245D01*
X177774780Y-101426245D01*
X177774780Y-101426244D01*
X177774783Y-101426245D01*
X178172682Y-101396427D01*
X178565636Y-101327139D01*
X178565637Y-101327138D01*
X178565641Y-101327138D01*
X178752597Y-101274536D01*
X178949737Y-101219069D01*
X179321170Y-101073293D01*
X179676243Y-100891258D01*
X180011426Y-100674773D01*
X180323389Y-100425991D01*
X180609030Y-100147384D01*
X180865512Y-99841721D01*
X181090286Y-99512039D01*
X181281116Y-99161615D01*
X181436108Y-98793932D01*
X181553720Y-98412644D01*
X181560844Y-98377406D01*
X181603520Y-98166294D01*
X181632783Y-98021540D01*
X181672512Y-97624508D01*
X181674998Y-97425000D01*
X181672512Y-97225492D01*
X181632783Y-96828460D01*
X181553720Y-96437356D01*
X181553719Y-96437351D01*
X181436109Y-96056072D01*
X181436108Y-96056068D01*
X181281116Y-95688385D01*
X181090286Y-95337961D01*
X180865512Y-95008279D01*
X180609030Y-94702616D01*
X180323389Y-94424009D01*
X180066133Y-94218854D01*
X180011424Y-94175225D01*
X179676253Y-93958748D01*
X179676234Y-93958737D01*
X179321169Y-93776706D01*
X179321157Y-93776701D01*
X178949742Y-93630932D01*
X178949728Y-93630928D01*
X178565641Y-93522861D01*
X178172689Y-93453574D01*
X178172684Y-93453573D01*
X178172682Y-93453573D01*
X178172679Y-93453572D01*
X178172673Y-93453572D01*
X177774773Y-93423754D01*
X177375899Y-93433701D01*
X176979969Y-93483317D01*
X176590963Y-93572106D01*
X176590959Y-93572107D01*
X176212724Y-93699187D01*
X175849017Y-93863298D01*
X175503473Y-94062798D01*
X175503447Y-94062815D01*
X175179491Y-94295724D01*
X174880313Y-94559749D01*
X174880302Y-94559759D01*
X174608924Y-94852236D01*
X174608905Y-94852258D01*
X174367990Y-95170310D01*
X174367982Y-95170321D01*
X174159926Y-95510789D01*
X174159924Y-95510793D01*
X173986802Y-95870285D01*
X173850328Y-96245244D01*
X173751868Y-96631922D01*
X173692397Y-97026481D01*
X173672509Y-97425000D01*
X169686367Y-97425000D01*
X174774548Y-92336819D01*
X174835871Y-92303334D01*
X174862229Y-92300500D01*
X183882745Y-92300500D01*
X183949784Y-92320185D01*
X183970426Y-92336819D01*
X186383596Y-94749988D01*
X186417081Y-94811311D01*
X186418854Y-94821483D01*
X186435489Y-94947833D01*
X186439956Y-94981762D01*
X186500464Y-95127841D01*
X186596718Y-95253282D01*
X186722159Y-95349536D01*
X186868238Y-95410044D01*
X186946619Y-95420363D01*
X187024999Y-95430682D01*
X187025000Y-95430682D01*
X187025001Y-95430682D01*
X187077254Y-95423802D01*
X187181762Y-95410044D01*
X187327841Y-95349536D01*
X187453282Y-95253282D01*
X187549536Y-95127841D01*
X187610044Y-94981762D01*
X187630682Y-94825000D01*
X187610044Y-94668238D01*
X187549536Y-94522159D01*
X187453282Y-94396718D01*
X187327841Y-94300464D01*
X187311914Y-94293867D01*
X187245456Y-94266339D01*
X187181762Y-94239956D01*
X187162789Y-94237458D01*
X187021483Y-94218854D01*
X186957587Y-94190587D01*
X186949988Y-94183596D01*
X184345915Y-91579522D01*
X184345914Y-91579521D01*
X184345913Y-91579520D01*
X184300250Y-91553156D01*
X184254589Y-91526793D01*
X184203657Y-91513146D01*
X184152727Y-91499500D01*
X184152726Y-91499500D01*
X175516400Y-91499500D01*
X175449361Y-91479815D01*
X175403606Y-91427011D01*
X175393461Y-91359314D01*
X175393738Y-91357214D01*
X175408182Y-91247500D01*
X175403837Y-91214500D01*
X189224500Y-91214500D01*
X189224500Y-102344323D01*
X189258608Y-102471619D01*
X189284849Y-102517069D01*
X189324500Y-102585746D01*
X189324502Y-102585748D01*
X189496256Y-102757502D01*
X189529741Y-102818825D01*
X189531896Y-102858143D01*
X189524063Y-102932678D01*
X189542751Y-103110485D01*
X189542752Y-103110487D01*
X189597995Y-103280509D01*
X189597998Y-103280515D01*
X189687389Y-103435345D01*
X189729060Y-103481626D01*
X189807012Y-103568201D01*
X189807015Y-103568203D01*
X189807018Y-103568206D01*
X189951655Y-103673292D01*
X190114981Y-103746009D01*
X190289857Y-103783180D01*
X190289858Y-103783180D01*
X190468637Y-103783180D01*
X190468639Y-103783180D01*
X190643515Y-103746009D01*
X190806841Y-103673292D01*
X190951478Y-103568206D01*
X191071107Y-103435345D01*
X191160498Y-103280515D01*
X191215745Y-103110483D01*
X191234433Y-102932680D01*
X191215745Y-102754877D01*
X191188121Y-102669861D01*
X191160500Y-102584850D01*
X191160497Y-102584844D01*
X191133977Y-102538910D01*
X191071107Y-102430015D01*
X191024251Y-102377976D01*
X190951483Y-102297158D01*
X190951480Y-102297156D01*
X190951479Y-102297155D01*
X190951478Y-102297154D01*
X190806841Y-102192068D01*
X190643515Y-102119351D01*
X190643513Y-102119350D01*
X190512590Y-102091522D01*
X190468639Y-102082180D01*
X190349500Y-102082180D01*
X190282461Y-102062495D01*
X190236706Y-102009691D01*
X190225500Y-101958180D01*
X190225500Y-101300000D01*
X191469815Y-101300000D01*
X191488503Y-101477805D01*
X191488504Y-101477807D01*
X191543747Y-101647829D01*
X191543750Y-101647835D01*
X191633141Y-101802665D01*
X191674812Y-101848946D01*
X191752764Y-101935521D01*
X191752767Y-101935523D01*
X191752770Y-101935526D01*
X191897407Y-102040612D01*
X192060733Y-102113329D01*
X192235609Y-102150500D01*
X192235610Y-102150500D01*
X192414389Y-102150500D01*
X192414391Y-102150500D01*
X192589267Y-102113329D01*
X192752593Y-102040612D01*
X192897230Y-101935526D01*
X193016859Y-101802665D01*
X193106250Y-101647835D01*
X193161497Y-101477803D01*
X193180185Y-101300000D01*
X193161497Y-101122197D01*
X193149864Y-101086397D01*
X193147870Y-101016557D01*
X193183950Y-100956724D01*
X193246651Y-100925896D01*
X193316065Y-100933860D01*
X193318200Y-100934786D01*
X193362857Y-100954669D01*
X193537733Y-100991840D01*
X193537734Y-100991840D01*
X193716513Y-100991840D01*
X193716515Y-100991840D01*
X193891391Y-100954669D01*
X194054717Y-100881952D01*
X194199354Y-100776866D01*
X194318983Y-100644005D01*
X194408374Y-100489175D01*
X194463621Y-100319143D01*
X194467047Y-100286536D01*
X194493631Y-100221924D01*
X194550929Y-100181939D01*
X194590368Y-100175500D01*
X194689389Y-100175500D01*
X194689391Y-100175500D01*
X194864267Y-100138329D01*
X195027593Y-100065612D01*
X195172230Y-99960526D01*
X195291859Y-99827665D01*
X195381250Y-99672835D01*
X195436497Y-99502803D01*
X195455185Y-99325000D01*
X195436497Y-99147197D01*
X195403527Y-99045727D01*
X195381252Y-98977170D01*
X195381249Y-98977164D01*
X195331017Y-98890159D01*
X195291859Y-98822335D01*
X195211777Y-98733395D01*
X195172235Y-98689478D01*
X195172232Y-98689476D01*
X195172231Y-98689475D01*
X195172230Y-98689474D01*
X195027593Y-98584388D01*
X194864267Y-98511671D01*
X194864265Y-98511670D01*
X194736594Y-98484533D01*
X194689391Y-98474500D01*
X194510609Y-98474500D01*
X194479954Y-98481015D01*
X194335733Y-98511670D01*
X194335728Y-98511672D01*
X194172408Y-98584387D01*
X194027768Y-98689475D01*
X193908140Y-98822336D01*
X193818750Y-98977164D01*
X193818747Y-98977170D01*
X193763504Y-99147192D01*
X193763502Y-99147203D01*
X193760075Y-99179804D01*
X193733490Y-99244418D01*
X193676192Y-99284402D01*
X193636755Y-99290840D01*
X193537733Y-99290840D01*
X193507078Y-99297355D01*
X193362857Y-99328010D01*
X193362852Y-99328012D01*
X193199532Y-99400727D01*
X193054892Y-99505815D01*
X192935264Y-99638676D01*
X192845874Y-99793504D01*
X192845871Y-99793510D01*
X192790628Y-99963532D01*
X192790627Y-99963534D01*
X192771939Y-100141340D01*
X192790627Y-100319145D01*
X192790629Y-100319150D01*
X192802258Y-100354942D01*
X192804253Y-100424783D01*
X192768172Y-100484616D01*
X192705470Y-100515443D01*
X192636056Y-100507478D01*
X192633893Y-100506539D01*
X192589268Y-100486671D01*
X192589265Y-100486670D01*
X192461594Y-100459533D01*
X192414391Y-100449500D01*
X192235609Y-100449500D01*
X192204954Y-100456015D01*
X192060733Y-100486670D01*
X192060728Y-100486672D01*
X191897408Y-100559387D01*
X191752768Y-100664475D01*
X191633140Y-100797336D01*
X191543750Y-100952164D01*
X191543747Y-100952170D01*
X191488504Y-101122192D01*
X191488503Y-101122194D01*
X191469815Y-101300000D01*
X190225500Y-101300000D01*
X190225500Y-92349509D01*
X191379130Y-92349509D01*
X191397818Y-92527314D01*
X191397819Y-92527316D01*
X191453062Y-92697338D01*
X191453065Y-92697344D01*
X191542456Y-92852174D01*
X191584127Y-92898455D01*
X191662079Y-92985030D01*
X191662082Y-92985032D01*
X191662085Y-92985035D01*
X191806722Y-93090121D01*
X191970048Y-93162838D01*
X192144924Y-93200009D01*
X192144925Y-93200009D01*
X192323704Y-93200009D01*
X192323706Y-93200009D01*
X192498582Y-93162838D01*
X192653879Y-93093695D01*
X192723125Y-93084411D01*
X192786402Y-93114039D01*
X192823615Y-93173174D01*
X192822950Y-93243040D01*
X192822243Y-93245289D01*
X192813504Y-93272187D01*
X192813502Y-93272193D01*
X192794814Y-93449999D01*
X192813502Y-93627804D01*
X192813503Y-93627806D01*
X192868746Y-93797828D01*
X192868749Y-93797834D01*
X192958140Y-93952664D01*
X192999811Y-93998945D01*
X193077763Y-94085520D01*
X193077766Y-94085522D01*
X193077769Y-94085525D01*
X193222406Y-94190611D01*
X193385732Y-94263328D01*
X193560608Y-94300499D01*
X193560609Y-94300499D01*
X193659634Y-94300499D01*
X193726673Y-94320184D01*
X193772428Y-94372988D01*
X193782954Y-94411535D01*
X193786381Y-94444135D01*
X193786383Y-94444146D01*
X193841626Y-94614168D01*
X193841629Y-94614174D01*
X193931020Y-94769004D01*
X193942811Y-94782099D01*
X194050643Y-94901860D01*
X194050646Y-94901862D01*
X194050649Y-94901865D01*
X194195286Y-95006951D01*
X194358612Y-95079668D01*
X194533488Y-95116839D01*
X194533489Y-95116839D01*
X194712268Y-95116839D01*
X194712270Y-95116839D01*
X194887146Y-95079668D01*
X195050472Y-95006951D01*
X195195109Y-94901865D01*
X195314738Y-94769004D01*
X195404129Y-94614174D01*
X195459376Y-94444142D01*
X195478064Y-94266339D01*
X195459376Y-94088536D01*
X195417202Y-93958737D01*
X195404131Y-93918509D01*
X195404128Y-93918503D01*
X195314738Y-93763674D01*
X195257408Y-93700003D01*
X195195114Y-93630817D01*
X195195111Y-93630815D01*
X195195110Y-93630814D01*
X195195109Y-93630813D01*
X195050472Y-93525727D01*
X194887146Y-93453010D01*
X194887144Y-93453009D01*
X194743466Y-93422470D01*
X194712270Y-93415839D01*
X194613243Y-93415839D01*
X194546204Y-93396154D01*
X194500449Y-93343350D01*
X194489923Y-93304804D01*
X194486496Y-93272196D01*
X194441850Y-93134789D01*
X194431251Y-93102169D01*
X194431248Y-93102163D01*
X194341858Y-92947334D01*
X194266281Y-92863397D01*
X194222234Y-92814477D01*
X194222231Y-92814475D01*
X194222230Y-92814474D01*
X194222229Y-92814473D01*
X194077592Y-92709387D01*
X193914266Y-92636670D01*
X193914264Y-92636669D01*
X193786593Y-92609532D01*
X193739390Y-92599499D01*
X193560608Y-92599499D01*
X193552648Y-92601191D01*
X193385732Y-92636669D01*
X193230436Y-92705812D01*
X193161186Y-92715096D01*
X193097910Y-92685468D01*
X193060697Y-92626333D01*
X193061362Y-92556466D01*
X193062042Y-92554300D01*
X193070812Y-92527312D01*
X193089500Y-92349509D01*
X193070812Y-92171706D01*
X193027824Y-92039402D01*
X193015567Y-92001679D01*
X193015564Y-92001673D01*
X192926174Y-91846844D01*
X192845921Y-91757714D01*
X192806550Y-91713987D01*
X192806547Y-91713985D01*
X192806546Y-91713984D01*
X192806545Y-91713983D01*
X192661908Y-91608897D01*
X192498582Y-91536180D01*
X192498580Y-91536179D01*
X192370909Y-91509042D01*
X192323706Y-91499009D01*
X192144924Y-91499009D01*
X192114269Y-91505524D01*
X191970048Y-91536179D01*
X191970043Y-91536181D01*
X191806723Y-91608896D01*
X191662083Y-91713984D01*
X191542455Y-91846845D01*
X191453065Y-92001673D01*
X191453062Y-92001679D01*
X191397819Y-92171701D01*
X191397818Y-92171703D01*
X191379130Y-92349509D01*
X190225500Y-92349509D01*
X190225500Y-91691329D01*
X190245185Y-91624290D01*
X190297989Y-91578535D01*
X190349500Y-91567329D01*
X190377952Y-91567329D01*
X190377954Y-91567329D01*
X190552830Y-91530158D01*
X190716156Y-91457441D01*
X190860793Y-91352355D01*
X190980422Y-91219494D01*
X191069813Y-91064664D01*
X191125060Y-90894632D01*
X191143748Y-90716829D01*
X191125060Y-90539026D01*
X191096296Y-90450500D01*
X191069815Y-90368999D01*
X191069812Y-90368993D01*
X191062025Y-90355505D01*
X190980422Y-90214164D01*
X190914983Y-90141487D01*
X190860798Y-90081307D01*
X190860795Y-90081305D01*
X190860794Y-90081304D01*
X190860793Y-90081303D01*
X190716156Y-89976217D01*
X190552830Y-89903500D01*
X190552828Y-89903499D01*
X190425157Y-89876362D01*
X190377954Y-89866329D01*
X190199172Y-89866329D01*
X190168517Y-89872844D01*
X190024296Y-89903499D01*
X190024291Y-89903501D01*
X189860971Y-89976216D01*
X189716331Y-90081304D01*
X189596703Y-90214165D01*
X189507313Y-90368993D01*
X189507310Y-90368999D01*
X189452067Y-90539021D01*
X189452066Y-90539023D01*
X189433378Y-90716829D01*
X189441212Y-90791363D01*
X189428642Y-90860092D01*
X189405573Y-90892005D01*
X189324500Y-90973078D01*
X189258608Y-91087204D01*
X189224500Y-91214500D01*
X175403837Y-91214500D01*
X175387544Y-91090739D01*
X175387544Y-91090738D01*
X175327036Y-90944659D01*
X175230782Y-90819218D01*
X175105341Y-90722964D01*
X174959262Y-90662456D01*
X174959260Y-90662455D01*
X174802501Y-90641818D01*
X174802499Y-90641818D01*
X174645739Y-90662455D01*
X174645737Y-90662456D01*
X174499660Y-90722963D01*
X174374218Y-90819218D01*
X174277963Y-90944660D01*
X174217456Y-91090737D01*
X174217456Y-91090738D01*
X174196355Y-91251013D01*
X174168088Y-91314909D01*
X174161097Y-91322508D01*
X166269017Y-99214590D01*
X166207694Y-99248075D01*
X166181336Y-99250909D01*
X160955171Y-99250909D01*
X160888132Y-99231224D01*
X160879684Y-99225285D01*
X160876874Y-99223129D01*
X160876873Y-99223127D01*
X160751432Y-99126873D01*
X160605353Y-99066365D01*
X160605351Y-99066364D01*
X160448592Y-99045727D01*
X160448590Y-99045727D01*
X160291830Y-99066364D01*
X160291828Y-99066365D01*
X160145751Y-99126872D01*
X160119270Y-99147192D01*
X160020309Y-99223127D01*
X160020308Y-99223128D01*
X160020307Y-99223129D01*
X159952686Y-99311254D01*
X159896258Y-99352456D01*
X159826512Y-99356611D01*
X159765592Y-99322398D01*
X159755945Y-99311265D01*
X159748473Y-99301527D01*
X159623032Y-99205273D01*
X159561544Y-99179804D01*
X159476953Y-99144765D01*
X159476951Y-99144764D01*
X159320192Y-99124127D01*
X159320190Y-99124127D01*
X159163430Y-99144764D01*
X159163428Y-99144765D01*
X159017351Y-99205272D01*
X158891909Y-99301527D01*
X158795654Y-99426969D01*
X158735147Y-99573046D01*
X158735146Y-99573048D01*
X158714509Y-99729807D01*
X149914858Y-99729807D01*
X149910044Y-99693238D01*
X149849536Y-99547159D01*
X149849535Y-99547158D01*
X149849535Y-99547157D01*
X149808869Y-99494160D01*
X149783675Y-99428991D01*
X149797714Y-99360546D01*
X149828450Y-99324212D01*
X149828430Y-99324192D01*
X149828675Y-99323946D01*
X149831767Y-99320292D01*
X149834181Y-99318440D01*
X149930435Y-99192999D01*
X149990943Y-99046920D01*
X150011581Y-98890158D01*
X150006403Y-98850830D01*
X149990943Y-98733397D01*
X149990943Y-98733396D01*
X149930435Y-98587317D01*
X149834181Y-98461876D01*
X149708740Y-98365622D01*
X149678393Y-98353052D01*
X149562661Y-98305114D01*
X149562659Y-98305113D01*
X149405900Y-98284476D01*
X149405898Y-98284476D01*
X149249138Y-98305113D01*
X149249133Y-98305115D01*
X149143515Y-98348863D01*
X149104550Y-98353052D01*
X149087641Y-98377406D01*
X149085322Y-98379230D01*
X148974806Y-98464033D01*
X148909637Y-98489228D01*
X148899319Y-98489658D01*
X148415525Y-98489658D01*
X148348486Y-98469973D01*
X148302731Y-98417169D01*
X148292586Y-98349474D01*
X148301862Y-98279015D01*
X148330127Y-98215121D01*
X148388451Y-98176649D01*
X148458315Y-98175817D01*
X148472252Y-98180641D01*
X148510940Y-98196665D01*
X148543238Y-98210044D01*
X148581802Y-98215121D01*
X148699999Y-98230682D01*
X148700000Y-98230682D01*
X148700001Y-98230682D01*
X148795737Y-98218078D01*
X148856762Y-98210044D01*
X148962384Y-98166293D01*
X149001347Y-98162104D01*
X149018258Y-98137750D01*
X149020539Y-98135955D01*
X149128282Y-98053282D01*
X149224536Y-97927841D01*
X149285044Y-97781762D01*
X149305682Y-97625000D01*
X149285044Y-97468238D01*
X149224536Y-97322159D01*
X149128282Y-97196718D01*
X149002841Y-97100464D01*
X148856762Y-97039956D01*
X148856760Y-97039955D01*
X148700001Y-97019318D01*
X148699999Y-97019318D01*
X148543239Y-97039955D01*
X148543237Y-97039956D01*
X148397160Y-97100463D01*
X148397159Y-97100464D01*
X148271718Y-97196718D01*
X148271716Y-97196720D01*
X148268907Y-97198876D01*
X148203737Y-97224070D01*
X148193420Y-97224500D01*
X147047273Y-97224500D01*
X146945412Y-97251793D01*
X146920090Y-97266413D01*
X146894768Y-97281033D01*
X146882681Y-97288011D01*
X146854087Y-97304519D01*
X146854085Y-97304521D01*
X143845426Y-100313181D01*
X143784103Y-100346666D01*
X143757745Y-100349500D01*
X140306580Y-100349500D01*
X140239541Y-100329815D01*
X140231093Y-100323876D01*
X140228283Y-100321720D01*
X140228282Y-100321718D01*
X140102841Y-100225464D01*
X140087870Y-100219263D01*
X139956762Y-100164956D01*
X139956760Y-100164955D01*
X139800001Y-100144318D01*
X139799999Y-100144318D01*
X139643239Y-100164955D01*
X139643237Y-100164956D01*
X139497160Y-100225463D01*
X139371718Y-100321718D01*
X139275463Y-100447160D01*
X139214956Y-100593237D01*
X139214955Y-100593239D01*
X139194318Y-100749998D01*
X139194318Y-100750001D01*
X139214955Y-100906760D01*
X139214956Y-100906762D01*
X139273191Y-101047355D01*
X139275464Y-101052841D01*
X139371718Y-101178282D01*
X139497159Y-101274536D01*
X139643238Y-101335044D01*
X139684407Y-101340464D01*
X139772494Y-101352061D01*
X139799818Y-101364148D01*
X139824584Y-101352481D01*
X139827505Y-101352061D01*
X139858441Y-101347988D01*
X139956762Y-101335044D01*
X140102841Y-101274536D01*
X140228282Y-101178282D01*
X140228283Y-101178279D01*
X140231093Y-101176124D01*
X140296263Y-101150930D01*
X140306580Y-101150500D01*
X143203719Y-101150500D01*
X143270758Y-101170185D01*
X143316513Y-101222989D01*
X143326457Y-101292147D01*
X143297432Y-101355703D01*
X143291400Y-101362181D01*
X142890400Y-101763181D01*
X142829077Y-101796666D01*
X142802719Y-101799500D01*
X140306580Y-101799500D01*
X140239541Y-101779815D01*
X140231093Y-101773876D01*
X140228283Y-101771720D01*
X140228282Y-101771718D01*
X140102841Y-101675464D01*
X140071649Y-101662544D01*
X139956762Y-101614956D01*
X139956760Y-101614955D01*
X139827505Y-101597939D01*
X139800179Y-101585851D01*
X139775415Y-101597519D01*
X139772494Y-101597939D01*
X139643239Y-101614955D01*
X139643237Y-101614956D01*
X139497160Y-101675463D01*
X139371718Y-101771718D01*
X139275463Y-101897160D01*
X139214956Y-102043237D01*
X139214955Y-102043239D01*
X139194318Y-102199998D01*
X139194318Y-102200001D01*
X139214955Y-102356760D01*
X139214956Y-102356762D01*
X139259679Y-102464734D01*
X139275464Y-102502841D01*
X139371718Y-102628282D01*
X139497159Y-102724536D01*
X139643238Y-102785044D01*
X139759994Y-102800415D01*
X139790921Y-102814096D01*
X139812084Y-102804126D01*
X139814958Y-102803712D01*
X139956762Y-102785044D01*
X140102841Y-102724536D01*
X140228282Y-102628282D01*
X140228283Y-102628279D01*
X140231093Y-102626124D01*
X140296263Y-102600930D01*
X140306580Y-102600500D01*
X142248693Y-102600500D01*
X142315732Y-102620185D01*
X142361487Y-102672989D01*
X142371431Y-102742147D01*
X142342406Y-102805703D01*
X142336374Y-102812181D01*
X141935374Y-103213181D01*
X141874051Y-103246666D01*
X141847693Y-103249500D01*
X140281580Y-103249500D01*
X140214541Y-103229815D01*
X140206093Y-103223876D01*
X140203283Y-103221720D01*
X140203282Y-103221718D01*
X140077841Y-103125464D01*
X140074193Y-103123953D01*
X139985567Y-103087243D01*
X139931762Y-103064956D01*
X139910715Y-103062185D01*
X139815004Y-103049584D01*
X139784077Y-103035902D01*
X139762915Y-103045873D01*
X139759995Y-103046293D01*
X139618238Y-103064956D01*
X139618237Y-103064956D01*
X139472160Y-103125463D01*
X139346718Y-103221718D01*
X139250463Y-103347160D01*
X139189956Y-103493237D01*
X139189955Y-103493239D01*
X139169318Y-103649998D01*
X139169318Y-103650001D01*
X139189955Y-103806760D01*
X139189956Y-103806762D01*
X139250464Y-103952841D01*
X139346718Y-104078282D01*
X139472159Y-104174536D01*
X139618238Y-104235044D01*
X139696619Y-104245363D01*
X139774999Y-104255682D01*
X139775000Y-104255682D01*
X139775001Y-104255682D01*
X139838744Y-104247290D01*
X139931762Y-104235044D01*
X140077841Y-104174536D01*
X140203282Y-104078282D01*
X140203283Y-104078279D01*
X140206093Y-104076124D01*
X140271263Y-104050930D01*
X140281580Y-104050500D01*
X142117673Y-104050500D01*
X142117675Y-104050500D01*
X142219536Y-104023207D01*
X142310861Y-103970480D01*
X145312821Y-100968518D01*
X145374142Y-100935035D01*
X145443834Y-100940019D01*
X145499767Y-100981891D01*
X145524184Y-101047355D01*
X145524500Y-101056200D01*
X145524500Y-101294856D01*
X145524502Y-101294882D01*
X145527413Y-101319987D01*
X145527415Y-101319991D01*
X145577435Y-101433276D01*
X145575075Y-101434317D01*
X145591612Y-101485064D01*
X145584708Y-101529666D01*
X145538212Y-101662544D01*
X145519909Y-101824996D01*
X145519909Y-101825003D01*
X145538212Y-101987455D01*
X145592210Y-102141774D01*
X145679192Y-102280204D01*
X145794797Y-102395809D01*
X145904489Y-102464734D01*
X145950780Y-102517069D01*
X145961427Y-102586122D01*
X145933052Y-102649970D01*
X145926197Y-102657408D01*
X143845426Y-104738181D01*
X143784103Y-104771666D01*
X143757745Y-104774500D01*
X140281580Y-104774500D01*
X140214541Y-104754815D01*
X140206093Y-104748876D01*
X140203283Y-104746720D01*
X140203282Y-104746718D01*
X140077841Y-104650464D01*
X139931762Y-104589956D01*
X139931760Y-104589955D01*
X139775001Y-104569318D01*
X139774999Y-104569318D01*
X139618239Y-104589955D01*
X139618237Y-104589956D01*
X139472160Y-104650463D01*
X139346718Y-104746718D01*
X139250463Y-104872160D01*
X139189956Y-105018237D01*
X139189955Y-105018239D01*
X139169318Y-105174998D01*
X139169318Y-105178563D01*
X139168467Y-105181459D01*
X139168257Y-105183058D01*
X139168007Y-105183025D01*
X139149633Y-105245602D01*
X139096829Y-105291357D01*
X139027671Y-105301301D01*
X138964115Y-105272276D01*
X138957637Y-105266244D01*
X138386819Y-104695426D01*
X138353334Y-104634103D01*
X138350500Y-104607745D01*
X138350500Y-93699996D01*
X145394909Y-93699996D01*
X145394909Y-93700003D01*
X145413212Y-93862455D01*
X145467210Y-94016774D01*
X145526720Y-94111483D01*
X145554192Y-94155204D01*
X145669796Y-94270808D01*
X145808225Y-94357789D01*
X145962539Y-94411786D01*
X145962542Y-94411786D01*
X145962544Y-94411787D01*
X146124996Y-94430091D01*
X146125000Y-94430091D01*
X146125004Y-94430091D01*
X146287455Y-94411787D01*
X146287456Y-94411786D01*
X146287461Y-94411786D01*
X146441775Y-94357789D01*
X146580204Y-94270808D01*
X146695808Y-94155204D01*
X146782789Y-94016775D01*
X146836786Y-93862461D01*
X146844068Y-93797834D01*
X146855091Y-93700003D01*
X146855091Y-93699996D01*
X146836787Y-93537544D01*
X146836786Y-93537542D01*
X146836786Y-93537539D01*
X146801512Y-93436731D01*
X146790292Y-93404666D01*
X146786731Y-93334887D01*
X146798379Y-93308636D01*
X146797565Y-93308277D01*
X146847583Y-93194995D01*
X146847585Y-93194991D01*
X146850500Y-93169865D01*
X146850499Y-92230136D01*
X146850497Y-92230117D01*
X146847586Y-92205012D01*
X146847585Y-92205010D01*
X146847585Y-92205009D01*
X146802206Y-92102235D01*
X146722765Y-92022794D01*
X146674933Y-92001674D01*
X146619992Y-91977415D01*
X146594865Y-91974500D01*
X145655143Y-91974500D01*
X145655117Y-91974502D01*
X145630012Y-91977413D01*
X145630008Y-91977415D01*
X145527235Y-92022793D01*
X145447794Y-92102234D01*
X145402415Y-92205006D01*
X145402415Y-92205008D01*
X145399500Y-92230131D01*
X145399500Y-93169856D01*
X145399502Y-93169882D01*
X145402413Y-93194987D01*
X145402415Y-93194991D01*
X145452435Y-93308276D01*
X145450075Y-93309317D01*
X145466612Y-93360064D01*
X145459708Y-93404666D01*
X145413212Y-93537544D01*
X145394909Y-93699996D01*
X138350500Y-93699996D01*
X138350500Y-87717254D01*
X138370185Y-87650215D01*
X138386819Y-87629573D01*
X139229573Y-86786819D01*
X139290896Y-86753334D01*
X139317254Y-86750500D01*
X141268420Y-86750500D01*
X141335459Y-86770185D01*
X141343907Y-86776124D01*
X141346716Y-86778279D01*
X141346718Y-86778282D01*
X141472159Y-86874536D01*
X141618238Y-86935044D01*
X141696619Y-86945363D01*
X141774999Y-86955682D01*
X141775000Y-86955682D01*
X141775001Y-86955682D01*
X141827254Y-86948802D01*
X141931762Y-86935044D01*
X142077841Y-86874536D01*
X142203282Y-86778282D01*
X142299536Y-86652841D01*
X142360044Y-86506762D01*
X142379559Y-86358531D01*
X142380682Y-86350001D01*
X142380682Y-86349998D01*
X142360044Y-86193239D01*
X142360044Y-86193238D01*
X142299536Y-86047159D01*
X142203282Y-85921718D01*
X142077841Y-85825464D01*
X141931762Y-85764956D01*
X141931760Y-85764955D01*
X141775001Y-85744318D01*
X141774999Y-85744318D01*
X141618239Y-85764955D01*
X141618237Y-85764956D01*
X141472160Y-85825463D01*
X141472159Y-85825464D01*
X141346718Y-85921718D01*
X141346716Y-85921720D01*
X141343907Y-85923876D01*
X141278737Y-85949070D01*
X141268420Y-85949500D01*
X139160339Y-85949500D01*
X139160323Y-85949499D01*
X139152727Y-85949499D01*
X139047273Y-85949499D01*
X138986222Y-85965858D01*
X138945412Y-85976793D01*
X138854084Y-86029522D01*
X137629522Y-87254084D01*
X137629520Y-87254087D01*
X137576793Y-87345412D01*
X137549676Y-87446615D01*
X137549669Y-87446642D01*
X137549668Y-87446641D01*
X137549500Y-87447269D01*
X133674727Y-87447269D01*
X133881602Y-87088951D01*
X133884951Y-87083486D01*
X134309240Y-86430136D01*
X134312870Y-86424855D01*
X134770763Y-85794621D01*
X134774677Y-85789519D01*
X135264919Y-85184121D01*
X135269129Y-85179193D01*
X135279654Y-85167504D01*
X135700596Y-84700000D01*
X140372408Y-84700000D01*
X140392866Y-84822603D01*
X140452023Y-84931918D01*
X140452025Y-84931921D01*
X140452026Y-84931922D01*
X140543476Y-85016108D01*
X140657307Y-85066038D01*
X140728092Y-85071903D01*
X140781178Y-85076303D01*
X140781178Y-85076302D01*
X140781181Y-85076303D01*
X140901677Y-85045789D01*
X141005736Y-84977804D01*
X141082083Y-84879714D01*
X141122443Y-84762150D01*
X141125000Y-84700000D01*
X141122443Y-84637850D01*
X141082083Y-84520286D01*
X141005736Y-84422196D01*
X141005732Y-84422193D01*
X140901681Y-84354213D01*
X140901680Y-84354212D01*
X140901677Y-84354211D01*
X140781181Y-84323697D01*
X140781180Y-84323697D01*
X140781176Y-84323696D01*
X140657311Y-84333961D01*
X140657305Y-84333962D01*
X140543478Y-84383890D01*
X140452025Y-84468078D01*
X140452023Y-84468081D01*
X140392866Y-84577396D01*
X140372408Y-84700000D01*
X135700596Y-84700000D01*
X135790366Y-84600300D01*
X135794798Y-84595630D01*
X136345629Y-84044798D01*
X136350299Y-84040366D01*
X136929200Y-83519122D01*
X136934128Y-83514913D01*
X136992608Y-83467557D01*
X137539518Y-83024678D01*
X137544620Y-83020764D01*
X137710837Y-82900000D01*
X140372408Y-82900000D01*
X140392866Y-83022603D01*
X140452023Y-83131918D01*
X140452025Y-83131921D01*
X140452026Y-83131922D01*
X140543476Y-83216108D01*
X140657307Y-83266038D01*
X140728092Y-83271903D01*
X140781178Y-83276303D01*
X140781178Y-83276302D01*
X140781181Y-83276303D01*
X140901677Y-83245789D01*
X141005736Y-83177804D01*
X141082083Y-83079714D01*
X141122443Y-82962150D01*
X141125000Y-82900000D01*
X141122443Y-82837850D01*
X141082083Y-82720286D01*
X141005736Y-82622196D01*
X141005732Y-82622193D01*
X140901681Y-82554213D01*
X140901680Y-82554212D01*
X140901677Y-82554211D01*
X140781181Y-82523697D01*
X140781180Y-82523697D01*
X140781176Y-82523696D01*
X140657311Y-82533961D01*
X140657305Y-82533962D01*
X140543478Y-82583890D01*
X140452025Y-82668078D01*
X140452023Y-82668081D01*
X140392866Y-82777396D01*
X140372408Y-82900000D01*
X137710837Y-82900000D01*
X138174855Y-82562871D01*
X138180136Y-82559241D01*
X138833486Y-82134951D01*
X138838951Y-82131602D01*
X139513587Y-81742100D01*
X139519260Y-81739019D01*
X140213364Y-81385356D01*
X140219160Y-81382592D01*
X140930814Y-81065742D01*
X140936777Y-81063272D01*
X141664032Y-80784105D01*
X141670104Y-80781955D01*
X142410964Y-80541235D01*
X142417146Y-80539404D01*
X143169613Y-80337780D01*
X143175883Y-80336276D01*
X143937823Y-80174321D01*
X143944204Y-80173139D01*
X144035797Y-80158632D01*
X144713577Y-80051281D01*
X144719958Y-80050440D01*
X145494722Y-79969010D01*
X145501126Y-79968506D01*
X146279463Y-79927715D01*
X146285107Y-79927549D01*
X146674540Y-79925001D01*
X146675351Y-79924999D01*
X153673562Y-79924999D01*
X153676399Y-79925031D01*
X153762499Y-79927001D01*
X153783846Y-79929351D01*
X153954062Y-79963210D01*
X153977312Y-79970263D01*
X154136330Y-80036130D01*
X154157766Y-80047587D01*
X154195551Y-80072835D01*
X154300876Y-80143211D01*
X154319666Y-80158632D01*
X154441368Y-80280334D01*
X154456789Y-80299124D01*
X154552412Y-80442234D01*
X154563871Y-80463673D01*
X154629735Y-80622684D01*
X154636791Y-80645945D01*
X154670647Y-80816150D01*
X154672998Y-80837504D01*
X154674968Y-80923601D01*
X154675000Y-80926438D01*
X154675000Y-83424992D01*
X154677409Y-83523252D01*
X154677410Y-83523265D01*
X154715744Y-83715980D01*
X154715746Y-83715988D01*
X154790946Y-83897539D01*
X154900116Y-84060923D01*
X154900122Y-84060931D01*
X154977010Y-84137819D01*
X155010495Y-84199142D01*
X155005511Y-84268834D01*
X154963639Y-84324767D01*
X154898175Y-84349184D01*
X154889329Y-84349500D01*
X151880261Y-84349500D01*
X151813222Y-84329815D01*
X151767467Y-84277011D01*
X151756261Y-84225500D01*
X151756261Y-82304871D01*
X151756261Y-82304869D01*
X151722153Y-82177575D01*
X151656261Y-82063447D01*
X151563075Y-81970261D01*
X151076818Y-81484004D01*
X151043333Y-81422681D01*
X151040499Y-81396323D01*
X151040499Y-80810143D01*
X151040499Y-80810136D01*
X151040497Y-80810117D01*
X151037586Y-80785012D01*
X151037585Y-80785010D01*
X151037585Y-80785009D01*
X150992206Y-80682235D01*
X150912765Y-80602794D01*
X150850950Y-80575500D01*
X150809992Y-80557415D01*
X150784865Y-80554500D01*
X149695143Y-80554500D01*
X149695117Y-80554502D01*
X149670012Y-80557413D01*
X149670008Y-80557415D01*
X149567235Y-80602793D01*
X149487794Y-80682234D01*
X149442415Y-80785006D01*
X149442415Y-80785008D01*
X149439500Y-80810131D01*
X149439500Y-81766431D01*
X149419815Y-81833470D01*
X149367011Y-81879225D01*
X149297853Y-81889169D01*
X149274545Y-81883472D01*
X149149262Y-81839633D01*
X149149249Y-81839630D01*
X148970004Y-81819435D01*
X148969996Y-81819435D01*
X148790750Y-81839630D01*
X148790745Y-81839631D01*
X148620476Y-81899211D01*
X148467737Y-81995184D01*
X148422680Y-82040241D01*
X148361357Y-82073725D01*
X148291665Y-82068740D01*
X148247320Y-82040241D01*
X148202263Y-81995185D01*
X148202262Y-81995184D01*
X148049523Y-81899211D01*
X147879254Y-81839631D01*
X147879249Y-81839630D01*
X147700004Y-81819435D01*
X147699996Y-81819435D01*
X147520750Y-81839630D01*
X147520745Y-81839631D01*
X147350476Y-81899211D01*
X147286647Y-81939318D01*
X147219410Y-81958318D01*
X147152575Y-81937950D01*
X147107361Y-81884682D01*
X147098124Y-81815426D01*
X147115682Y-81768352D01*
X147155789Y-81704522D01*
X147215368Y-81534255D01*
X147221030Y-81484004D01*
X147235565Y-81355003D01*
X147235565Y-81354996D01*
X147215369Y-81175750D01*
X147215368Y-81175745D01*
X147155788Y-81005476D01*
X147059815Y-80852737D01*
X146932262Y-80725184D01*
X146779523Y-80629211D01*
X146609254Y-80569631D01*
X146609249Y-80569630D01*
X146430004Y-80549435D01*
X146429996Y-80549435D01*
X146250750Y-80569630D01*
X146250745Y-80569631D01*
X146080476Y-80629211D01*
X145927737Y-80725184D01*
X145800184Y-80852737D01*
X145704211Y-81005476D01*
X145644631Y-81175745D01*
X145644630Y-81175750D01*
X145624435Y-81354996D01*
X145624435Y-81355003D01*
X145644630Y-81534249D01*
X145644631Y-81534254D01*
X145704211Y-81704523D01*
X145744318Y-81768352D01*
X145763318Y-81835588D01*
X145742950Y-81902424D01*
X145689683Y-81947638D01*
X145620426Y-81956876D01*
X145573352Y-81939318D01*
X145509523Y-81899211D01*
X145339254Y-81839631D01*
X145339249Y-81839630D01*
X145160004Y-81819435D01*
X145159996Y-81819435D01*
X144980750Y-81839630D01*
X144980745Y-81839631D01*
X144810476Y-81899211D01*
X144657737Y-81995184D01*
X144530184Y-82122737D01*
X144434211Y-82275476D01*
X144374631Y-82445745D01*
X144374630Y-82445750D01*
X144354435Y-82624996D01*
X144354435Y-82625003D01*
X144374630Y-82804249D01*
X144374631Y-82804254D01*
X144434211Y-82974523D01*
X144525000Y-83119011D01*
X144530184Y-83127262D01*
X144657738Y-83254816D01*
X144746094Y-83310334D01*
X144810043Y-83350516D01*
X144810478Y-83350789D01*
X144980742Y-83410367D01*
X144980745Y-83410368D01*
X144980750Y-83410369D01*
X145159996Y-83430565D01*
X145160000Y-83430565D01*
X145160004Y-83430565D01*
X145339249Y-83410369D01*
X145339252Y-83410368D01*
X145339255Y-83410368D01*
X145509522Y-83350789D01*
X145662262Y-83254816D01*
X145707319Y-83209759D01*
X145768642Y-83176274D01*
X145838334Y-83181258D01*
X145882681Y-83209759D01*
X145927738Y-83254816D01*
X146016094Y-83310334D01*
X146080043Y-83350516D01*
X146080478Y-83350789D01*
X146250742Y-83410367D01*
X146250745Y-83410368D01*
X146250750Y-83410369D01*
X146429996Y-83430565D01*
X146430000Y-83430565D01*
X146430004Y-83430565D01*
X146609249Y-83410369D01*
X146609252Y-83410368D01*
X146609255Y-83410368D01*
X146779522Y-83350789D01*
X146932262Y-83254816D01*
X146977319Y-83209759D01*
X147038642Y-83176274D01*
X147108334Y-83181258D01*
X147152681Y-83209759D01*
X147197738Y-83254816D01*
X147286094Y-83310334D01*
X147350043Y-83350516D01*
X147350478Y-83350789D01*
X147520742Y-83410367D01*
X147520745Y-83410368D01*
X147520750Y-83410369D01*
X147699996Y-83430565D01*
X147700000Y-83430565D01*
X147700004Y-83430565D01*
X147879249Y-83410369D01*
X147879252Y-83410368D01*
X147879255Y-83410368D01*
X148049522Y-83350789D01*
X148202262Y-83254816D01*
X148247319Y-83209759D01*
X148308642Y-83176274D01*
X148378334Y-83181258D01*
X148422681Y-83209759D01*
X148467738Y-83254816D01*
X148556094Y-83310334D01*
X148620043Y-83350516D01*
X148620478Y-83350789D01*
X148790742Y-83410367D01*
X148790745Y-83410368D01*
X148790750Y-83410369D01*
X148969996Y-83430565D01*
X148970000Y-83430565D01*
X148970004Y-83430565D01*
X149149249Y-83410369D01*
X149149252Y-83410368D01*
X149149255Y-83410368D01*
X149319522Y-83350789D01*
X149472262Y-83254816D01*
X149517319Y-83209758D01*
X149578640Y-83176274D01*
X149648331Y-83181258D01*
X149692680Y-83209759D01*
X149737738Y-83254817D01*
X149771933Y-83276303D01*
X149890474Y-83350788D01*
X149890478Y-83350790D01*
X150060739Y-83410367D01*
X150060745Y-83410369D01*
X150060750Y-83410370D01*
X150239996Y-83430566D01*
X150240000Y-83430566D01*
X150240004Y-83430566D01*
X150419249Y-83410370D01*
X150419251Y-83410369D01*
X150419255Y-83410369D01*
X150419258Y-83410367D01*
X150419262Y-83410367D01*
X150590306Y-83350516D01*
X150660085Y-83346954D01*
X150720712Y-83381682D01*
X150752940Y-83443676D01*
X150755261Y-83467557D01*
X150755261Y-84225500D01*
X150735576Y-84292539D01*
X150682772Y-84338294D01*
X150631261Y-84349500D01*
X148057006Y-84349500D01*
X147989967Y-84329815D01*
X147977925Y-84320697D01*
X147975845Y-84319261D01*
X147825226Y-84240210D01*
X147660056Y-84199500D01*
X147489944Y-84199500D01*
X147324773Y-84240210D01*
X147174150Y-84319263D01*
X147046816Y-84432072D01*
X146950182Y-84572068D01*
X146889860Y-84731125D01*
X146889859Y-84731130D01*
X146869355Y-84900000D01*
X146889859Y-85068869D01*
X146889860Y-85068874D01*
X146950182Y-85227931D01*
X147012475Y-85318177D01*
X147046817Y-85367929D01*
X147150022Y-85459360D01*
X147174150Y-85480736D01*
X147264778Y-85528301D01*
X147324775Y-85559790D01*
X147489944Y-85600500D01*
X147660056Y-85600500D01*
X147825225Y-85559790D01*
X147975852Y-85480734D01*
X148087656Y-85381685D01*
X148150889Y-85351963D01*
X148169883Y-85350500D01*
X148475500Y-85350500D01*
X148542539Y-85370185D01*
X148588294Y-85422989D01*
X148599500Y-85474500D01*
X148599500Y-92000761D01*
X148579815Y-92067800D01*
X148577550Y-92071201D01*
X148525183Y-92147068D01*
X148525182Y-92147068D01*
X148464860Y-92306125D01*
X148464859Y-92306130D01*
X148444355Y-92475000D01*
X148464859Y-92643869D01*
X148464860Y-92643874D01*
X148525182Y-92802931D01*
X148587475Y-92893177D01*
X148621817Y-92942929D01*
X148686760Y-93000463D01*
X148749150Y-93055736D01*
X148880169Y-93124500D01*
X148899775Y-93134790D01*
X149064944Y-93175500D01*
X149235056Y-93175500D01*
X149400225Y-93134790D01*
X149496213Y-93084411D01*
X149550849Y-93055736D01*
X149550850Y-93055734D01*
X149550852Y-93055734D01*
X149678183Y-92942929D01*
X149774818Y-92802930D01*
X149835140Y-92643872D01*
X149855645Y-92475000D01*
X149835140Y-92306128D01*
X149834080Y-92303334D01*
X149796790Y-92205006D01*
X149774818Y-92147070D01*
X149678183Y-92007071D01*
X149672090Y-92001673D01*
X149642273Y-91975257D01*
X149605146Y-91916068D01*
X149600500Y-91882442D01*
X149600500Y-90724500D01*
X149620185Y-90657461D01*
X149672989Y-90611706D01*
X149724500Y-90600500D01*
X150466324Y-90600500D01*
X150533363Y-90620185D01*
X150554005Y-90636819D01*
X150949500Y-91032314D01*
X151042686Y-91125500D01*
X151084948Y-91149900D01*
X151156814Y-91191392D01*
X151284107Y-91225500D01*
X151284108Y-91225500D01*
X151284109Y-91225500D01*
X154440890Y-91225500D01*
X154440892Y-91225500D01*
X154568186Y-91191392D01*
X154682314Y-91125500D01*
X155320994Y-90486818D01*
X155382317Y-90453334D01*
X155408675Y-90450500D01*
X155435056Y-90450500D01*
X155600225Y-90409790D01*
X155703629Y-90355519D01*
X155750849Y-90330736D01*
X155750850Y-90330734D01*
X155750852Y-90330734D01*
X155878183Y-90217929D01*
X155974818Y-90077930D01*
X156035140Y-89918872D01*
X156055645Y-89750000D01*
X156035140Y-89581128D01*
X156035138Y-89581124D01*
X155992396Y-89468420D01*
X155974818Y-89422070D01*
X155904321Y-89319938D01*
X155882439Y-89253586D01*
X155899904Y-89185934D01*
X155951172Y-89138464D01*
X156006372Y-89125500D01*
X157879707Y-89125500D01*
X157946746Y-89145185D01*
X157992501Y-89197989D01*
X157994268Y-89202047D01*
X157996268Y-89206877D01*
X157996269Y-89206878D01*
X158056777Y-89352957D01*
X158153031Y-89478398D01*
X158278472Y-89574652D01*
X158424551Y-89635160D01*
X158556858Y-89652578D01*
X158620754Y-89680844D01*
X158655233Y-89728063D01*
X158675463Y-89776902D01*
X158675464Y-89776904D01*
X158771718Y-89902345D01*
X158897159Y-89998599D01*
X159043238Y-90059107D01*
X159095607Y-90066001D01*
X159159504Y-90094267D01*
X159193984Y-90141487D01*
X159228369Y-90224500D01*
X159250464Y-90277841D01*
X159346718Y-90403282D01*
X159472159Y-90499536D01*
X159618238Y-90560044D01*
X159644345Y-90563481D01*
X159774999Y-90580682D01*
X159775000Y-90580682D01*
X159905651Y-90563481D01*
X159974684Y-90574246D01*
X160026940Y-90620626D01*
X160044308Y-90667022D01*
X160054459Y-90731118D01*
X160112854Y-90910835D01*
X160112855Y-90910836D01*
X160171156Y-91025259D01*
X160184052Y-91093926D01*
X160157776Y-91158666D01*
X160148353Y-91169233D01*
X160074500Y-91243086D01*
X160008608Y-91357212D01*
X159976576Y-91476759D01*
X159974500Y-91484508D01*
X159974500Y-94184108D01*
X159974500Y-94315892D01*
X159985726Y-94357789D01*
X160008608Y-94443187D01*
X160009161Y-94444144D01*
X160074500Y-94557314D01*
X160074502Y-94557316D01*
X160514396Y-94997210D01*
X160547881Y-95058533D01*
X160549811Y-95069943D01*
X160564859Y-95193870D01*
X160564860Y-95193875D01*
X160625182Y-95352930D01*
X160625182Y-95352931D01*
X160664605Y-95410044D01*
X160721817Y-95492929D01*
X160827505Y-95586560D01*
X160849150Y-95605736D01*
X160999773Y-95684789D01*
X160999775Y-95684790D01*
X161164944Y-95725500D01*
X161335056Y-95725500D01*
X161500225Y-95684790D01*
X161579692Y-95643081D01*
X161650849Y-95605736D01*
X161650850Y-95605734D01*
X161650852Y-95605734D01*
X161778183Y-95492929D01*
X161874818Y-95352930D01*
X161935140Y-95193872D01*
X161955645Y-95025000D01*
X161935140Y-94856128D01*
X161933483Y-94851761D01*
X161928115Y-94782099D01*
X161961261Y-94720592D01*
X162022398Y-94686769D01*
X162031024Y-94685241D01*
X162031754Y-94685044D01*
X162031762Y-94685044D01*
X162177841Y-94624536D01*
X162303282Y-94528282D01*
X162303283Y-94528279D01*
X162306093Y-94526124D01*
X162371263Y-94500930D01*
X162381580Y-94500500D01*
X164297914Y-94500500D01*
X164364953Y-94520185D01*
X164373400Y-94526124D01*
X164484963Y-94611729D01*
X164484964Y-94611729D01*
X164484965Y-94611730D01*
X164631044Y-94672238D01*
X164709425Y-94682557D01*
X164787805Y-94692876D01*
X164787806Y-94692876D01*
X164787807Y-94692876D01*
X164847304Y-94685043D01*
X164944568Y-94672238D01*
X165090647Y-94611730D01*
X165216088Y-94515476D01*
X165312342Y-94390035D01*
X165372850Y-94243956D01*
X165393488Y-94087194D01*
X165393268Y-94085525D01*
X165372850Y-93930433D01*
X165372850Y-93930432D01*
X165312342Y-93784353D01*
X165216088Y-93658912D01*
X165090647Y-93562658D01*
X165082576Y-93559315D01*
X164944568Y-93502150D01*
X164944566Y-93502149D01*
X164787807Y-93481512D01*
X164787805Y-93481512D01*
X164631045Y-93502149D01*
X164631043Y-93502150D01*
X164484966Y-93562657D01*
X164359519Y-93658916D01*
X164355255Y-93663181D01*
X164293932Y-93696666D01*
X164267574Y-93699500D01*
X164159000Y-93699500D01*
X164091961Y-93679815D01*
X164046206Y-93627011D01*
X164036061Y-93559315D01*
X164042079Y-93513604D01*
X164042079Y-93513601D01*
X164026617Y-93396154D01*
X164021441Y-93356841D01*
X163960933Y-93210762D01*
X163864679Y-93085321D01*
X163739238Y-92989067D01*
X163693107Y-92969959D01*
X163593159Y-92928559D01*
X163593157Y-92928558D01*
X163436398Y-92907921D01*
X163436396Y-92907921D01*
X163279636Y-92928558D01*
X163279634Y-92928559D01*
X163133557Y-92989066D01*
X163008110Y-93085325D01*
X163005255Y-93088181D01*
X163002252Y-93089820D01*
X163001668Y-93090269D01*
X163001598Y-93090177D01*
X162943932Y-93121666D01*
X162917574Y-93124500D01*
X161631580Y-93124500D01*
X161564541Y-93104815D01*
X161556093Y-93098876D01*
X161553283Y-93096720D01*
X161553282Y-93096718D01*
X161427841Y-93000464D01*
X161400326Y-92989067D01*
X161281762Y-92939956D01*
X161281760Y-92939955D01*
X161125002Y-92919318D01*
X161124997Y-92919318D01*
X161115684Y-92920544D01*
X161046649Y-92909778D01*
X160994393Y-92863397D01*
X160975500Y-92797605D01*
X160975500Y-91809076D01*
X160995185Y-91742037D01*
X161011819Y-91721395D01*
X161046395Y-91686819D01*
X161107718Y-91653334D01*
X161134076Y-91650500D01*
X162019886Y-91650500D01*
X162206518Y-91620940D01*
X162243585Y-91608896D01*
X162386232Y-91562547D01*
X162554599Y-91476760D01*
X162707473Y-91365690D01*
X162841090Y-91232073D01*
X162952160Y-91079199D01*
X163037947Y-90910832D01*
X163096340Y-90731118D01*
X163125900Y-90544481D01*
X163125900Y-90544468D01*
X163126277Y-90539681D01*
X163130122Y-90517302D01*
X163130500Y-90515892D01*
X163130500Y-90384108D01*
X163130120Y-90382690D01*
X163126277Y-90360319D01*
X163125900Y-90355530D01*
X163125900Y-90355519D01*
X163121974Y-90330734D01*
X163096340Y-90168881D01*
X163037945Y-89989163D01*
X162988801Y-89892714D01*
X162952160Y-89820801D01*
X162841090Y-89667927D01*
X162707473Y-89534310D01*
X162554599Y-89423240D01*
X162416660Y-89352957D01*
X162386234Y-89337454D01*
X162386233Y-89337453D01*
X162386232Y-89337453D01*
X162206518Y-89279060D01*
X162206516Y-89279059D01*
X162180501Y-89274939D01*
X162117366Y-89245009D01*
X162080436Y-89185697D01*
X162075900Y-89152466D01*
X162075900Y-86559510D01*
X162075900Y-86559508D01*
X162041792Y-86432214D01*
X161975900Y-86318086D01*
X161882714Y-86224900D01*
X161492955Y-85835141D01*
X169877516Y-85835141D01*
X169877516Y-86014858D01*
X169917505Y-86190059D01*
X169995477Y-86351969D01*
X169995478Y-86351970D01*
X169995479Y-86351972D01*
X170107526Y-86492475D01*
X170248029Y-86604522D01*
X170409942Y-86682496D01*
X170585146Y-86722485D01*
X170764854Y-86722485D01*
X170764856Y-86722485D01*
X170940060Y-86682496D01*
X171101973Y-86604522D01*
X171242476Y-86492475D01*
X171354523Y-86351972D01*
X171432497Y-86190059D01*
X171472486Y-86014855D01*
X171473551Y-85976793D01*
X171475001Y-85925016D01*
X171475001Y-85924983D01*
X171472486Y-85835152D01*
X171472486Y-85835145D01*
X171432497Y-85659941D01*
X171354523Y-85498028D01*
X171242476Y-85357525D01*
X171101973Y-85245478D01*
X171101971Y-85245477D01*
X171101970Y-85245476D01*
X170940060Y-85167504D01*
X170764859Y-85127515D01*
X170764856Y-85127515D01*
X170585146Y-85127515D01*
X170585142Y-85127515D01*
X170409941Y-85167504D01*
X170248031Y-85245476D01*
X170107526Y-85357525D01*
X169995477Y-85498030D01*
X169917505Y-85659940D01*
X169877516Y-85835141D01*
X161492955Y-85835141D01*
X161117174Y-85459360D01*
X160294495Y-84636680D01*
X160261010Y-84575357D01*
X160265994Y-84505665D01*
X160307866Y-84449732D01*
X160373330Y-84425315D01*
X160382152Y-84424999D01*
X161262965Y-84425000D01*
X161262965Y-84424999D01*
X161272375Y-84424999D01*
X161312969Y-84402834D01*
X161339327Y-84400000D01*
X162686602Y-84400000D01*
X162753641Y-84419685D01*
X162760237Y-84425000D01*
X162762964Y-84425000D01*
X170674992Y-84425000D01*
X170675001Y-84425000D01*
X170773255Y-84422592D01*
X170965988Y-84384255D01*
X171147538Y-84309055D01*
X171310929Y-84199880D01*
X171449881Y-84060928D01*
X171559055Y-83897537D01*
X171634256Y-83715987D01*
X171672593Y-83523254D01*
X171674999Y-83425000D01*
X171674999Y-82255334D01*
X178891191Y-82255334D01*
X178909879Y-82433139D01*
X178909880Y-82433141D01*
X178965123Y-82603163D01*
X178965126Y-82603169D01*
X179054517Y-82757999D01*
X179072383Y-82777841D01*
X179174140Y-82890855D01*
X179174143Y-82890857D01*
X179174146Y-82890860D01*
X179318783Y-82995946D01*
X179482109Y-83068663D01*
X179583113Y-83090132D01*
X179644595Y-83123324D01*
X179678371Y-83184487D01*
X179673719Y-83254202D01*
X179632114Y-83310334D01*
X179613667Y-83321219D01*
X179613719Y-83321309D01*
X179608096Y-83324554D01*
X179463456Y-83429642D01*
X179343828Y-83562503D01*
X179254438Y-83717331D01*
X179254435Y-83717337D01*
X179199192Y-83887359D01*
X179199191Y-83887361D01*
X179180503Y-84065167D01*
X179199191Y-84242972D01*
X179199192Y-84242974D01*
X179254435Y-84412996D01*
X179254438Y-84413002D01*
X179343829Y-84567832D01*
X179422505Y-84655210D01*
X179442395Y-84677300D01*
X179472625Y-84740291D01*
X179464000Y-84809626D01*
X179457633Y-84822271D01*
X179365125Y-84982502D01*
X179365123Y-84982505D01*
X179309880Y-85152527D01*
X179309879Y-85152529D01*
X179291191Y-85330335D01*
X179309879Y-85508140D01*
X179309880Y-85508142D01*
X179365123Y-85678164D01*
X179365126Y-85678170D01*
X179454517Y-85833000D01*
X179456455Y-85835152D01*
X179574140Y-85965856D01*
X179574143Y-85965858D01*
X179574146Y-85965861D01*
X179718783Y-86070947D01*
X179882109Y-86143664D01*
X180056985Y-86180835D01*
X180056986Y-86180835D01*
X180235765Y-86180835D01*
X180235767Y-86180835D01*
X180410643Y-86143664D01*
X180573969Y-86070947D01*
X180718606Y-85965861D01*
X180733339Y-85949499D01*
X180755413Y-85924983D01*
X180838235Y-85833000D01*
X180927626Y-85678170D01*
X180982873Y-85508138D01*
X181001561Y-85330335D01*
X180982873Y-85152532D01*
X180927626Y-84982500D01*
X180838235Y-84827670D01*
X180739667Y-84718200D01*
X180709438Y-84655210D01*
X180718063Y-84585875D01*
X180724431Y-84573229D01*
X180727548Y-84567830D01*
X180816938Y-84413002D01*
X180872185Y-84242970D01*
X180890873Y-84065167D01*
X180872185Y-83887364D01*
X180816938Y-83717332D01*
X180727547Y-83562502D01*
X180680691Y-83510463D01*
X180607923Y-83429645D01*
X180607920Y-83429643D01*
X180607919Y-83429642D01*
X180607918Y-83429641D01*
X180463281Y-83324555D01*
X180299955Y-83251838D01*
X180299953Y-83251837D01*
X180198951Y-83230369D01*
X180137469Y-83197177D01*
X180103693Y-83136014D01*
X180108345Y-83066299D01*
X180149950Y-83010167D01*
X180168397Y-82999281D01*
X180168346Y-82999192D01*
X180173964Y-82995947D01*
X180173969Y-82995946D01*
X180318606Y-82890860D01*
X180438235Y-82757999D01*
X180527626Y-82603169D01*
X180582873Y-82433137D01*
X180601561Y-82255334D01*
X180582873Y-82077531D01*
X180527626Y-81907499D01*
X180438235Y-81752669D01*
X180391379Y-81700630D01*
X180318611Y-81619812D01*
X180318608Y-81619810D01*
X180318607Y-81619809D01*
X180318606Y-81619808D01*
X180173969Y-81514722D01*
X180010643Y-81442005D01*
X180010641Y-81442004D01*
X179882970Y-81414867D01*
X179835767Y-81404834D01*
X179656985Y-81404834D01*
X179626330Y-81411349D01*
X179482109Y-81442004D01*
X179482104Y-81442006D01*
X179318784Y-81514721D01*
X179174144Y-81619809D01*
X179054516Y-81752670D01*
X178965126Y-81907498D01*
X178965123Y-81907504D01*
X178909880Y-82077526D01*
X178909879Y-82077528D01*
X178891191Y-82255334D01*
X171674999Y-82255334D01*
X171674999Y-79725000D01*
X178669815Y-79725000D01*
X178688503Y-79902805D01*
X178688504Y-79902807D01*
X178743747Y-80072829D01*
X178743750Y-80072835D01*
X178833141Y-80227665D01*
X178872807Y-80271718D01*
X178952764Y-80360521D01*
X178952767Y-80360523D01*
X178952770Y-80360526D01*
X179097407Y-80465612D01*
X179260733Y-80538329D01*
X179435609Y-80575500D01*
X179435610Y-80575500D01*
X179614389Y-80575500D01*
X179614391Y-80575500D01*
X179789267Y-80538329D01*
X179952593Y-80465612D01*
X180097230Y-80360526D01*
X180216859Y-80227665D01*
X180306250Y-80072835D01*
X180361497Y-79902803D01*
X180380185Y-79725000D01*
X180361497Y-79547197D01*
X180306250Y-79377165D01*
X180216859Y-79222335D01*
X180148113Y-79145985D01*
X180097235Y-79089478D01*
X180097232Y-79089476D01*
X180097231Y-79089475D01*
X180097230Y-79089474D01*
X179952593Y-78984388D01*
X179789267Y-78911671D01*
X179789265Y-78911670D01*
X179660111Y-78884218D01*
X179614391Y-78874500D01*
X179435609Y-78874500D01*
X179404954Y-78881015D01*
X179260733Y-78911670D01*
X179260728Y-78911672D01*
X179097408Y-78984387D01*
X178952768Y-79089475D01*
X178833140Y-79222336D01*
X178743750Y-79377164D01*
X178743747Y-79377170D01*
X178688504Y-79547192D01*
X178688503Y-79547194D01*
X178669815Y-79725000D01*
X171674999Y-79725000D01*
X171674999Y-79426527D01*
X171675036Y-79423490D01*
X171677145Y-79337420D01*
X171679491Y-79316266D01*
X171713362Y-79145985D01*
X171720415Y-79122733D01*
X171786271Y-78963741D01*
X171797728Y-78942309D01*
X171893331Y-78799228D01*
X171908747Y-78780441D01*
X172030441Y-78658748D01*
X172049221Y-78643336D01*
X172192312Y-78547725D01*
X172213736Y-78536274D01*
X172372739Y-78470412D01*
X172395981Y-78463362D01*
X172566269Y-78429490D01*
X172587414Y-78427145D01*
X172669667Y-78425129D01*
X172673489Y-78425036D01*
X172676526Y-78424999D01*
X181674598Y-78424999D01*
X181675336Y-78425001D01*
G37*
%TD.AperFunction*%
%TA.AperFunction,Conductor*%
G36*
X159608363Y-85370185D02*
G01*
X159629005Y-85386819D01*
X161038581Y-86796395D01*
X161072066Y-86857718D01*
X161074900Y-86884076D01*
X161074900Y-89152466D01*
X161055215Y-89219505D01*
X161002411Y-89265260D01*
X160970299Y-89274939D01*
X160944284Y-89279059D01*
X160764565Y-89337454D01*
X160596200Y-89423240D01*
X160520284Y-89478397D01*
X160443327Y-89534310D01*
X160443325Y-89534312D01*
X160443323Y-89534313D01*
X160402094Y-89575541D01*
X160340770Y-89609025D01*
X160271079Y-89604039D01*
X160216039Y-89563344D01*
X160203282Y-89546718D01*
X160203280Y-89546716D01*
X160201123Y-89543905D01*
X160175930Y-89478736D01*
X160175500Y-89468420D01*
X160175500Y-88720071D01*
X160175501Y-88720058D01*
X160175501Y-88604616D01*
X160174390Y-88600470D01*
X160148207Y-88502755D01*
X160143968Y-88495413D01*
X160095480Y-88411429D01*
X160020913Y-88336862D01*
X160016582Y-88332531D01*
X160016571Y-88332521D01*
X159135793Y-87451742D01*
X159135792Y-87451741D01*
X159135791Y-87451740D01*
X159090128Y-87425376D01*
X159044467Y-87399013D01*
X158993535Y-87385366D01*
X158942605Y-87371720D01*
X158942604Y-87371720D01*
X155682241Y-87371720D01*
X155615202Y-87352035D01*
X155594560Y-87335401D01*
X154881210Y-86622050D01*
X154881209Y-86622049D01*
X154881208Y-86622048D01*
X154835545Y-86595684D01*
X154789884Y-86569321D01*
X154738952Y-86555674D01*
X154688022Y-86542028D01*
X154688021Y-86542028D01*
X154459463Y-86542028D01*
X154392424Y-86522343D01*
X154346669Y-86469539D01*
X154336725Y-86400381D01*
X154352093Y-86358531D01*
X154351501Y-86358246D01*
X154354434Y-86352153D01*
X154354473Y-86352050D01*
X154354518Y-86351976D01*
X154354522Y-86351972D01*
X154432496Y-86190059D01*
X154472485Y-86014855D01*
X154473550Y-85976793D01*
X154475000Y-85925016D01*
X154475000Y-85924983D01*
X154472485Y-85835152D01*
X154472485Y-85835145D01*
X154432496Y-85659941D01*
X154432495Y-85659938D01*
X154369102Y-85528301D01*
X154357750Y-85459360D01*
X154385472Y-85395226D01*
X154443468Y-85356260D01*
X154480822Y-85350500D01*
X158404108Y-85350500D01*
X159541324Y-85350500D01*
X159608363Y-85370185D01*
G37*
%TD.AperFunction*%
%TD*%
M02*
