M48
; DRILL file {KiCad 8.0.4-8.0.4-0~ubuntu22.04.1} date 2025-02-28T00:25:37+0900
; FORMAT={-:-/ absolute / inch / decimal}
; #@! TF.CreationDate,2025-02-28T00:25:37+09:00
; #@! TF.GenerationSoftware,Kicad,Pcbnew,8.0.4-8.0.4-0~ubuntu22.04.1
; #@! TF.FileFunction,Plated,1,2,PTH
FMAT,2
INCH
; #@! TA.AperFunction,Plated,PTH,ViaDrill
T1C0.0118
; #@! TA.AperFunction,Plated,PTH,ViaDrill
T2C0.0157
; #@! TA.AperFunction,Plated,PTH,ComponentDrill
T3C0.0197
; #@! TA.AperFunction,Plated,PTH,ComponentDrill
T4C0.0256
; #@! TA.AperFunction,Plated,PTH,ComponentDrill
T5C0.0276
; #@! TA.AperFunction,Plated,PTH,ComponentDrill
T6C0.0512
; #@! TA.AperFunction,Plated,PTH,ComponentDrill
T7C0.0551
%
G90
G05
T1
X5.2018Y-3.9646
X5.2037Y-3.6821
X5.2806Y-3.8819
X5.2815Y-3.7884
X5.2815Y-4.1732
X5.2817Y-3.5522
X5.2854Y-3.438
X5.2884Y-4.2431
X5.3415Y-3.6152
X5.3425Y-3.6732
X5.3435Y-3.937
X5.3445Y-3.9951
X5.3455Y-4.0531
X5.3455Y-4.1112
X5.3878Y-3.6142
X5.3957Y-3.4892
X5.4016Y-3.874
X5.4026Y-3.7894
X5.4035Y-3.6732
X5.4163Y-3.2992
X5.4173Y-4.3642
X5.4281Y-4.1693
X5.4498Y-3.378
X5.4567Y-4.4104
X5.4636Y-3.4606
X5.4656Y-3.9951
X5.4656Y-4.0522
X5.4665Y-3.9341
X5.4665Y-4.1112
X5.4892Y-3.8583
X5.4921Y-4.2776
X5.503Y-4.0807
X5.503Y-4.1407
X5.5039Y-3.9665
X5.5039Y-4.0236
X5.5197Y-4.2067
X5.5335Y-3.938
X5.5492Y-3.75
X5.5502Y-3.6467
X5.5817Y-3.3996
X5.5896Y-3.938
X5.5896Y-4.0502
X5.5906Y-4.1102
X5.5935Y-3.9921
X5.5945Y-4.2047
X5.6033Y-3.3553
X5.6181Y-3.189
X5.628Y-3.4272
X5.6319Y-4.4173
X5.6467Y-3.75
X5.6506Y-4.2805
X5.6575Y-3.3553
X5.6575Y-4.0807
X5.6673Y-4.3179
X5.6742Y-4.2037
X5.6754Y-3.3033
X5.689Y-3.7717
X5.6939Y-4.4163
X5.7067Y-3.622
X5.7106Y-4.1565
X5.7195Y-3.75
X5.7352Y-4.5049
X5.7431Y-3.3366
X5.747Y-4.2746
X5.8002Y-3.3819
X5.813Y-4.1201
X5.815Y-3.8681
X5.8337Y-4.2825
X5.8346Y-3.4242
X5.8398Y-3.1685
X5.8504Y-4.1762
X5.8543Y-3.8435
X5.8642Y-4.4035
X5.8789Y-3.9311
X5.8815Y-3.9833
X5.8821Y-3.8933
X5.8848Y-4.0167
X5.8848Y-4.0453
X5.9104Y-3.4229
X5.9104Y-3.6622
X5.9154Y-4.1201
X5.9163Y-3.7392
X5.9176Y-3.9592
X5.9182Y-3.4525
X5.9213Y-3.5768
X5.9311Y-4.2923
X5.938Y-3.4744
X5.9567Y-3.9636
X5.9606Y-4.2087
X5.9648Y-3.1734
X5.9695Y-4.3327
X5.9715Y-4.0679
X5.9764Y-3.5463
X5.9774Y-4.0059
X5.9783Y-4.5
X5.9843Y-4.4163
X5.9902Y-3.2372
X5.9911Y-3.3051
X5.998Y-3.7392
X6.0108Y-4.2087
X6.0541Y-3.9637
X6.0581Y-3.1752
X6.065Y-4.501
X6.0689Y-3.2372
X6.0689Y-3.4734
X6.0719Y-3.3051
X6.0974Y-4.2087
X6.1004Y-4.1206
X6.1024Y-3.376
X6.1102Y-4.2795
X6.122Y-3.6073
X6.123Y-3.738
X6.123Y-3.8612
X6.1368Y-3.4301
X6.1752Y-4.122
X6.1791Y-4.1959
X6.1949Y-3.5236
X6.2274Y-4.065
X6.2434Y-3.5059
X6.252Y-3.7372
X6.252Y-4.1555
X6.2648Y-3.1152
X6.2657Y-3.003
X6.2667Y-3.2451
X6.2677Y-3.5226
X6.2677Y-4.4252
X6.2724Y-3.9264
X6.2748Y-3.3768
X6.2772Y-4.4691
X6.2815Y-3.8396
X6.2904Y-3.5423
X6.2933Y-4.6663
X6.2939Y-3.1527
X6.3041Y-2.9616
X6.3091Y-4.7126
X6.3169Y-3.9233
X6.3179Y-4.4892
X6.3199Y-3.4222
X6.3199Y-4.6033
X6.3219Y-3.065
X6.3228Y-3.1722
X6.3248Y-3.4961
X6.3317Y-4.6388
X6.3372Y-3.2255
X6.3386Y-4.4439
X6.3429Y-3.3406
X6.3435Y-3.6821
X6.3553Y-3.0266
X6.3612Y-3.8907
X6.3652Y-4.061
X6.3711Y-3.8297
X6.373Y-3.7047
X6.3799Y-3.1225
X6.3809Y-4.5453
X6.3848Y-2.9626
X6.3848Y-4.2815
X6.3848Y-4.7116
X6.3858Y-4.3297
X6.3986Y-3.4203
X6.3996Y-3.497
X6.4016Y-4.6437
X6.4085Y-4.1575
X6.4193Y-4.4435
X6.4242Y-3.2195
X6.4345Y-3.6816
X6.438Y-4.6043
X6.439Y-4.4951
X6.44Y-3.1772
X6.4596Y-2.9626
X6.4616Y-3.0005
X6.4636Y-4.7116
X6.4665Y-3.0669
X6.4689Y-3.6724
X6.4691Y-4.5154
X6.4799Y-3.5226
X6.4803Y-3.5846
X6.4819Y-3.2009
X6.4833Y-3.8376
X6.4833Y-4.0571
X6.486Y-4.1496
X6.4877Y-3.7042
X6.497Y-4.6791
X6.502Y-3.247
X6.503Y-4.4252
X6.5295Y-3.6585
X6.5305Y-3.7667
X6.5492Y-4.1585
X6.5561Y-3.6083
X6.572Y-3.8551
X6.5906Y-3.3396
X6.6112Y-3.4193
X6.6112Y-3.4813
X6.6427Y-3.8947
X6.6427Y-3.9577
X6.6585Y-4.1594
X6.6663Y-4.2815
X6.6683Y-3.561
X6.6713Y-4.0817
X6.6781Y-3.75
X6.7654Y-4.0823
X6.7766Y-3.25
X6.7766Y-4.4567
X6.7854Y-3.7874
X6.7933Y-3.1073
X6.7982Y-4.5413
X6.8071Y-3.6211
X6.812Y-4.2825
X6.8228Y-3.9577
X6.8272Y-4.037
X6.8386Y-3.415
X6.8398Y-3.25
X6.8406Y-3.4843
X6.8406Y-4.1585
X6.8465Y-4.3593
X6.8691Y-4.2244
X6.882Y-3.5924
X6.885Y-3.287
X6.8874Y-3.3455
X6.8907Y-4.4862
X6.8907Y-4.5669
X6.9016Y-4.0049
X6.9065Y-3.1063
X6.9193Y-4.4252
X6.9222Y-3.6545
X6.9283Y-3.3937
X6.9311Y-3.5571
X6.9341Y-4.2451
X6.9341Y-4.3612
X6.9419Y-4.0728
X6.9577Y-3.253
X6.9618Y-3.3337
X6.9618Y-3.4508
X6.9866Y-4.1177
X6.998Y-3.587
X7.0Y-3.4898
X7.0008Y-4.4252
X7.0039Y-4.564
X7.0136Y-3.3872
X7.0146Y-4.2791
X7.0152Y-3.1354
X7.0295Y-4.178
X7.0398Y-3.2882
X7.0526Y-3.3858
X7.064Y-4.3947
X7.0673Y-3.1896
X7.0689Y-4.4732
X7.0974Y-4.0049
X7.1033Y-3.1083
X7.1142Y-3.2687
X7.1268Y-3.3949
X7.1287Y-3.4729
X7.1358Y-4.0659
X7.1378Y-4.2726
X7.1417Y-4.5344
X7.1752Y-3.187
X7.2165Y-4.0079
X7.2205Y-3.5837
X7.2205Y-3.8868
X7.2215Y-3.6516
X7.2244Y-3.438
X7.2283Y-4.4596
X7.239Y-4.1768
X7.2398Y-4.1146
X7.2417Y-4.2606
X7.2539Y-4.5541
X7.2579Y-3.9469
X7.2799Y-4.4301
X7.2884Y-3.122
X7.3012Y-4.3868
X7.3268Y-4.0128
X7.3287Y-3.752
X7.3317Y-3.6516
X7.3327Y-3.9045
X7.3366Y-3.4154
X7.3372Y-4.125
X7.3421Y-4.2244
X7.3421Y-4.2657
X7.3435Y-3.5187
X7.3632Y-3.7333
X7.3652Y-3.9301
X7.4183Y-3.4124
X7.4321Y-3.2943
X7.4331Y-4.0413
X7.435Y-3.6358
X7.436Y-3.8022
X7.436Y-3.8642
X7.438Y-3.7382
X7.4386Y-4.1142
X7.4409Y-3.5177
X7.4425Y-4.2244
X7.4911Y-3.2057
X7.503Y-3.6731
X7.5285Y-4.3642
X7.5315Y-3.6014
X7.5335Y-4.4419
X7.5373Y-4.0274
X7.5561Y-4.2451
X7.5699Y-3.4331
X7.5787Y-3.6987
X7.5935Y-3.7725
X7.5954Y-3.8926
X7.62Y-3.992
X7.6683Y-3.6672
X7.6949Y-4.1053
X7.6969Y-3.5983
X7.6977Y-3.8699
X7.6977Y-3.9447
X7.7047Y-3.6672
X7.7402Y-3.4547
X7.7402Y-4.2175
X7.8041Y-3.5925
X7.8051Y-4.064
T2
X5.6858Y-4.2443
X5.7539Y-4.3907
X5.81Y-3.3425
X5.872Y-3.6407
X6.0984Y-4.0782
X6.1161Y-3.5335
X6.3484Y-3.7411
X6.6032Y-3.9685
X7.2929Y-4.2618
T3
X5.6063Y-3.7943
X5.6063Y-3.8337
X5.6063Y-3.873
X5.753Y-3.6496
X5.753Y-3.689
X5.7579Y-3.9695
X5.7579Y-4.0089
X6.8898Y-4.3406
X6.8898Y-4.3799
T4
X5.715Y-3.253
X5.715Y-3.203
X5.765Y-3.203
X5.765Y-3.253
X5.815Y-3.203
X5.815Y-3.253
X5.865Y-3.203
X5.865Y-3.253
X5.915Y-3.203
X5.915Y-3.253
T5
X5.8996Y-4.1567
X5.8996Y-4.2067
X7.0679Y-3.1388
X7.0766Y-3.2384
X7.088Y-3.3097
X7.0901Y-4.5311
X7.0924Y-3.3595
X7.0988Y-4.4315
X7.1059Y-4.3618
X7.1102Y-4.312
X7.4917Y-3.5715
X7.4952Y-4.0525
X7.5683Y-3.6358
X7.5719Y-3.9882
X7.6231Y-3.9426
X7.624Y-3.6791
X7.6614Y-3.9104
X7.6623Y-3.7113
T6
G00X6.3652Y-3.561
M15
G01X6.3573Y-3.561
M16
G05
G00X6.6014Y-3.561
M15
G01X6.5935Y-3.561
M16
G05
G00X6.5974Y-4.1102
M15
G01X6.6053Y-4.1102
M16
G05
T7
G00X6.3632Y-4.1102
M15
G01X6.3671Y-4.1102
M16
G05
M30
