%TF.GenerationSoftware,KiCad,Pcbnew,8.0.4-8.0.4-0~ubuntu22.04.1*%
%TF.CreationDate,2025-02-28T00:25:37+09:00*%
%TF.ProjectId,main,6d61696e-2e6b-4696-9361-645f70636258,rev?*%
%TF.SameCoordinates,Original*%
%TF.FileFunction,Legend,Top*%
%TF.FilePolarity,Positive*%
%FSLAX46Y46*%
G04 Gerber Fmt 4.6, Leading zero omitted, Abs format (unit mm)*
G04 Created by KiCad (PCBNEW 8.0.4-8.0.4-0~ubuntu22.04.1) date 2025-02-28 00:25:37*
%MOMM*%
%LPD*%
G01*
G04 APERTURE LIST*
G04 Aperture macros list*
%AMRoundRect*
0 Rectangle with rounded corners*
0 $1 Rounding radius*
0 $2 $3 $4 $5 $6 $7 $8 $9 X,Y pos of 4 corners*
0 Add a 4 corners polygon primitive as box body*
4,1,4,$2,$3,$4,$5,$6,$7,$8,$9,$2,$3,0*
0 Add four circle primitives for the rounded corners*
1,1,$1+$1,$2,$3*
1,1,$1+$1,$4,$5*
1,1,$1+$1,$6,$7*
1,1,$1+$1,$8,$9*
0 Add four rect primitives between the rounded corners*
20,1,$1+$1,$2,$3,$4,$5,0*
20,1,$1+$1,$4,$5,$6,$7,0*
20,1,$1+$1,$6,$7,$8,$9,0*
20,1,$1+$1,$8,$9,$2,$3,0*%
%AMRotRect*
0 Rectangle, with rotation*
0 The origin of the aperture is its center*
0 $1 length*
0 $2 width*
0 $3 Rotation angle, in degrees counterclockwise*
0 Add horizontal line*
21,1,$1,$2,0,0,$3*%
G04 Aperture macros list end*
%ADD10C,0.150000*%
%ADD11C,0.100000*%
%ADD12C,0.120000*%
%ADD13C,0.600000*%
%ADD14RoundRect,0.135000X0.135000X0.185000X-0.135000X0.185000X-0.135000X-0.185000X0.135000X-0.185000X0*%
%ADD15RoundRect,0.225000X0.225000X0.250000X-0.225000X0.250000X-0.225000X-0.250000X0.225000X-0.250000X0*%
%ADD16RoundRect,0.100000X0.162635X-0.021213X-0.021213X0.162635X-0.162635X0.021213X0.021213X-0.162635X0*%
%ADD17RotRect,5.600000X5.600000X45.000000*%
%ADD18RoundRect,0.062500X0.220971X-0.309359X0.309359X-0.220971X-0.220971X0.309359X-0.309359X0.220971X0*%
%ADD19RoundRect,0.062500X-0.220971X-0.309359X0.309359X0.220971X0.220971X0.309359X-0.309359X-0.220971X0*%
%ADD20RoundRect,0.262500X-0.262500X-0.537500X0.262500X-0.537500X0.262500X0.537500X-0.262500X0.537500X0*%
%ADD21RoundRect,0.100000X-0.130000X-0.100000X0.130000X-0.100000X0.130000X0.100000X-0.130000X0.100000X0*%
%ADD22C,1.100000*%
%ADD23RoundRect,0.135000X-0.135000X-0.185000X0.135000X-0.185000X0.135000X0.185000X-0.135000X0.185000X0*%
%ADD24RoundRect,0.147500X-0.147500X-0.172500X0.147500X-0.172500X0.147500X0.172500X-0.147500X0.172500X0*%
%ADD25RoundRect,0.237500X-0.237500X0.287500X-0.237500X-0.287500X0.237500X-0.287500X0.237500X0.287500X0*%
%ADD26RoundRect,0.100000X0.130000X0.100000X-0.130000X0.100000X-0.130000X-0.100000X0.130000X-0.100000X0*%
%ADD27RoundRect,0.140000X-0.170000X0.140000X-0.170000X-0.140000X0.170000X-0.140000X0.170000X0.140000X0*%
%ADD28RoundRect,0.135000X0.185000X-0.135000X0.185000X0.135000X-0.185000X0.135000X-0.185000X-0.135000X0*%
%ADD29RoundRect,0.150000X-0.512500X-0.150000X0.512500X-0.150000X0.512500X0.150000X-0.512500X0.150000X0*%
%ADD30RoundRect,0.135000X-0.185000X0.135000X-0.185000X-0.135000X0.185000X-0.135000X0.185000X0.135000X0*%
%ADD31RoundRect,0.100000X-0.162635X0.021213X0.021213X-0.162635X0.162635X-0.021213X-0.021213X0.162635X0*%
%ADD32R,0.900000X5.000000*%
%ADD33R,1.000000X0.280000*%
%ADD34RoundRect,0.100000X0.100000X-0.130000X0.100000X0.130000X-0.100000X0.130000X-0.100000X-0.130000X0*%
%ADD35RoundRect,0.140000X0.021213X-0.219203X0.219203X-0.021213X-0.021213X0.219203X-0.219203X0.021213X0*%
%ADD36R,1.750000X1.750000*%
%ADD37RoundRect,0.062500X0.325000X-0.062500X0.325000X0.062500X-0.325000X0.062500X-0.325000X-0.062500X0*%
%ADD38RoundRect,0.062500X0.062500X-0.325000X0.062500X0.325000X-0.062500X0.325000X-0.062500X-0.325000X0*%
%ADD39R,1.450000X2.400000*%
%ADD40RoundRect,0.087500X-0.087500X-0.225000X0.087500X-0.225000X0.087500X0.225000X-0.087500X0.225000X0*%
%ADD41RoundRect,0.087500X-0.225000X-0.087500X0.225000X-0.087500X0.225000X0.087500X-0.225000X0.087500X0*%
%ADD42RoundRect,0.175000X-0.175000X-0.575000X0.175000X-0.575000X0.175000X0.575000X-0.175000X0.575000X0*%
%ADD43RoundRect,0.200000X-0.300000X-0.200000X0.300000X-0.200000X0.300000X0.200000X-0.300000X0.200000X0*%
%ADD44RoundRect,0.140000X-0.140000X-0.170000X0.140000X-0.170000X0.140000X0.170000X-0.140000X0.170000X0*%
%ADD45RoundRect,0.237500X0.237500X-0.287500X0.237500X0.287500X-0.237500X0.287500X-0.237500X-0.287500X0*%
%ADD46RoundRect,0.140000X0.140000X0.170000X-0.140000X0.170000X-0.140000X-0.170000X0.140000X-0.170000X0*%
%ADD47R,0.900000X2.100000*%
%ADD48R,0.700000X1.500000*%
%ADD49RoundRect,0.062500X-0.325000X0.062500X-0.325000X-0.062500X0.325000X-0.062500X0.325000X0.062500X0*%
%ADD50RoundRect,0.062500X-0.062500X0.325000X-0.062500X-0.325000X0.062500X-0.325000X0.062500X0.325000X0*%
%ADD51O,1.000000X1.000000*%
%ADD52R,1.000000X1.000000*%
%ADD53RoundRect,0.140000X0.170000X-0.140000X0.170000X0.140000X-0.170000X0.140000X-0.170000X-0.140000X0*%
%ADD54RoundRect,0.150000X0.150000X-0.512500X0.150000X0.512500X-0.150000X0.512500X-0.150000X-0.512500X0*%
%ADD55RoundRect,0.150000X0.150000X-0.587500X0.150000X0.587500X-0.150000X0.587500X-0.150000X-0.587500X0*%
%ADD56RoundRect,0.100000X0.021213X0.162635X-0.162635X-0.021213X-0.021213X-0.162635X0.162635X0.021213X0*%
%ADD57O,0.850000X0.850000*%
%ADD58R,0.850000X0.850000*%
%ADD59RoundRect,0.150000X0.587500X0.150000X-0.587500X0.150000X-0.587500X-0.150000X0.587500X-0.150000X0*%
%ADD60RoundRect,0.100000X-0.021213X-0.162635X0.162635X0.021213X0.021213X0.162635X-0.162635X-0.021213X0*%
%ADD61RoundRect,0.100000X-0.100000X0.130000X-0.100000X-0.130000X0.100000X-0.130000X0.100000X0.130000X0*%
%ADD62RoundRect,0.140000X0.219203X0.021213X0.021213X0.219203X-0.219203X-0.021213X-0.021213X-0.219203X0*%
%ADD63R,0.600000X1.500000*%
%ADD64O,2.500000X1.800000*%
G04 APERTURE END LIST*
D10*
X150408333Y-103374819D02*
X150075000Y-102898628D01*
X149836905Y-103374819D02*
X149836905Y-102374819D01*
X149836905Y-102374819D02*
X150217857Y-102374819D01*
X150217857Y-102374819D02*
X150313095Y-102422438D01*
X150313095Y-102422438D02*
X150360714Y-102470057D01*
X150360714Y-102470057D02*
X150408333Y-102565295D01*
X150408333Y-102565295D02*
X150408333Y-102708152D01*
X150408333Y-102708152D02*
X150360714Y-102803390D01*
X150360714Y-102803390D02*
X150313095Y-102851009D01*
X150313095Y-102851009D02*
X150217857Y-102898628D01*
X150217857Y-102898628D02*
X149836905Y-102898628D01*
X150979762Y-102803390D02*
X150884524Y-102755771D01*
X150884524Y-102755771D02*
X150836905Y-102708152D01*
X150836905Y-102708152D02*
X150789286Y-102612914D01*
X150789286Y-102612914D02*
X150789286Y-102565295D01*
X150789286Y-102565295D02*
X150836905Y-102470057D01*
X150836905Y-102470057D02*
X150884524Y-102422438D01*
X150884524Y-102422438D02*
X150979762Y-102374819D01*
X150979762Y-102374819D02*
X151170238Y-102374819D01*
X151170238Y-102374819D02*
X151265476Y-102422438D01*
X151265476Y-102422438D02*
X151313095Y-102470057D01*
X151313095Y-102470057D02*
X151360714Y-102565295D01*
X151360714Y-102565295D02*
X151360714Y-102612914D01*
X151360714Y-102612914D02*
X151313095Y-102708152D01*
X151313095Y-102708152D02*
X151265476Y-102755771D01*
X151265476Y-102755771D02*
X151170238Y-102803390D01*
X151170238Y-102803390D02*
X150979762Y-102803390D01*
X150979762Y-102803390D02*
X150884524Y-102851009D01*
X150884524Y-102851009D02*
X150836905Y-102898628D01*
X150836905Y-102898628D02*
X150789286Y-102993866D01*
X150789286Y-102993866D02*
X150789286Y-103184342D01*
X150789286Y-103184342D02*
X150836905Y-103279580D01*
X150836905Y-103279580D02*
X150884524Y-103327200D01*
X150884524Y-103327200D02*
X150979762Y-103374819D01*
X150979762Y-103374819D02*
X151170238Y-103374819D01*
X151170238Y-103374819D02*
X151265476Y-103327200D01*
X151265476Y-103327200D02*
X151313095Y-103279580D01*
X151313095Y-103279580D02*
X151360714Y-103184342D01*
X151360714Y-103184342D02*
X151360714Y-102993866D01*
X151360714Y-102993866D02*
X151313095Y-102898628D01*
X151313095Y-102898628D02*
X151265476Y-102851009D01*
X151265476Y-102851009D02*
X151170238Y-102803390D01*
X142207142Y-103189580D02*
X142159523Y-103237200D01*
X142159523Y-103237200D02*
X142016666Y-103284819D01*
X142016666Y-103284819D02*
X141921428Y-103284819D01*
X141921428Y-103284819D02*
X141778571Y-103237200D01*
X141778571Y-103237200D02*
X141683333Y-103141961D01*
X141683333Y-103141961D02*
X141635714Y-103046723D01*
X141635714Y-103046723D02*
X141588095Y-102856247D01*
X141588095Y-102856247D02*
X141588095Y-102713390D01*
X141588095Y-102713390D02*
X141635714Y-102522914D01*
X141635714Y-102522914D02*
X141683333Y-102427676D01*
X141683333Y-102427676D02*
X141778571Y-102332438D01*
X141778571Y-102332438D02*
X141921428Y-102284819D01*
X141921428Y-102284819D02*
X142016666Y-102284819D01*
X142016666Y-102284819D02*
X142159523Y-102332438D01*
X142159523Y-102332438D02*
X142207142Y-102380057D01*
X143159523Y-103284819D02*
X142588095Y-103284819D01*
X142873809Y-103284819D02*
X142873809Y-102284819D01*
X142873809Y-102284819D02*
X142778571Y-102427676D01*
X142778571Y-102427676D02*
X142683333Y-102522914D01*
X142683333Y-102522914D02*
X142588095Y-102570533D01*
X144064285Y-102284819D02*
X143588095Y-102284819D01*
X143588095Y-102284819D02*
X143540476Y-102761009D01*
X143540476Y-102761009D02*
X143588095Y-102713390D01*
X143588095Y-102713390D02*
X143683333Y-102665771D01*
X143683333Y-102665771D02*
X143921428Y-102665771D01*
X143921428Y-102665771D02*
X144016666Y-102713390D01*
X144016666Y-102713390D02*
X144064285Y-102761009D01*
X144064285Y-102761009D02*
X144111904Y-102856247D01*
X144111904Y-102856247D02*
X144111904Y-103094342D01*
X144111904Y-103094342D02*
X144064285Y-103189580D01*
X144064285Y-103189580D02*
X144016666Y-103237200D01*
X144016666Y-103237200D02*
X143921428Y-103284819D01*
X143921428Y-103284819D02*
X143683333Y-103284819D01*
X143683333Y-103284819D02*
X143588095Y-103237200D01*
X143588095Y-103237200D02*
X143540476Y-103189580D01*
X148788570Y-96634234D02*
X148721226Y-96634234D01*
X148721226Y-96634234D02*
X148586539Y-96566890D01*
X148586539Y-96566890D02*
X148519196Y-96499547D01*
X148519196Y-96499547D02*
X148451852Y-96364860D01*
X148451852Y-96364860D02*
X148451852Y-96230173D01*
X148451852Y-96230173D02*
X148485524Y-96129158D01*
X148485524Y-96129158D02*
X148586539Y-95960799D01*
X148586539Y-95960799D02*
X148687554Y-95859784D01*
X148687554Y-95859784D02*
X148855913Y-95758768D01*
X148855913Y-95758768D02*
X148956928Y-95725097D01*
X148956928Y-95725097D02*
X149091615Y-95725097D01*
X149091615Y-95725097D02*
X149226302Y-95792440D01*
X149226302Y-95792440D02*
X149293646Y-95859784D01*
X149293646Y-95859784D02*
X149360989Y-95994471D01*
X149360989Y-95994471D02*
X149360989Y-96061814D01*
X149798722Y-96836264D02*
X149327318Y-97307669D01*
X149899737Y-96398532D02*
X149226302Y-96735249D01*
X149226302Y-96735249D02*
X149664035Y-97172982D01*
X151192495Y-91689660D02*
X151764915Y-92262080D01*
X151764915Y-92262080D02*
X151865930Y-92295752D01*
X151865930Y-92295752D02*
X151933274Y-92295752D01*
X151933274Y-92295752D02*
X152034289Y-92262080D01*
X152034289Y-92262080D02*
X152168976Y-92127393D01*
X152168976Y-92127393D02*
X152202648Y-92026378D01*
X152202648Y-92026378D02*
X152202648Y-91959034D01*
X152202648Y-91959034D02*
X152168976Y-91858019D01*
X152168976Y-91858019D02*
X151596556Y-91285599D01*
X153010770Y-91285599D02*
X152606709Y-91689660D01*
X152808739Y-91487630D02*
X152101633Y-90780523D01*
X152101633Y-90780523D02*
X152135304Y-90948882D01*
X152135304Y-90948882D02*
X152135304Y-91083569D01*
X152135304Y-91083569D02*
X152101633Y-91184584D01*
X139396666Y-86628200D02*
X139539523Y-86675819D01*
X139539523Y-86675819D02*
X139777618Y-86675819D01*
X139777618Y-86675819D02*
X139872856Y-86628200D01*
X139872856Y-86628200D02*
X139920475Y-86580580D01*
X139920475Y-86580580D02*
X139968094Y-86485342D01*
X139968094Y-86485342D02*
X139968094Y-86390104D01*
X139968094Y-86390104D02*
X139920475Y-86294866D01*
X139920475Y-86294866D02*
X139872856Y-86247247D01*
X139872856Y-86247247D02*
X139777618Y-86199628D01*
X139777618Y-86199628D02*
X139587142Y-86152009D01*
X139587142Y-86152009D02*
X139491904Y-86104390D01*
X139491904Y-86104390D02*
X139444285Y-86056771D01*
X139444285Y-86056771D02*
X139396666Y-85961533D01*
X139396666Y-85961533D02*
X139396666Y-85866295D01*
X139396666Y-85866295D02*
X139444285Y-85771057D01*
X139444285Y-85771057D02*
X139491904Y-85723438D01*
X139491904Y-85723438D02*
X139587142Y-85675819D01*
X139587142Y-85675819D02*
X139825237Y-85675819D01*
X139825237Y-85675819D02*
X139968094Y-85723438D01*
X140301428Y-85675819D02*
X140539523Y-86675819D01*
X140539523Y-86675819D02*
X140729999Y-85961533D01*
X140729999Y-85961533D02*
X140920475Y-86675819D01*
X140920475Y-86675819D02*
X141158571Y-85675819D01*
X142063332Y-86675819D02*
X141491904Y-86675819D01*
X141777618Y-86675819D02*
X141777618Y-85675819D01*
X141777618Y-85675819D02*
X141682380Y-85818676D01*
X141682380Y-85818676D02*
X141587142Y-85913914D01*
X141587142Y-85913914D02*
X141491904Y-85961533D01*
X174587142Y-87054819D02*
X174253809Y-86578628D01*
X174015714Y-87054819D02*
X174015714Y-86054819D01*
X174015714Y-86054819D02*
X174396666Y-86054819D01*
X174396666Y-86054819D02*
X174491904Y-86102438D01*
X174491904Y-86102438D02*
X174539523Y-86150057D01*
X174539523Y-86150057D02*
X174587142Y-86245295D01*
X174587142Y-86245295D02*
X174587142Y-86388152D01*
X174587142Y-86388152D02*
X174539523Y-86483390D01*
X174539523Y-86483390D02*
X174491904Y-86531009D01*
X174491904Y-86531009D02*
X174396666Y-86578628D01*
X174396666Y-86578628D02*
X174015714Y-86578628D01*
X174968095Y-86150057D02*
X175015714Y-86102438D01*
X175015714Y-86102438D02*
X175110952Y-86054819D01*
X175110952Y-86054819D02*
X175349047Y-86054819D01*
X175349047Y-86054819D02*
X175444285Y-86102438D01*
X175444285Y-86102438D02*
X175491904Y-86150057D01*
X175491904Y-86150057D02*
X175539523Y-86245295D01*
X175539523Y-86245295D02*
X175539523Y-86340533D01*
X175539523Y-86340533D02*
X175491904Y-86483390D01*
X175491904Y-86483390D02*
X174920476Y-87054819D01*
X174920476Y-87054819D02*
X175539523Y-87054819D01*
X175872857Y-86054819D02*
X176491904Y-86054819D01*
X176491904Y-86054819D02*
X176158571Y-86435771D01*
X176158571Y-86435771D02*
X176301428Y-86435771D01*
X176301428Y-86435771D02*
X176396666Y-86483390D01*
X176396666Y-86483390D02*
X176444285Y-86531009D01*
X176444285Y-86531009D02*
X176491904Y-86626247D01*
X176491904Y-86626247D02*
X176491904Y-86864342D01*
X176491904Y-86864342D02*
X176444285Y-86959580D01*
X176444285Y-86959580D02*
X176396666Y-87007200D01*
X176396666Y-87007200D02*
X176301428Y-87054819D01*
X176301428Y-87054819D02*
X176015714Y-87054819D01*
X176015714Y-87054819D02*
X175920476Y-87007200D01*
X175920476Y-87007200D02*
X175872857Y-86959580D01*
X180721423Y-79762558D02*
X181717618Y-79675402D01*
X181717618Y-79675402D02*
X181738369Y-79912591D01*
X181738369Y-79912591D02*
X181703382Y-80059055D01*
X181703382Y-80059055D02*
X181616807Y-80162231D01*
X181616807Y-80162231D02*
X181526082Y-80217969D01*
X181526082Y-80217969D02*
X181340481Y-80282008D01*
X181340481Y-80282008D02*
X181198167Y-80294459D01*
X181198167Y-80294459D02*
X181004265Y-80263622D01*
X181004265Y-80263622D02*
X180905239Y-80224485D01*
X180905239Y-80224485D02*
X180802063Y-80137910D01*
X180802063Y-80137910D02*
X180742175Y-79999747D01*
X180742175Y-79999747D02*
X180721423Y-79762558D01*
X180854232Y-81280569D02*
X180804429Y-80711314D01*
X180829330Y-80995941D02*
X181825525Y-80908786D01*
X181825525Y-80908786D02*
X181674911Y-80826361D01*
X181674911Y-80826361D02*
X181571735Y-80739786D01*
X181571735Y-80739786D02*
X181515996Y-80649060D01*
X181788753Y-81581216D02*
X181840341Y-81624504D01*
X181840341Y-81624504D02*
X181896080Y-81715229D01*
X181896080Y-81715229D02*
X181916831Y-81952418D01*
X181916831Y-81952418D02*
X181877694Y-82051444D01*
X181877694Y-82051444D02*
X181834406Y-82103032D01*
X181834406Y-82103032D02*
X181743681Y-82158771D01*
X181743681Y-82158771D02*
X181648805Y-82167071D01*
X181648805Y-82167071D02*
X181502341Y-82132084D01*
X181502341Y-82132084D02*
X180883284Y-81612633D01*
X180883284Y-81612633D02*
X180937237Y-82229325D01*
X190834990Y-90008204D02*
X191477777Y-89242160D01*
X191477777Y-89242160D02*
X191660169Y-89395204D01*
X191660169Y-89395204D02*
X191738995Y-89523510D01*
X191738995Y-89523510D02*
X191750733Y-89657684D01*
X191750733Y-89657684D02*
X191725994Y-89761250D01*
X191725994Y-89761250D02*
X191640036Y-89937772D01*
X191640036Y-89937772D02*
X191548210Y-90047207D01*
X191548210Y-90047207D02*
X191389296Y-90162511D01*
X191389296Y-90162511D02*
X191291599Y-90204859D01*
X191291599Y-90204859D02*
X191157425Y-90216597D01*
X191157425Y-90216597D02*
X191017381Y-90161249D01*
X191017381Y-90161249D02*
X190834990Y-90008204D01*
X192002295Y-90987690D02*
X191564556Y-90620383D01*
X191783426Y-90804037D02*
X192426213Y-90037992D01*
X192426213Y-90037992D02*
X192261430Y-90086209D01*
X192261430Y-90086209D02*
X192127255Y-90097948D01*
X192127255Y-90097948D02*
X192023690Y-90073208D01*
X193087430Y-91027955D02*
X192658905Y-91538651D01*
X193149910Y-90583084D02*
X192508384Y-90977213D01*
X192508384Y-90977213D02*
X192982602Y-91375130D01*
X190924266Y-97151159D02*
X190590933Y-96674968D01*
X190352838Y-97151159D02*
X190352838Y-96151159D01*
X190352838Y-96151159D02*
X190733790Y-96151159D01*
X190733790Y-96151159D02*
X190829028Y-96198778D01*
X190829028Y-96198778D02*
X190876647Y-96246397D01*
X190876647Y-96246397D02*
X190924266Y-96341635D01*
X190924266Y-96341635D02*
X190924266Y-96484492D01*
X190924266Y-96484492D02*
X190876647Y-96579730D01*
X190876647Y-96579730D02*
X190829028Y-96627349D01*
X190829028Y-96627349D02*
X190733790Y-96674968D01*
X190733790Y-96674968D02*
X190352838Y-96674968D01*
X191305219Y-96246397D02*
X191352838Y-96198778D01*
X191352838Y-96198778D02*
X191448076Y-96151159D01*
X191448076Y-96151159D02*
X191686171Y-96151159D01*
X191686171Y-96151159D02*
X191781409Y-96198778D01*
X191781409Y-96198778D02*
X191829028Y-96246397D01*
X191829028Y-96246397D02*
X191876647Y-96341635D01*
X191876647Y-96341635D02*
X191876647Y-96436873D01*
X191876647Y-96436873D02*
X191829028Y-96579730D01*
X191829028Y-96579730D02*
X191257600Y-97151159D01*
X191257600Y-97151159D02*
X191876647Y-97151159D01*
X192781409Y-96151159D02*
X192305219Y-96151159D01*
X192305219Y-96151159D02*
X192257600Y-96627349D01*
X192257600Y-96627349D02*
X192305219Y-96579730D01*
X192305219Y-96579730D02*
X192400457Y-96532111D01*
X192400457Y-96532111D02*
X192638552Y-96532111D01*
X192638552Y-96532111D02*
X192733790Y-96579730D01*
X192733790Y-96579730D02*
X192781409Y-96627349D01*
X192781409Y-96627349D02*
X192829028Y-96722587D01*
X192829028Y-96722587D02*
X192829028Y-96960682D01*
X192829028Y-96960682D02*
X192781409Y-97055920D01*
X192781409Y-97055920D02*
X192733790Y-97103540D01*
X192733790Y-97103540D02*
X192638552Y-97151159D01*
X192638552Y-97151159D02*
X192400457Y-97151159D01*
X192400457Y-97151159D02*
X192305219Y-97103540D01*
X192305219Y-97103540D02*
X192257600Y-97055920D01*
X133854406Y-98534820D02*
X133854406Y-97534820D01*
X133854406Y-97534820D02*
X134092501Y-97534820D01*
X134092501Y-97534820D02*
X134235358Y-97582439D01*
X134235358Y-97582439D02*
X134330596Y-97677677D01*
X134330596Y-97677677D02*
X134378215Y-97772915D01*
X134378215Y-97772915D02*
X134425834Y-97963391D01*
X134425834Y-97963391D02*
X134425834Y-98106248D01*
X134425834Y-98106248D02*
X134378215Y-98296724D01*
X134378215Y-98296724D02*
X134330596Y-98391962D01*
X134330596Y-98391962D02*
X134235358Y-98487201D01*
X134235358Y-98487201D02*
X134092501Y-98534820D01*
X134092501Y-98534820D02*
X133854406Y-98534820D01*
X134759168Y-97534820D02*
X135425834Y-97534820D01*
X135425834Y-97534820D02*
X134997263Y-98534820D01*
X150603333Y-102039816D02*
X150270000Y-101563625D01*
X150031905Y-102039816D02*
X150031905Y-101039816D01*
X150031905Y-101039816D02*
X150412857Y-101039816D01*
X150412857Y-101039816D02*
X150508095Y-101087435D01*
X150508095Y-101087435D02*
X150555714Y-101135054D01*
X150555714Y-101135054D02*
X150603333Y-101230292D01*
X150603333Y-101230292D02*
X150603333Y-101373149D01*
X150603333Y-101373149D02*
X150555714Y-101468387D01*
X150555714Y-101468387D02*
X150508095Y-101516006D01*
X150508095Y-101516006D02*
X150412857Y-101563625D01*
X150412857Y-101563625D02*
X150031905Y-101563625D01*
X150936667Y-101039816D02*
X151603333Y-101039816D01*
X151603333Y-101039816D02*
X151174762Y-102039816D01*
X150109819Y-101516666D02*
X150109819Y-101992856D01*
X150109819Y-101992856D02*
X149109819Y-101992856D01*
X150109819Y-100659523D02*
X150109819Y-101230951D01*
X150109819Y-100945237D02*
X149109819Y-100945237D01*
X149109819Y-100945237D02*
X149252676Y-101040475D01*
X149252676Y-101040475D02*
X149347914Y-101135713D01*
X149347914Y-101135713D02*
X149395533Y-101230951D01*
X135877142Y-103704820D02*
X135543809Y-103228629D01*
X135305714Y-103704820D02*
X135305714Y-102704820D01*
X135305714Y-102704820D02*
X135686666Y-102704820D01*
X135686666Y-102704820D02*
X135781904Y-102752439D01*
X135781904Y-102752439D02*
X135829523Y-102800058D01*
X135829523Y-102800058D02*
X135877142Y-102895296D01*
X135877142Y-102895296D02*
X135877142Y-103038153D01*
X135877142Y-103038153D02*
X135829523Y-103133391D01*
X135829523Y-103133391D02*
X135781904Y-103181010D01*
X135781904Y-103181010D02*
X135686666Y-103228629D01*
X135686666Y-103228629D02*
X135305714Y-103228629D01*
X136829523Y-103704820D02*
X136258095Y-103704820D01*
X136543809Y-103704820D02*
X136543809Y-102704820D01*
X136543809Y-102704820D02*
X136448571Y-102847677D01*
X136448571Y-102847677D02*
X136353333Y-102942915D01*
X136353333Y-102942915D02*
X136258095Y-102990534D01*
X137305714Y-103704820D02*
X137496190Y-103704820D01*
X137496190Y-103704820D02*
X137591428Y-103657201D01*
X137591428Y-103657201D02*
X137639047Y-103609581D01*
X137639047Y-103609581D02*
X137734285Y-103466724D01*
X137734285Y-103466724D02*
X137781904Y-103276248D01*
X137781904Y-103276248D02*
X137781904Y-102895296D01*
X137781904Y-102895296D02*
X137734285Y-102800058D01*
X137734285Y-102800058D02*
X137686666Y-102752439D01*
X137686666Y-102752439D02*
X137591428Y-102704820D01*
X137591428Y-102704820D02*
X137400952Y-102704820D01*
X137400952Y-102704820D02*
X137305714Y-102752439D01*
X137305714Y-102752439D02*
X137258095Y-102800058D01*
X137258095Y-102800058D02*
X137210476Y-102895296D01*
X137210476Y-102895296D02*
X137210476Y-103133391D01*
X137210476Y-103133391D02*
X137258095Y-103228629D01*
X137258095Y-103228629D02*
X137305714Y-103276248D01*
X137305714Y-103276248D02*
X137400952Y-103323867D01*
X137400952Y-103323867D02*
X137591428Y-103323867D01*
X137591428Y-103323867D02*
X137686666Y-103276248D01*
X137686666Y-103276248D02*
X137734285Y-103228629D01*
X137734285Y-103228629D02*
X137781904Y-103133391D01*
X133901905Y-94809819D02*
X133901905Y-93809819D01*
X133901905Y-93809819D02*
X134140000Y-93809819D01*
X134140000Y-93809819D02*
X134282857Y-93857438D01*
X134282857Y-93857438D02*
X134378095Y-93952676D01*
X134378095Y-93952676D02*
X134425714Y-94047914D01*
X134425714Y-94047914D02*
X134473333Y-94238390D01*
X134473333Y-94238390D02*
X134473333Y-94381247D01*
X134473333Y-94381247D02*
X134425714Y-94571723D01*
X134425714Y-94571723D02*
X134378095Y-94666961D01*
X134378095Y-94666961D02*
X134282857Y-94762200D01*
X134282857Y-94762200D02*
X134140000Y-94809819D01*
X134140000Y-94809819D02*
X133901905Y-94809819D01*
X135330476Y-93809819D02*
X135140000Y-93809819D01*
X135140000Y-93809819D02*
X135044762Y-93857438D01*
X135044762Y-93857438D02*
X134997143Y-93905057D01*
X134997143Y-93905057D02*
X134901905Y-94047914D01*
X134901905Y-94047914D02*
X134854286Y-94238390D01*
X134854286Y-94238390D02*
X134854286Y-94619342D01*
X134854286Y-94619342D02*
X134901905Y-94714580D01*
X134901905Y-94714580D02*
X134949524Y-94762200D01*
X134949524Y-94762200D02*
X135044762Y-94809819D01*
X135044762Y-94809819D02*
X135235238Y-94809819D01*
X135235238Y-94809819D02*
X135330476Y-94762200D01*
X135330476Y-94762200D02*
X135378095Y-94714580D01*
X135378095Y-94714580D02*
X135425714Y-94619342D01*
X135425714Y-94619342D02*
X135425714Y-94381247D01*
X135425714Y-94381247D02*
X135378095Y-94286009D01*
X135378095Y-94286009D02*
X135330476Y-94238390D01*
X135330476Y-94238390D02*
X135235238Y-94190771D01*
X135235238Y-94190771D02*
X135044762Y-94190771D01*
X135044762Y-94190771D02*
X134949524Y-94238390D01*
X134949524Y-94238390D02*
X134901905Y-94286009D01*
X134901905Y-94286009D02*
X134854286Y-94381247D01*
X154174580Y-104180357D02*
X154222200Y-104227976D01*
X154222200Y-104227976D02*
X154269819Y-104370833D01*
X154269819Y-104370833D02*
X154269819Y-104466071D01*
X154269819Y-104466071D02*
X154222200Y-104608928D01*
X154222200Y-104608928D02*
X154126961Y-104704166D01*
X154126961Y-104704166D02*
X154031723Y-104751785D01*
X154031723Y-104751785D02*
X153841247Y-104799404D01*
X153841247Y-104799404D02*
X153698390Y-104799404D01*
X153698390Y-104799404D02*
X153507914Y-104751785D01*
X153507914Y-104751785D02*
X153412676Y-104704166D01*
X153412676Y-104704166D02*
X153317438Y-104608928D01*
X153317438Y-104608928D02*
X153269819Y-104466071D01*
X153269819Y-104466071D02*
X153269819Y-104370833D01*
X153269819Y-104370833D02*
X153317438Y-104227976D01*
X153317438Y-104227976D02*
X153365057Y-104180357D01*
X154269819Y-103227976D02*
X154269819Y-103799404D01*
X154269819Y-103513690D02*
X153269819Y-103513690D01*
X153269819Y-103513690D02*
X153412676Y-103608928D01*
X153412676Y-103608928D02*
X153507914Y-103704166D01*
X153507914Y-103704166D02*
X153555533Y-103799404D01*
X153698390Y-102656547D02*
X153650771Y-102751785D01*
X153650771Y-102751785D02*
X153603152Y-102799404D01*
X153603152Y-102799404D02*
X153507914Y-102847023D01*
X153507914Y-102847023D02*
X153460295Y-102847023D01*
X153460295Y-102847023D02*
X153365057Y-102799404D01*
X153365057Y-102799404D02*
X153317438Y-102751785D01*
X153317438Y-102751785D02*
X153269819Y-102656547D01*
X153269819Y-102656547D02*
X153269819Y-102466071D01*
X153269819Y-102466071D02*
X153317438Y-102370833D01*
X153317438Y-102370833D02*
X153365057Y-102323214D01*
X153365057Y-102323214D02*
X153460295Y-102275595D01*
X153460295Y-102275595D02*
X153507914Y-102275595D01*
X153507914Y-102275595D02*
X153603152Y-102323214D01*
X153603152Y-102323214D02*
X153650771Y-102370833D01*
X153650771Y-102370833D02*
X153698390Y-102466071D01*
X153698390Y-102466071D02*
X153698390Y-102656547D01*
X153698390Y-102656547D02*
X153746009Y-102751785D01*
X153746009Y-102751785D02*
X153793628Y-102799404D01*
X153793628Y-102799404D02*
X153888866Y-102847023D01*
X153888866Y-102847023D02*
X154079342Y-102847023D01*
X154079342Y-102847023D02*
X154174580Y-102799404D01*
X154174580Y-102799404D02*
X154222200Y-102751785D01*
X154222200Y-102751785D02*
X154269819Y-102656547D01*
X154269819Y-102656547D02*
X154269819Y-102466071D01*
X154269819Y-102466071D02*
X154222200Y-102370833D01*
X154222200Y-102370833D02*
X154174580Y-102323214D01*
X154174580Y-102323214D02*
X154079342Y-102275595D01*
X154079342Y-102275595D02*
X153888866Y-102275595D01*
X153888866Y-102275595D02*
X153793628Y-102323214D01*
X153793628Y-102323214D02*
X153746009Y-102370833D01*
X153746009Y-102370833D02*
X153698390Y-102466071D01*
X188324819Y-106567857D02*
X187848628Y-106901190D01*
X188324819Y-107139285D02*
X187324819Y-107139285D01*
X187324819Y-107139285D02*
X187324819Y-106758333D01*
X187324819Y-106758333D02*
X187372438Y-106663095D01*
X187372438Y-106663095D02*
X187420057Y-106615476D01*
X187420057Y-106615476D02*
X187515295Y-106567857D01*
X187515295Y-106567857D02*
X187658152Y-106567857D01*
X187658152Y-106567857D02*
X187753390Y-106615476D01*
X187753390Y-106615476D02*
X187801009Y-106663095D01*
X187801009Y-106663095D02*
X187848628Y-106758333D01*
X187848628Y-106758333D02*
X187848628Y-107139285D01*
X187324819Y-106234523D02*
X187324819Y-105615476D01*
X187324819Y-105615476D02*
X187705771Y-105948809D01*
X187705771Y-105948809D02*
X187705771Y-105805952D01*
X187705771Y-105805952D02*
X187753390Y-105710714D01*
X187753390Y-105710714D02*
X187801009Y-105663095D01*
X187801009Y-105663095D02*
X187896247Y-105615476D01*
X187896247Y-105615476D02*
X188134342Y-105615476D01*
X188134342Y-105615476D02*
X188229580Y-105663095D01*
X188229580Y-105663095D02*
X188277200Y-105710714D01*
X188277200Y-105710714D02*
X188324819Y-105805952D01*
X188324819Y-105805952D02*
X188324819Y-106091666D01*
X188324819Y-106091666D02*
X188277200Y-106186904D01*
X188277200Y-106186904D02*
X188229580Y-106234523D01*
X187324819Y-104710714D02*
X187324819Y-105186904D01*
X187324819Y-105186904D02*
X187801009Y-105234523D01*
X187801009Y-105234523D02*
X187753390Y-105186904D01*
X187753390Y-105186904D02*
X187705771Y-105091666D01*
X187705771Y-105091666D02*
X187705771Y-104853571D01*
X187705771Y-104853571D02*
X187753390Y-104758333D01*
X187753390Y-104758333D02*
X187801009Y-104710714D01*
X187801009Y-104710714D02*
X187896247Y-104663095D01*
X187896247Y-104663095D02*
X188134342Y-104663095D01*
X188134342Y-104663095D02*
X188229580Y-104710714D01*
X188229580Y-104710714D02*
X188277200Y-104758333D01*
X188277200Y-104758333D02*
X188324819Y-104853571D01*
X188324819Y-104853571D02*
X188324819Y-105091666D01*
X188324819Y-105091666D02*
X188277200Y-105186904D01*
X188277200Y-105186904D02*
X188229580Y-105234523D01*
X185603095Y-103404819D02*
X185603095Y-104214342D01*
X185603095Y-104214342D02*
X185650714Y-104309580D01*
X185650714Y-104309580D02*
X185698333Y-104357200D01*
X185698333Y-104357200D02*
X185793571Y-104404819D01*
X185793571Y-104404819D02*
X185984047Y-104404819D01*
X185984047Y-104404819D02*
X186079285Y-104357200D01*
X186079285Y-104357200D02*
X186126904Y-104309580D01*
X186126904Y-104309580D02*
X186174523Y-104214342D01*
X186174523Y-104214342D02*
X186174523Y-103404819D01*
X186555476Y-103404819D02*
X187222142Y-103404819D01*
X187222142Y-103404819D02*
X186793571Y-104404819D01*
X161342142Y-81342320D02*
X161008809Y-80866129D01*
X160770714Y-81342320D02*
X160770714Y-80342320D01*
X160770714Y-80342320D02*
X161151666Y-80342320D01*
X161151666Y-80342320D02*
X161246904Y-80389939D01*
X161246904Y-80389939D02*
X161294523Y-80437558D01*
X161294523Y-80437558D02*
X161342142Y-80532796D01*
X161342142Y-80532796D02*
X161342142Y-80675653D01*
X161342142Y-80675653D02*
X161294523Y-80770891D01*
X161294523Y-80770891D02*
X161246904Y-80818510D01*
X161246904Y-80818510D02*
X161151666Y-80866129D01*
X161151666Y-80866129D02*
X160770714Y-80866129D01*
X162294523Y-81342320D02*
X161723095Y-81342320D01*
X162008809Y-81342320D02*
X162008809Y-80342320D01*
X162008809Y-80342320D02*
X161913571Y-80485177D01*
X161913571Y-80485177D02*
X161818333Y-80580415D01*
X161818333Y-80580415D02*
X161723095Y-80628034D01*
X162913571Y-80342320D02*
X163008809Y-80342320D01*
X163008809Y-80342320D02*
X163104047Y-80389939D01*
X163104047Y-80389939D02*
X163151666Y-80437558D01*
X163151666Y-80437558D02*
X163199285Y-80532796D01*
X163199285Y-80532796D02*
X163246904Y-80723272D01*
X163246904Y-80723272D02*
X163246904Y-80961367D01*
X163246904Y-80961367D02*
X163199285Y-81151843D01*
X163199285Y-81151843D02*
X163151666Y-81247081D01*
X163151666Y-81247081D02*
X163104047Y-81294701D01*
X163104047Y-81294701D02*
X163008809Y-81342320D01*
X163008809Y-81342320D02*
X162913571Y-81342320D01*
X162913571Y-81342320D02*
X162818333Y-81294701D01*
X162818333Y-81294701D02*
X162770714Y-81247081D01*
X162770714Y-81247081D02*
X162723095Y-81151843D01*
X162723095Y-81151843D02*
X162675476Y-80961367D01*
X162675476Y-80961367D02*
X162675476Y-80723272D01*
X162675476Y-80723272D02*
X162723095Y-80532796D01*
X162723095Y-80532796D02*
X162770714Y-80437558D01*
X162770714Y-80437558D02*
X162818333Y-80389939D01*
X162818333Y-80389939D02*
X162913571Y-80342320D01*
X135884643Y-100754821D02*
X135551310Y-100278630D01*
X135313215Y-100754821D02*
X135313215Y-99754821D01*
X135313215Y-99754821D02*
X135694167Y-99754821D01*
X135694167Y-99754821D02*
X135789405Y-99802440D01*
X135789405Y-99802440D02*
X135837024Y-99850059D01*
X135837024Y-99850059D02*
X135884643Y-99945297D01*
X135884643Y-99945297D02*
X135884643Y-100088154D01*
X135884643Y-100088154D02*
X135837024Y-100183392D01*
X135837024Y-100183392D02*
X135789405Y-100231011D01*
X135789405Y-100231011D02*
X135694167Y-100278630D01*
X135694167Y-100278630D02*
X135313215Y-100278630D01*
X136837024Y-100754821D02*
X136265596Y-100754821D01*
X136551310Y-100754821D02*
X136551310Y-99754821D01*
X136551310Y-99754821D02*
X136456072Y-99897678D01*
X136456072Y-99897678D02*
X136360834Y-99992916D01*
X136360834Y-99992916D02*
X136265596Y-100040535D01*
X137170358Y-99754821D02*
X137837024Y-99754821D01*
X137837024Y-99754821D02*
X137408453Y-100754821D01*
X147252142Y-83324819D02*
X146918809Y-82848628D01*
X146680714Y-83324819D02*
X146680714Y-82324819D01*
X146680714Y-82324819D02*
X147061666Y-82324819D01*
X147061666Y-82324819D02*
X147156904Y-82372438D01*
X147156904Y-82372438D02*
X147204523Y-82420057D01*
X147204523Y-82420057D02*
X147252142Y-82515295D01*
X147252142Y-82515295D02*
X147252142Y-82658152D01*
X147252142Y-82658152D02*
X147204523Y-82753390D01*
X147204523Y-82753390D02*
X147156904Y-82801009D01*
X147156904Y-82801009D02*
X147061666Y-82848628D01*
X147061666Y-82848628D02*
X146680714Y-82848628D01*
X147585476Y-82324819D02*
X148204523Y-82324819D01*
X148204523Y-82324819D02*
X147871190Y-82705771D01*
X147871190Y-82705771D02*
X148014047Y-82705771D01*
X148014047Y-82705771D02*
X148109285Y-82753390D01*
X148109285Y-82753390D02*
X148156904Y-82801009D01*
X148156904Y-82801009D02*
X148204523Y-82896247D01*
X148204523Y-82896247D02*
X148204523Y-83134342D01*
X148204523Y-83134342D02*
X148156904Y-83229580D01*
X148156904Y-83229580D02*
X148109285Y-83277200D01*
X148109285Y-83277200D02*
X148014047Y-83324819D01*
X148014047Y-83324819D02*
X147728333Y-83324819D01*
X147728333Y-83324819D02*
X147633095Y-83277200D01*
X147633095Y-83277200D02*
X147585476Y-83229580D01*
X149156904Y-83324819D02*
X148585476Y-83324819D01*
X148871190Y-83324819D02*
X148871190Y-82324819D01*
X148871190Y-82324819D02*
X148775952Y-82467676D01*
X148775952Y-82467676D02*
X148680714Y-82562914D01*
X148680714Y-82562914D02*
X148585476Y-82610533D01*
X193724819Y-95501666D02*
X193248628Y-95834999D01*
X193724819Y-96073094D02*
X192724819Y-96073094D01*
X192724819Y-96073094D02*
X192724819Y-95692142D01*
X192724819Y-95692142D02*
X192772438Y-95596904D01*
X192772438Y-95596904D02*
X192820057Y-95549285D01*
X192820057Y-95549285D02*
X192915295Y-95501666D01*
X192915295Y-95501666D02*
X193058152Y-95501666D01*
X193058152Y-95501666D02*
X193153390Y-95549285D01*
X193153390Y-95549285D02*
X193201009Y-95596904D01*
X193201009Y-95596904D02*
X193248628Y-95692142D01*
X193248628Y-95692142D02*
X193248628Y-96073094D01*
X193058152Y-94644523D02*
X193724819Y-94644523D01*
X192677200Y-94882618D02*
X193391485Y-95120713D01*
X193391485Y-95120713D02*
X193391485Y-94501666D01*
X144107142Y-108425528D02*
X143773809Y-107949337D01*
X143535714Y-108425528D02*
X143535714Y-107425528D01*
X143535714Y-107425528D02*
X143916666Y-107425528D01*
X143916666Y-107425528D02*
X144011904Y-107473147D01*
X144011904Y-107473147D02*
X144059523Y-107520766D01*
X144059523Y-107520766D02*
X144107142Y-107616004D01*
X144107142Y-107616004D02*
X144107142Y-107758861D01*
X144107142Y-107758861D02*
X144059523Y-107854099D01*
X144059523Y-107854099D02*
X144011904Y-107901718D01*
X144011904Y-107901718D02*
X143916666Y-107949337D01*
X143916666Y-107949337D02*
X143535714Y-107949337D01*
X144488095Y-107520766D02*
X144535714Y-107473147D01*
X144535714Y-107473147D02*
X144630952Y-107425528D01*
X144630952Y-107425528D02*
X144869047Y-107425528D01*
X144869047Y-107425528D02*
X144964285Y-107473147D01*
X144964285Y-107473147D02*
X145011904Y-107520766D01*
X145011904Y-107520766D02*
X145059523Y-107616004D01*
X145059523Y-107616004D02*
X145059523Y-107711242D01*
X145059523Y-107711242D02*
X145011904Y-107854099D01*
X145011904Y-107854099D02*
X144440476Y-108425528D01*
X144440476Y-108425528D02*
X145059523Y-108425528D01*
X145440476Y-107520766D02*
X145488095Y-107473147D01*
X145488095Y-107473147D02*
X145583333Y-107425528D01*
X145583333Y-107425528D02*
X145821428Y-107425528D01*
X145821428Y-107425528D02*
X145916666Y-107473147D01*
X145916666Y-107473147D02*
X145964285Y-107520766D01*
X145964285Y-107520766D02*
X146011904Y-107616004D01*
X146011904Y-107616004D02*
X146011904Y-107711242D01*
X146011904Y-107711242D02*
X145964285Y-107854099D01*
X145964285Y-107854099D02*
X145392857Y-108425528D01*
X145392857Y-108425528D02*
X146011904Y-108425528D01*
X192905055Y-102111509D02*
X193547843Y-102877553D01*
X193547843Y-102877553D02*
X193365451Y-103030598D01*
X193365451Y-103030598D02*
X193225408Y-103085947D01*
X193225408Y-103085947D02*
X193091233Y-103074208D01*
X193091233Y-103074208D02*
X192993537Y-103031860D01*
X192993537Y-103031860D02*
X192834623Y-102916556D01*
X192834623Y-102916556D02*
X192742796Y-102807121D01*
X192742796Y-102807121D02*
X192656839Y-102630599D01*
X192656839Y-102630599D02*
X192632099Y-102527033D01*
X192632099Y-102527033D02*
X192643838Y-102392859D01*
X192643838Y-102392859D02*
X192722664Y-102264554D01*
X192722664Y-102264554D02*
X192905055Y-102111509D01*
X191737749Y-103090995D02*
X192175489Y-102723688D01*
X191956619Y-102907341D02*
X192599407Y-103673386D01*
X192599407Y-103673386D02*
X192580537Y-103502733D01*
X192580537Y-103502733D02*
X192592276Y-103368559D01*
X192592276Y-103368559D02*
X192634623Y-103270862D01*
X191687449Y-104438609D02*
X192052232Y-104132520D01*
X192052232Y-104132520D02*
X191782621Y-103737128D01*
X191782621Y-103737128D02*
X191776752Y-103804215D01*
X191776752Y-103804215D02*
X191734404Y-103901911D01*
X191734404Y-103901911D02*
X191552013Y-104054956D01*
X191552013Y-104054956D02*
X191448447Y-104079695D01*
X191448447Y-104079695D02*
X191381360Y-104073826D01*
X191381360Y-104073826D02*
X191283664Y-104031478D01*
X191283664Y-104031478D02*
X191130619Y-103849087D01*
X191130619Y-103849087D02*
X191105879Y-103745521D01*
X191105879Y-103745521D02*
X191111749Y-103678434D01*
X191111749Y-103678434D02*
X191154097Y-103580738D01*
X191154097Y-103580738D02*
X191336488Y-103427693D01*
X191336488Y-103427693D02*
X191440054Y-103402954D01*
X191440054Y-103402954D02*
X191507141Y-103408823D01*
X133861905Y-101484819D02*
X133861905Y-100484819D01*
X133861905Y-100484819D02*
X134100000Y-100484819D01*
X134100000Y-100484819D02*
X134242857Y-100532438D01*
X134242857Y-100532438D02*
X134338095Y-100627676D01*
X134338095Y-100627676D02*
X134385714Y-100722914D01*
X134385714Y-100722914D02*
X134433333Y-100913390D01*
X134433333Y-100913390D02*
X134433333Y-101056247D01*
X134433333Y-101056247D02*
X134385714Y-101246723D01*
X134385714Y-101246723D02*
X134338095Y-101341961D01*
X134338095Y-101341961D02*
X134242857Y-101437200D01*
X134242857Y-101437200D02*
X134100000Y-101484819D01*
X134100000Y-101484819D02*
X133861905Y-101484819D01*
X134909524Y-101484819D02*
X135100000Y-101484819D01*
X135100000Y-101484819D02*
X135195238Y-101437200D01*
X135195238Y-101437200D02*
X135242857Y-101389580D01*
X135242857Y-101389580D02*
X135338095Y-101246723D01*
X135338095Y-101246723D02*
X135385714Y-101056247D01*
X135385714Y-101056247D02*
X135385714Y-100675295D01*
X135385714Y-100675295D02*
X135338095Y-100580057D01*
X135338095Y-100580057D02*
X135290476Y-100532438D01*
X135290476Y-100532438D02*
X135195238Y-100484819D01*
X135195238Y-100484819D02*
X135004762Y-100484819D01*
X135004762Y-100484819D02*
X134909524Y-100532438D01*
X134909524Y-100532438D02*
X134861905Y-100580057D01*
X134861905Y-100580057D02*
X134814286Y-100675295D01*
X134814286Y-100675295D02*
X134814286Y-100913390D01*
X134814286Y-100913390D02*
X134861905Y-101008628D01*
X134861905Y-101008628D02*
X134909524Y-101056247D01*
X134909524Y-101056247D02*
X135004762Y-101103866D01*
X135004762Y-101103866D02*
X135195238Y-101103866D01*
X135195238Y-101103866D02*
X135290476Y-101056247D01*
X135290476Y-101056247D02*
X135338095Y-101008628D01*
X135338095Y-101008628D02*
X135385714Y-100913390D01*
X135879640Y-102254819D02*
X135546307Y-101778628D01*
X135308212Y-102254819D02*
X135308212Y-101254819D01*
X135308212Y-101254819D02*
X135689164Y-101254819D01*
X135689164Y-101254819D02*
X135784402Y-101302438D01*
X135784402Y-101302438D02*
X135832021Y-101350057D01*
X135832021Y-101350057D02*
X135879640Y-101445295D01*
X135879640Y-101445295D02*
X135879640Y-101588152D01*
X135879640Y-101588152D02*
X135832021Y-101683390D01*
X135832021Y-101683390D02*
X135784402Y-101731009D01*
X135784402Y-101731009D02*
X135689164Y-101778628D01*
X135689164Y-101778628D02*
X135308212Y-101778628D01*
X136832021Y-102254819D02*
X136260593Y-102254819D01*
X136546307Y-102254819D02*
X136546307Y-101254819D01*
X136546307Y-101254819D02*
X136451069Y-101397676D01*
X136451069Y-101397676D02*
X136355831Y-101492914D01*
X136355831Y-101492914D02*
X136260593Y-101540533D01*
X137403450Y-101683390D02*
X137308212Y-101635771D01*
X137308212Y-101635771D02*
X137260593Y-101588152D01*
X137260593Y-101588152D02*
X137212974Y-101492914D01*
X137212974Y-101492914D02*
X137212974Y-101445295D01*
X137212974Y-101445295D02*
X137260593Y-101350057D01*
X137260593Y-101350057D02*
X137308212Y-101302438D01*
X137308212Y-101302438D02*
X137403450Y-101254819D01*
X137403450Y-101254819D02*
X137593926Y-101254819D01*
X137593926Y-101254819D02*
X137689164Y-101302438D01*
X137689164Y-101302438D02*
X137736783Y-101350057D01*
X137736783Y-101350057D02*
X137784402Y-101445295D01*
X137784402Y-101445295D02*
X137784402Y-101492914D01*
X137784402Y-101492914D02*
X137736783Y-101588152D01*
X137736783Y-101588152D02*
X137689164Y-101635771D01*
X137689164Y-101635771D02*
X137593926Y-101683390D01*
X137593926Y-101683390D02*
X137403450Y-101683390D01*
X137403450Y-101683390D02*
X137308212Y-101731009D01*
X137308212Y-101731009D02*
X137260593Y-101778628D01*
X137260593Y-101778628D02*
X137212974Y-101873866D01*
X137212974Y-101873866D02*
X137212974Y-102064342D01*
X137212974Y-102064342D02*
X137260593Y-102159580D01*
X137260593Y-102159580D02*
X137308212Y-102207200D01*
X137308212Y-102207200D02*
X137403450Y-102254819D01*
X137403450Y-102254819D02*
X137593926Y-102254819D01*
X137593926Y-102254819D02*
X137689164Y-102207200D01*
X137689164Y-102207200D02*
X137736783Y-102159580D01*
X137736783Y-102159580D02*
X137784402Y-102064342D01*
X137784402Y-102064342D02*
X137784402Y-101873866D01*
X137784402Y-101873866D02*
X137736783Y-101778628D01*
X137736783Y-101778628D02*
X137689164Y-101731009D01*
X137689164Y-101731009D02*
X137593926Y-101683390D01*
X194609641Y-93106548D02*
X194567293Y-93008852D01*
X194567293Y-93008852D02*
X194555555Y-92874677D01*
X194555555Y-92874677D02*
X194537946Y-92673415D01*
X194537946Y-92673415D02*
X194495599Y-92575719D01*
X194495599Y-92575719D02*
X194422642Y-92514501D01*
X194306076Y-92727502D02*
X194263728Y-92629806D01*
X194263728Y-92629806D02*
X194251989Y-92495631D01*
X194251989Y-92495631D02*
X194337947Y-92319109D01*
X194337947Y-92319109D02*
X194552209Y-92063761D01*
X194552209Y-92063761D02*
X194711123Y-91948457D01*
X194711123Y-91948457D02*
X194845298Y-91936718D01*
X194845298Y-91936718D02*
X194948863Y-91961457D01*
X194948863Y-91961457D02*
X195094777Y-92083893D01*
X195094777Y-92083893D02*
X195137124Y-92181589D01*
X195137124Y-92181589D02*
X195148863Y-92315764D01*
X195148863Y-92315764D02*
X195062906Y-92492286D01*
X195062906Y-92492286D02*
X194848643Y-92747634D01*
X194848643Y-92747634D02*
X194689729Y-92862938D01*
X194689729Y-92862938D02*
X194555555Y-92874677D01*
X194555555Y-92874677D02*
X194451989Y-92849938D01*
X194451989Y-92849938D02*
X194306076Y-92727502D01*
X195363947Y-93615161D02*
X194926207Y-93247854D01*
X195145077Y-93431507D02*
X195787864Y-92665463D01*
X195787864Y-92665463D02*
X195623081Y-92713680D01*
X195623081Y-92713680D02*
X195488907Y-92725419D01*
X195488907Y-92725419D02*
X195385341Y-92700679D01*
X133395714Y-102959819D02*
X133395714Y-101959819D01*
X133395714Y-101959819D02*
X133633809Y-101959819D01*
X133633809Y-101959819D02*
X133776666Y-102007438D01*
X133776666Y-102007438D02*
X133871904Y-102102676D01*
X133871904Y-102102676D02*
X133919523Y-102197914D01*
X133919523Y-102197914D02*
X133967142Y-102388390D01*
X133967142Y-102388390D02*
X133967142Y-102531247D01*
X133967142Y-102531247D02*
X133919523Y-102721723D01*
X133919523Y-102721723D02*
X133871904Y-102816961D01*
X133871904Y-102816961D02*
X133776666Y-102912200D01*
X133776666Y-102912200D02*
X133633809Y-102959819D01*
X133633809Y-102959819D02*
X133395714Y-102959819D01*
X134919523Y-102959819D02*
X134348095Y-102959819D01*
X134633809Y-102959819D02*
X134633809Y-101959819D01*
X134633809Y-101959819D02*
X134538571Y-102102676D01*
X134538571Y-102102676D02*
X134443333Y-102197914D01*
X134443333Y-102197914D02*
X134348095Y-102245533D01*
X135538571Y-101959819D02*
X135633809Y-101959819D01*
X135633809Y-101959819D02*
X135729047Y-102007438D01*
X135729047Y-102007438D02*
X135776666Y-102055057D01*
X135776666Y-102055057D02*
X135824285Y-102150295D01*
X135824285Y-102150295D02*
X135871904Y-102340771D01*
X135871904Y-102340771D02*
X135871904Y-102578866D01*
X135871904Y-102578866D02*
X135824285Y-102769342D01*
X135824285Y-102769342D02*
X135776666Y-102864580D01*
X135776666Y-102864580D02*
X135729047Y-102912200D01*
X135729047Y-102912200D02*
X135633809Y-102959819D01*
X135633809Y-102959819D02*
X135538571Y-102959819D01*
X135538571Y-102959819D02*
X135443333Y-102912200D01*
X135443333Y-102912200D02*
X135395714Y-102864580D01*
X135395714Y-102864580D02*
X135348095Y-102769342D01*
X135348095Y-102769342D02*
X135300476Y-102578866D01*
X135300476Y-102578866D02*
X135300476Y-102340771D01*
X135300476Y-102340771D02*
X135348095Y-102150295D01*
X135348095Y-102150295D02*
X135395714Y-102055057D01*
X135395714Y-102055057D02*
X135443333Y-102007438D01*
X135443333Y-102007438D02*
X135538571Y-101959819D01*
X191408333Y-96119819D02*
X191075000Y-95643628D01*
X190836905Y-96119819D02*
X190836905Y-95119819D01*
X190836905Y-95119819D02*
X191217857Y-95119819D01*
X191217857Y-95119819D02*
X191313095Y-95167438D01*
X191313095Y-95167438D02*
X191360714Y-95215057D01*
X191360714Y-95215057D02*
X191408333Y-95310295D01*
X191408333Y-95310295D02*
X191408333Y-95453152D01*
X191408333Y-95453152D02*
X191360714Y-95548390D01*
X191360714Y-95548390D02*
X191313095Y-95596009D01*
X191313095Y-95596009D02*
X191217857Y-95643628D01*
X191217857Y-95643628D02*
X190836905Y-95643628D01*
X192313095Y-95119819D02*
X191836905Y-95119819D01*
X191836905Y-95119819D02*
X191789286Y-95596009D01*
X191789286Y-95596009D02*
X191836905Y-95548390D01*
X191836905Y-95548390D02*
X191932143Y-95500771D01*
X191932143Y-95500771D02*
X192170238Y-95500771D01*
X192170238Y-95500771D02*
X192265476Y-95548390D01*
X192265476Y-95548390D02*
X192313095Y-95596009D01*
X192313095Y-95596009D02*
X192360714Y-95691247D01*
X192360714Y-95691247D02*
X192360714Y-95929342D01*
X192360714Y-95929342D02*
X192313095Y-96024580D01*
X192313095Y-96024580D02*
X192265476Y-96072200D01*
X192265476Y-96072200D02*
X192170238Y-96119819D01*
X192170238Y-96119819D02*
X191932143Y-96119819D01*
X191932143Y-96119819D02*
X191836905Y-96072200D01*
X191836905Y-96072200D02*
X191789286Y-96024580D01*
X142647143Y-101884580D02*
X142599524Y-101932200D01*
X142599524Y-101932200D02*
X142456667Y-101979819D01*
X142456667Y-101979819D02*
X142361429Y-101979819D01*
X142361429Y-101979819D02*
X142218572Y-101932200D01*
X142218572Y-101932200D02*
X142123334Y-101836961D01*
X142123334Y-101836961D02*
X142075715Y-101741723D01*
X142075715Y-101741723D02*
X142028096Y-101551247D01*
X142028096Y-101551247D02*
X142028096Y-101408390D01*
X142028096Y-101408390D02*
X142075715Y-101217914D01*
X142075715Y-101217914D02*
X142123334Y-101122676D01*
X142123334Y-101122676D02*
X142218572Y-101027438D01*
X142218572Y-101027438D02*
X142361429Y-100979819D01*
X142361429Y-100979819D02*
X142456667Y-100979819D01*
X142456667Y-100979819D02*
X142599524Y-101027438D01*
X142599524Y-101027438D02*
X142647143Y-101075057D01*
X143599524Y-101979819D02*
X143028096Y-101979819D01*
X143313810Y-101979819D02*
X143313810Y-100979819D01*
X143313810Y-100979819D02*
X143218572Y-101122676D01*
X143218572Y-101122676D02*
X143123334Y-101217914D01*
X143123334Y-101217914D02*
X143028096Y-101265533D01*
X144456667Y-101313152D02*
X144456667Y-101979819D01*
X144218572Y-100932200D02*
X143980477Y-101646485D01*
X143980477Y-101646485D02*
X144599524Y-101646485D01*
X157242386Y-89219872D02*
X157175042Y-89219872D01*
X157175042Y-89219872D02*
X157040355Y-89152528D01*
X157040355Y-89152528D02*
X156973012Y-89085185D01*
X156973012Y-89085185D02*
X156905668Y-88950498D01*
X156905668Y-88950498D02*
X156905668Y-88815811D01*
X156905668Y-88815811D02*
X156939340Y-88714796D01*
X156939340Y-88714796D02*
X157040355Y-88546437D01*
X157040355Y-88546437D02*
X157141370Y-88445422D01*
X157141370Y-88445422D02*
X157309729Y-88344406D01*
X157309729Y-88344406D02*
X157410744Y-88310735D01*
X157410744Y-88310735D02*
X157545431Y-88310735D01*
X157545431Y-88310735D02*
X157680118Y-88378078D01*
X157680118Y-88378078D02*
X157747462Y-88445422D01*
X157747462Y-88445422D02*
X157814805Y-88580109D01*
X157814805Y-88580109D02*
X157814805Y-88647452D01*
X158488240Y-89186200D02*
X158353553Y-89051513D01*
X158353553Y-89051513D02*
X158252538Y-89017841D01*
X158252538Y-89017841D02*
X158185195Y-89017841D01*
X158185195Y-89017841D02*
X158016836Y-89051513D01*
X158016836Y-89051513D02*
X157848477Y-89152528D01*
X157848477Y-89152528D02*
X157579103Y-89421902D01*
X157579103Y-89421902D02*
X157545431Y-89522918D01*
X157545431Y-89522918D02*
X157545431Y-89590261D01*
X157545431Y-89590261D02*
X157579103Y-89691276D01*
X157579103Y-89691276D02*
X157713790Y-89825963D01*
X157713790Y-89825963D02*
X157814805Y-89859635D01*
X157814805Y-89859635D02*
X157882149Y-89859635D01*
X157882149Y-89859635D02*
X157983164Y-89825963D01*
X157983164Y-89825963D02*
X158151523Y-89657605D01*
X158151523Y-89657605D02*
X158185195Y-89556589D01*
X158185195Y-89556589D02*
X158185195Y-89489246D01*
X158185195Y-89489246D02*
X158151523Y-89388231D01*
X158151523Y-89388231D02*
X158016836Y-89253544D01*
X158016836Y-89253544D02*
X157915821Y-89219872D01*
X157915821Y-89219872D02*
X157848477Y-89219872D01*
X157848477Y-89219872D02*
X157747462Y-89253544D01*
X185588095Y-85454819D02*
X185588095Y-86264342D01*
X185588095Y-86264342D02*
X185635714Y-86359580D01*
X185635714Y-86359580D02*
X185683333Y-86407200D01*
X185683333Y-86407200D02*
X185778571Y-86454819D01*
X185778571Y-86454819D02*
X185969047Y-86454819D01*
X185969047Y-86454819D02*
X186064285Y-86407200D01*
X186064285Y-86407200D02*
X186111904Y-86359580D01*
X186111904Y-86359580D02*
X186159523Y-86264342D01*
X186159523Y-86264342D02*
X186159523Y-85454819D01*
X186778571Y-85883390D02*
X186683333Y-85835771D01*
X186683333Y-85835771D02*
X186635714Y-85788152D01*
X186635714Y-85788152D02*
X186588095Y-85692914D01*
X186588095Y-85692914D02*
X186588095Y-85645295D01*
X186588095Y-85645295D02*
X186635714Y-85550057D01*
X186635714Y-85550057D02*
X186683333Y-85502438D01*
X186683333Y-85502438D02*
X186778571Y-85454819D01*
X186778571Y-85454819D02*
X186969047Y-85454819D01*
X186969047Y-85454819D02*
X187064285Y-85502438D01*
X187064285Y-85502438D02*
X187111904Y-85550057D01*
X187111904Y-85550057D02*
X187159523Y-85645295D01*
X187159523Y-85645295D02*
X187159523Y-85692914D01*
X187159523Y-85692914D02*
X187111904Y-85788152D01*
X187111904Y-85788152D02*
X187064285Y-85835771D01*
X187064285Y-85835771D02*
X186969047Y-85883390D01*
X186969047Y-85883390D02*
X186778571Y-85883390D01*
X186778571Y-85883390D02*
X186683333Y-85931009D01*
X186683333Y-85931009D02*
X186635714Y-85978628D01*
X186635714Y-85978628D02*
X186588095Y-86073866D01*
X186588095Y-86073866D02*
X186588095Y-86264342D01*
X186588095Y-86264342D02*
X186635714Y-86359580D01*
X186635714Y-86359580D02*
X186683333Y-86407200D01*
X186683333Y-86407200D02*
X186778571Y-86454819D01*
X186778571Y-86454819D02*
X186969047Y-86454819D01*
X186969047Y-86454819D02*
X187064285Y-86407200D01*
X187064285Y-86407200D02*
X187111904Y-86359580D01*
X187111904Y-86359580D02*
X187159523Y-86264342D01*
X187159523Y-86264342D02*
X187159523Y-86073866D01*
X187159523Y-86073866D02*
X187111904Y-85978628D01*
X187111904Y-85978628D02*
X187064285Y-85931009D01*
X187064285Y-85931009D02*
X186969047Y-85883390D01*
X133405714Y-104459819D02*
X133405714Y-103459819D01*
X133405714Y-103459819D02*
X133643809Y-103459819D01*
X133643809Y-103459819D02*
X133786666Y-103507438D01*
X133786666Y-103507438D02*
X133881904Y-103602676D01*
X133881904Y-103602676D02*
X133929523Y-103697914D01*
X133929523Y-103697914D02*
X133977142Y-103888390D01*
X133977142Y-103888390D02*
X133977142Y-104031247D01*
X133977142Y-104031247D02*
X133929523Y-104221723D01*
X133929523Y-104221723D02*
X133881904Y-104316961D01*
X133881904Y-104316961D02*
X133786666Y-104412200D01*
X133786666Y-104412200D02*
X133643809Y-104459819D01*
X133643809Y-104459819D02*
X133405714Y-104459819D01*
X134929523Y-104459819D02*
X134358095Y-104459819D01*
X134643809Y-104459819D02*
X134643809Y-103459819D01*
X134643809Y-103459819D02*
X134548571Y-103602676D01*
X134548571Y-103602676D02*
X134453333Y-103697914D01*
X134453333Y-103697914D02*
X134358095Y-103745533D01*
X135881904Y-104459819D02*
X135310476Y-104459819D01*
X135596190Y-104459819D02*
X135596190Y-103459819D01*
X135596190Y-103459819D02*
X135500952Y-103602676D01*
X135500952Y-103602676D02*
X135405714Y-103697914D01*
X135405714Y-103697914D02*
X135310476Y-103745533D01*
X137278333Y-109279819D02*
X136945000Y-108803628D01*
X136706905Y-109279819D02*
X136706905Y-108279819D01*
X136706905Y-108279819D02*
X137087857Y-108279819D01*
X137087857Y-108279819D02*
X137183095Y-108327438D01*
X137183095Y-108327438D02*
X137230714Y-108375057D01*
X137230714Y-108375057D02*
X137278333Y-108470295D01*
X137278333Y-108470295D02*
X137278333Y-108613152D01*
X137278333Y-108613152D02*
X137230714Y-108708390D01*
X137230714Y-108708390D02*
X137183095Y-108756009D01*
X137183095Y-108756009D02*
X137087857Y-108803628D01*
X137087857Y-108803628D02*
X136706905Y-108803628D01*
X137754524Y-109279819D02*
X137945000Y-109279819D01*
X137945000Y-109279819D02*
X138040238Y-109232200D01*
X138040238Y-109232200D02*
X138087857Y-109184580D01*
X138087857Y-109184580D02*
X138183095Y-109041723D01*
X138183095Y-109041723D02*
X138230714Y-108851247D01*
X138230714Y-108851247D02*
X138230714Y-108470295D01*
X138230714Y-108470295D02*
X138183095Y-108375057D01*
X138183095Y-108375057D02*
X138135476Y-108327438D01*
X138135476Y-108327438D02*
X138040238Y-108279819D01*
X138040238Y-108279819D02*
X137849762Y-108279819D01*
X137849762Y-108279819D02*
X137754524Y-108327438D01*
X137754524Y-108327438D02*
X137706905Y-108375057D01*
X137706905Y-108375057D02*
X137659286Y-108470295D01*
X137659286Y-108470295D02*
X137659286Y-108708390D01*
X137659286Y-108708390D02*
X137706905Y-108803628D01*
X137706905Y-108803628D02*
X137754524Y-108851247D01*
X137754524Y-108851247D02*
X137849762Y-108898866D01*
X137849762Y-108898866D02*
X138040238Y-108898866D01*
X138040238Y-108898866D02*
X138135476Y-108851247D01*
X138135476Y-108851247D02*
X138183095Y-108803628D01*
X138183095Y-108803628D02*
X138230714Y-108708390D01*
X135773142Y-95554819D02*
X135439809Y-95078628D01*
X135201714Y-95554819D02*
X135201714Y-94554819D01*
X135201714Y-94554819D02*
X135582666Y-94554819D01*
X135582666Y-94554819D02*
X135677904Y-94602438D01*
X135677904Y-94602438D02*
X135725523Y-94650057D01*
X135725523Y-94650057D02*
X135773142Y-94745295D01*
X135773142Y-94745295D02*
X135773142Y-94888152D01*
X135773142Y-94888152D02*
X135725523Y-94983390D01*
X135725523Y-94983390D02*
X135677904Y-95031009D01*
X135677904Y-95031009D02*
X135582666Y-95078628D01*
X135582666Y-95078628D02*
X135201714Y-95078628D01*
X136725523Y-95554819D02*
X136154095Y-95554819D01*
X136439809Y-95554819D02*
X136439809Y-94554819D01*
X136439809Y-94554819D02*
X136344571Y-94697676D01*
X136344571Y-94697676D02*
X136249333Y-94792914D01*
X136249333Y-94792914D02*
X136154095Y-94840533D01*
X137630285Y-94554819D02*
X137154095Y-94554819D01*
X137154095Y-94554819D02*
X137106476Y-95031009D01*
X137106476Y-95031009D02*
X137154095Y-94983390D01*
X137154095Y-94983390D02*
X137249333Y-94935771D01*
X137249333Y-94935771D02*
X137487428Y-94935771D01*
X137487428Y-94935771D02*
X137582666Y-94983390D01*
X137582666Y-94983390D02*
X137630285Y-95031009D01*
X137630285Y-95031009D02*
X137677904Y-95126247D01*
X137677904Y-95126247D02*
X137677904Y-95364342D01*
X137677904Y-95364342D02*
X137630285Y-95459580D01*
X137630285Y-95459580D02*
X137582666Y-95507200D01*
X137582666Y-95507200D02*
X137487428Y-95554819D01*
X137487428Y-95554819D02*
X137249333Y-95554819D01*
X137249333Y-95554819D02*
X137154095Y-95507200D01*
X137154095Y-95507200D02*
X137106476Y-95459580D01*
X135808142Y-97020820D02*
X135474809Y-96544629D01*
X135236714Y-97020820D02*
X135236714Y-96020820D01*
X135236714Y-96020820D02*
X135617666Y-96020820D01*
X135617666Y-96020820D02*
X135712904Y-96068439D01*
X135712904Y-96068439D02*
X135760523Y-96116058D01*
X135760523Y-96116058D02*
X135808142Y-96211296D01*
X135808142Y-96211296D02*
X135808142Y-96354153D01*
X135808142Y-96354153D02*
X135760523Y-96449391D01*
X135760523Y-96449391D02*
X135712904Y-96497010D01*
X135712904Y-96497010D02*
X135617666Y-96544629D01*
X135617666Y-96544629D02*
X135236714Y-96544629D01*
X136760523Y-97020820D02*
X136189095Y-97020820D01*
X136474809Y-97020820D02*
X136474809Y-96020820D01*
X136474809Y-96020820D02*
X136379571Y-96163677D01*
X136379571Y-96163677D02*
X136284333Y-96258915D01*
X136284333Y-96258915D02*
X136189095Y-96306534D01*
X137617666Y-96020820D02*
X137427190Y-96020820D01*
X137427190Y-96020820D02*
X137331952Y-96068439D01*
X137331952Y-96068439D02*
X137284333Y-96116058D01*
X137284333Y-96116058D02*
X137189095Y-96258915D01*
X137189095Y-96258915D02*
X137141476Y-96449391D01*
X137141476Y-96449391D02*
X137141476Y-96830343D01*
X137141476Y-96830343D02*
X137189095Y-96925581D01*
X137189095Y-96925581D02*
X137236714Y-96973201D01*
X137236714Y-96973201D02*
X137331952Y-97020820D01*
X137331952Y-97020820D02*
X137522428Y-97020820D01*
X137522428Y-97020820D02*
X137617666Y-96973201D01*
X137617666Y-96973201D02*
X137665285Y-96925581D01*
X137665285Y-96925581D02*
X137712904Y-96830343D01*
X137712904Y-96830343D02*
X137712904Y-96592248D01*
X137712904Y-96592248D02*
X137665285Y-96497010D01*
X137665285Y-96497010D02*
X137617666Y-96449391D01*
X137617666Y-96449391D02*
X137522428Y-96401772D01*
X137522428Y-96401772D02*
X137331952Y-96401772D01*
X137331952Y-96401772D02*
X137236714Y-96449391D01*
X137236714Y-96449391D02*
X137189095Y-96497010D01*
X137189095Y-96497010D02*
X137141476Y-96592248D01*
X181546274Y-112723859D02*
X182542469Y-112811015D01*
X182542469Y-112811015D02*
X182521717Y-113048204D01*
X182521717Y-113048204D02*
X182461829Y-113186368D01*
X182461829Y-113186368D02*
X182358653Y-113272943D01*
X182358653Y-113272943D02*
X182259627Y-113312080D01*
X182259627Y-113312080D02*
X182065725Y-113342917D01*
X182065725Y-113342917D02*
X181923411Y-113330466D01*
X181923411Y-113330466D02*
X181737810Y-113266427D01*
X181737810Y-113266427D02*
X181647085Y-113210689D01*
X181647085Y-113210689D02*
X181560510Y-113107512D01*
X181560510Y-113107512D02*
X181525523Y-112961049D01*
X181525523Y-112961049D02*
X181546274Y-112723859D01*
X181413465Y-114241870D02*
X181463269Y-113672616D01*
X181438367Y-113957243D02*
X182434562Y-114044399D01*
X182434562Y-114044399D02*
X182300549Y-113937073D01*
X182300549Y-113937073D02*
X182213974Y-113833896D01*
X182213974Y-113833896D02*
X182174836Y-113734870D01*
X182380608Y-114661091D02*
X182326655Y-115277783D01*
X182326655Y-115277783D02*
X181976204Y-114912516D01*
X181976204Y-114912516D02*
X181963753Y-115054829D01*
X181963753Y-115054829D02*
X181908015Y-115145555D01*
X181908015Y-115145555D02*
X181856426Y-115188842D01*
X181856426Y-115188842D02*
X181757401Y-115227980D01*
X181757401Y-115227980D02*
X181520211Y-115207228D01*
X181520211Y-115207228D02*
X181429486Y-115151490D01*
X181429486Y-115151490D02*
X181386198Y-115099902D01*
X181386198Y-115099902D02*
X181347061Y-115000876D01*
X181347061Y-115000876D02*
X181371963Y-114716249D01*
X181371963Y-114716249D02*
X181427701Y-114625523D01*
X181427701Y-114625523D02*
X181479289Y-114582236D01*
X188284819Y-88592857D02*
X187808628Y-88926190D01*
X188284819Y-89164285D02*
X187284819Y-89164285D01*
X187284819Y-89164285D02*
X187284819Y-88783333D01*
X187284819Y-88783333D02*
X187332438Y-88688095D01*
X187332438Y-88688095D02*
X187380057Y-88640476D01*
X187380057Y-88640476D02*
X187475295Y-88592857D01*
X187475295Y-88592857D02*
X187618152Y-88592857D01*
X187618152Y-88592857D02*
X187713390Y-88640476D01*
X187713390Y-88640476D02*
X187761009Y-88688095D01*
X187761009Y-88688095D02*
X187808628Y-88783333D01*
X187808628Y-88783333D02*
X187808628Y-89164285D01*
X187284819Y-88259523D02*
X187284819Y-87640476D01*
X187284819Y-87640476D02*
X187665771Y-87973809D01*
X187665771Y-87973809D02*
X187665771Y-87830952D01*
X187665771Y-87830952D02*
X187713390Y-87735714D01*
X187713390Y-87735714D02*
X187761009Y-87688095D01*
X187761009Y-87688095D02*
X187856247Y-87640476D01*
X187856247Y-87640476D02*
X188094342Y-87640476D01*
X188094342Y-87640476D02*
X188189580Y-87688095D01*
X188189580Y-87688095D02*
X188237200Y-87735714D01*
X188237200Y-87735714D02*
X188284819Y-87830952D01*
X188284819Y-87830952D02*
X188284819Y-88116666D01*
X188284819Y-88116666D02*
X188237200Y-88211904D01*
X188237200Y-88211904D02*
X188189580Y-88259523D01*
X187284819Y-86783333D02*
X187284819Y-86973809D01*
X187284819Y-86973809D02*
X187332438Y-87069047D01*
X187332438Y-87069047D02*
X187380057Y-87116666D01*
X187380057Y-87116666D02*
X187522914Y-87211904D01*
X187522914Y-87211904D02*
X187713390Y-87259523D01*
X187713390Y-87259523D02*
X188094342Y-87259523D01*
X188094342Y-87259523D02*
X188189580Y-87211904D01*
X188189580Y-87211904D02*
X188237200Y-87164285D01*
X188237200Y-87164285D02*
X188284819Y-87069047D01*
X188284819Y-87069047D02*
X188284819Y-86878571D01*
X188284819Y-86878571D02*
X188237200Y-86783333D01*
X188237200Y-86783333D02*
X188189580Y-86735714D01*
X188189580Y-86735714D02*
X188094342Y-86688095D01*
X188094342Y-86688095D02*
X187856247Y-86688095D01*
X187856247Y-86688095D02*
X187761009Y-86735714D01*
X187761009Y-86735714D02*
X187713390Y-86783333D01*
X187713390Y-86783333D02*
X187665771Y-86878571D01*
X187665771Y-86878571D02*
X187665771Y-87069047D01*
X187665771Y-87069047D02*
X187713390Y-87164285D01*
X187713390Y-87164285D02*
X187761009Y-87211904D01*
X187761009Y-87211904D02*
X187856247Y-87259523D01*
X137570220Y-98102104D02*
X138379743Y-98102104D01*
X138379743Y-98102104D02*
X138474981Y-98054485D01*
X138474981Y-98054485D02*
X138522601Y-98006866D01*
X138522601Y-98006866D02*
X138570220Y-97911628D01*
X138570220Y-97911628D02*
X138570220Y-97721152D01*
X138570220Y-97721152D02*
X138522601Y-97625914D01*
X138522601Y-97625914D02*
X138474981Y-97578295D01*
X138474981Y-97578295D02*
X138379743Y-97530676D01*
X138379743Y-97530676D02*
X137570220Y-97530676D01*
X137903553Y-96625914D02*
X138570220Y-96625914D01*
X137522601Y-96864009D02*
X138236886Y-97102104D01*
X138236886Y-97102104D02*
X138236886Y-96483057D01*
X135797142Y-91079819D02*
X135463809Y-90603628D01*
X135225714Y-91079819D02*
X135225714Y-90079819D01*
X135225714Y-90079819D02*
X135606666Y-90079819D01*
X135606666Y-90079819D02*
X135701904Y-90127438D01*
X135701904Y-90127438D02*
X135749523Y-90175057D01*
X135749523Y-90175057D02*
X135797142Y-90270295D01*
X135797142Y-90270295D02*
X135797142Y-90413152D01*
X135797142Y-90413152D02*
X135749523Y-90508390D01*
X135749523Y-90508390D02*
X135701904Y-90556009D01*
X135701904Y-90556009D02*
X135606666Y-90603628D01*
X135606666Y-90603628D02*
X135225714Y-90603628D01*
X136749523Y-91079819D02*
X136178095Y-91079819D01*
X136463809Y-91079819D02*
X136463809Y-90079819D01*
X136463809Y-90079819D02*
X136368571Y-90222676D01*
X136368571Y-90222676D02*
X136273333Y-90317914D01*
X136273333Y-90317914D02*
X136178095Y-90365533D01*
X137130476Y-90175057D02*
X137178095Y-90127438D01*
X137178095Y-90127438D02*
X137273333Y-90079819D01*
X137273333Y-90079819D02*
X137511428Y-90079819D01*
X137511428Y-90079819D02*
X137606666Y-90127438D01*
X137606666Y-90127438D02*
X137654285Y-90175057D01*
X137654285Y-90175057D02*
X137701904Y-90270295D01*
X137701904Y-90270295D02*
X137701904Y-90365533D01*
X137701904Y-90365533D02*
X137654285Y-90508390D01*
X137654285Y-90508390D02*
X137082857Y-91079819D01*
X137082857Y-91079819D02*
X137701904Y-91079819D01*
X175917321Y-116142855D02*
X175441130Y-116476188D01*
X175917321Y-116714283D02*
X174917321Y-116714283D01*
X174917321Y-116714283D02*
X174917321Y-116333331D01*
X174917321Y-116333331D02*
X174964940Y-116238093D01*
X174964940Y-116238093D02*
X175012559Y-116190474D01*
X175012559Y-116190474D02*
X175107797Y-116142855D01*
X175107797Y-116142855D02*
X175250654Y-116142855D01*
X175250654Y-116142855D02*
X175345892Y-116190474D01*
X175345892Y-116190474D02*
X175393511Y-116238093D01*
X175393511Y-116238093D02*
X175441130Y-116333331D01*
X175441130Y-116333331D02*
X175441130Y-116714283D01*
X174917321Y-115809521D02*
X174917321Y-115190474D01*
X174917321Y-115190474D02*
X175298273Y-115523807D01*
X175298273Y-115523807D02*
X175298273Y-115380950D01*
X175298273Y-115380950D02*
X175345892Y-115285712D01*
X175345892Y-115285712D02*
X175393511Y-115238093D01*
X175393511Y-115238093D02*
X175488749Y-115190474D01*
X175488749Y-115190474D02*
X175726844Y-115190474D01*
X175726844Y-115190474D02*
X175822082Y-115238093D01*
X175822082Y-115238093D02*
X175869702Y-115285712D01*
X175869702Y-115285712D02*
X175917321Y-115380950D01*
X175917321Y-115380950D02*
X175917321Y-115666664D01*
X175917321Y-115666664D02*
X175869702Y-115761902D01*
X175869702Y-115761902D02*
X175822082Y-115809521D01*
X174917321Y-114857140D02*
X174917321Y-114238093D01*
X174917321Y-114238093D02*
X175298273Y-114571426D01*
X175298273Y-114571426D02*
X175298273Y-114428569D01*
X175298273Y-114428569D02*
X175345892Y-114333331D01*
X175345892Y-114333331D02*
X175393511Y-114285712D01*
X175393511Y-114285712D02*
X175488749Y-114238093D01*
X175488749Y-114238093D02*
X175726844Y-114238093D01*
X175726844Y-114238093D02*
X175822082Y-114285712D01*
X175822082Y-114285712D02*
X175869702Y-114333331D01*
X175869702Y-114333331D02*
X175917321Y-114428569D01*
X175917321Y-114428569D02*
X175917321Y-114714283D01*
X175917321Y-114714283D02*
X175869702Y-114809521D01*
X175869702Y-114809521D02*
X175822082Y-114857140D01*
X160365437Y-96679728D02*
X160365437Y-96747072D01*
X160365437Y-96747072D02*
X160298093Y-96881759D01*
X160298093Y-96881759D02*
X160230750Y-96949102D01*
X160230750Y-96949102D02*
X160096063Y-97016446D01*
X160096063Y-97016446D02*
X159961376Y-97016446D01*
X159961376Y-97016446D02*
X159860361Y-96982774D01*
X159860361Y-96982774D02*
X159692002Y-96881759D01*
X159692002Y-96881759D02*
X159590987Y-96780744D01*
X159590987Y-96780744D02*
X159489971Y-96612385D01*
X159489971Y-96612385D02*
X159456300Y-96511370D01*
X159456300Y-96511370D02*
X159456300Y-96376683D01*
X159456300Y-96376683D02*
X159523643Y-96241996D01*
X159523643Y-96241996D02*
X159590987Y-96174652D01*
X159590987Y-96174652D02*
X159725674Y-96107309D01*
X159725674Y-96107309D02*
X159793017Y-96107309D01*
X160062391Y-95837935D02*
X160062391Y-95770591D01*
X160062391Y-95770591D02*
X160096063Y-95669576D01*
X160096063Y-95669576D02*
X160264422Y-95501217D01*
X160264422Y-95501217D02*
X160365437Y-95467545D01*
X160365437Y-95467545D02*
X160432780Y-95467545D01*
X160432780Y-95467545D02*
X160533796Y-95501217D01*
X160533796Y-95501217D02*
X160601139Y-95568561D01*
X160601139Y-95568561D02*
X160668483Y-95703248D01*
X160668483Y-95703248D02*
X160668483Y-96511370D01*
X160668483Y-96511370D02*
X161106215Y-96073637D01*
X158729819Y-116211904D02*
X159539342Y-116211904D01*
X159539342Y-116211904D02*
X159634580Y-116164285D01*
X159634580Y-116164285D02*
X159682200Y-116116666D01*
X159682200Y-116116666D02*
X159729819Y-116021428D01*
X159729819Y-116021428D02*
X159729819Y-115830952D01*
X159729819Y-115830952D02*
X159682200Y-115735714D01*
X159682200Y-115735714D02*
X159634580Y-115688095D01*
X159634580Y-115688095D02*
X159539342Y-115640476D01*
X159539342Y-115640476D02*
X158729819Y-115640476D01*
X158825057Y-115211904D02*
X158777438Y-115164285D01*
X158777438Y-115164285D02*
X158729819Y-115069047D01*
X158729819Y-115069047D02*
X158729819Y-114830952D01*
X158729819Y-114830952D02*
X158777438Y-114735714D01*
X158777438Y-114735714D02*
X158825057Y-114688095D01*
X158825057Y-114688095D02*
X158920295Y-114640476D01*
X158920295Y-114640476D02*
X159015533Y-114640476D01*
X159015533Y-114640476D02*
X159158390Y-114688095D01*
X159158390Y-114688095D02*
X159729819Y-115259523D01*
X159729819Y-115259523D02*
X159729819Y-114640476D01*
X175917321Y-114222855D02*
X175441130Y-114556188D01*
X175917321Y-114794283D02*
X174917321Y-114794283D01*
X174917321Y-114794283D02*
X174917321Y-114413331D01*
X174917321Y-114413331D02*
X174964940Y-114318093D01*
X174964940Y-114318093D02*
X175012559Y-114270474D01*
X175012559Y-114270474D02*
X175107797Y-114222855D01*
X175107797Y-114222855D02*
X175250654Y-114222855D01*
X175250654Y-114222855D02*
X175345892Y-114270474D01*
X175345892Y-114270474D02*
X175393511Y-114318093D01*
X175393511Y-114318093D02*
X175441130Y-114413331D01*
X175441130Y-114413331D02*
X175441130Y-114794283D01*
X174917321Y-113889521D02*
X174917321Y-113270474D01*
X174917321Y-113270474D02*
X175298273Y-113603807D01*
X175298273Y-113603807D02*
X175298273Y-113460950D01*
X175298273Y-113460950D02*
X175345892Y-113365712D01*
X175345892Y-113365712D02*
X175393511Y-113318093D01*
X175393511Y-113318093D02*
X175488749Y-113270474D01*
X175488749Y-113270474D02*
X175726844Y-113270474D01*
X175726844Y-113270474D02*
X175822082Y-113318093D01*
X175822082Y-113318093D02*
X175869702Y-113365712D01*
X175869702Y-113365712D02*
X175917321Y-113460950D01*
X175917321Y-113460950D02*
X175917321Y-113746664D01*
X175917321Y-113746664D02*
X175869702Y-113841902D01*
X175869702Y-113841902D02*
X175822082Y-113889521D01*
X175250654Y-112413331D02*
X175917321Y-112413331D01*
X174869702Y-112651426D02*
X175583987Y-112889521D01*
X175583987Y-112889521D02*
X175583987Y-112270474D01*
X135773142Y-94054819D02*
X135439809Y-93578628D01*
X135201714Y-94054819D02*
X135201714Y-93054819D01*
X135201714Y-93054819D02*
X135582666Y-93054819D01*
X135582666Y-93054819D02*
X135677904Y-93102438D01*
X135677904Y-93102438D02*
X135725523Y-93150057D01*
X135725523Y-93150057D02*
X135773142Y-93245295D01*
X135773142Y-93245295D02*
X135773142Y-93388152D01*
X135773142Y-93388152D02*
X135725523Y-93483390D01*
X135725523Y-93483390D02*
X135677904Y-93531009D01*
X135677904Y-93531009D02*
X135582666Y-93578628D01*
X135582666Y-93578628D02*
X135201714Y-93578628D01*
X136725523Y-94054819D02*
X136154095Y-94054819D01*
X136439809Y-94054819D02*
X136439809Y-93054819D01*
X136439809Y-93054819D02*
X136344571Y-93197676D01*
X136344571Y-93197676D02*
X136249333Y-93292914D01*
X136249333Y-93292914D02*
X136154095Y-93340533D01*
X137582666Y-93388152D02*
X137582666Y-94054819D01*
X137344571Y-93007200D02*
X137106476Y-93721485D01*
X137106476Y-93721485D02*
X137725523Y-93721485D01*
X192546704Y-100009197D02*
X192594324Y-100056816D01*
X192594324Y-100056816D02*
X192641943Y-100199673D01*
X192641943Y-100199673D02*
X192641943Y-100294911D01*
X192641943Y-100294911D02*
X192594324Y-100437768D01*
X192594324Y-100437768D02*
X192499085Y-100533006D01*
X192499085Y-100533006D02*
X192403847Y-100580625D01*
X192403847Y-100580625D02*
X192213371Y-100628244D01*
X192213371Y-100628244D02*
X192070514Y-100628244D01*
X192070514Y-100628244D02*
X191880038Y-100580625D01*
X191880038Y-100580625D02*
X191784800Y-100533006D01*
X191784800Y-100533006D02*
X191689562Y-100437768D01*
X191689562Y-100437768D02*
X191641943Y-100294911D01*
X191641943Y-100294911D02*
X191641943Y-100199673D01*
X191641943Y-100199673D02*
X191689562Y-100056816D01*
X191689562Y-100056816D02*
X191737181Y-100009197D01*
X191737181Y-99628244D02*
X191689562Y-99580625D01*
X191689562Y-99580625D02*
X191641943Y-99485387D01*
X191641943Y-99485387D02*
X191641943Y-99247292D01*
X191641943Y-99247292D02*
X191689562Y-99152054D01*
X191689562Y-99152054D02*
X191737181Y-99104435D01*
X191737181Y-99104435D02*
X191832419Y-99056816D01*
X191832419Y-99056816D02*
X191927657Y-99056816D01*
X191927657Y-99056816D02*
X192070514Y-99104435D01*
X192070514Y-99104435D02*
X192641943Y-99675863D01*
X192641943Y-99675863D02*
X192641943Y-99056816D01*
X192641943Y-98104435D02*
X192641943Y-98675863D01*
X192641943Y-98390149D02*
X191641943Y-98390149D01*
X191641943Y-98390149D02*
X191784800Y-98485387D01*
X191784800Y-98485387D02*
X191880038Y-98580625D01*
X191880038Y-98580625D02*
X191927657Y-98675863D01*
D11*
X177193903Y-83590200D02*
X177051046Y-83542580D01*
X177051046Y-83542580D02*
X176812951Y-83542580D01*
X176812951Y-83542580D02*
X176717713Y-83590200D01*
X176717713Y-83590200D02*
X176670094Y-83637819D01*
X176670094Y-83637819D02*
X176622475Y-83733057D01*
X176622475Y-83733057D02*
X176622475Y-83828295D01*
X176622475Y-83828295D02*
X176670094Y-83923533D01*
X176670094Y-83923533D02*
X176717713Y-83971152D01*
X176717713Y-83971152D02*
X176812951Y-84018771D01*
X176812951Y-84018771D02*
X177003427Y-84066390D01*
X177003427Y-84066390D02*
X177098665Y-84114009D01*
X177098665Y-84114009D02*
X177146284Y-84161628D01*
X177146284Y-84161628D02*
X177193903Y-84256866D01*
X177193903Y-84256866D02*
X177193903Y-84352104D01*
X177193903Y-84352104D02*
X177146284Y-84447342D01*
X177146284Y-84447342D02*
X177098665Y-84494961D01*
X177098665Y-84494961D02*
X177003427Y-84542580D01*
X177003427Y-84542580D02*
X176765332Y-84542580D01*
X176765332Y-84542580D02*
X176622475Y-84494961D01*
X176193903Y-83542580D02*
X176193903Y-84542580D01*
X176193903Y-84542580D02*
X175812951Y-84542580D01*
X175812951Y-84542580D02*
X175717713Y-84494961D01*
X175717713Y-84494961D02*
X175670094Y-84447342D01*
X175670094Y-84447342D02*
X175622475Y-84352104D01*
X175622475Y-84352104D02*
X175622475Y-84209247D01*
X175622475Y-84209247D02*
X175670094Y-84114009D01*
X175670094Y-84114009D02*
X175717713Y-84066390D01*
X175717713Y-84066390D02*
X175812951Y-84018771D01*
X175812951Y-84018771D02*
X176193903Y-84018771D01*
X174670094Y-83542580D02*
X175241522Y-83542580D01*
X174955808Y-83542580D02*
X174955808Y-84542580D01*
X174955808Y-84542580D02*
X175051046Y-84399723D01*
X175051046Y-84399723D02*
X175146284Y-84304485D01*
X175146284Y-84304485D02*
X175241522Y-84256866D01*
X177846302Y-81923700D02*
X177084398Y-81923700D01*
X177465350Y-81542747D02*
X177465350Y-82304652D01*
D10*
X151460425Y-100048540D02*
X151393081Y-100048540D01*
X151393081Y-100048540D02*
X151258394Y-99981196D01*
X151258394Y-99981196D02*
X151191051Y-99913853D01*
X151191051Y-99913853D02*
X151123707Y-99779166D01*
X151123707Y-99779166D02*
X151123707Y-99644479D01*
X151123707Y-99644479D02*
X151157379Y-99543464D01*
X151157379Y-99543464D02*
X151258394Y-99375105D01*
X151258394Y-99375105D02*
X151359409Y-99274090D01*
X151359409Y-99274090D02*
X151527768Y-99173074D01*
X151527768Y-99173074D02*
X151628783Y-99139403D01*
X151628783Y-99139403D02*
X151763470Y-99139403D01*
X151763470Y-99139403D02*
X151898157Y-99206746D01*
X151898157Y-99206746D02*
X151965501Y-99274090D01*
X151965501Y-99274090D02*
X152032844Y-99408777D01*
X152032844Y-99408777D02*
X152032844Y-99476120D01*
X152201203Y-100115883D02*
X152167531Y-100014868D01*
X152167531Y-100014868D02*
X152167531Y-99947525D01*
X152167531Y-99947525D02*
X152201203Y-99846509D01*
X152201203Y-99846509D02*
X152234875Y-99812838D01*
X152234875Y-99812838D02*
X152335890Y-99779166D01*
X152335890Y-99779166D02*
X152403234Y-99779166D01*
X152403234Y-99779166D02*
X152504249Y-99812838D01*
X152504249Y-99812838D02*
X152638936Y-99947525D01*
X152638936Y-99947525D02*
X152672608Y-100048540D01*
X152672608Y-100048540D02*
X152672608Y-100115883D01*
X152672608Y-100115883D02*
X152638936Y-100216899D01*
X152638936Y-100216899D02*
X152605264Y-100250570D01*
X152605264Y-100250570D02*
X152504249Y-100284242D01*
X152504249Y-100284242D02*
X152436905Y-100284242D01*
X152436905Y-100284242D02*
X152335890Y-100250570D01*
X152335890Y-100250570D02*
X152201203Y-100115883D01*
X152201203Y-100115883D02*
X152100188Y-100082212D01*
X152100188Y-100082212D02*
X152032844Y-100082212D01*
X152032844Y-100082212D02*
X151931829Y-100115883D01*
X151931829Y-100115883D02*
X151797142Y-100250570D01*
X151797142Y-100250570D02*
X151763470Y-100351586D01*
X151763470Y-100351586D02*
X151763470Y-100418929D01*
X151763470Y-100418929D02*
X151797142Y-100519944D01*
X151797142Y-100519944D02*
X151931829Y-100654631D01*
X151931829Y-100654631D02*
X152032844Y-100688303D01*
X152032844Y-100688303D02*
X152100188Y-100688303D01*
X152100188Y-100688303D02*
X152201203Y-100654631D01*
X152201203Y-100654631D02*
X152335890Y-100519944D01*
X152335890Y-100519944D02*
X152369562Y-100418929D01*
X152369562Y-100418929D02*
X152369562Y-100351586D01*
X152369562Y-100351586D02*
X152335890Y-100250570D01*
X163913095Y-94654819D02*
X163913095Y-95464342D01*
X163913095Y-95464342D02*
X163960714Y-95559580D01*
X163960714Y-95559580D02*
X164008333Y-95607200D01*
X164008333Y-95607200D02*
X164103571Y-95654819D01*
X164103571Y-95654819D02*
X164294047Y-95654819D01*
X164294047Y-95654819D02*
X164389285Y-95607200D01*
X164389285Y-95607200D02*
X164436904Y-95559580D01*
X164436904Y-95559580D02*
X164484523Y-95464342D01*
X164484523Y-95464342D02*
X164484523Y-94654819D01*
X164865476Y-94654819D02*
X165484523Y-94654819D01*
X165484523Y-94654819D02*
X165151190Y-95035771D01*
X165151190Y-95035771D02*
X165294047Y-95035771D01*
X165294047Y-95035771D02*
X165389285Y-95083390D01*
X165389285Y-95083390D02*
X165436904Y-95131009D01*
X165436904Y-95131009D02*
X165484523Y-95226247D01*
X165484523Y-95226247D02*
X165484523Y-95464342D01*
X165484523Y-95464342D02*
X165436904Y-95559580D01*
X165436904Y-95559580D02*
X165389285Y-95607200D01*
X165389285Y-95607200D02*
X165294047Y-95654819D01*
X165294047Y-95654819D02*
X165008333Y-95654819D01*
X165008333Y-95654819D02*
X164913095Y-95607200D01*
X164913095Y-95607200D02*
X164865476Y-95559580D01*
X158929819Y-116666666D02*
X158453628Y-116999999D01*
X158929819Y-117238094D02*
X157929819Y-117238094D01*
X157929819Y-117238094D02*
X157929819Y-116857142D01*
X157929819Y-116857142D02*
X157977438Y-116761904D01*
X157977438Y-116761904D02*
X158025057Y-116714285D01*
X158025057Y-116714285D02*
X158120295Y-116666666D01*
X158120295Y-116666666D02*
X158263152Y-116666666D01*
X158263152Y-116666666D02*
X158358390Y-116714285D01*
X158358390Y-116714285D02*
X158406009Y-116761904D01*
X158406009Y-116761904D02*
X158453628Y-116857142D01*
X158453628Y-116857142D02*
X158453628Y-117238094D01*
X157929819Y-116333332D02*
X157929819Y-115714285D01*
X157929819Y-115714285D02*
X158310771Y-116047618D01*
X158310771Y-116047618D02*
X158310771Y-115904761D01*
X158310771Y-115904761D02*
X158358390Y-115809523D01*
X158358390Y-115809523D02*
X158406009Y-115761904D01*
X158406009Y-115761904D02*
X158501247Y-115714285D01*
X158501247Y-115714285D02*
X158739342Y-115714285D01*
X158739342Y-115714285D02*
X158834580Y-115761904D01*
X158834580Y-115761904D02*
X158882200Y-115809523D01*
X158882200Y-115809523D02*
X158929819Y-115904761D01*
X158929819Y-115904761D02*
X158929819Y-116190475D01*
X158929819Y-116190475D02*
X158882200Y-116285713D01*
X158882200Y-116285713D02*
X158834580Y-116333332D01*
X135877142Y-105179819D02*
X135543809Y-104703628D01*
X135305714Y-105179819D02*
X135305714Y-104179819D01*
X135305714Y-104179819D02*
X135686666Y-104179819D01*
X135686666Y-104179819D02*
X135781904Y-104227438D01*
X135781904Y-104227438D02*
X135829523Y-104275057D01*
X135829523Y-104275057D02*
X135877142Y-104370295D01*
X135877142Y-104370295D02*
X135877142Y-104513152D01*
X135877142Y-104513152D02*
X135829523Y-104608390D01*
X135829523Y-104608390D02*
X135781904Y-104656009D01*
X135781904Y-104656009D02*
X135686666Y-104703628D01*
X135686666Y-104703628D02*
X135305714Y-104703628D01*
X136258095Y-104275057D02*
X136305714Y-104227438D01*
X136305714Y-104227438D02*
X136400952Y-104179819D01*
X136400952Y-104179819D02*
X136639047Y-104179819D01*
X136639047Y-104179819D02*
X136734285Y-104227438D01*
X136734285Y-104227438D02*
X136781904Y-104275057D01*
X136781904Y-104275057D02*
X136829523Y-104370295D01*
X136829523Y-104370295D02*
X136829523Y-104465533D01*
X136829523Y-104465533D02*
X136781904Y-104608390D01*
X136781904Y-104608390D02*
X136210476Y-105179819D01*
X136210476Y-105179819D02*
X136829523Y-105179819D01*
X137448571Y-104179819D02*
X137543809Y-104179819D01*
X137543809Y-104179819D02*
X137639047Y-104227438D01*
X137639047Y-104227438D02*
X137686666Y-104275057D01*
X137686666Y-104275057D02*
X137734285Y-104370295D01*
X137734285Y-104370295D02*
X137781904Y-104560771D01*
X137781904Y-104560771D02*
X137781904Y-104798866D01*
X137781904Y-104798866D02*
X137734285Y-104989342D01*
X137734285Y-104989342D02*
X137686666Y-105084580D01*
X137686666Y-105084580D02*
X137639047Y-105132200D01*
X137639047Y-105132200D02*
X137543809Y-105179819D01*
X137543809Y-105179819D02*
X137448571Y-105179819D01*
X137448571Y-105179819D02*
X137353333Y-105132200D01*
X137353333Y-105132200D02*
X137305714Y-105084580D01*
X137305714Y-105084580D02*
X137258095Y-104989342D01*
X137258095Y-104989342D02*
X137210476Y-104798866D01*
X137210476Y-104798866D02*
X137210476Y-104560771D01*
X137210476Y-104560771D02*
X137258095Y-104370295D01*
X137258095Y-104370295D02*
X137305714Y-104275057D01*
X137305714Y-104275057D02*
X137353333Y-104227438D01*
X137353333Y-104227438D02*
X137448571Y-104179819D01*
X149708332Y-115344999D02*
X149565475Y-115297379D01*
X149565475Y-115297379D02*
X149327380Y-115297379D01*
X149327380Y-115297379D02*
X149232142Y-115344999D01*
X149232142Y-115344999D02*
X149184523Y-115392618D01*
X149184523Y-115392618D02*
X149136904Y-115487856D01*
X149136904Y-115487856D02*
X149136904Y-115583094D01*
X149136904Y-115583094D02*
X149184523Y-115678332D01*
X149184523Y-115678332D02*
X149232142Y-115725951D01*
X149232142Y-115725951D02*
X149327380Y-115773570D01*
X149327380Y-115773570D02*
X149517856Y-115821189D01*
X149517856Y-115821189D02*
X149613094Y-115868808D01*
X149613094Y-115868808D02*
X149660713Y-115916427D01*
X149660713Y-115916427D02*
X149708332Y-116011665D01*
X149708332Y-116011665D02*
X149708332Y-116106903D01*
X149708332Y-116106903D02*
X149660713Y-116202141D01*
X149660713Y-116202141D02*
X149613094Y-116249760D01*
X149613094Y-116249760D02*
X149517856Y-116297379D01*
X149517856Y-116297379D02*
X149279761Y-116297379D01*
X149279761Y-116297379D02*
X149136904Y-116249760D01*
X148803570Y-116297379D02*
X148565475Y-115297379D01*
X148565475Y-115297379D02*
X148374999Y-116011665D01*
X148374999Y-116011665D02*
X148184523Y-115297379D01*
X148184523Y-115297379D02*
X147946428Y-116297379D01*
X147613094Y-116202141D02*
X147565475Y-116249760D01*
X147565475Y-116249760D02*
X147470237Y-116297379D01*
X147470237Y-116297379D02*
X147232142Y-116297379D01*
X147232142Y-116297379D02*
X147136904Y-116249760D01*
X147136904Y-116249760D02*
X147089285Y-116202141D01*
X147089285Y-116202141D02*
X147041666Y-116106903D01*
X147041666Y-116106903D02*
X147041666Y-116011665D01*
X147041666Y-116011665D02*
X147089285Y-115868808D01*
X147089285Y-115868808D02*
X147660713Y-115297379D01*
X147660713Y-115297379D02*
X147041666Y-115297379D01*
X149127142Y-85414819D02*
X148793809Y-84938628D01*
X148555714Y-85414819D02*
X148555714Y-84414819D01*
X148555714Y-84414819D02*
X148936666Y-84414819D01*
X148936666Y-84414819D02*
X149031904Y-84462438D01*
X149031904Y-84462438D02*
X149079523Y-84510057D01*
X149079523Y-84510057D02*
X149127142Y-84605295D01*
X149127142Y-84605295D02*
X149127142Y-84748152D01*
X149127142Y-84748152D02*
X149079523Y-84843390D01*
X149079523Y-84843390D02*
X149031904Y-84891009D01*
X149031904Y-84891009D02*
X148936666Y-84938628D01*
X148936666Y-84938628D02*
X148555714Y-84938628D01*
X149460476Y-84414819D02*
X150079523Y-84414819D01*
X150079523Y-84414819D02*
X149746190Y-84795771D01*
X149746190Y-84795771D02*
X149889047Y-84795771D01*
X149889047Y-84795771D02*
X149984285Y-84843390D01*
X149984285Y-84843390D02*
X150031904Y-84891009D01*
X150031904Y-84891009D02*
X150079523Y-84986247D01*
X150079523Y-84986247D02*
X150079523Y-85224342D01*
X150079523Y-85224342D02*
X150031904Y-85319580D01*
X150031904Y-85319580D02*
X149984285Y-85367200D01*
X149984285Y-85367200D02*
X149889047Y-85414819D01*
X149889047Y-85414819D02*
X149603333Y-85414819D01*
X149603333Y-85414819D02*
X149508095Y-85367200D01*
X149508095Y-85367200D02*
X149460476Y-85319580D01*
X150460476Y-84510057D02*
X150508095Y-84462438D01*
X150508095Y-84462438D02*
X150603333Y-84414819D01*
X150603333Y-84414819D02*
X150841428Y-84414819D01*
X150841428Y-84414819D02*
X150936666Y-84462438D01*
X150936666Y-84462438D02*
X150984285Y-84510057D01*
X150984285Y-84510057D02*
X151031904Y-84605295D01*
X151031904Y-84605295D02*
X151031904Y-84700533D01*
X151031904Y-84700533D02*
X150984285Y-84843390D01*
X150984285Y-84843390D02*
X150412857Y-85414819D01*
X150412857Y-85414819D02*
X151031904Y-85414819D01*
X179017142Y-86974582D02*
X178969523Y-87022202D01*
X178969523Y-87022202D02*
X178826666Y-87069821D01*
X178826666Y-87069821D02*
X178731428Y-87069821D01*
X178731428Y-87069821D02*
X178588571Y-87022202D01*
X178588571Y-87022202D02*
X178493333Y-86926963D01*
X178493333Y-86926963D02*
X178445714Y-86831725D01*
X178445714Y-86831725D02*
X178398095Y-86641249D01*
X178398095Y-86641249D02*
X178398095Y-86498392D01*
X178398095Y-86498392D02*
X178445714Y-86307916D01*
X178445714Y-86307916D02*
X178493333Y-86212678D01*
X178493333Y-86212678D02*
X178588571Y-86117440D01*
X178588571Y-86117440D02*
X178731428Y-86069821D01*
X178731428Y-86069821D02*
X178826666Y-86069821D01*
X178826666Y-86069821D02*
X178969523Y-86117440D01*
X178969523Y-86117440D02*
X179017142Y-86165059D01*
X179398095Y-86165059D02*
X179445714Y-86117440D01*
X179445714Y-86117440D02*
X179540952Y-86069821D01*
X179540952Y-86069821D02*
X179779047Y-86069821D01*
X179779047Y-86069821D02*
X179874285Y-86117440D01*
X179874285Y-86117440D02*
X179921904Y-86165059D01*
X179921904Y-86165059D02*
X179969523Y-86260297D01*
X179969523Y-86260297D02*
X179969523Y-86355535D01*
X179969523Y-86355535D02*
X179921904Y-86498392D01*
X179921904Y-86498392D02*
X179350476Y-87069821D01*
X179350476Y-87069821D02*
X179969523Y-87069821D01*
X180350476Y-86165059D02*
X180398095Y-86117440D01*
X180398095Y-86117440D02*
X180493333Y-86069821D01*
X180493333Y-86069821D02*
X180731428Y-86069821D01*
X180731428Y-86069821D02*
X180826666Y-86117440D01*
X180826666Y-86117440D02*
X180874285Y-86165059D01*
X180874285Y-86165059D02*
X180921904Y-86260297D01*
X180921904Y-86260297D02*
X180921904Y-86355535D01*
X180921904Y-86355535D02*
X180874285Y-86498392D01*
X180874285Y-86498392D02*
X180302857Y-87069821D01*
X180302857Y-87069821D02*
X180921904Y-87069821D01*
X149305832Y-110102320D02*
X148972499Y-109626129D01*
X148734404Y-110102320D02*
X148734404Y-109102320D01*
X148734404Y-109102320D02*
X149115356Y-109102320D01*
X149115356Y-109102320D02*
X149210594Y-109149939D01*
X149210594Y-109149939D02*
X149258213Y-109197558D01*
X149258213Y-109197558D02*
X149305832Y-109292796D01*
X149305832Y-109292796D02*
X149305832Y-109435653D01*
X149305832Y-109435653D02*
X149258213Y-109530891D01*
X149258213Y-109530891D02*
X149210594Y-109578510D01*
X149210594Y-109578510D02*
X149115356Y-109626129D01*
X149115356Y-109626129D02*
X148734404Y-109626129D01*
X150162975Y-109102320D02*
X149972499Y-109102320D01*
X149972499Y-109102320D02*
X149877261Y-109149939D01*
X149877261Y-109149939D02*
X149829642Y-109197558D01*
X149829642Y-109197558D02*
X149734404Y-109340415D01*
X149734404Y-109340415D02*
X149686785Y-109530891D01*
X149686785Y-109530891D02*
X149686785Y-109911843D01*
X149686785Y-109911843D02*
X149734404Y-110007081D01*
X149734404Y-110007081D02*
X149782023Y-110054701D01*
X149782023Y-110054701D02*
X149877261Y-110102320D01*
X149877261Y-110102320D02*
X150067737Y-110102320D01*
X150067737Y-110102320D02*
X150162975Y-110054701D01*
X150162975Y-110054701D02*
X150210594Y-110007081D01*
X150210594Y-110007081D02*
X150258213Y-109911843D01*
X150258213Y-109911843D02*
X150258213Y-109673748D01*
X150258213Y-109673748D02*
X150210594Y-109578510D01*
X150210594Y-109578510D02*
X150162975Y-109530891D01*
X150162975Y-109530891D02*
X150067737Y-109483272D01*
X150067737Y-109483272D02*
X149877261Y-109483272D01*
X149877261Y-109483272D02*
X149782023Y-109530891D01*
X149782023Y-109530891D02*
X149734404Y-109578510D01*
X149734404Y-109578510D02*
X149686785Y-109673748D01*
X147124819Y-93416666D02*
X147124819Y-93892856D01*
X147124819Y-93892856D02*
X146124819Y-93892856D01*
X146220057Y-93130951D02*
X146172438Y-93083332D01*
X146172438Y-93083332D02*
X146124819Y-92988094D01*
X146124819Y-92988094D02*
X146124819Y-92749999D01*
X146124819Y-92749999D02*
X146172438Y-92654761D01*
X146172438Y-92654761D02*
X146220057Y-92607142D01*
X146220057Y-92607142D02*
X146315295Y-92559523D01*
X146315295Y-92559523D02*
X146410533Y-92559523D01*
X146410533Y-92559523D02*
X146553390Y-92607142D01*
X146553390Y-92607142D02*
X147124819Y-93178570D01*
X147124819Y-93178570D02*
X147124819Y-92559523D01*
X189437142Y-93869579D02*
X189389523Y-93917199D01*
X189389523Y-93917199D02*
X189246666Y-93964818D01*
X189246666Y-93964818D02*
X189151428Y-93964818D01*
X189151428Y-93964818D02*
X189008571Y-93917199D01*
X189008571Y-93917199D02*
X188913333Y-93821960D01*
X188913333Y-93821960D02*
X188865714Y-93726722D01*
X188865714Y-93726722D02*
X188818095Y-93536246D01*
X188818095Y-93536246D02*
X188818095Y-93393389D01*
X188818095Y-93393389D02*
X188865714Y-93202913D01*
X188865714Y-93202913D02*
X188913333Y-93107675D01*
X188913333Y-93107675D02*
X189008571Y-93012437D01*
X189008571Y-93012437D02*
X189151428Y-92964818D01*
X189151428Y-92964818D02*
X189246666Y-92964818D01*
X189246666Y-92964818D02*
X189389523Y-93012437D01*
X189389523Y-93012437D02*
X189437142Y-93060056D01*
X189818095Y-93060056D02*
X189865714Y-93012437D01*
X189865714Y-93012437D02*
X189960952Y-92964818D01*
X189960952Y-92964818D02*
X190199047Y-92964818D01*
X190199047Y-92964818D02*
X190294285Y-93012437D01*
X190294285Y-93012437D02*
X190341904Y-93060056D01*
X190341904Y-93060056D02*
X190389523Y-93155294D01*
X190389523Y-93155294D02*
X190389523Y-93250532D01*
X190389523Y-93250532D02*
X190341904Y-93393389D01*
X190341904Y-93393389D02*
X189770476Y-93964818D01*
X189770476Y-93964818D02*
X190389523Y-93964818D01*
X191294285Y-92964818D02*
X190818095Y-92964818D01*
X190818095Y-92964818D02*
X190770476Y-93441008D01*
X190770476Y-93441008D02*
X190818095Y-93393389D01*
X190818095Y-93393389D02*
X190913333Y-93345770D01*
X190913333Y-93345770D02*
X191151428Y-93345770D01*
X191151428Y-93345770D02*
X191246666Y-93393389D01*
X191246666Y-93393389D02*
X191294285Y-93441008D01*
X191294285Y-93441008D02*
X191341904Y-93536246D01*
X191341904Y-93536246D02*
X191341904Y-93774341D01*
X191341904Y-93774341D02*
X191294285Y-93869579D01*
X191294285Y-93869579D02*
X191246666Y-93917199D01*
X191246666Y-93917199D02*
X191151428Y-93964818D01*
X191151428Y-93964818D02*
X190913333Y-93964818D01*
X190913333Y-93964818D02*
X190818095Y-93917199D01*
X190818095Y-93917199D02*
X190770476Y-93869579D01*
X133936905Y-88859819D02*
X133936905Y-87859819D01*
X133936905Y-87859819D02*
X134175000Y-87859819D01*
X134175000Y-87859819D02*
X134317857Y-87907438D01*
X134317857Y-87907438D02*
X134413095Y-88002676D01*
X134413095Y-88002676D02*
X134460714Y-88097914D01*
X134460714Y-88097914D02*
X134508333Y-88288390D01*
X134508333Y-88288390D02*
X134508333Y-88431247D01*
X134508333Y-88431247D02*
X134460714Y-88621723D01*
X134460714Y-88621723D02*
X134413095Y-88716961D01*
X134413095Y-88716961D02*
X134317857Y-88812200D01*
X134317857Y-88812200D02*
X134175000Y-88859819D01*
X134175000Y-88859819D02*
X133936905Y-88859819D01*
X134889286Y-87955057D02*
X134936905Y-87907438D01*
X134936905Y-87907438D02*
X135032143Y-87859819D01*
X135032143Y-87859819D02*
X135270238Y-87859819D01*
X135270238Y-87859819D02*
X135365476Y-87907438D01*
X135365476Y-87907438D02*
X135413095Y-87955057D01*
X135413095Y-87955057D02*
X135460714Y-88050295D01*
X135460714Y-88050295D02*
X135460714Y-88145533D01*
X135460714Y-88145533D02*
X135413095Y-88288390D01*
X135413095Y-88288390D02*
X134841667Y-88859819D01*
X134841667Y-88859819D02*
X135460714Y-88859819D01*
D11*
X162508333Y-121792580D02*
X162508333Y-121078295D01*
X162508333Y-121078295D02*
X162555952Y-120935438D01*
X162555952Y-120935438D02*
X162651190Y-120840200D01*
X162651190Y-120840200D02*
X162794047Y-120792580D01*
X162794047Y-120792580D02*
X162889285Y-120792580D01*
X162079761Y-121697342D02*
X162032142Y-121744961D01*
X162032142Y-121744961D02*
X161936904Y-121792580D01*
X161936904Y-121792580D02*
X161698809Y-121792580D01*
X161698809Y-121792580D02*
X161603571Y-121744961D01*
X161603571Y-121744961D02*
X161555952Y-121697342D01*
X161555952Y-121697342D02*
X161508333Y-121602104D01*
X161508333Y-121602104D02*
X161508333Y-121506866D01*
X161508333Y-121506866D02*
X161555952Y-121364009D01*
X161555952Y-121364009D02*
X162127380Y-120792580D01*
X162127380Y-120792580D02*
X161508333Y-120792580D01*
D10*
X164304819Y-80074404D02*
X165114342Y-80074404D01*
X165114342Y-80074404D02*
X165209580Y-80026785D01*
X165209580Y-80026785D02*
X165257200Y-79979166D01*
X165257200Y-79979166D02*
X165304819Y-79883928D01*
X165304819Y-79883928D02*
X165304819Y-79693452D01*
X165304819Y-79693452D02*
X165257200Y-79598214D01*
X165257200Y-79598214D02*
X165209580Y-79550595D01*
X165209580Y-79550595D02*
X165114342Y-79502976D01*
X165114342Y-79502976D02*
X164304819Y-79502976D01*
X164304819Y-78598214D02*
X164304819Y-78788690D01*
X164304819Y-78788690D02*
X164352438Y-78883928D01*
X164352438Y-78883928D02*
X164400057Y-78931547D01*
X164400057Y-78931547D02*
X164542914Y-79026785D01*
X164542914Y-79026785D02*
X164733390Y-79074404D01*
X164733390Y-79074404D02*
X165114342Y-79074404D01*
X165114342Y-79074404D02*
X165209580Y-79026785D01*
X165209580Y-79026785D02*
X165257200Y-78979166D01*
X165257200Y-78979166D02*
X165304819Y-78883928D01*
X165304819Y-78883928D02*
X165304819Y-78693452D01*
X165304819Y-78693452D02*
X165257200Y-78598214D01*
X165257200Y-78598214D02*
X165209580Y-78550595D01*
X165209580Y-78550595D02*
X165114342Y-78502976D01*
X165114342Y-78502976D02*
X164876247Y-78502976D01*
X164876247Y-78502976D02*
X164781009Y-78550595D01*
X164781009Y-78550595D02*
X164733390Y-78598214D01*
X164733390Y-78598214D02*
X164685771Y-78693452D01*
X164685771Y-78693452D02*
X164685771Y-78883928D01*
X164685771Y-78883928D02*
X164733390Y-78979166D01*
X164733390Y-78979166D02*
X164781009Y-79026785D01*
X164781009Y-79026785D02*
X164876247Y-79074404D01*
X133899905Y-91834819D02*
X133899905Y-90834819D01*
X133899905Y-90834819D02*
X134138000Y-90834819D01*
X134138000Y-90834819D02*
X134280857Y-90882438D01*
X134280857Y-90882438D02*
X134376095Y-90977676D01*
X134376095Y-90977676D02*
X134423714Y-91072914D01*
X134423714Y-91072914D02*
X134471333Y-91263390D01*
X134471333Y-91263390D02*
X134471333Y-91406247D01*
X134471333Y-91406247D02*
X134423714Y-91596723D01*
X134423714Y-91596723D02*
X134376095Y-91691961D01*
X134376095Y-91691961D02*
X134280857Y-91787200D01*
X134280857Y-91787200D02*
X134138000Y-91834819D01*
X134138000Y-91834819D02*
X133899905Y-91834819D01*
X135328476Y-91168152D02*
X135328476Y-91834819D01*
X135090381Y-90787200D02*
X134852286Y-91501485D01*
X134852286Y-91501485D02*
X135471333Y-91501485D01*
X179047141Y-106154579D02*
X178999522Y-106202199D01*
X178999522Y-106202199D02*
X178856665Y-106249818D01*
X178856665Y-106249818D02*
X178761427Y-106249818D01*
X178761427Y-106249818D02*
X178618570Y-106202199D01*
X178618570Y-106202199D02*
X178523332Y-106106960D01*
X178523332Y-106106960D02*
X178475713Y-106011722D01*
X178475713Y-106011722D02*
X178428094Y-105821246D01*
X178428094Y-105821246D02*
X178428094Y-105678389D01*
X178428094Y-105678389D02*
X178475713Y-105487913D01*
X178475713Y-105487913D02*
X178523332Y-105392675D01*
X178523332Y-105392675D02*
X178618570Y-105297437D01*
X178618570Y-105297437D02*
X178761427Y-105249818D01*
X178761427Y-105249818D02*
X178856665Y-105249818D01*
X178856665Y-105249818D02*
X178999522Y-105297437D01*
X178999522Y-105297437D02*
X179047141Y-105345056D01*
X179428094Y-105345056D02*
X179475713Y-105297437D01*
X179475713Y-105297437D02*
X179570951Y-105249818D01*
X179570951Y-105249818D02*
X179809046Y-105249818D01*
X179809046Y-105249818D02*
X179904284Y-105297437D01*
X179904284Y-105297437D02*
X179951903Y-105345056D01*
X179951903Y-105345056D02*
X179999522Y-105440294D01*
X179999522Y-105440294D02*
X179999522Y-105535532D01*
X179999522Y-105535532D02*
X179951903Y-105678389D01*
X179951903Y-105678389D02*
X179380475Y-106249818D01*
X179380475Y-106249818D02*
X179999522Y-106249818D01*
X180332856Y-105249818D02*
X180951903Y-105249818D01*
X180951903Y-105249818D02*
X180618570Y-105630770D01*
X180618570Y-105630770D02*
X180761427Y-105630770D01*
X180761427Y-105630770D02*
X180856665Y-105678389D01*
X180856665Y-105678389D02*
X180904284Y-105726008D01*
X180904284Y-105726008D02*
X180951903Y-105821246D01*
X180951903Y-105821246D02*
X180951903Y-106059341D01*
X180951903Y-106059341D02*
X180904284Y-106154579D01*
X180904284Y-106154579D02*
X180856665Y-106202199D01*
X180856665Y-106202199D02*
X180761427Y-106249818D01*
X180761427Y-106249818D02*
X180475713Y-106249818D01*
X180475713Y-106249818D02*
X180380475Y-106202199D01*
X180380475Y-106202199D02*
X180332856Y-106154579D01*
X142984819Y-82258333D02*
X143699104Y-82258333D01*
X143699104Y-82258333D02*
X143841961Y-82305952D01*
X143841961Y-82305952D02*
X143937200Y-82401190D01*
X143937200Y-82401190D02*
X143984819Y-82544047D01*
X143984819Y-82544047D02*
X143984819Y-82639285D01*
X143413390Y-81639285D02*
X143365771Y-81734523D01*
X143365771Y-81734523D02*
X143318152Y-81782142D01*
X143318152Y-81782142D02*
X143222914Y-81829761D01*
X143222914Y-81829761D02*
X143175295Y-81829761D01*
X143175295Y-81829761D02*
X143080057Y-81782142D01*
X143080057Y-81782142D02*
X143032438Y-81734523D01*
X143032438Y-81734523D02*
X142984819Y-81639285D01*
X142984819Y-81639285D02*
X142984819Y-81448809D01*
X142984819Y-81448809D02*
X143032438Y-81353571D01*
X143032438Y-81353571D02*
X143080057Y-81305952D01*
X143080057Y-81305952D02*
X143175295Y-81258333D01*
X143175295Y-81258333D02*
X143222914Y-81258333D01*
X143222914Y-81258333D02*
X143318152Y-81305952D01*
X143318152Y-81305952D02*
X143365771Y-81353571D01*
X143365771Y-81353571D02*
X143413390Y-81448809D01*
X143413390Y-81448809D02*
X143413390Y-81639285D01*
X143413390Y-81639285D02*
X143461009Y-81734523D01*
X143461009Y-81734523D02*
X143508628Y-81782142D01*
X143508628Y-81782142D02*
X143603866Y-81829761D01*
X143603866Y-81829761D02*
X143794342Y-81829761D01*
X143794342Y-81829761D02*
X143889580Y-81782142D01*
X143889580Y-81782142D02*
X143937200Y-81734523D01*
X143937200Y-81734523D02*
X143984819Y-81639285D01*
X143984819Y-81639285D02*
X143984819Y-81448809D01*
X143984819Y-81448809D02*
X143937200Y-81353571D01*
X143937200Y-81353571D02*
X143889580Y-81305952D01*
X143889580Y-81305952D02*
X143794342Y-81258333D01*
X143794342Y-81258333D02*
X143603866Y-81258333D01*
X143603866Y-81258333D02*
X143508628Y-81305952D01*
X143508628Y-81305952D02*
X143461009Y-81353571D01*
X143461009Y-81353571D02*
X143413390Y-81448809D01*
X195123056Y-100609166D02*
X195226622Y-100584427D01*
X195226622Y-100584427D02*
X195360796Y-100596166D01*
X195360796Y-100596166D02*
X195562058Y-100613774D01*
X195562058Y-100613774D02*
X195665623Y-100589034D01*
X195665623Y-100589034D02*
X195738580Y-100527816D01*
X195549057Y-100376034D02*
X195652623Y-100351294D01*
X195652623Y-100351294D02*
X195786797Y-100363033D01*
X195786797Y-100363033D02*
X195945711Y-100478337D01*
X195945711Y-100478337D02*
X196159974Y-100733685D01*
X196159974Y-100733685D02*
X196245931Y-100910207D01*
X196245931Y-100910207D02*
X196234192Y-101044382D01*
X196234192Y-101044382D02*
X196191845Y-101142078D01*
X196191845Y-101142078D02*
X196045932Y-101264514D01*
X196045932Y-101264514D02*
X195942366Y-101289253D01*
X195942366Y-101289253D02*
X195808191Y-101277515D01*
X195808191Y-101277515D02*
X195649277Y-101162210D01*
X195649277Y-101162210D02*
X195435015Y-100906862D01*
X195435015Y-100906862D02*
X195349057Y-100730340D01*
X195349057Y-100730340D02*
X195360796Y-100596166D01*
X195360796Y-100596166D02*
X195403144Y-100498469D01*
X195403144Y-100498469D02*
X195549057Y-100376034D01*
X194992668Y-101713171D02*
X194564143Y-101202475D01*
X195419931Y-101851953D02*
X195143188Y-101151734D01*
X195143188Y-101151734D02*
X194668971Y-101549650D01*
X135887142Y-106679819D02*
X135553809Y-106203628D01*
X135315714Y-106679819D02*
X135315714Y-105679819D01*
X135315714Y-105679819D02*
X135696666Y-105679819D01*
X135696666Y-105679819D02*
X135791904Y-105727438D01*
X135791904Y-105727438D02*
X135839523Y-105775057D01*
X135839523Y-105775057D02*
X135887142Y-105870295D01*
X135887142Y-105870295D02*
X135887142Y-106013152D01*
X135887142Y-106013152D02*
X135839523Y-106108390D01*
X135839523Y-106108390D02*
X135791904Y-106156009D01*
X135791904Y-106156009D02*
X135696666Y-106203628D01*
X135696666Y-106203628D02*
X135315714Y-106203628D01*
X136268095Y-105775057D02*
X136315714Y-105727438D01*
X136315714Y-105727438D02*
X136410952Y-105679819D01*
X136410952Y-105679819D02*
X136649047Y-105679819D01*
X136649047Y-105679819D02*
X136744285Y-105727438D01*
X136744285Y-105727438D02*
X136791904Y-105775057D01*
X136791904Y-105775057D02*
X136839523Y-105870295D01*
X136839523Y-105870295D02*
X136839523Y-105965533D01*
X136839523Y-105965533D02*
X136791904Y-106108390D01*
X136791904Y-106108390D02*
X136220476Y-106679819D01*
X136220476Y-106679819D02*
X136839523Y-106679819D01*
X137791904Y-106679819D02*
X137220476Y-106679819D01*
X137506190Y-106679819D02*
X137506190Y-105679819D01*
X137506190Y-105679819D02*
X137410952Y-105822676D01*
X137410952Y-105822676D02*
X137315714Y-105917914D01*
X137315714Y-105917914D02*
X137220476Y-105965533D01*
X151874580Y-106080357D02*
X151922200Y-106127976D01*
X151922200Y-106127976D02*
X151969819Y-106270833D01*
X151969819Y-106270833D02*
X151969819Y-106366071D01*
X151969819Y-106366071D02*
X151922200Y-106508928D01*
X151922200Y-106508928D02*
X151826961Y-106604166D01*
X151826961Y-106604166D02*
X151731723Y-106651785D01*
X151731723Y-106651785D02*
X151541247Y-106699404D01*
X151541247Y-106699404D02*
X151398390Y-106699404D01*
X151398390Y-106699404D02*
X151207914Y-106651785D01*
X151207914Y-106651785D02*
X151112676Y-106604166D01*
X151112676Y-106604166D02*
X151017438Y-106508928D01*
X151017438Y-106508928D02*
X150969819Y-106366071D01*
X150969819Y-106366071D02*
X150969819Y-106270833D01*
X150969819Y-106270833D02*
X151017438Y-106127976D01*
X151017438Y-106127976D02*
X151065057Y-106080357D01*
X151969819Y-105127976D02*
X151969819Y-105699404D01*
X151969819Y-105413690D02*
X150969819Y-105413690D01*
X150969819Y-105413690D02*
X151112676Y-105508928D01*
X151112676Y-105508928D02*
X151207914Y-105604166D01*
X151207914Y-105604166D02*
X151255533Y-105699404D01*
X150969819Y-104794642D02*
X150969819Y-104127976D01*
X150969819Y-104127976D02*
X151969819Y-104556547D01*
X152004819Y-105499404D02*
X152814342Y-105499404D01*
X152814342Y-105499404D02*
X152909580Y-105451785D01*
X152909580Y-105451785D02*
X152957200Y-105404166D01*
X152957200Y-105404166D02*
X153004819Y-105308928D01*
X153004819Y-105308928D02*
X153004819Y-105118452D01*
X153004819Y-105118452D02*
X152957200Y-105023214D01*
X152957200Y-105023214D02*
X152909580Y-104975595D01*
X152909580Y-104975595D02*
X152814342Y-104927976D01*
X152814342Y-104927976D02*
X152004819Y-104927976D01*
X152004819Y-103975595D02*
X152004819Y-104451785D01*
X152004819Y-104451785D02*
X152481009Y-104499404D01*
X152481009Y-104499404D02*
X152433390Y-104451785D01*
X152433390Y-104451785D02*
X152385771Y-104356547D01*
X152385771Y-104356547D02*
X152385771Y-104118452D01*
X152385771Y-104118452D02*
X152433390Y-104023214D01*
X152433390Y-104023214D02*
X152481009Y-103975595D01*
X152481009Y-103975595D02*
X152576247Y-103927976D01*
X152576247Y-103927976D02*
X152814342Y-103927976D01*
X152814342Y-103927976D02*
X152909580Y-103975595D01*
X152909580Y-103975595D02*
X152957200Y-104023214D01*
X152957200Y-104023214D02*
X153004819Y-104118452D01*
X153004819Y-104118452D02*
X153004819Y-104356547D01*
X153004819Y-104356547D02*
X152957200Y-104451785D01*
X152957200Y-104451785D02*
X152909580Y-104499404D01*
X133864404Y-100034819D02*
X133864404Y-99034819D01*
X133864404Y-99034819D02*
X134102499Y-99034819D01*
X134102499Y-99034819D02*
X134245356Y-99082438D01*
X134245356Y-99082438D02*
X134340594Y-99177676D01*
X134340594Y-99177676D02*
X134388213Y-99272914D01*
X134388213Y-99272914D02*
X134435832Y-99463390D01*
X134435832Y-99463390D02*
X134435832Y-99606247D01*
X134435832Y-99606247D02*
X134388213Y-99796723D01*
X134388213Y-99796723D02*
X134340594Y-99891961D01*
X134340594Y-99891961D02*
X134245356Y-99987200D01*
X134245356Y-99987200D02*
X134102499Y-100034819D01*
X134102499Y-100034819D02*
X133864404Y-100034819D01*
X135007261Y-99463390D02*
X134912023Y-99415771D01*
X134912023Y-99415771D02*
X134864404Y-99368152D01*
X134864404Y-99368152D02*
X134816785Y-99272914D01*
X134816785Y-99272914D02*
X134816785Y-99225295D01*
X134816785Y-99225295D02*
X134864404Y-99130057D01*
X134864404Y-99130057D02*
X134912023Y-99082438D01*
X134912023Y-99082438D02*
X135007261Y-99034819D01*
X135007261Y-99034819D02*
X135197737Y-99034819D01*
X135197737Y-99034819D02*
X135292975Y-99082438D01*
X135292975Y-99082438D02*
X135340594Y-99130057D01*
X135340594Y-99130057D02*
X135388213Y-99225295D01*
X135388213Y-99225295D02*
X135388213Y-99272914D01*
X135388213Y-99272914D02*
X135340594Y-99368152D01*
X135340594Y-99368152D02*
X135292975Y-99415771D01*
X135292975Y-99415771D02*
X135197737Y-99463390D01*
X135197737Y-99463390D02*
X135007261Y-99463390D01*
X135007261Y-99463390D02*
X134912023Y-99511009D01*
X134912023Y-99511009D02*
X134864404Y-99558628D01*
X134864404Y-99558628D02*
X134816785Y-99653866D01*
X134816785Y-99653866D02*
X134816785Y-99844342D01*
X134816785Y-99844342D02*
X134864404Y-99939580D01*
X134864404Y-99939580D02*
X134912023Y-99987200D01*
X134912023Y-99987200D02*
X135007261Y-100034819D01*
X135007261Y-100034819D02*
X135197737Y-100034819D01*
X135197737Y-100034819D02*
X135292975Y-99987200D01*
X135292975Y-99987200D02*
X135340594Y-99939580D01*
X135340594Y-99939580D02*
X135388213Y-99844342D01*
X135388213Y-99844342D02*
X135388213Y-99653866D01*
X135388213Y-99653866D02*
X135340594Y-99558628D01*
X135340594Y-99558628D02*
X135292975Y-99511009D01*
X135292975Y-99511009D02*
X135197737Y-99463390D01*
X142493335Y-87209580D02*
X142445716Y-87257200D01*
X142445716Y-87257200D02*
X142302859Y-87304819D01*
X142302859Y-87304819D02*
X142207621Y-87304819D01*
X142207621Y-87304819D02*
X142064764Y-87257200D01*
X142064764Y-87257200D02*
X141969526Y-87161961D01*
X141969526Y-87161961D02*
X141921907Y-87066723D01*
X141921907Y-87066723D02*
X141874288Y-86876247D01*
X141874288Y-86876247D02*
X141874288Y-86733390D01*
X141874288Y-86733390D02*
X141921907Y-86542914D01*
X141921907Y-86542914D02*
X141969526Y-86447676D01*
X141969526Y-86447676D02*
X142064764Y-86352438D01*
X142064764Y-86352438D02*
X142207621Y-86304819D01*
X142207621Y-86304819D02*
X142302859Y-86304819D01*
X142302859Y-86304819D02*
X142445716Y-86352438D01*
X142445716Y-86352438D02*
X142493335Y-86400057D01*
X143445716Y-87304819D02*
X142874288Y-87304819D01*
X143160002Y-87304819D02*
X143160002Y-86304819D01*
X143160002Y-86304819D02*
X143064764Y-86447676D01*
X143064764Y-86447676D02*
X142969526Y-86542914D01*
X142969526Y-86542914D02*
X142874288Y-86590533D01*
X161973333Y-114372321D02*
X161640000Y-113896130D01*
X161401905Y-114372321D02*
X161401905Y-113372321D01*
X161401905Y-113372321D02*
X161782857Y-113372321D01*
X161782857Y-113372321D02*
X161878095Y-113419940D01*
X161878095Y-113419940D02*
X161925714Y-113467559D01*
X161925714Y-113467559D02*
X161973333Y-113562797D01*
X161973333Y-113562797D02*
X161973333Y-113705654D01*
X161973333Y-113705654D02*
X161925714Y-113800892D01*
X161925714Y-113800892D02*
X161878095Y-113848511D01*
X161878095Y-113848511D02*
X161782857Y-113896130D01*
X161782857Y-113896130D02*
X161401905Y-113896130D01*
X162354286Y-113467559D02*
X162401905Y-113419940D01*
X162401905Y-113419940D02*
X162497143Y-113372321D01*
X162497143Y-113372321D02*
X162735238Y-113372321D01*
X162735238Y-113372321D02*
X162830476Y-113419940D01*
X162830476Y-113419940D02*
X162878095Y-113467559D01*
X162878095Y-113467559D02*
X162925714Y-113562797D01*
X162925714Y-113562797D02*
X162925714Y-113658035D01*
X162925714Y-113658035D02*
X162878095Y-113800892D01*
X162878095Y-113800892D02*
X162306667Y-114372321D01*
X162306667Y-114372321D02*
X162925714Y-114372321D01*
X174030057Y-85320238D02*
X173982438Y-85415476D01*
X173982438Y-85415476D02*
X173887200Y-85510714D01*
X173887200Y-85510714D02*
X173744342Y-85653571D01*
X173744342Y-85653571D02*
X173696723Y-85748809D01*
X173696723Y-85748809D02*
X173696723Y-85844047D01*
X173934819Y-85796428D02*
X173887200Y-85891666D01*
X173887200Y-85891666D02*
X173791961Y-85986904D01*
X173791961Y-85986904D02*
X173601485Y-86034523D01*
X173601485Y-86034523D02*
X173268152Y-86034523D01*
X173268152Y-86034523D02*
X173077676Y-85986904D01*
X173077676Y-85986904D02*
X172982438Y-85891666D01*
X172982438Y-85891666D02*
X172934819Y-85796428D01*
X172934819Y-85796428D02*
X172934819Y-85605952D01*
X172934819Y-85605952D02*
X172982438Y-85510714D01*
X172982438Y-85510714D02*
X173077676Y-85415476D01*
X173077676Y-85415476D02*
X173268152Y-85367857D01*
X173268152Y-85367857D02*
X173601485Y-85367857D01*
X173601485Y-85367857D02*
X173791961Y-85415476D01*
X173791961Y-85415476D02*
X173887200Y-85510714D01*
X173887200Y-85510714D02*
X173934819Y-85605952D01*
X173934819Y-85605952D02*
X173934819Y-85796428D01*
X172934819Y-85034523D02*
X172934819Y-84415476D01*
X172934819Y-84415476D02*
X173315771Y-84748809D01*
X173315771Y-84748809D02*
X173315771Y-84605952D01*
X173315771Y-84605952D02*
X173363390Y-84510714D01*
X173363390Y-84510714D02*
X173411009Y-84463095D01*
X173411009Y-84463095D02*
X173506247Y-84415476D01*
X173506247Y-84415476D02*
X173744342Y-84415476D01*
X173744342Y-84415476D02*
X173839580Y-84463095D01*
X173839580Y-84463095D02*
X173887200Y-84510714D01*
X173887200Y-84510714D02*
X173934819Y-84605952D01*
X173934819Y-84605952D02*
X173934819Y-84891666D01*
X173934819Y-84891666D02*
X173887200Y-84986904D01*
X173887200Y-84986904D02*
X173839580Y-85034523D01*
X179022142Y-109654819D02*
X178688809Y-109178628D01*
X178450714Y-109654819D02*
X178450714Y-108654819D01*
X178450714Y-108654819D02*
X178831666Y-108654819D01*
X178831666Y-108654819D02*
X178926904Y-108702438D01*
X178926904Y-108702438D02*
X178974523Y-108750057D01*
X178974523Y-108750057D02*
X179022142Y-108845295D01*
X179022142Y-108845295D02*
X179022142Y-108988152D01*
X179022142Y-108988152D02*
X178974523Y-109083390D01*
X178974523Y-109083390D02*
X178926904Y-109131009D01*
X178926904Y-109131009D02*
X178831666Y-109178628D01*
X178831666Y-109178628D02*
X178450714Y-109178628D01*
X179403095Y-108750057D02*
X179450714Y-108702438D01*
X179450714Y-108702438D02*
X179545952Y-108654819D01*
X179545952Y-108654819D02*
X179784047Y-108654819D01*
X179784047Y-108654819D02*
X179879285Y-108702438D01*
X179879285Y-108702438D02*
X179926904Y-108750057D01*
X179926904Y-108750057D02*
X179974523Y-108845295D01*
X179974523Y-108845295D02*
X179974523Y-108940533D01*
X179974523Y-108940533D02*
X179926904Y-109083390D01*
X179926904Y-109083390D02*
X179355476Y-109654819D01*
X179355476Y-109654819D02*
X179974523Y-109654819D01*
X180545952Y-109083390D02*
X180450714Y-109035771D01*
X180450714Y-109035771D02*
X180403095Y-108988152D01*
X180403095Y-108988152D02*
X180355476Y-108892914D01*
X180355476Y-108892914D02*
X180355476Y-108845295D01*
X180355476Y-108845295D02*
X180403095Y-108750057D01*
X180403095Y-108750057D02*
X180450714Y-108702438D01*
X180450714Y-108702438D02*
X180545952Y-108654819D01*
X180545952Y-108654819D02*
X180736428Y-108654819D01*
X180736428Y-108654819D02*
X180831666Y-108702438D01*
X180831666Y-108702438D02*
X180879285Y-108750057D01*
X180879285Y-108750057D02*
X180926904Y-108845295D01*
X180926904Y-108845295D02*
X180926904Y-108892914D01*
X180926904Y-108892914D02*
X180879285Y-108988152D01*
X180879285Y-108988152D02*
X180831666Y-109035771D01*
X180831666Y-109035771D02*
X180736428Y-109083390D01*
X180736428Y-109083390D02*
X180545952Y-109083390D01*
X180545952Y-109083390D02*
X180450714Y-109131009D01*
X180450714Y-109131009D02*
X180403095Y-109178628D01*
X180403095Y-109178628D02*
X180355476Y-109273866D01*
X180355476Y-109273866D02*
X180355476Y-109464342D01*
X180355476Y-109464342D02*
X180403095Y-109559580D01*
X180403095Y-109559580D02*
X180450714Y-109607200D01*
X180450714Y-109607200D02*
X180545952Y-109654819D01*
X180545952Y-109654819D02*
X180736428Y-109654819D01*
X180736428Y-109654819D02*
X180831666Y-109607200D01*
X180831666Y-109607200D02*
X180879285Y-109559580D01*
X180879285Y-109559580D02*
X180926904Y-109464342D01*
X180926904Y-109464342D02*
X180926904Y-109273866D01*
X180926904Y-109273866D02*
X180879285Y-109178628D01*
X180879285Y-109178628D02*
X180831666Y-109131009D01*
X180831666Y-109131009D02*
X180736428Y-109083390D01*
X181099767Y-84450815D02*
X181138904Y-84351789D01*
X181138904Y-84351789D02*
X181225479Y-84248613D01*
X181225479Y-84248613D02*
X181355342Y-84093849D01*
X181355342Y-84093849D02*
X181394479Y-83994823D01*
X181394479Y-83994823D02*
X181386179Y-83899947D01*
X181153140Y-83968136D02*
X181192277Y-83869111D01*
X181192277Y-83869111D02*
X181278852Y-83765934D01*
X181278852Y-83765934D02*
X181464453Y-83701895D01*
X181464453Y-83701895D02*
X181796518Y-83672843D01*
X181796518Y-83672843D02*
X181990420Y-83703680D01*
X181990420Y-83703680D02*
X182093596Y-83790255D01*
X182093596Y-83790255D02*
X182149335Y-83880981D01*
X182149335Y-83880981D02*
X182165936Y-84070732D01*
X182165936Y-84070732D02*
X182126798Y-84169758D01*
X182126798Y-84169758D02*
X182040223Y-84272934D01*
X182040223Y-84272934D02*
X181854622Y-84336973D01*
X181854622Y-84336973D02*
X181522557Y-84366025D01*
X181522557Y-84366025D02*
X181328656Y-84335188D01*
X181328656Y-84335188D02*
X181225479Y-84248613D01*
X181225479Y-84248613D02*
X181169741Y-84157888D01*
X181169741Y-84157888D02*
X181153140Y-83968136D01*
X182265542Y-85209240D02*
X182224040Y-84734862D01*
X182224040Y-84734862D02*
X181745511Y-84728927D01*
X181745511Y-84728927D02*
X181797099Y-84772214D01*
X181797099Y-84772214D02*
X181852837Y-84862940D01*
X181852837Y-84862940D02*
X181873589Y-85100129D01*
X181873589Y-85100129D02*
X181834451Y-85199155D01*
X181834451Y-85199155D02*
X181791164Y-85250743D01*
X181791164Y-85250743D02*
X181700438Y-85306481D01*
X181700438Y-85306481D02*
X181463249Y-85327233D01*
X181463249Y-85327233D02*
X181364223Y-85288095D01*
X181364223Y-85288095D02*
X181312635Y-85244808D01*
X181312635Y-85244808D02*
X181256897Y-85154083D01*
X181256897Y-85154083D02*
X181236145Y-84916893D01*
X181236145Y-84916893D02*
X181275283Y-84817867D01*
X181275283Y-84817867D02*
X181318570Y-84766279D01*
X149516666Y-108439819D02*
X149516666Y-109154104D01*
X149516666Y-109154104D02*
X149469047Y-109296961D01*
X149469047Y-109296961D02*
X149373809Y-109392200D01*
X149373809Y-109392200D02*
X149230952Y-109439819D01*
X149230952Y-109439819D02*
X149135714Y-109439819D01*
X150469047Y-108439819D02*
X149992857Y-108439819D01*
X149992857Y-108439819D02*
X149945238Y-108916009D01*
X149945238Y-108916009D02*
X149992857Y-108868390D01*
X149992857Y-108868390D02*
X150088095Y-108820771D01*
X150088095Y-108820771D02*
X150326190Y-108820771D01*
X150326190Y-108820771D02*
X150421428Y-108868390D01*
X150421428Y-108868390D02*
X150469047Y-108916009D01*
X150469047Y-108916009D02*
X150516666Y-109011247D01*
X150516666Y-109011247D02*
X150516666Y-109249342D01*
X150516666Y-109249342D02*
X150469047Y-109344580D01*
X150469047Y-109344580D02*
X150421428Y-109392200D01*
X150421428Y-109392200D02*
X150326190Y-109439819D01*
X150326190Y-109439819D02*
X150088095Y-109439819D01*
X150088095Y-109439819D02*
X149992857Y-109392200D01*
X149992857Y-109392200D02*
X149945238Y-109344580D01*
X177424819Y-87892859D02*
X176948628Y-88226192D01*
X177424819Y-88464287D02*
X176424819Y-88464287D01*
X176424819Y-88464287D02*
X176424819Y-88083335D01*
X176424819Y-88083335D02*
X176472438Y-87988097D01*
X176472438Y-87988097D02*
X176520057Y-87940478D01*
X176520057Y-87940478D02*
X176615295Y-87892859D01*
X176615295Y-87892859D02*
X176758152Y-87892859D01*
X176758152Y-87892859D02*
X176853390Y-87940478D01*
X176853390Y-87940478D02*
X176901009Y-87988097D01*
X176901009Y-87988097D02*
X176948628Y-88083335D01*
X176948628Y-88083335D02*
X176948628Y-88464287D01*
X176520057Y-87511906D02*
X176472438Y-87464287D01*
X176472438Y-87464287D02*
X176424819Y-87369049D01*
X176424819Y-87369049D02*
X176424819Y-87130954D01*
X176424819Y-87130954D02*
X176472438Y-87035716D01*
X176472438Y-87035716D02*
X176520057Y-86988097D01*
X176520057Y-86988097D02*
X176615295Y-86940478D01*
X176615295Y-86940478D02*
X176710533Y-86940478D01*
X176710533Y-86940478D02*
X176853390Y-86988097D01*
X176853390Y-86988097D02*
X177424819Y-87559525D01*
X177424819Y-87559525D02*
X177424819Y-86940478D01*
X176424819Y-86607144D02*
X176424819Y-85940478D01*
X176424819Y-85940478D02*
X177424819Y-86369049D01*
X161631159Y-97301984D02*
X161631159Y-97369328D01*
X161631159Y-97369328D02*
X161563815Y-97504015D01*
X161563815Y-97504015D02*
X161496472Y-97571358D01*
X161496472Y-97571358D02*
X161361785Y-97638702D01*
X161361785Y-97638702D02*
X161227098Y-97638702D01*
X161227098Y-97638702D02*
X161126083Y-97605030D01*
X161126083Y-97605030D02*
X160957724Y-97504015D01*
X160957724Y-97504015D02*
X160856709Y-97403000D01*
X160856709Y-97403000D02*
X160755693Y-97234641D01*
X160755693Y-97234641D02*
X160722022Y-97133626D01*
X160722022Y-97133626D02*
X160722022Y-96998939D01*
X160722022Y-96998939D02*
X160789365Y-96864252D01*
X160789365Y-96864252D02*
X160856709Y-96796908D01*
X160856709Y-96796908D02*
X160991396Y-96729565D01*
X160991396Y-96729565D02*
X161058739Y-96729565D01*
X161631159Y-96022458D02*
X161294441Y-96359175D01*
X161294441Y-96359175D02*
X161597487Y-96729565D01*
X161597487Y-96729565D02*
X161597487Y-96662221D01*
X161597487Y-96662221D02*
X161631159Y-96561206D01*
X161631159Y-96561206D02*
X161799518Y-96392847D01*
X161799518Y-96392847D02*
X161900533Y-96359175D01*
X161900533Y-96359175D02*
X161967876Y-96359175D01*
X161967876Y-96359175D02*
X162068892Y-96392847D01*
X162068892Y-96392847D02*
X162237250Y-96561206D01*
X162237250Y-96561206D02*
X162270922Y-96662221D01*
X162270922Y-96662221D02*
X162270922Y-96729565D01*
X162270922Y-96729565D02*
X162237250Y-96830580D01*
X162237250Y-96830580D02*
X162068892Y-96998939D01*
X162068892Y-96998939D02*
X161967876Y-97032610D01*
X161967876Y-97032610D02*
X161900533Y-97032610D01*
X174666666Y-108144818D02*
X174666666Y-108859103D01*
X174666666Y-108859103D02*
X174619047Y-109001960D01*
X174619047Y-109001960D02*
X174523809Y-109097199D01*
X174523809Y-109097199D02*
X174380952Y-109144818D01*
X174380952Y-109144818D02*
X174285714Y-109144818D01*
X175190476Y-109144818D02*
X175380952Y-109144818D01*
X175380952Y-109144818D02*
X175476190Y-109097199D01*
X175476190Y-109097199D02*
X175523809Y-109049579D01*
X175523809Y-109049579D02*
X175619047Y-108906722D01*
X175619047Y-108906722D02*
X175666666Y-108716246D01*
X175666666Y-108716246D02*
X175666666Y-108335294D01*
X175666666Y-108335294D02*
X175619047Y-108240056D01*
X175619047Y-108240056D02*
X175571428Y-108192437D01*
X175571428Y-108192437D02*
X175476190Y-108144818D01*
X175476190Y-108144818D02*
X175285714Y-108144818D01*
X175285714Y-108144818D02*
X175190476Y-108192437D01*
X175190476Y-108192437D02*
X175142857Y-108240056D01*
X175142857Y-108240056D02*
X175095238Y-108335294D01*
X175095238Y-108335294D02*
X175095238Y-108573389D01*
X175095238Y-108573389D02*
X175142857Y-108668627D01*
X175142857Y-108668627D02*
X175190476Y-108716246D01*
X175190476Y-108716246D02*
X175285714Y-108763865D01*
X175285714Y-108763865D02*
X175476190Y-108763865D01*
X175476190Y-108763865D02*
X175571428Y-108716246D01*
X175571428Y-108716246D02*
X175619047Y-108668627D01*
X175619047Y-108668627D02*
X175666666Y-108573389D01*
X173992263Y-117175056D02*
X173897025Y-117127437D01*
X173897025Y-117127437D02*
X173801787Y-117032199D01*
X173801787Y-117032199D02*
X173658930Y-116889341D01*
X173658930Y-116889341D02*
X173563692Y-116841722D01*
X173563692Y-116841722D02*
X173468454Y-116841722D01*
X173516073Y-117079818D02*
X173420835Y-117032199D01*
X173420835Y-117032199D02*
X173325597Y-116936960D01*
X173325597Y-116936960D02*
X173277978Y-116746484D01*
X173277978Y-116746484D02*
X173277978Y-116413151D01*
X173277978Y-116413151D02*
X173325597Y-116222675D01*
X173325597Y-116222675D02*
X173420835Y-116127437D01*
X173420835Y-116127437D02*
X173516073Y-116079818D01*
X173516073Y-116079818D02*
X173706549Y-116079818D01*
X173706549Y-116079818D02*
X173801787Y-116127437D01*
X173801787Y-116127437D02*
X173897025Y-116222675D01*
X173897025Y-116222675D02*
X173944644Y-116413151D01*
X173944644Y-116413151D02*
X173944644Y-116746484D01*
X173944644Y-116746484D02*
X173897025Y-116936960D01*
X173897025Y-116936960D02*
X173801787Y-117032199D01*
X173801787Y-117032199D02*
X173706549Y-117079818D01*
X173706549Y-117079818D02*
X173516073Y-117079818D01*
X174277978Y-116079818D02*
X174944644Y-116079818D01*
X174944644Y-116079818D02*
X174516073Y-117079818D01*
X134836905Y-107059819D02*
X134836905Y-106059819D01*
X134836905Y-106059819D02*
X135075000Y-106059819D01*
X135075000Y-106059819D02*
X135217857Y-106107438D01*
X135217857Y-106107438D02*
X135313095Y-106202676D01*
X135313095Y-106202676D02*
X135360714Y-106297914D01*
X135360714Y-106297914D02*
X135408333Y-106488390D01*
X135408333Y-106488390D02*
X135408333Y-106631247D01*
X135408333Y-106631247D02*
X135360714Y-106821723D01*
X135360714Y-106821723D02*
X135313095Y-106916961D01*
X135313095Y-106916961D02*
X135217857Y-107012200D01*
X135217857Y-107012200D02*
X135075000Y-107059819D01*
X135075000Y-107059819D02*
X134836905Y-107059819D01*
X136360714Y-107059819D02*
X135789286Y-107059819D01*
X136075000Y-107059819D02*
X136075000Y-106059819D01*
X136075000Y-106059819D02*
X135979762Y-106202676D01*
X135979762Y-106202676D02*
X135884524Y-106297914D01*
X135884524Y-106297914D02*
X135789286Y-106345533D01*
X149712874Y-93310364D02*
X149712874Y-93377708D01*
X149712874Y-93377708D02*
X149645530Y-93512395D01*
X149645530Y-93512395D02*
X149578187Y-93579738D01*
X149578187Y-93579738D02*
X149443500Y-93647082D01*
X149443500Y-93647082D02*
X149308813Y-93647082D01*
X149308813Y-93647082D02*
X149207798Y-93613410D01*
X149207798Y-93613410D02*
X149039439Y-93512395D01*
X149039439Y-93512395D02*
X148938424Y-93411380D01*
X148938424Y-93411380D02*
X148837408Y-93243021D01*
X148837408Y-93243021D02*
X148803737Y-93142006D01*
X148803737Y-93142006D02*
X148803737Y-93007319D01*
X148803737Y-93007319D02*
X148871080Y-92872632D01*
X148871080Y-92872632D02*
X148938424Y-92805288D01*
X148938424Y-92805288D02*
X149073111Y-92737945D01*
X149073111Y-92737945D02*
X149140454Y-92737945D01*
X149308813Y-92434899D02*
X149780217Y-91963494D01*
X149780217Y-91963494D02*
X150184278Y-92973647D01*
X151378006Y-91005960D02*
X151479021Y-90433541D01*
X150973945Y-90601899D02*
X151681052Y-89894793D01*
X151681052Y-89894793D02*
X151950426Y-90164167D01*
X151950426Y-90164167D02*
X151984098Y-90265182D01*
X151984098Y-90265182D02*
X151984098Y-90332525D01*
X151984098Y-90332525D02*
X151950426Y-90433541D01*
X151950426Y-90433541D02*
X151849411Y-90534556D01*
X151849411Y-90534556D02*
X151748395Y-90568228D01*
X151748395Y-90568228D02*
X151681052Y-90568228D01*
X151681052Y-90568228D02*
X151580037Y-90534556D01*
X151580037Y-90534556D02*
X151310663Y-90265182D01*
X152051441Y-91679395D02*
X151647380Y-91275334D01*
X151849411Y-91477365D02*
X152556517Y-90770258D01*
X152556517Y-90770258D02*
X152388159Y-90803930D01*
X152388159Y-90803930D02*
X152253472Y-90803930D01*
X152253472Y-90803930D02*
X152152456Y-90770258D01*
X166047079Y-81030358D02*
X166094699Y-81077977D01*
X166094699Y-81077977D02*
X166142318Y-81220834D01*
X166142318Y-81220834D02*
X166142318Y-81316072D01*
X166142318Y-81316072D02*
X166094699Y-81458929D01*
X166094699Y-81458929D02*
X165999460Y-81554167D01*
X165999460Y-81554167D02*
X165904222Y-81601786D01*
X165904222Y-81601786D02*
X165713746Y-81649405D01*
X165713746Y-81649405D02*
X165570889Y-81649405D01*
X165570889Y-81649405D02*
X165380413Y-81601786D01*
X165380413Y-81601786D02*
X165285175Y-81554167D01*
X165285175Y-81554167D02*
X165189937Y-81458929D01*
X165189937Y-81458929D02*
X165142318Y-81316072D01*
X165142318Y-81316072D02*
X165142318Y-81220834D01*
X165142318Y-81220834D02*
X165189937Y-81077977D01*
X165189937Y-81077977D02*
X165237556Y-81030358D01*
X166142318Y-80077977D02*
X166142318Y-80649405D01*
X166142318Y-80363691D02*
X165142318Y-80363691D01*
X165142318Y-80363691D02*
X165285175Y-80458929D01*
X165285175Y-80458929D02*
X165380413Y-80554167D01*
X165380413Y-80554167D02*
X165428032Y-80649405D01*
X166142318Y-79601786D02*
X166142318Y-79411310D01*
X166142318Y-79411310D02*
X166094699Y-79316072D01*
X166094699Y-79316072D02*
X166047079Y-79268453D01*
X166047079Y-79268453D02*
X165904222Y-79173215D01*
X165904222Y-79173215D02*
X165713746Y-79125596D01*
X165713746Y-79125596D02*
X165332794Y-79125596D01*
X165332794Y-79125596D02*
X165237556Y-79173215D01*
X165237556Y-79173215D02*
X165189937Y-79220834D01*
X165189937Y-79220834D02*
X165142318Y-79316072D01*
X165142318Y-79316072D02*
X165142318Y-79506548D01*
X165142318Y-79506548D02*
X165189937Y-79601786D01*
X165189937Y-79601786D02*
X165237556Y-79649405D01*
X165237556Y-79649405D02*
X165332794Y-79697024D01*
X165332794Y-79697024D02*
X165570889Y-79697024D01*
X165570889Y-79697024D02*
X165666127Y-79649405D01*
X165666127Y-79649405D02*
X165713746Y-79601786D01*
X165713746Y-79601786D02*
X165761365Y-79506548D01*
X165761365Y-79506548D02*
X165761365Y-79316072D01*
X165761365Y-79316072D02*
X165713746Y-79220834D01*
X165713746Y-79220834D02*
X165666127Y-79173215D01*
X165666127Y-79173215D02*
X165570889Y-79125596D01*
X135749142Y-92554819D02*
X135415809Y-92078628D01*
X135177714Y-92554819D02*
X135177714Y-91554819D01*
X135177714Y-91554819D02*
X135558666Y-91554819D01*
X135558666Y-91554819D02*
X135653904Y-91602438D01*
X135653904Y-91602438D02*
X135701523Y-91650057D01*
X135701523Y-91650057D02*
X135749142Y-91745295D01*
X135749142Y-91745295D02*
X135749142Y-91888152D01*
X135749142Y-91888152D02*
X135701523Y-91983390D01*
X135701523Y-91983390D02*
X135653904Y-92031009D01*
X135653904Y-92031009D02*
X135558666Y-92078628D01*
X135558666Y-92078628D02*
X135177714Y-92078628D01*
X136701523Y-92554819D02*
X136130095Y-92554819D01*
X136415809Y-92554819D02*
X136415809Y-91554819D01*
X136415809Y-91554819D02*
X136320571Y-91697676D01*
X136320571Y-91697676D02*
X136225333Y-91792914D01*
X136225333Y-91792914D02*
X136130095Y-91840533D01*
X137034857Y-91554819D02*
X137653904Y-91554819D01*
X137653904Y-91554819D02*
X137320571Y-91935771D01*
X137320571Y-91935771D02*
X137463428Y-91935771D01*
X137463428Y-91935771D02*
X137558666Y-91983390D01*
X137558666Y-91983390D02*
X137606285Y-92031009D01*
X137606285Y-92031009D02*
X137653904Y-92126247D01*
X137653904Y-92126247D02*
X137653904Y-92364342D01*
X137653904Y-92364342D02*
X137606285Y-92459580D01*
X137606285Y-92459580D02*
X137558666Y-92507200D01*
X137558666Y-92507200D02*
X137463428Y-92554819D01*
X137463428Y-92554819D02*
X137177714Y-92554819D01*
X137177714Y-92554819D02*
X137082476Y-92507200D01*
X137082476Y-92507200D02*
X137034857Y-92459580D01*
X181452712Y-110161502D02*
X181508450Y-110070777D01*
X181508450Y-110070777D02*
X181611627Y-109984202D01*
X181611627Y-109984202D02*
X181766391Y-109854339D01*
X181766391Y-109854339D02*
X181822129Y-109763614D01*
X181822129Y-109763614D02*
X181830430Y-109668738D01*
X181589090Y-109695424D02*
X181644829Y-109604699D01*
X181644829Y-109604699D02*
X181748005Y-109518124D01*
X181748005Y-109518124D02*
X181941907Y-109487287D01*
X181941907Y-109487287D02*
X182273972Y-109516339D01*
X182273972Y-109516339D02*
X182459573Y-109580378D01*
X182459573Y-109580378D02*
X182546148Y-109683554D01*
X182546148Y-109683554D02*
X182585285Y-109782580D01*
X182585285Y-109782580D02*
X182568684Y-109972331D01*
X182568684Y-109972331D02*
X182512946Y-110063057D01*
X182512946Y-110063057D02*
X182409769Y-110149632D01*
X182409769Y-110149632D02*
X182215868Y-110180469D01*
X182215868Y-110180469D02*
X181883803Y-110151417D01*
X181883803Y-110151417D02*
X181698202Y-110087378D01*
X181698202Y-110087378D02*
X181611627Y-109984202D01*
X181611627Y-109984202D02*
X181572489Y-109885176D01*
X181572489Y-109885176D02*
X181589090Y-109695424D01*
X182473228Y-111063402D02*
X182489829Y-110873650D01*
X182489829Y-110873650D02*
X182450692Y-110774624D01*
X182450692Y-110774624D02*
X182407404Y-110723036D01*
X182407404Y-110723036D02*
X182273391Y-110615710D01*
X182273391Y-110615710D02*
X182087790Y-110551671D01*
X182087790Y-110551671D02*
X181708287Y-110518469D01*
X181708287Y-110518469D02*
X181609261Y-110557606D01*
X181609261Y-110557606D02*
X181557673Y-110600894D01*
X181557673Y-110600894D02*
X181501935Y-110691619D01*
X181501935Y-110691619D02*
X181485334Y-110881370D01*
X181485334Y-110881370D02*
X181524471Y-110980396D01*
X181524471Y-110980396D02*
X181567758Y-111031984D01*
X181567758Y-111031984D02*
X181658484Y-111087723D01*
X181658484Y-111087723D02*
X181895673Y-111108474D01*
X181895673Y-111108474D02*
X181994699Y-111069337D01*
X181994699Y-111069337D02*
X182046287Y-111026049D01*
X182046287Y-111026049D02*
X182102026Y-110935324D01*
X182102026Y-110935324D02*
X182118627Y-110745573D01*
X182118627Y-110745573D02*
X182079489Y-110646547D01*
X182079489Y-110646547D02*
X182036202Y-110594958D01*
X182036202Y-110594958D02*
X181945476Y-110539220D01*
X144862142Y-85444819D02*
X144528809Y-84968628D01*
X144290714Y-85444819D02*
X144290714Y-84444819D01*
X144290714Y-84444819D02*
X144671666Y-84444819D01*
X144671666Y-84444819D02*
X144766904Y-84492438D01*
X144766904Y-84492438D02*
X144814523Y-84540057D01*
X144814523Y-84540057D02*
X144862142Y-84635295D01*
X144862142Y-84635295D02*
X144862142Y-84778152D01*
X144862142Y-84778152D02*
X144814523Y-84873390D01*
X144814523Y-84873390D02*
X144766904Y-84921009D01*
X144766904Y-84921009D02*
X144671666Y-84968628D01*
X144671666Y-84968628D02*
X144290714Y-84968628D01*
X145195476Y-84444819D02*
X145814523Y-84444819D01*
X145814523Y-84444819D02*
X145481190Y-84825771D01*
X145481190Y-84825771D02*
X145624047Y-84825771D01*
X145624047Y-84825771D02*
X145719285Y-84873390D01*
X145719285Y-84873390D02*
X145766904Y-84921009D01*
X145766904Y-84921009D02*
X145814523Y-85016247D01*
X145814523Y-85016247D02*
X145814523Y-85254342D01*
X145814523Y-85254342D02*
X145766904Y-85349580D01*
X145766904Y-85349580D02*
X145719285Y-85397200D01*
X145719285Y-85397200D02*
X145624047Y-85444819D01*
X145624047Y-85444819D02*
X145338333Y-85444819D01*
X145338333Y-85444819D02*
X145243095Y-85397200D01*
X145243095Y-85397200D02*
X145195476Y-85349580D01*
X146433571Y-84444819D02*
X146528809Y-84444819D01*
X146528809Y-84444819D02*
X146624047Y-84492438D01*
X146624047Y-84492438D02*
X146671666Y-84540057D01*
X146671666Y-84540057D02*
X146719285Y-84635295D01*
X146719285Y-84635295D02*
X146766904Y-84825771D01*
X146766904Y-84825771D02*
X146766904Y-85063866D01*
X146766904Y-85063866D02*
X146719285Y-85254342D01*
X146719285Y-85254342D02*
X146671666Y-85349580D01*
X146671666Y-85349580D02*
X146624047Y-85397200D01*
X146624047Y-85397200D02*
X146528809Y-85444819D01*
X146528809Y-85444819D02*
X146433571Y-85444819D01*
X146433571Y-85444819D02*
X146338333Y-85397200D01*
X146338333Y-85397200D02*
X146290714Y-85349580D01*
X146290714Y-85349580D02*
X146243095Y-85254342D01*
X146243095Y-85254342D02*
X146195476Y-85063866D01*
X146195476Y-85063866D02*
X146195476Y-84825771D01*
X146195476Y-84825771D02*
X146243095Y-84635295D01*
X146243095Y-84635295D02*
X146290714Y-84540057D01*
X146290714Y-84540057D02*
X146338333Y-84492438D01*
X146338333Y-84492438D02*
X146433571Y-84444819D01*
X145791666Y-90594818D02*
X145791666Y-91309103D01*
X145791666Y-91309103D02*
X145744047Y-91451960D01*
X145744047Y-91451960D02*
X145648809Y-91547199D01*
X145648809Y-91547199D02*
X145505952Y-91594818D01*
X145505952Y-91594818D02*
X145410714Y-91594818D01*
X146696428Y-90928151D02*
X146696428Y-91594818D01*
X146458333Y-90547199D02*
X146220238Y-91261484D01*
X146220238Y-91261484D02*
X146839285Y-91261484D01*
X133911905Y-90334819D02*
X133911905Y-89334819D01*
X133911905Y-89334819D02*
X134150000Y-89334819D01*
X134150000Y-89334819D02*
X134292857Y-89382438D01*
X134292857Y-89382438D02*
X134388095Y-89477676D01*
X134388095Y-89477676D02*
X134435714Y-89572914D01*
X134435714Y-89572914D02*
X134483333Y-89763390D01*
X134483333Y-89763390D02*
X134483333Y-89906247D01*
X134483333Y-89906247D02*
X134435714Y-90096723D01*
X134435714Y-90096723D02*
X134388095Y-90191961D01*
X134388095Y-90191961D02*
X134292857Y-90287200D01*
X134292857Y-90287200D02*
X134150000Y-90334819D01*
X134150000Y-90334819D02*
X133911905Y-90334819D01*
X134816667Y-89334819D02*
X135435714Y-89334819D01*
X135435714Y-89334819D02*
X135102381Y-89715771D01*
X135102381Y-89715771D02*
X135245238Y-89715771D01*
X135245238Y-89715771D02*
X135340476Y-89763390D01*
X135340476Y-89763390D02*
X135388095Y-89811009D01*
X135388095Y-89811009D02*
X135435714Y-89906247D01*
X135435714Y-89906247D02*
X135435714Y-90144342D01*
X135435714Y-90144342D02*
X135388095Y-90239580D01*
X135388095Y-90239580D02*
X135340476Y-90287200D01*
X135340476Y-90287200D02*
X135245238Y-90334819D01*
X135245238Y-90334819D02*
X134959524Y-90334819D01*
X134959524Y-90334819D02*
X134864286Y-90287200D01*
X134864286Y-90287200D02*
X134816667Y-90239580D01*
X145916666Y-98719818D02*
X145916666Y-99434103D01*
X145916666Y-99434103D02*
X145869047Y-99576960D01*
X145869047Y-99576960D02*
X145773809Y-99672199D01*
X145773809Y-99672199D02*
X145630952Y-99719818D01*
X145630952Y-99719818D02*
X145535714Y-99719818D01*
X146297619Y-98719818D02*
X146916666Y-98719818D01*
X146916666Y-98719818D02*
X146583333Y-99100770D01*
X146583333Y-99100770D02*
X146726190Y-99100770D01*
X146726190Y-99100770D02*
X146821428Y-99148389D01*
X146821428Y-99148389D02*
X146869047Y-99196008D01*
X146869047Y-99196008D02*
X146916666Y-99291246D01*
X146916666Y-99291246D02*
X146916666Y-99529341D01*
X146916666Y-99529341D02*
X146869047Y-99624579D01*
X146869047Y-99624579D02*
X146821428Y-99672199D01*
X146821428Y-99672199D02*
X146726190Y-99719818D01*
X146726190Y-99719818D02*
X146440476Y-99719818D01*
X146440476Y-99719818D02*
X146345238Y-99672199D01*
X146345238Y-99672199D02*
X146297619Y-99624579D01*
X140232142Y-100834580D02*
X140184523Y-100882200D01*
X140184523Y-100882200D02*
X140041666Y-100929819D01*
X140041666Y-100929819D02*
X139946428Y-100929819D01*
X139946428Y-100929819D02*
X139803571Y-100882200D01*
X139803571Y-100882200D02*
X139708333Y-100786961D01*
X139708333Y-100786961D02*
X139660714Y-100691723D01*
X139660714Y-100691723D02*
X139613095Y-100501247D01*
X139613095Y-100501247D02*
X139613095Y-100358390D01*
X139613095Y-100358390D02*
X139660714Y-100167914D01*
X139660714Y-100167914D02*
X139708333Y-100072676D01*
X139708333Y-100072676D02*
X139803571Y-99977438D01*
X139803571Y-99977438D02*
X139946428Y-99929819D01*
X139946428Y-99929819D02*
X140041666Y-99929819D01*
X140041666Y-99929819D02*
X140184523Y-99977438D01*
X140184523Y-99977438D02*
X140232142Y-100025057D01*
X141184523Y-100929819D02*
X140613095Y-100929819D01*
X140898809Y-100929819D02*
X140898809Y-99929819D01*
X140898809Y-99929819D02*
X140803571Y-100072676D01*
X140803571Y-100072676D02*
X140708333Y-100167914D01*
X140708333Y-100167914D02*
X140613095Y-100215533D01*
X141517857Y-99929819D02*
X142136904Y-99929819D01*
X142136904Y-99929819D02*
X141803571Y-100310771D01*
X141803571Y-100310771D02*
X141946428Y-100310771D01*
X141946428Y-100310771D02*
X142041666Y-100358390D01*
X142041666Y-100358390D02*
X142089285Y-100406009D01*
X142089285Y-100406009D02*
X142136904Y-100501247D01*
X142136904Y-100501247D02*
X142136904Y-100739342D01*
X142136904Y-100739342D02*
X142089285Y-100834580D01*
X142089285Y-100834580D02*
X142041666Y-100882200D01*
X142041666Y-100882200D02*
X141946428Y-100929819D01*
X141946428Y-100929819D02*
X141660714Y-100929819D01*
X141660714Y-100929819D02*
X141565476Y-100882200D01*
X141565476Y-100882200D02*
X141517857Y-100834580D01*
X133899905Y-93334819D02*
X133899905Y-92334819D01*
X133899905Y-92334819D02*
X134138000Y-92334819D01*
X134138000Y-92334819D02*
X134280857Y-92382438D01*
X134280857Y-92382438D02*
X134376095Y-92477676D01*
X134376095Y-92477676D02*
X134423714Y-92572914D01*
X134423714Y-92572914D02*
X134471333Y-92763390D01*
X134471333Y-92763390D02*
X134471333Y-92906247D01*
X134471333Y-92906247D02*
X134423714Y-93096723D01*
X134423714Y-93096723D02*
X134376095Y-93191961D01*
X134376095Y-93191961D02*
X134280857Y-93287200D01*
X134280857Y-93287200D02*
X134138000Y-93334819D01*
X134138000Y-93334819D02*
X133899905Y-93334819D01*
X135376095Y-92334819D02*
X134899905Y-92334819D01*
X134899905Y-92334819D02*
X134852286Y-92811009D01*
X134852286Y-92811009D02*
X134899905Y-92763390D01*
X134899905Y-92763390D02*
X134995143Y-92715771D01*
X134995143Y-92715771D02*
X135233238Y-92715771D01*
X135233238Y-92715771D02*
X135328476Y-92763390D01*
X135328476Y-92763390D02*
X135376095Y-92811009D01*
X135376095Y-92811009D02*
X135423714Y-92906247D01*
X135423714Y-92906247D02*
X135423714Y-93144342D01*
X135423714Y-93144342D02*
X135376095Y-93239580D01*
X135376095Y-93239580D02*
X135328476Y-93287200D01*
X135328476Y-93287200D02*
X135233238Y-93334819D01*
X135233238Y-93334819D02*
X134995143Y-93334819D01*
X134995143Y-93334819D02*
X134899905Y-93287200D01*
X134899905Y-93287200D02*
X134852286Y-93239580D01*
X158734578Y-114559164D02*
X158782198Y-114606783D01*
X158782198Y-114606783D02*
X158829817Y-114749640D01*
X158829817Y-114749640D02*
X158829817Y-114844878D01*
X158829817Y-114844878D02*
X158782198Y-114987735D01*
X158782198Y-114987735D02*
X158686959Y-115082973D01*
X158686959Y-115082973D02*
X158591721Y-115130592D01*
X158591721Y-115130592D02*
X158401245Y-115178211D01*
X158401245Y-115178211D02*
X158258388Y-115178211D01*
X158258388Y-115178211D02*
X158067912Y-115130592D01*
X158067912Y-115130592D02*
X157972674Y-115082973D01*
X157972674Y-115082973D02*
X157877436Y-114987735D01*
X157877436Y-114987735D02*
X157829817Y-114844878D01*
X157829817Y-114844878D02*
X157829817Y-114749640D01*
X157829817Y-114749640D02*
X157877436Y-114606783D01*
X157877436Y-114606783D02*
X157925055Y-114559164D01*
X158829817Y-114082973D02*
X158829817Y-113892497D01*
X158829817Y-113892497D02*
X158782198Y-113797259D01*
X158782198Y-113797259D02*
X158734578Y-113749640D01*
X158734578Y-113749640D02*
X158591721Y-113654402D01*
X158591721Y-113654402D02*
X158401245Y-113606783D01*
X158401245Y-113606783D02*
X158020293Y-113606783D01*
X158020293Y-113606783D02*
X157925055Y-113654402D01*
X157925055Y-113654402D02*
X157877436Y-113702021D01*
X157877436Y-113702021D02*
X157829817Y-113797259D01*
X157829817Y-113797259D02*
X157829817Y-113987735D01*
X157829817Y-113987735D02*
X157877436Y-114082973D01*
X157877436Y-114082973D02*
X157925055Y-114130592D01*
X157925055Y-114130592D02*
X158020293Y-114178211D01*
X158020293Y-114178211D02*
X158258388Y-114178211D01*
X158258388Y-114178211D02*
X158353626Y-114130592D01*
X158353626Y-114130592D02*
X158401245Y-114082973D01*
X158401245Y-114082973D02*
X158448864Y-113987735D01*
X158448864Y-113987735D02*
X158448864Y-113797259D01*
X158448864Y-113797259D02*
X158401245Y-113702021D01*
X158401245Y-113702021D02*
X158353626Y-113654402D01*
X158353626Y-113654402D02*
X158258388Y-113606783D01*
X162907142Y-78267319D02*
X162573809Y-77791128D01*
X162335714Y-78267319D02*
X162335714Y-77267319D01*
X162335714Y-77267319D02*
X162716666Y-77267319D01*
X162716666Y-77267319D02*
X162811904Y-77314938D01*
X162811904Y-77314938D02*
X162859523Y-77362557D01*
X162859523Y-77362557D02*
X162907142Y-77457795D01*
X162907142Y-77457795D02*
X162907142Y-77600652D01*
X162907142Y-77600652D02*
X162859523Y-77695890D01*
X162859523Y-77695890D02*
X162811904Y-77743509D01*
X162811904Y-77743509D02*
X162716666Y-77791128D01*
X162716666Y-77791128D02*
X162335714Y-77791128D01*
X163859523Y-78267319D02*
X163288095Y-78267319D01*
X163573809Y-78267319D02*
X163573809Y-77267319D01*
X163573809Y-77267319D02*
X163478571Y-77410176D01*
X163478571Y-77410176D02*
X163383333Y-77505414D01*
X163383333Y-77505414D02*
X163288095Y-77553033D01*
X164811904Y-78267319D02*
X164240476Y-78267319D01*
X164526190Y-78267319D02*
X164526190Y-77267319D01*
X164526190Y-77267319D02*
X164430952Y-77410176D01*
X164430952Y-77410176D02*
X164335714Y-77505414D01*
X164335714Y-77505414D02*
X164240476Y-77553033D01*
X178992142Y-88344819D02*
X178658809Y-87868628D01*
X178420714Y-88344819D02*
X178420714Y-87344819D01*
X178420714Y-87344819D02*
X178801666Y-87344819D01*
X178801666Y-87344819D02*
X178896904Y-87392438D01*
X178896904Y-87392438D02*
X178944523Y-87440057D01*
X178944523Y-87440057D02*
X178992142Y-87535295D01*
X178992142Y-87535295D02*
X178992142Y-87678152D01*
X178992142Y-87678152D02*
X178944523Y-87773390D01*
X178944523Y-87773390D02*
X178896904Y-87821009D01*
X178896904Y-87821009D02*
X178801666Y-87868628D01*
X178801666Y-87868628D02*
X178420714Y-87868628D01*
X179373095Y-87440057D02*
X179420714Y-87392438D01*
X179420714Y-87392438D02*
X179515952Y-87344819D01*
X179515952Y-87344819D02*
X179754047Y-87344819D01*
X179754047Y-87344819D02*
X179849285Y-87392438D01*
X179849285Y-87392438D02*
X179896904Y-87440057D01*
X179896904Y-87440057D02*
X179944523Y-87535295D01*
X179944523Y-87535295D02*
X179944523Y-87630533D01*
X179944523Y-87630533D02*
X179896904Y-87773390D01*
X179896904Y-87773390D02*
X179325476Y-88344819D01*
X179325476Y-88344819D02*
X179944523Y-88344819D01*
X180801666Y-87344819D02*
X180611190Y-87344819D01*
X180611190Y-87344819D02*
X180515952Y-87392438D01*
X180515952Y-87392438D02*
X180468333Y-87440057D01*
X180468333Y-87440057D02*
X180373095Y-87582914D01*
X180373095Y-87582914D02*
X180325476Y-87773390D01*
X180325476Y-87773390D02*
X180325476Y-88154342D01*
X180325476Y-88154342D02*
X180373095Y-88249580D01*
X180373095Y-88249580D02*
X180420714Y-88297200D01*
X180420714Y-88297200D02*
X180515952Y-88344819D01*
X180515952Y-88344819D02*
X180706428Y-88344819D01*
X180706428Y-88344819D02*
X180801666Y-88297200D01*
X180801666Y-88297200D02*
X180849285Y-88249580D01*
X180849285Y-88249580D02*
X180896904Y-88154342D01*
X180896904Y-88154342D02*
X180896904Y-87916247D01*
X180896904Y-87916247D02*
X180849285Y-87821009D01*
X180849285Y-87821009D02*
X180801666Y-87773390D01*
X180801666Y-87773390D02*
X180706428Y-87725771D01*
X180706428Y-87725771D02*
X180515952Y-87725771D01*
X180515952Y-87725771D02*
X180420714Y-87773390D01*
X180420714Y-87773390D02*
X180373095Y-87821009D01*
X180373095Y-87821009D02*
X180325476Y-87916247D01*
X191361943Y-100009197D02*
X190885752Y-100342530D01*
X191361943Y-100580625D02*
X190361943Y-100580625D01*
X190361943Y-100580625D02*
X190361943Y-100199673D01*
X190361943Y-100199673D02*
X190409562Y-100104435D01*
X190409562Y-100104435D02*
X190457181Y-100056816D01*
X190457181Y-100056816D02*
X190552419Y-100009197D01*
X190552419Y-100009197D02*
X190695276Y-100009197D01*
X190695276Y-100009197D02*
X190790514Y-100056816D01*
X190790514Y-100056816D02*
X190838133Y-100104435D01*
X190838133Y-100104435D02*
X190885752Y-100199673D01*
X190885752Y-100199673D02*
X190885752Y-100580625D01*
X190457181Y-99628244D02*
X190409562Y-99580625D01*
X190409562Y-99580625D02*
X190361943Y-99485387D01*
X190361943Y-99485387D02*
X190361943Y-99247292D01*
X190361943Y-99247292D02*
X190409562Y-99152054D01*
X190409562Y-99152054D02*
X190457181Y-99104435D01*
X190457181Y-99104435D02*
X190552419Y-99056816D01*
X190552419Y-99056816D02*
X190647657Y-99056816D01*
X190647657Y-99056816D02*
X190790514Y-99104435D01*
X190790514Y-99104435D02*
X191361943Y-99675863D01*
X191361943Y-99675863D02*
X191361943Y-99056816D01*
X190695276Y-98199673D02*
X191361943Y-98199673D01*
X190314324Y-98437768D02*
X191028609Y-98675863D01*
X191028609Y-98675863D02*
X191028609Y-98056816D01*
X190249580Y-95962856D02*
X190297200Y-96010475D01*
X190297200Y-96010475D02*
X190344819Y-96153332D01*
X190344819Y-96153332D02*
X190344819Y-96248570D01*
X190344819Y-96248570D02*
X190297200Y-96391427D01*
X190297200Y-96391427D02*
X190201961Y-96486665D01*
X190201961Y-96486665D02*
X190106723Y-96534284D01*
X190106723Y-96534284D02*
X189916247Y-96581903D01*
X189916247Y-96581903D02*
X189773390Y-96581903D01*
X189773390Y-96581903D02*
X189582914Y-96534284D01*
X189582914Y-96534284D02*
X189487676Y-96486665D01*
X189487676Y-96486665D02*
X189392438Y-96391427D01*
X189392438Y-96391427D02*
X189344819Y-96248570D01*
X189344819Y-96248570D02*
X189344819Y-96153332D01*
X189344819Y-96153332D02*
X189392438Y-96010475D01*
X189392438Y-96010475D02*
X189440057Y-95962856D01*
X190344819Y-95010475D02*
X190344819Y-95581903D01*
X190344819Y-95296189D02*
X189344819Y-95296189D01*
X189344819Y-95296189D02*
X189487676Y-95391427D01*
X189487676Y-95391427D02*
X189582914Y-95486665D01*
X189582914Y-95486665D02*
X189630533Y-95581903D01*
X189344819Y-94153332D02*
X189344819Y-94343808D01*
X189344819Y-94343808D02*
X189392438Y-94439046D01*
X189392438Y-94439046D02*
X189440057Y-94486665D01*
X189440057Y-94486665D02*
X189582914Y-94581903D01*
X189582914Y-94581903D02*
X189773390Y-94629522D01*
X189773390Y-94629522D02*
X190154342Y-94629522D01*
X190154342Y-94629522D02*
X190249580Y-94581903D01*
X190249580Y-94581903D02*
X190297200Y-94534284D01*
X190297200Y-94534284D02*
X190344819Y-94439046D01*
X190344819Y-94439046D02*
X190344819Y-94248570D01*
X190344819Y-94248570D02*
X190297200Y-94153332D01*
X190297200Y-94153332D02*
X190249580Y-94105713D01*
X190249580Y-94105713D02*
X190154342Y-94058094D01*
X190154342Y-94058094D02*
X189916247Y-94058094D01*
X189916247Y-94058094D02*
X189821009Y-94105713D01*
X189821009Y-94105713D02*
X189773390Y-94153332D01*
X189773390Y-94153332D02*
X189725771Y-94248570D01*
X189725771Y-94248570D02*
X189725771Y-94439046D01*
X189725771Y-94439046D02*
X189773390Y-94534284D01*
X189773390Y-94534284D02*
X189821009Y-94581903D01*
X189821009Y-94581903D02*
X189916247Y-94629522D01*
X147963377Y-97221846D02*
X147896033Y-97221846D01*
X147896033Y-97221846D02*
X147761346Y-97154502D01*
X147761346Y-97154502D02*
X147694003Y-97087159D01*
X147694003Y-97087159D02*
X147626659Y-96952472D01*
X147626659Y-96952472D02*
X147626659Y-96817785D01*
X147626659Y-96817785D02*
X147660331Y-96716770D01*
X147660331Y-96716770D02*
X147761346Y-96548411D01*
X147761346Y-96548411D02*
X147862361Y-96447396D01*
X147862361Y-96447396D02*
X148030720Y-96346380D01*
X148030720Y-96346380D02*
X148131735Y-96312709D01*
X148131735Y-96312709D02*
X148266422Y-96312709D01*
X148266422Y-96312709D02*
X148401109Y-96380052D01*
X148401109Y-96380052D02*
X148468453Y-96447396D01*
X148468453Y-96447396D02*
X148535796Y-96582083D01*
X148535796Y-96582083D02*
X148535796Y-96649426D01*
X148838842Y-96817785D02*
X149276575Y-97255518D01*
X149276575Y-97255518D02*
X148771499Y-97289189D01*
X148771499Y-97289189D02*
X148872514Y-97390205D01*
X148872514Y-97390205D02*
X148906186Y-97491220D01*
X148906186Y-97491220D02*
X148906186Y-97558563D01*
X148906186Y-97558563D02*
X148872514Y-97659579D01*
X148872514Y-97659579D02*
X148704155Y-97827937D01*
X148704155Y-97827937D02*
X148603140Y-97861609D01*
X148603140Y-97861609D02*
X148535796Y-97861609D01*
X148535796Y-97861609D02*
X148434781Y-97827937D01*
X148434781Y-97827937D02*
X148232751Y-97625907D01*
X148232751Y-97625907D02*
X148199079Y-97524892D01*
X148199079Y-97524892D02*
X148199079Y-97457548D01*
X168339579Y-97598858D02*
X168387199Y-97646477D01*
X168387199Y-97646477D02*
X168434818Y-97789334D01*
X168434818Y-97789334D02*
X168434818Y-97884572D01*
X168434818Y-97884572D02*
X168387199Y-98027429D01*
X168387199Y-98027429D02*
X168291960Y-98122667D01*
X168291960Y-98122667D02*
X168196722Y-98170286D01*
X168196722Y-98170286D02*
X168006246Y-98217905D01*
X168006246Y-98217905D02*
X167863389Y-98217905D01*
X167863389Y-98217905D02*
X167672913Y-98170286D01*
X167672913Y-98170286D02*
X167577675Y-98122667D01*
X167577675Y-98122667D02*
X167482437Y-98027429D01*
X167482437Y-98027429D02*
X167434818Y-97884572D01*
X167434818Y-97884572D02*
X167434818Y-97789334D01*
X167434818Y-97789334D02*
X167482437Y-97646477D01*
X167482437Y-97646477D02*
X167530056Y-97598858D01*
X168434818Y-96646477D02*
X168434818Y-97217905D01*
X168434818Y-96932191D02*
X167434818Y-96932191D01*
X167434818Y-96932191D02*
X167577675Y-97027429D01*
X167577675Y-97027429D02*
X167672913Y-97122667D01*
X167672913Y-97122667D02*
X167720532Y-97217905D01*
X167530056Y-96265524D02*
X167482437Y-96217905D01*
X167482437Y-96217905D02*
X167434818Y-96122667D01*
X167434818Y-96122667D02*
X167434818Y-95884572D01*
X167434818Y-95884572D02*
X167482437Y-95789334D01*
X167482437Y-95789334D02*
X167530056Y-95741715D01*
X167530056Y-95741715D02*
X167625294Y-95694096D01*
X167625294Y-95694096D02*
X167720532Y-95694096D01*
X167720532Y-95694096D02*
X167863389Y-95741715D01*
X167863389Y-95741715D02*
X168434818Y-96313143D01*
X168434818Y-96313143D02*
X168434818Y-95694096D01*
X139457667Y-108636200D02*
X139600524Y-108683819D01*
X139600524Y-108683819D02*
X139838619Y-108683819D01*
X139838619Y-108683819D02*
X139933857Y-108636200D01*
X139933857Y-108636200D02*
X139981476Y-108588580D01*
X139981476Y-108588580D02*
X140029095Y-108493342D01*
X140029095Y-108493342D02*
X140029095Y-108398104D01*
X140029095Y-108398104D02*
X139981476Y-108302866D01*
X139981476Y-108302866D02*
X139933857Y-108255247D01*
X139933857Y-108255247D02*
X139838619Y-108207628D01*
X139838619Y-108207628D02*
X139648143Y-108160009D01*
X139648143Y-108160009D02*
X139552905Y-108112390D01*
X139552905Y-108112390D02*
X139505286Y-108064771D01*
X139505286Y-108064771D02*
X139457667Y-107969533D01*
X139457667Y-107969533D02*
X139457667Y-107874295D01*
X139457667Y-107874295D02*
X139505286Y-107779057D01*
X139505286Y-107779057D02*
X139552905Y-107731438D01*
X139552905Y-107731438D02*
X139648143Y-107683819D01*
X139648143Y-107683819D02*
X139886238Y-107683819D01*
X139886238Y-107683819D02*
X140029095Y-107731438D01*
X140362429Y-107683819D02*
X140600524Y-108683819D01*
X140600524Y-108683819D02*
X140791000Y-107969533D01*
X140791000Y-107969533D02*
X140981476Y-108683819D01*
X140981476Y-108683819D02*
X141219572Y-107683819D01*
X141505286Y-107683819D02*
X142124333Y-107683819D01*
X142124333Y-107683819D02*
X141791000Y-108064771D01*
X141791000Y-108064771D02*
X141933857Y-108064771D01*
X141933857Y-108064771D02*
X142029095Y-108112390D01*
X142029095Y-108112390D02*
X142076714Y-108160009D01*
X142076714Y-108160009D02*
X142124333Y-108255247D01*
X142124333Y-108255247D02*
X142124333Y-108493342D01*
X142124333Y-108493342D02*
X142076714Y-108588580D01*
X142076714Y-108588580D02*
X142029095Y-108636200D01*
X142029095Y-108636200D02*
X141933857Y-108683819D01*
X141933857Y-108683819D02*
X141648143Y-108683819D01*
X141648143Y-108683819D02*
X141552905Y-108636200D01*
X141552905Y-108636200D02*
X141505286Y-108588580D01*
X177232142Y-84144580D02*
X177184523Y-84192200D01*
X177184523Y-84192200D02*
X177041666Y-84239819D01*
X177041666Y-84239819D02*
X176946428Y-84239819D01*
X176946428Y-84239819D02*
X176803571Y-84192200D01*
X176803571Y-84192200D02*
X176708333Y-84096961D01*
X176708333Y-84096961D02*
X176660714Y-84001723D01*
X176660714Y-84001723D02*
X176613095Y-83811247D01*
X176613095Y-83811247D02*
X176613095Y-83668390D01*
X176613095Y-83668390D02*
X176660714Y-83477914D01*
X176660714Y-83477914D02*
X176708333Y-83382676D01*
X176708333Y-83382676D02*
X176803571Y-83287438D01*
X176803571Y-83287438D02*
X176946428Y-83239819D01*
X176946428Y-83239819D02*
X177041666Y-83239819D01*
X177041666Y-83239819D02*
X177184523Y-83287438D01*
X177184523Y-83287438D02*
X177232142Y-83335057D01*
X177613095Y-83335057D02*
X177660714Y-83287438D01*
X177660714Y-83287438D02*
X177755952Y-83239819D01*
X177755952Y-83239819D02*
X177994047Y-83239819D01*
X177994047Y-83239819D02*
X178089285Y-83287438D01*
X178089285Y-83287438D02*
X178136904Y-83335057D01*
X178136904Y-83335057D02*
X178184523Y-83430295D01*
X178184523Y-83430295D02*
X178184523Y-83525533D01*
X178184523Y-83525533D02*
X178136904Y-83668390D01*
X178136904Y-83668390D02*
X177565476Y-84239819D01*
X177565476Y-84239819D02*
X178184523Y-84239819D01*
X179041666Y-83573152D02*
X179041666Y-84239819D01*
X178803571Y-83192200D02*
X178565476Y-83906485D01*
X178565476Y-83906485D02*
X179184523Y-83906485D01*
D11*
X164316666Y-101407419D02*
X164316666Y-102121704D01*
X164316666Y-102121704D02*
X164269047Y-102264561D01*
X164269047Y-102264561D02*
X164173809Y-102359800D01*
X164173809Y-102359800D02*
X164030952Y-102407419D01*
X164030952Y-102407419D02*
X163935714Y-102407419D01*
X165316666Y-102407419D02*
X164745238Y-102407419D01*
X165030952Y-102407419D02*
X165030952Y-101407419D01*
X165030952Y-101407419D02*
X164935714Y-101550276D01*
X164935714Y-101550276D02*
X164840476Y-101645514D01*
X164840476Y-101645514D02*
X164745238Y-101693133D01*
D10*
X144107854Y-111284580D02*
X144060235Y-111332200D01*
X144060235Y-111332200D02*
X143917378Y-111379819D01*
X143917378Y-111379819D02*
X143822140Y-111379819D01*
X143822140Y-111379819D02*
X143679283Y-111332200D01*
X143679283Y-111332200D02*
X143584045Y-111236961D01*
X143584045Y-111236961D02*
X143536426Y-111141723D01*
X143536426Y-111141723D02*
X143488807Y-110951247D01*
X143488807Y-110951247D02*
X143488807Y-110808390D01*
X143488807Y-110808390D02*
X143536426Y-110617914D01*
X143536426Y-110617914D02*
X143584045Y-110522676D01*
X143584045Y-110522676D02*
X143679283Y-110427438D01*
X143679283Y-110427438D02*
X143822140Y-110379819D01*
X143822140Y-110379819D02*
X143917378Y-110379819D01*
X143917378Y-110379819D02*
X144060235Y-110427438D01*
X144060235Y-110427438D02*
X144107854Y-110475057D01*
X144488807Y-110475057D02*
X144536426Y-110427438D01*
X144536426Y-110427438D02*
X144631664Y-110379819D01*
X144631664Y-110379819D02*
X144869759Y-110379819D01*
X144869759Y-110379819D02*
X144964997Y-110427438D01*
X144964997Y-110427438D02*
X145012616Y-110475057D01*
X145012616Y-110475057D02*
X145060235Y-110570295D01*
X145060235Y-110570295D02*
X145060235Y-110665533D01*
X145060235Y-110665533D02*
X145012616Y-110808390D01*
X145012616Y-110808390D02*
X144441188Y-111379819D01*
X144441188Y-111379819D02*
X145060235Y-111379819D01*
X145679283Y-110379819D02*
X145774521Y-110379819D01*
X145774521Y-110379819D02*
X145869759Y-110427438D01*
X145869759Y-110427438D02*
X145917378Y-110475057D01*
X145917378Y-110475057D02*
X145964997Y-110570295D01*
X145964997Y-110570295D02*
X146012616Y-110760771D01*
X146012616Y-110760771D02*
X146012616Y-110998866D01*
X146012616Y-110998866D02*
X145964997Y-111189342D01*
X145964997Y-111189342D02*
X145917378Y-111284580D01*
X145917378Y-111284580D02*
X145869759Y-111332200D01*
X145869759Y-111332200D02*
X145774521Y-111379819D01*
X145774521Y-111379819D02*
X145679283Y-111379819D01*
X145679283Y-111379819D02*
X145584045Y-111332200D01*
X145584045Y-111332200D02*
X145536426Y-111284580D01*
X145536426Y-111284580D02*
X145488807Y-111189342D01*
X145488807Y-111189342D02*
X145441188Y-110998866D01*
X145441188Y-110998866D02*
X145441188Y-110760771D01*
X145441188Y-110760771D02*
X145488807Y-110570295D01*
X145488807Y-110570295D02*
X145536426Y-110475057D01*
X145536426Y-110475057D02*
X145584045Y-110427438D01*
X145584045Y-110427438D02*
X145679283Y-110379819D01*
D11*
X161841666Y-73057419D02*
X161841666Y-73771704D01*
X161841666Y-73771704D02*
X161794047Y-73914561D01*
X161794047Y-73914561D02*
X161698809Y-74009800D01*
X161698809Y-74009800D02*
X161555952Y-74057419D01*
X161555952Y-74057419D02*
X161460714Y-74057419D01*
X162222619Y-73057419D02*
X162889285Y-73057419D01*
X162889285Y-73057419D02*
X162460714Y-74057419D01*
D10*
X164882141Y-100715581D02*
X164834522Y-100763201D01*
X164834522Y-100763201D02*
X164691665Y-100810820D01*
X164691665Y-100810820D02*
X164596427Y-100810820D01*
X164596427Y-100810820D02*
X164453570Y-100763201D01*
X164453570Y-100763201D02*
X164358332Y-100667962D01*
X164358332Y-100667962D02*
X164310713Y-100572724D01*
X164310713Y-100572724D02*
X164263094Y-100382248D01*
X164263094Y-100382248D02*
X164263094Y-100239391D01*
X164263094Y-100239391D02*
X164310713Y-100048915D01*
X164310713Y-100048915D02*
X164358332Y-99953677D01*
X164358332Y-99953677D02*
X164453570Y-99858439D01*
X164453570Y-99858439D02*
X164596427Y-99810820D01*
X164596427Y-99810820D02*
X164691665Y-99810820D01*
X164691665Y-99810820D02*
X164834522Y-99858439D01*
X164834522Y-99858439D02*
X164882141Y-99906058D01*
X165834522Y-100810820D02*
X165263094Y-100810820D01*
X165548808Y-100810820D02*
X165548808Y-99810820D01*
X165548808Y-99810820D02*
X165453570Y-99953677D01*
X165453570Y-99953677D02*
X165358332Y-100048915D01*
X165358332Y-100048915D02*
X165263094Y-100096534D01*
X166786903Y-100810820D02*
X166215475Y-100810820D01*
X166501189Y-100810820D02*
X166501189Y-99810820D01*
X166501189Y-99810820D02*
X166405951Y-99953677D01*
X166405951Y-99953677D02*
X166310713Y-100048915D01*
X166310713Y-100048915D02*
X166215475Y-100096534D01*
X144725057Y-106057738D02*
X144677438Y-106152976D01*
X144677438Y-106152976D02*
X144582200Y-106248214D01*
X144582200Y-106248214D02*
X144439342Y-106391071D01*
X144439342Y-106391071D02*
X144391723Y-106486309D01*
X144391723Y-106486309D02*
X144391723Y-106581547D01*
X144629819Y-106533928D02*
X144582200Y-106629166D01*
X144582200Y-106629166D02*
X144486961Y-106724404D01*
X144486961Y-106724404D02*
X144296485Y-106772023D01*
X144296485Y-106772023D02*
X143963152Y-106772023D01*
X143963152Y-106772023D02*
X143772676Y-106724404D01*
X143772676Y-106724404D02*
X143677438Y-106629166D01*
X143677438Y-106629166D02*
X143629819Y-106533928D01*
X143629819Y-106533928D02*
X143629819Y-106343452D01*
X143629819Y-106343452D02*
X143677438Y-106248214D01*
X143677438Y-106248214D02*
X143772676Y-106152976D01*
X143772676Y-106152976D02*
X143963152Y-106105357D01*
X143963152Y-106105357D02*
X144296485Y-106105357D01*
X144296485Y-106105357D02*
X144486961Y-106152976D01*
X144486961Y-106152976D02*
X144582200Y-106248214D01*
X144582200Y-106248214D02*
X144629819Y-106343452D01*
X144629819Y-106343452D02*
X144629819Y-106533928D01*
X143725057Y-105724404D02*
X143677438Y-105676785D01*
X143677438Y-105676785D02*
X143629819Y-105581547D01*
X143629819Y-105581547D02*
X143629819Y-105343452D01*
X143629819Y-105343452D02*
X143677438Y-105248214D01*
X143677438Y-105248214D02*
X143725057Y-105200595D01*
X143725057Y-105200595D02*
X143820295Y-105152976D01*
X143820295Y-105152976D02*
X143915533Y-105152976D01*
X143915533Y-105152976D02*
X144058390Y-105200595D01*
X144058390Y-105200595D02*
X144629819Y-105772023D01*
X144629819Y-105772023D02*
X144629819Y-105152976D01*
X163397142Y-98653580D02*
X163349523Y-98701200D01*
X163349523Y-98701200D02*
X163206666Y-98748819D01*
X163206666Y-98748819D02*
X163111428Y-98748819D01*
X163111428Y-98748819D02*
X162968571Y-98701200D01*
X162968571Y-98701200D02*
X162873333Y-98605961D01*
X162873333Y-98605961D02*
X162825714Y-98510723D01*
X162825714Y-98510723D02*
X162778095Y-98320247D01*
X162778095Y-98320247D02*
X162778095Y-98177390D01*
X162778095Y-98177390D02*
X162825714Y-97986914D01*
X162825714Y-97986914D02*
X162873333Y-97891676D01*
X162873333Y-97891676D02*
X162968571Y-97796438D01*
X162968571Y-97796438D02*
X163111428Y-97748819D01*
X163111428Y-97748819D02*
X163206666Y-97748819D01*
X163206666Y-97748819D02*
X163349523Y-97796438D01*
X163349523Y-97796438D02*
X163397142Y-97844057D01*
X164349523Y-98748819D02*
X163778095Y-98748819D01*
X164063809Y-98748819D02*
X164063809Y-97748819D01*
X164063809Y-97748819D02*
X163968571Y-97891676D01*
X163968571Y-97891676D02*
X163873333Y-97986914D01*
X163873333Y-97986914D02*
X163778095Y-98034533D01*
X164968571Y-97748819D02*
X165063809Y-97748819D01*
X165063809Y-97748819D02*
X165159047Y-97796438D01*
X165159047Y-97796438D02*
X165206666Y-97844057D01*
X165206666Y-97844057D02*
X165254285Y-97939295D01*
X165254285Y-97939295D02*
X165301904Y-98129771D01*
X165301904Y-98129771D02*
X165301904Y-98367866D01*
X165301904Y-98367866D02*
X165254285Y-98558342D01*
X165254285Y-98558342D02*
X165206666Y-98653580D01*
X165206666Y-98653580D02*
X165159047Y-98701200D01*
X165159047Y-98701200D02*
X165063809Y-98748819D01*
X165063809Y-98748819D02*
X164968571Y-98748819D01*
X164968571Y-98748819D02*
X164873333Y-98701200D01*
X164873333Y-98701200D02*
X164825714Y-98653580D01*
X164825714Y-98653580D02*
X164778095Y-98558342D01*
X164778095Y-98558342D02*
X164730476Y-98367866D01*
X164730476Y-98367866D02*
X164730476Y-98129771D01*
X164730476Y-98129771D02*
X164778095Y-97939295D01*
X164778095Y-97939295D02*
X164825714Y-97844057D01*
X164825714Y-97844057D02*
X164873333Y-97796438D01*
X164873333Y-97796438D02*
X164968571Y-97748819D01*
D11*
X164933333Y-93442580D02*
X164933333Y-92728295D01*
X164933333Y-92728295D02*
X164980952Y-92585438D01*
X164980952Y-92585438D02*
X165076190Y-92490200D01*
X165076190Y-92490200D02*
X165219047Y-92442580D01*
X165219047Y-92442580D02*
X165314285Y-92442580D01*
X164028571Y-93442580D02*
X164219047Y-93442580D01*
X164219047Y-93442580D02*
X164314285Y-93394961D01*
X164314285Y-93394961D02*
X164361904Y-93347342D01*
X164361904Y-93347342D02*
X164457142Y-93204485D01*
X164457142Y-93204485D02*
X164504761Y-93014009D01*
X164504761Y-93014009D02*
X164504761Y-92633057D01*
X164504761Y-92633057D02*
X164457142Y-92537819D01*
X164457142Y-92537819D02*
X164409523Y-92490200D01*
X164409523Y-92490200D02*
X164314285Y-92442580D01*
X164314285Y-92442580D02*
X164123809Y-92442580D01*
X164123809Y-92442580D02*
X164028571Y-92490200D01*
X164028571Y-92490200D02*
X163980952Y-92537819D01*
X163980952Y-92537819D02*
X163933333Y-92633057D01*
X163933333Y-92633057D02*
X163933333Y-92871152D01*
X163933333Y-92871152D02*
X163980952Y-92966390D01*
X163980952Y-92966390D02*
X164028571Y-93014009D01*
X164028571Y-93014009D02*
X164123809Y-93061628D01*
X164123809Y-93061628D02*
X164314285Y-93061628D01*
X164314285Y-93061628D02*
X164409523Y-93014009D01*
X164409523Y-93014009D02*
X164457142Y-92966390D01*
X164457142Y-92966390D02*
X164504761Y-92871152D01*
D10*
X179789818Y-108157856D02*
X179313627Y-108491189D01*
X179789818Y-108729284D02*
X178789818Y-108729284D01*
X178789818Y-108729284D02*
X178789818Y-108348332D01*
X178789818Y-108348332D02*
X178837437Y-108253094D01*
X178837437Y-108253094D02*
X178885056Y-108205475D01*
X178885056Y-108205475D02*
X178980294Y-108157856D01*
X178980294Y-108157856D02*
X179123151Y-108157856D01*
X179123151Y-108157856D02*
X179218389Y-108205475D01*
X179218389Y-108205475D02*
X179266008Y-108253094D01*
X179266008Y-108253094D02*
X179313627Y-108348332D01*
X179313627Y-108348332D02*
X179313627Y-108729284D01*
X178885056Y-107776903D02*
X178837437Y-107729284D01*
X178837437Y-107729284D02*
X178789818Y-107634046D01*
X178789818Y-107634046D02*
X178789818Y-107395951D01*
X178789818Y-107395951D02*
X178837437Y-107300713D01*
X178837437Y-107300713D02*
X178885056Y-107253094D01*
X178885056Y-107253094D02*
X178980294Y-107205475D01*
X178980294Y-107205475D02*
X179075532Y-107205475D01*
X179075532Y-107205475D02*
X179218389Y-107253094D01*
X179218389Y-107253094D02*
X179789818Y-107824522D01*
X179789818Y-107824522D02*
X179789818Y-107205475D01*
X179789818Y-106729284D02*
X179789818Y-106538808D01*
X179789818Y-106538808D02*
X179742199Y-106443570D01*
X179742199Y-106443570D02*
X179694579Y-106395951D01*
X179694579Y-106395951D02*
X179551722Y-106300713D01*
X179551722Y-106300713D02*
X179361246Y-106253094D01*
X179361246Y-106253094D02*
X178980294Y-106253094D01*
X178980294Y-106253094D02*
X178885056Y-106300713D01*
X178885056Y-106300713D02*
X178837437Y-106348332D01*
X178837437Y-106348332D02*
X178789818Y-106443570D01*
X178789818Y-106443570D02*
X178789818Y-106634046D01*
X178789818Y-106634046D02*
X178837437Y-106729284D01*
X178837437Y-106729284D02*
X178885056Y-106776903D01*
X178885056Y-106776903D02*
X178980294Y-106824522D01*
X178980294Y-106824522D02*
X179218389Y-106824522D01*
X179218389Y-106824522D02*
X179313627Y-106776903D01*
X179313627Y-106776903D02*
X179361246Y-106729284D01*
X179361246Y-106729284D02*
X179408865Y-106634046D01*
X179408865Y-106634046D02*
X179408865Y-106443570D01*
X179408865Y-106443570D02*
X179361246Y-106348332D01*
X179361246Y-106348332D02*
X179313627Y-106300713D01*
X179313627Y-106300713D02*
X179218389Y-106253094D01*
D12*
%TO.C,R8*%
X150728641Y-101370000D02*
X150421359Y-101370000D01*
X150728641Y-102130000D02*
X150421359Y-102130000D01*
%TO.C,C15*%
X142990580Y-100890000D02*
X142709420Y-100890000D01*
X142990580Y-101910000D02*
X142709420Y-101910000D01*
%TO.C,U1*%
X160630311Y-94944669D02*
X160294435Y-94608793D01*
X160294435Y-95280545D02*
X160630311Y-94944669D01*
X155860876Y-99714104D02*
X155525000Y-100049980D01*
X155525000Y-100049980D02*
X155189124Y-99714104D01*
X155525000Y-89839358D02*
X155860876Y-90175234D01*
X155189124Y-90175234D02*
X155525000Y-89839358D01*
X150755565Y-94608793D02*
X150419689Y-94944669D01*
%TO.C,SW1*%
X142700000Y-85250000D02*
X138800000Y-85250000D01*
X138800000Y-82350000D01*
X142700000Y-82350000D01*
X142700000Y-85250000D01*
%TO.C,R25*%
X191413483Y-98246340D02*
X191720765Y-98246340D01*
X191413483Y-97486340D02*
X191720765Y-97486340D01*
D11*
%TO.C,D7*%
X133552501Y-99250001D02*
G75*
G02*
X133452503Y-99250001I-49999J0D01*
G01*
X133452503Y-99250001D02*
G75*
G02*
X133552501Y-99250001I49999J0D01*
G01*
D12*
%TO.C,L1*%
X148735000Y-101178732D02*
X148735000Y-101521268D01*
X147715000Y-101178732D02*
X147715000Y-101521268D01*
D11*
%TO.C,D6*%
X133600000Y-95525000D02*
G75*
G02*
X133500002Y-95525000I-49999J0D01*
G01*
X133500002Y-95525000D02*
G75*
G02*
X133600000Y-95525000I49999J0D01*
G01*
D12*
%TO.C,C18*%
X153015000Y-103429664D02*
X153015000Y-103645336D01*
X152295000Y-103429664D02*
X152295000Y-103645336D01*
%TO.C,R35*%
X189420000Y-106078641D02*
X189420000Y-105771359D01*
X188660000Y-106078641D02*
X188660000Y-105771359D01*
%TO.C,U7*%
X185065000Y-104840000D02*
X184825000Y-104510000D01*
X185305000Y-104510000D01*
X185065000Y-104840000D01*
G36*
X185065000Y-104840000D02*
G01*
X184825000Y-104510000D01*
X185305000Y-104510000D01*
X185065000Y-104840000D01*
G37*
X186365000Y-107910000D02*
X187165000Y-107910000D01*
X186365000Y-107910000D02*
X185565000Y-107910000D01*
X186365000Y-104790000D02*
X187165000Y-104790000D01*
X186365000Y-104790000D02*
X185565000Y-104790000D01*
%TO.C,R4*%
X192480000Y-95181359D02*
X192480000Y-95488641D01*
X191720000Y-95181359D02*
X191720000Y-95488641D01*
D11*
%TO.C,D9*%
X133560000Y-102200000D02*
G75*
G02*
X133460002Y-102200000I-49999J0D01*
G01*
X133460002Y-102200000D02*
G75*
G02*
X133560000Y-102200000I49999J0D01*
G01*
%TO.C,D10*%
X133570000Y-103675000D02*
G75*
G02*
X133470000Y-103675000I-50000J0D01*
G01*
X133470000Y-103675000D02*
G75*
G02*
X133570000Y-103675000I50000J0D01*
G01*
D12*
%TO.C,R5*%
X191421359Y-97215000D02*
X191728641Y-97215000D01*
X191421359Y-96455000D02*
X191728641Y-96455000D01*
%TO.C,U8*%
X185050000Y-86890000D02*
X184810000Y-86560000D01*
X185290000Y-86560000D01*
X185050000Y-86890000D01*
G36*
X185050000Y-86890000D02*
G01*
X184810000Y-86560000D01*
X185290000Y-86560000D01*
X185050000Y-86890000D01*
G37*
X186350000Y-89960000D02*
X187150000Y-89960000D01*
X186350000Y-89960000D02*
X185550000Y-89960000D01*
X186350000Y-86840000D02*
X187150000Y-86840000D01*
X186350000Y-86840000D02*
X185550000Y-86840000D01*
D11*
%TO.C,D11*%
X133580000Y-105175000D02*
G75*
G02*
X133480000Y-105175000I-50000J0D01*
G01*
X133480000Y-105175000D02*
G75*
G02*
X133580000Y-105175000I50000J0D01*
G01*
D12*
%TO.C,R36*%
X189380000Y-88103641D02*
X189380000Y-87796359D01*
X188620000Y-88103641D02*
X188620000Y-87796359D01*
%TO.C,C2*%
X161227577Y-97458670D02*
X161380080Y-97306167D01*
X160718460Y-96949553D02*
X160870963Y-96797050D01*
%TO.C,U2*%
X160465000Y-117060000D02*
X160135000Y-117300000D01*
X160135000Y-116820000D01*
X160465000Y-117060000D01*
G36*
X160465000Y-117060000D02*
G01*
X160135000Y-117300000D01*
X160135000Y-116820000D01*
X160465000Y-117060000D01*
G37*
X163685000Y-117060000D02*
X163210000Y-117060000D01*
X163685000Y-116585000D02*
X163685000Y-117060000D01*
X163685000Y-114315000D02*
X163685000Y-113840000D01*
X163685000Y-113840000D02*
X163210000Y-113840000D01*
X160940000Y-117060000D02*
X160705000Y-117060000D01*
X160465000Y-116585000D02*
X160465000Y-116760000D01*
X160465000Y-114315000D02*
X160465000Y-113840000D01*
X160465000Y-113840000D02*
X160940000Y-113840000D01*
%TO.C,C21*%
X191387124Y-99258504D02*
X191387124Y-99474176D01*
X190667124Y-99258504D02*
X190667124Y-99474176D01*
D11*
%TO.C,SP1*%
X176739499Y-82625000D02*
X176739499Y-82025000D01*
X176739499Y-82625000D02*
X172739499Y-82625000D01*
X176739499Y-78625000D02*
X176739499Y-79225000D01*
X176739499Y-78625000D02*
X172739499Y-78625000D01*
X172739499Y-82625000D02*
X172739499Y-82025000D01*
X172739499Y-78625000D02*
X172739499Y-79225000D01*
D12*
%TO.C,U3*%
X166285000Y-98760000D02*
X166284999Y-98585000D01*
X166285000Y-96040000D02*
X166284999Y-96215000D01*
X165610000Y-98760000D02*
X166285000Y-98760000D01*
X165610000Y-96040000D02*
X166285000Y-96040000D01*
X163740000Y-98760000D02*
X163065000Y-98760000D01*
X163740000Y-96040000D02*
X163065000Y-96040000D01*
X163065000Y-98760000D02*
X163065001Y-98585000D01*
%TO.C,SW2*%
X151725000Y-113452200D02*
X145025000Y-113452200D01*
X145025000Y-110852200D01*
X151725000Y-110852200D01*
X151725000Y-113452200D01*
X150475000Y-113452200D02*
X150475000Y-114852200D01*
X149175000Y-114852200D02*
X150475000Y-114852200D01*
X149175000Y-113452200D02*
X149175000Y-114852200D01*
%TO.C,C22*%
X179552164Y-88135002D02*
X179767836Y-88135002D01*
X179552164Y-87415002D02*
X179767836Y-87415002D01*
%TO.C,L2*%
X148610000Y-93421268D02*
X148610000Y-93078732D01*
X147590000Y-93421268D02*
X147590000Y-93078732D01*
%TO.C,C25*%
X190187836Y-92709999D02*
X189972164Y-92709999D01*
X190187836Y-91989999D02*
X189972164Y-91989999D01*
D11*
%TO.C,D2*%
X133635000Y-89575000D02*
G75*
G02*
X133535000Y-89575000I-50000J0D01*
G01*
X133535000Y-89575000D02*
G75*
G02*
X133635000Y-89575000I50000J0D01*
G01*
D12*
%TO.C,U6*%
X163990000Y-77942500D02*
X163660000Y-77702500D01*
X163990000Y-77462500D01*
X163990000Y-77942500D01*
G36*
X163990000Y-77942500D02*
G01*
X163660000Y-77702500D01*
X163990000Y-77462500D01*
X163990000Y-77942500D01*
G37*
X163660000Y-80922500D02*
X163185000Y-80922500D01*
X163660000Y-80447500D02*
X163660000Y-80922500D01*
X163660000Y-78177500D02*
X163660000Y-78002500D01*
X163185000Y-77702500D02*
X163420000Y-77702500D01*
X160440000Y-80922500D02*
X160915000Y-80922500D01*
X160440000Y-80447500D02*
X160440000Y-80922500D01*
X160440000Y-78177500D02*
X160440000Y-77702500D01*
X160440000Y-77702500D02*
X160915000Y-77702500D01*
D11*
%TO.C,D4*%
X133598000Y-92550000D02*
G75*
G02*
X133498000Y-92550000I-50000J0D01*
G01*
X133498000Y-92550000D02*
G75*
G02*
X133598000Y-92550000I50000J0D01*
G01*
D12*
%TO.C,C23*%
X179582163Y-107314999D02*
X179797835Y-107314999D01*
X179582163Y-106594999D02*
X179797835Y-106594999D01*
%TO.C,J8*%
X151000000Y-80225000D02*
X151000000Y-81355000D01*
X150935000Y-83755000D02*
X144465000Y-83755000D01*
X150935000Y-82932530D02*
X150935000Y-83755000D01*
X150935000Y-82115000D02*
X150935000Y-82317470D01*
X150803471Y-82115000D02*
X150935000Y-82115000D01*
X150240000Y-80225000D02*
X151000000Y-80225000D01*
X149533471Y-82115000D02*
X149676529Y-82115000D01*
X149480000Y-81918471D02*
X149480000Y-82061529D01*
X149480000Y-80225000D02*
X149480000Y-80791529D01*
X149480000Y-80225000D02*
X144465000Y-80225000D01*
X144465000Y-82932530D02*
X144465000Y-83755000D01*
X144465000Y-81662530D02*
X144465000Y-82317470D01*
X144465000Y-80225000D02*
X144465000Y-81047470D01*
%TO.C,C17*%
X153035000Y-105545336D02*
X153035000Y-105329664D01*
X152315000Y-105545336D02*
X152315000Y-105329664D01*
%TO.C,U5*%
X156510001Y-104737500D02*
X156510000Y-105537500D01*
X156510001Y-104737500D02*
X156510000Y-103937500D01*
X153389999Y-104737500D02*
X153390000Y-106537500D01*
X153389999Y-104737500D02*
X153390000Y-103937500D01*
D11*
%TO.C,D8*%
X133562499Y-100750000D02*
G75*
G02*
X133462501Y-100750000I-49999J0D01*
G01*
X133462501Y-100750000D02*
G75*
G02*
X133562499Y-100750000I49999J0D01*
G01*
D12*
%TO.C,Q3*%
X177440001Y-85225000D02*
X177440000Y-85875000D01*
X177440001Y-85225000D02*
X177440000Y-84575000D01*
X174319999Y-85225000D02*
X174320000Y-86899999D01*
X174319999Y-85225000D02*
X174320000Y-84575000D01*
%TO.C,R28*%
X179818641Y-108410000D02*
X179511359Y-108410000D01*
X179818641Y-107650000D02*
X179511359Y-107650000D01*
%TO.C,J5*%
X151180000Y-106215000D02*
X151180000Y-104885000D01*
X151180000Y-106215000D02*
X150610000Y-106215000D01*
X151180000Y-104885000D02*
X150157530Y-104885000D01*
X149850000Y-107610000D02*
X148520000Y-107610000D01*
X149542470Y-104885000D02*
X148520000Y-104885000D01*
X149090000Y-106215000D02*
X148520000Y-106215000D01*
X148520000Y-107610000D02*
X148520000Y-106850000D01*
X148520000Y-106215000D02*
X148520000Y-104885000D01*
%TO.C,R27*%
X178520000Y-87403643D02*
X178520000Y-87096361D01*
X177760000Y-87403643D02*
X177760000Y-87096361D01*
%TO.C,J9*%
X175695000Y-110935000D02*
X175695000Y-111810000D01*
X175608276Y-110935000D02*
X175695000Y-110935000D01*
X175394493Y-111810000D02*
X175695000Y-111810000D01*
X174305000Y-111810000D02*
X174605507Y-111810000D01*
X174305000Y-110935000D02*
X174391724Y-110935000D01*
X174305000Y-110935000D02*
X174305000Y-111810000D01*
X174305000Y-110250000D02*
X174305000Y-109565000D01*
X174305000Y-109565000D02*
X175000000Y-109565000D01*
%TO.C,Q7*%
X175490002Y-116064999D02*
X175010002Y-116064998D01*
X175250002Y-115734999D01*
X175490002Y-116064999D01*
G36*
X175490002Y-116064999D02*
G01*
X175010002Y-116064998D01*
X175250002Y-115734999D01*
X175490002Y-116064999D01*
G37*
X174087502Y-115785000D02*
X174737502Y-115784999D01*
X174087502Y-115785000D02*
X173437502Y-115784999D01*
X174087502Y-112664998D02*
X174737502Y-112664999D01*
X174087502Y-112664998D02*
X173437502Y-112664999D01*
D11*
%TO.C,D1*%
X134535000Y-107775000D02*
G75*
G02*
X134435000Y-107775000I-50000J0D01*
G01*
X134435000Y-107775000D02*
G75*
G02*
X134535000Y-107775000I50000J0D01*
G01*
D12*
%TO.C,J4*%
X146820000Y-93385000D02*
X146820000Y-94260000D01*
X146733276Y-93385000D02*
X146820000Y-93385000D01*
X146519493Y-94260000D02*
X146820000Y-94260000D01*
X145430000Y-94260000D02*
X145730507Y-94260000D01*
X145430000Y-93385000D02*
X145516724Y-93385000D01*
X145430000Y-93385000D02*
X145430000Y-94260000D01*
X145430000Y-92700000D02*
X145430000Y-92015000D01*
X145430000Y-92015000D02*
X146125000Y-92015000D01*
D11*
%TO.C,D3*%
X133610000Y-91050000D02*
G75*
G02*
X133510000Y-91050000I-50000J0D01*
G01*
X133510000Y-91050000D02*
G75*
G02*
X133610000Y-91050000I50000J0D01*
G01*
D12*
%TO.C,J3*%
X146945000Y-101510000D02*
X146945000Y-102385000D01*
X146858276Y-101510000D02*
X146945000Y-101510000D01*
X146644493Y-102385000D02*
X146945000Y-102385000D01*
X145555000Y-102385000D02*
X145855507Y-102385000D01*
X145555000Y-101510000D02*
X145641724Y-101510000D01*
X145555000Y-101510000D02*
X145555000Y-102385000D01*
X145555000Y-100825000D02*
X145555000Y-100140000D01*
X145555000Y-100140000D02*
X146250000Y-100140000D01*
D11*
%TO.C,D5*%
X133598000Y-94050000D02*
G75*
G02*
X133498000Y-94050000I-50000J0D01*
G01*
X133498000Y-94050000D02*
G75*
G02*
X133598000Y-94050000I50000J0D01*
G01*
D12*
%TO.C,R26*%
X179788641Y-87100000D02*
X179481359Y-87100000D01*
X179788641Y-86340000D02*
X179481359Y-86340000D01*
%TO.C,R24*%
X192457124Y-99519981D02*
X192457124Y-99212699D01*
X191697124Y-99519981D02*
X191697124Y-99212699D01*
%TO.C,C16*%
X191410000Y-95427835D02*
X191410000Y-95212163D01*
X190690000Y-95427835D02*
X190690000Y-95212163D01*
%TO.C,C3*%
X149486544Y-96086884D02*
X149334041Y-95934381D01*
X148977427Y-96596001D02*
X148824924Y-96443498D01*
%TO.C,SW3*%
X142750000Y-112300000D02*
X138850000Y-112300000D01*
X138850000Y-109400000D01*
X142750000Y-109400000D01*
X142750000Y-112300000D01*
%TO.C,C24*%
X177982836Y-82985000D02*
X177767164Y-82985000D01*
X177982836Y-82265000D02*
X177767164Y-82265000D01*
%TO.C,Q2*%
X148135001Y-105962500D02*
X148135000Y-106612500D01*
X148135001Y-105962500D02*
X148135000Y-105312500D01*
X145014999Y-105962500D02*
X145015000Y-107637499D01*
X145014999Y-105962500D02*
X145015000Y-105312500D01*
%TO.C,R29*%
X178544999Y-107361358D02*
X178544999Y-107668640D01*
X177784999Y-107361358D02*
X177784999Y-107668640D01*
%TD*%
D13*
%TO.C,U4*%
X142400000Y-96375000D03*
X142400000Y-97375000D03*
X142400000Y-98375000D03*
%TD*%
%LPC*%
D14*
%TO.C,R8*%
X150065000Y-101750000D03*
X151085000Y-101750000D03*
%TD*%
D15*
%TO.C,C15*%
X142075000Y-101400000D03*
X143625000Y-101400000D03*
%TD*%
D16*
%TO.C,C4*%
X149676871Y-95529087D03*
X150129419Y-95981635D03*
%TD*%
D17*
%TO.C,U1*%
X155525000Y-94944669D03*
D18*
X151149777Y-94458533D03*
X151503330Y-94104980D03*
X151856884Y-93751426D03*
X152210437Y-93397873D03*
X152563990Y-93044320D03*
X152917544Y-92690766D03*
X153271097Y-92337213D03*
X153624651Y-91983659D03*
X153978204Y-91630106D03*
X154331757Y-91276553D03*
X154685311Y-90922999D03*
X155038864Y-90569446D03*
D19*
X156011136Y-90569446D03*
X156364689Y-90922999D03*
X156718243Y-91276553D03*
X157071796Y-91630106D03*
X157425349Y-91983659D03*
X157778903Y-92337213D03*
X158132456Y-92690766D03*
X158486010Y-93044320D03*
X158839563Y-93397873D03*
X159193116Y-93751426D03*
X159546670Y-94104980D03*
X159900223Y-94458533D03*
D18*
X159900223Y-95430805D03*
X159546670Y-95784358D03*
X159193116Y-96137912D03*
X158839563Y-96491465D03*
X158486010Y-96845018D03*
X158132456Y-97198572D03*
X157778903Y-97552125D03*
X157425349Y-97905679D03*
X157071796Y-98259232D03*
X156718243Y-98612785D03*
X156364689Y-98966339D03*
X156011136Y-99319892D03*
D19*
X155038864Y-99319892D03*
X154685311Y-98966339D03*
X154331757Y-98612785D03*
X153978204Y-98259232D03*
X153624651Y-97905679D03*
X153271097Y-97552125D03*
X152917544Y-97198572D03*
X152563990Y-96845018D03*
X152210437Y-96491465D03*
X151856884Y-96137912D03*
X151503330Y-95784358D03*
X151149777Y-95430805D03*
%TD*%
D20*
%TO.C,SW1*%
X142975001Y-83800000D03*
X138524999Y-83800000D03*
%TD*%
D21*
%TO.C,R23*%
X175550000Y-87650000D03*
X174910000Y-87650000D03*
%TD*%
D22*
%TO.C,D12*%
X179746376Y-82255334D03*
X179525000Y-79725000D03*
%TD*%
%TO.C,D14*%
X192234315Y-92349509D03*
X190288563Y-90716829D03*
%TD*%
D23*
%TO.C,R25*%
X192077124Y-97866340D03*
X191057124Y-97866340D03*
%TD*%
D24*
%TO.C,D7*%
X135077501Y-99250001D03*
X134107501Y-99250001D03*
%TD*%
D21*
%TO.C,R7*%
X151090000Y-102634997D03*
X150450000Y-102634997D03*
%TD*%
D25*
%TO.C,L1*%
X148225000Y-102224999D03*
X148225000Y-100475001D03*
%TD*%
D26*
%TO.C,R19*%
X136200000Y-102200001D03*
X136840000Y-102200001D03*
%TD*%
D24*
%TO.C,D6*%
X135125000Y-95525000D03*
X134155000Y-95525000D03*
%TD*%
D27*
%TO.C,C18*%
X152655000Y-104017500D03*
X152655000Y-103057500D03*
%TD*%
D28*
%TO.C,R35*%
X189040000Y-105415001D03*
X189040000Y-106434999D03*
%TD*%
D29*
%TO.C,U7*%
X187502500Y-105400000D03*
X187502500Y-106350000D03*
X187502500Y-107300000D03*
X185227500Y-107300000D03*
X185227500Y-106350000D03*
X185227500Y-105400000D03*
%TD*%
D21*
%TO.C,R10*%
X162305000Y-81937501D03*
X161665000Y-81937501D03*
%TD*%
D26*
%TO.C,R17*%
X136207501Y-99250002D03*
X136847501Y-99250002D03*
%TD*%
D21*
%TO.C,R31*%
X148215000Y-83920000D03*
X147575000Y-83920000D03*
%TD*%
D30*
%TO.C,R4*%
X192100000Y-95844999D03*
X192100000Y-94825001D03*
%TD*%
D21*
%TO.C,R22*%
X145070000Y-109020709D03*
X144430000Y-109020709D03*
%TD*%
D22*
%TO.C,D15*%
X190379248Y-102932680D03*
X192325000Y-101300000D03*
%TD*%
D24*
%TO.C,D9*%
X135085000Y-102200000D03*
X134115000Y-102200000D03*
%TD*%
D26*
%TO.C,R18*%
X136202498Y-100750000D03*
X136842498Y-100750000D03*
%TD*%
D22*
%TO.C,Q1*%
X194622879Y-94266339D03*
X193649999Y-93449999D03*
%TD*%
D24*
%TO.C,D10*%
X135095000Y-103675000D03*
X134125000Y-103675000D03*
%TD*%
D23*
%TO.C,R5*%
X192085000Y-96835000D03*
X191065000Y-96835000D03*
%TD*%
D26*
%TO.C,C14*%
X142970001Y-100475000D03*
X143610001Y-100475000D03*
%TD*%
D31*
%TO.C,C6*%
X157098311Y-90052197D03*
X156645763Y-89599649D03*
%TD*%
D29*
%TO.C,U8*%
X187487500Y-87450000D03*
X187487500Y-88400000D03*
X187487500Y-89350000D03*
X185212500Y-89350000D03*
X185212500Y-88400000D03*
X185212500Y-87450000D03*
%TD*%
D24*
%TO.C,D11*%
X135105000Y-105175000D03*
X134135000Y-105175000D03*
%TD*%
D26*
%TO.C,R9*%
X137125000Y-107775000D03*
X137765000Y-107775000D03*
%TD*%
%TO.C,R15*%
X136096000Y-94050000D03*
X136736000Y-94050000D03*
%TD*%
%TO.C,R16*%
X136131000Y-95516001D03*
X136771000Y-95516001D03*
%TD*%
D22*
%TO.C,D13*%
X180089312Y-115090167D03*
X180310688Y-112559833D03*
%TD*%
D28*
%TO.C,R36*%
X189000000Y-87440001D03*
X189000000Y-88459999D03*
%TD*%
D13*
%TO.C,U4*%
X142400000Y-96375000D03*
D32*
X142400000Y-97375000D03*
D13*
X142400000Y-97375000D03*
X142400000Y-98375000D03*
D33*
X141200000Y-98625000D03*
X141199999Y-98125000D03*
X141200000Y-97625000D03*
X141200000Y-97125001D03*
X141200000Y-96625000D03*
X141200000Y-96125000D03*
X143600000Y-96125000D03*
X143600000Y-96625000D03*
X143600000Y-97125000D03*
X143600000Y-97625000D03*
X143600000Y-98125000D03*
X143600000Y-98625000D03*
%TD*%
D26*
%TO.C,R12*%
X136120000Y-89575000D03*
X136760000Y-89575000D03*
%TD*%
D34*
%TO.C,R33*%
X176512502Y-115179998D03*
X176512502Y-115819998D03*
%TD*%
D35*
%TO.C,C2*%
X161388681Y-96788449D03*
X160709859Y-97467271D03*
%TD*%
D36*
%TO.C,U2*%
X162075000Y-115450000D03*
D37*
X160612500Y-116200000D03*
X160612500Y-115700000D03*
X160612500Y-115200000D03*
X160612500Y-114700000D03*
D38*
X161325000Y-113987500D03*
X161825000Y-113987500D03*
X162325000Y-113987500D03*
X162825000Y-113987500D03*
D37*
X163537500Y-114700000D03*
X163537500Y-115200000D03*
X163537500Y-115700000D03*
X163537500Y-116200000D03*
D38*
X162825000Y-116912500D03*
X162325000Y-116912500D03*
X161825000Y-116912500D03*
X161325000Y-116912500D03*
%TD*%
D34*
%TO.C,R34*%
X176512502Y-113259998D03*
X176512502Y-113899998D03*
%TD*%
D26*
%TO.C,R14*%
X136096000Y-92550000D03*
X136736000Y-92550000D03*
%TD*%
D27*
%TO.C,C21*%
X191027124Y-99846340D03*
X191027124Y-98886340D03*
%TD*%
D39*
%TO.C,SP1*%
X172914499Y-80625000D03*
X176564499Y-80625000D03*
%TD*%
D16*
%TO.C,C8*%
X152348726Y-98943393D03*
X152801274Y-99395941D03*
%TD*%
D40*
%TO.C,U3*%
X164175001Y-96487500D03*
X164675000Y-96487500D03*
X165174999Y-96487500D03*
D41*
X165837501Y-96650000D03*
X165837500Y-97150000D03*
X165837500Y-97650000D03*
X165837501Y-98150000D03*
D40*
X165174999Y-98312500D03*
X164675000Y-98312500D03*
X164175001Y-98312500D03*
D41*
X163512499Y-98150000D03*
X163512500Y-97650000D03*
X163512500Y-97150000D03*
X163512499Y-96650000D03*
%TD*%
D34*
%TO.C,R3*%
X159525000Y-116180000D03*
X159525000Y-116820000D03*
%TD*%
D26*
%TO.C,R20*%
X136200000Y-103675000D03*
X136840000Y-103675000D03*
%TD*%
D42*
%TO.C,SW2*%
X150625000Y-110402200D03*
X149125000Y-110425000D03*
X146125000Y-110374200D03*
D43*
X152025000Y-113202200D03*
X152025000Y-111102200D03*
X144725000Y-113202200D03*
X144725000Y-111102200D03*
%TD*%
D26*
%TO.C,R32*%
X149450000Y-83910000D03*
X150090000Y-83910000D03*
%TD*%
D44*
%TO.C,C22*%
X180140000Y-87775002D03*
X179180000Y-87775002D03*
%TD*%
D26*
%TO.C,R6*%
X149152499Y-108597501D03*
X149792499Y-108597501D03*
%TD*%
D45*
%TO.C,L2*%
X148100000Y-92375001D03*
X148100000Y-94124999D03*
%TD*%
D46*
%TO.C,C25*%
X189600000Y-92349999D03*
X190560000Y-92349999D03*
%TD*%
D24*
%TO.C,D2*%
X135160000Y-89575000D03*
X134190000Y-89575000D03*
%TD*%
D47*
%TO.C,J2*%
X159175000Y-120325000D03*
D48*
X163175000Y-119625000D03*
X161175000Y-119625000D03*
D47*
X165175000Y-120325000D03*
%TD*%
D36*
%TO.C,U6*%
X162050000Y-79312500D03*
D49*
X163512500Y-78562500D03*
X163512500Y-79062500D03*
X163512500Y-79562500D03*
X163512500Y-80062500D03*
D50*
X162800000Y-80775000D03*
X162300000Y-80775000D03*
X161800000Y-80775000D03*
X161300000Y-80775000D03*
D49*
X160587500Y-80062500D03*
X160587500Y-79562500D03*
X160587500Y-79062500D03*
X160587500Y-78562500D03*
D50*
X161300000Y-77850000D03*
X161800000Y-77850000D03*
X162300000Y-77850000D03*
X162800000Y-77850000D03*
%TD*%
D24*
%TO.C,D4*%
X135123000Y-92550000D03*
X134153000Y-92550000D03*
%TD*%
D44*
%TO.C,C23*%
X180169999Y-106954999D03*
X179209999Y-106954999D03*
%TD*%
D51*
%TO.C,J8*%
X145160000Y-82625000D03*
X145160001Y-81355000D03*
X146430000Y-82625000D03*
X146430000Y-81355000D03*
X147700000Y-82625000D03*
X147700000Y-81355000D03*
X148970000Y-82625000D03*
X148969999Y-81355000D03*
X150240000Y-82625001D03*
D52*
X150240000Y-81355000D03*
%TD*%
D22*
%TO.C,Q4*%
X193627124Y-100141340D03*
X194600000Y-99325000D03*
%TD*%
D26*
%TO.C,R21*%
X136210000Y-105175000D03*
X136850000Y-105175000D03*
%TD*%
D53*
%TO.C,C17*%
X152675000Y-104957500D03*
X152675000Y-105917500D03*
%TD*%
D54*
%TO.C,U5*%
X154000001Y-103600000D03*
X155899999Y-103600000D03*
X155899999Y-105875000D03*
X154950000Y-105875000D03*
X154000001Y-105875000D03*
%TD*%
D24*
%TO.C,D8*%
X135087499Y-100750000D03*
X134117499Y-100750000D03*
%TD*%
D26*
%TO.C,C1*%
X142340002Y-85800000D03*
X142980002Y-85800000D03*
%TD*%
%TO.C,R2*%
X161820000Y-112867502D03*
X162460000Y-112867502D03*
%TD*%
D55*
%TO.C,Q3*%
X175880000Y-84287499D03*
X176830000Y-86162500D03*
X174930000Y-86162500D03*
%TD*%
D14*
%TO.C,R28*%
X179155001Y-108030000D03*
X180174999Y-108030000D03*
%TD*%
D22*
%TO.C,Q5*%
X180146376Y-85330335D03*
X180035688Y-84065167D03*
%TD*%
D51*
%TO.C,J5*%
X149850000Y-105579999D03*
D52*
X149850000Y-106850000D03*
%TD*%
D28*
%TO.C,R27*%
X178140000Y-86740003D03*
X178140000Y-87760001D03*
%TD*%
D56*
%TO.C,C5*%
X160526012Y-96413684D03*
X160978560Y-95961136D03*
%TD*%
D57*
%TO.C,J9*%
X175000000Y-111250000D03*
D58*
X175000000Y-110250000D03*
%TD*%
D59*
%TO.C,Q7*%
X173150001Y-114224999D03*
X175025002Y-113274999D03*
X175025002Y-115174999D03*
%TD*%
D24*
%TO.C,D1*%
X136060000Y-107775000D03*
X135090000Y-107775000D03*
%TD*%
D60*
%TO.C,C7*%
X150545199Y-93454440D03*
X150092651Y-93906988D03*
%TD*%
D31*
%TO.C,R1*%
X151301275Y-91770942D03*
X150848727Y-91318394D03*
%TD*%
D61*
%TO.C,C19*%
X164637499Y-80707501D03*
X164637499Y-80067501D03*
%TD*%
D26*
%TO.C,R13*%
X136072000Y-91050000D03*
X136712000Y-91050000D03*
%TD*%
D22*
%TO.C,Q6*%
X180489311Y-110790168D03*
X180600001Y-109525000D03*
%TD*%
D26*
%TO.C,R30*%
X145185000Y-83940000D03*
X145825000Y-83940000D03*
%TD*%
D57*
%TO.C,J4*%
X146125000Y-93700000D03*
D58*
X146125000Y-92700000D03*
%TD*%
D24*
%TO.C,D3*%
X135135000Y-91050000D03*
X134165000Y-91050000D03*
%TD*%
D57*
%TO.C,J3*%
X146250000Y-101825000D03*
D58*
X146250000Y-100825000D03*
%TD*%
D26*
%TO.C,C13*%
X140555000Y-99425000D03*
X141195000Y-99425000D03*
%TD*%
D24*
%TO.C,D5*%
X135123000Y-94050000D03*
X134153000Y-94050000D03*
%TD*%
D34*
%TO.C,C9*%
X159424998Y-114072498D03*
X159424998Y-114712498D03*
%TD*%
D26*
%TO.C,R11*%
X163230000Y-76762500D03*
X163870000Y-76762500D03*
%TD*%
D14*
%TO.C,R26*%
X179125001Y-86720000D03*
X180144999Y-86720000D03*
%TD*%
D28*
%TO.C,R24*%
X192077124Y-98856341D03*
X192077124Y-99876339D03*
%TD*%
D53*
%TO.C,C16*%
X191050000Y-94839999D03*
X191050000Y-95799999D03*
%TD*%
D62*
%TO.C,C3*%
X148816323Y-95925780D03*
X149495145Y-96604602D03*
%TD*%
D61*
%TO.C,C12*%
X166929999Y-97276001D03*
X166929999Y-96636001D03*
%TD*%
D20*
%TO.C,SW3*%
X143025001Y-110850000D03*
X138574999Y-110850000D03*
%TD*%
D46*
%TO.C,C24*%
X177395000Y-82625000D03*
X178355000Y-82625000D03*
%TD*%
D63*
%TO.C,J1*%
X165674600Y-105400001D03*
X163674600Y-105400000D03*
D64*
X161674600Y-104400000D03*
D63*
X163674600Y-103400001D03*
X165674600Y-103400000D03*
D64*
X167674600Y-104400000D03*
%TD*%
D26*
%TO.C,C20*%
X144430712Y-109875000D03*
X145070712Y-109875000D03*
%TD*%
D47*
%TO.C,J7*%
X165175000Y-74525000D03*
D48*
X161175000Y-75225000D03*
X163175000Y-75225000D03*
D47*
X159175000Y-74525000D03*
%TD*%
D26*
%TO.C,C11*%
X165204999Y-99306001D03*
X165844999Y-99306001D03*
%TD*%
D55*
%TO.C,Q2*%
X146575000Y-105024999D03*
X147525000Y-106900000D03*
X145625000Y-106900000D03*
%TD*%
D21*
%TO.C,C10*%
X164365000Y-99300000D03*
X163725000Y-99300000D03*
%TD*%
D63*
%TO.C,J6*%
X163575400Y-89449999D03*
X165575400Y-89450000D03*
D64*
X167575400Y-90450000D03*
D63*
X165575400Y-91449999D03*
X163575400Y-91450000D03*
D64*
X161575400Y-90450000D03*
%TD*%
D30*
%TO.C,R29*%
X178164999Y-108024998D03*
X178164999Y-107005000D03*
%TD*%
%LPD*%
M02*
