%TF.GenerationSoftware,KiCad,Pcbnew,8.0.4-8.0.4-0~ubuntu22.04.1*%
%TF.CreationDate,2025-02-28T00:25:37+09:00*%
%TF.ProjectId,main,6d61696e-2e6b-4696-9361-645f70636258,rev?*%
%TF.SameCoordinates,Original*%
%TF.FileFunction,Soldermask,Top*%
%TF.FilePolarity,Negative*%
%FSLAX46Y46*%
G04 Gerber Fmt 4.6, Leading zero omitted, Abs format (unit mm)*
G04 Created by KiCad (PCBNEW 8.0.4-8.0.4-0~ubuntu22.04.1) date 2025-02-28 00:25:37*
%MOMM*%
%LPD*%
G01*
G04 APERTURE LIST*
G04 Aperture macros list*
%AMRoundRect*
0 Rectangle with rounded corners*
0 $1 Rounding radius*
0 $2 $3 $4 $5 $6 $7 $8 $9 X,Y pos of 4 corners*
0 Add a 4 corners polygon primitive as box body*
4,1,4,$2,$3,$4,$5,$6,$7,$8,$9,$2,$3,0*
0 Add four circle primitives for the rounded corners*
1,1,$1+$1,$2,$3*
1,1,$1+$1,$4,$5*
1,1,$1+$1,$6,$7*
1,1,$1+$1,$8,$9*
0 Add four rect primitives between the rounded corners*
20,1,$1+$1,$2,$3,$4,$5,0*
20,1,$1+$1,$4,$5,$6,$7,0*
20,1,$1+$1,$6,$7,$8,$9,0*
20,1,$1+$1,$8,$9,$2,$3,0*%
%AMRotRect*
0 Rectangle, with rotation*
0 The origin of the aperture is its center*
0 $1 length*
0 $2 width*
0 $3 Rotation angle, in degrees counterclockwise*
0 Add horizontal line*
21,1,$1,$2,0,0,$3*%
G04 Aperture macros list end*
%ADD10RoundRect,0.135000X0.135000X0.185000X-0.135000X0.185000X-0.135000X-0.185000X0.135000X-0.185000X0*%
%ADD11RoundRect,0.225000X0.225000X0.250000X-0.225000X0.250000X-0.225000X-0.250000X0.225000X-0.250000X0*%
%ADD12RoundRect,0.100000X0.162635X-0.021213X-0.021213X0.162635X-0.162635X0.021213X0.021213X-0.162635X0*%
%ADD13RotRect,5.600000X5.600000X45.000000*%
%ADD14RoundRect,0.062500X0.220971X-0.309359X0.309359X-0.220971X-0.220971X0.309359X-0.309359X0.220971X0*%
%ADD15RoundRect,0.062500X-0.220971X-0.309359X0.309359X0.220971X0.220971X0.309359X-0.309359X-0.220971X0*%
%ADD16RoundRect,0.262500X-0.262500X-0.537500X0.262500X-0.537500X0.262500X0.537500X-0.262500X0.537500X0*%
%ADD17RoundRect,0.100000X-0.130000X-0.100000X0.130000X-0.100000X0.130000X0.100000X-0.130000X0.100000X0*%
%ADD18C,1.100000*%
%ADD19RoundRect,0.135000X-0.135000X-0.185000X0.135000X-0.185000X0.135000X0.185000X-0.135000X0.185000X0*%
%ADD20RoundRect,0.147500X-0.147500X-0.172500X0.147500X-0.172500X0.147500X0.172500X-0.147500X0.172500X0*%
%ADD21RoundRect,0.237500X-0.237500X0.287500X-0.237500X-0.287500X0.237500X-0.287500X0.237500X0.287500X0*%
%ADD22RoundRect,0.100000X0.130000X0.100000X-0.130000X0.100000X-0.130000X-0.100000X0.130000X-0.100000X0*%
%ADD23RoundRect,0.140000X-0.170000X0.140000X-0.170000X-0.140000X0.170000X-0.140000X0.170000X0.140000X0*%
%ADD24RoundRect,0.135000X0.185000X-0.135000X0.185000X0.135000X-0.185000X0.135000X-0.185000X-0.135000X0*%
%ADD25RoundRect,0.150000X-0.512500X-0.150000X0.512500X-0.150000X0.512500X0.150000X-0.512500X0.150000X0*%
%ADD26RoundRect,0.135000X-0.185000X0.135000X-0.185000X-0.135000X0.185000X-0.135000X0.185000X0.135000X0*%
%ADD27RoundRect,0.100000X-0.162635X0.021213X0.021213X-0.162635X0.162635X-0.021213X-0.021213X0.162635X0*%
%ADD28C,0.600000*%
%ADD29R,0.900000X5.000000*%
%ADD30R,1.000000X0.280000*%
%ADD31RoundRect,0.100000X0.100000X-0.130000X0.100000X0.130000X-0.100000X0.130000X-0.100000X-0.130000X0*%
%ADD32RoundRect,0.140000X0.021213X-0.219203X0.219203X-0.021213X-0.021213X0.219203X-0.219203X0.021213X0*%
%ADD33R,1.750000X1.750000*%
%ADD34RoundRect,0.062500X0.325000X-0.062500X0.325000X0.062500X-0.325000X0.062500X-0.325000X-0.062500X0*%
%ADD35RoundRect,0.062500X0.062500X-0.325000X0.062500X0.325000X-0.062500X0.325000X-0.062500X-0.325000X0*%
%ADD36R,1.450000X2.400000*%
%ADD37RoundRect,0.087500X-0.087500X-0.225000X0.087500X-0.225000X0.087500X0.225000X-0.087500X0.225000X0*%
%ADD38RoundRect,0.087500X-0.225000X-0.087500X0.225000X-0.087500X0.225000X0.087500X-0.225000X0.087500X0*%
%ADD39RoundRect,0.175000X-0.175000X-0.575000X0.175000X-0.575000X0.175000X0.575000X-0.175000X0.575000X0*%
%ADD40RoundRect,0.200000X-0.300000X-0.200000X0.300000X-0.200000X0.300000X0.200000X-0.300000X0.200000X0*%
%ADD41RoundRect,0.140000X-0.140000X-0.170000X0.140000X-0.170000X0.140000X0.170000X-0.140000X0.170000X0*%
%ADD42RoundRect,0.237500X0.237500X-0.287500X0.237500X0.287500X-0.237500X0.287500X-0.237500X-0.287500X0*%
%ADD43RoundRect,0.140000X0.140000X0.170000X-0.140000X0.170000X-0.140000X-0.170000X0.140000X-0.170000X0*%
%ADD44R,0.900000X2.100000*%
%ADD45R,0.700000X1.500000*%
%ADD46RoundRect,0.062500X-0.325000X0.062500X-0.325000X-0.062500X0.325000X-0.062500X0.325000X0.062500X0*%
%ADD47RoundRect,0.062500X-0.062500X0.325000X-0.062500X-0.325000X0.062500X-0.325000X0.062500X0.325000X0*%
%ADD48O,1.000000X1.000000*%
%ADD49R,1.000000X1.000000*%
%ADD50RoundRect,0.140000X0.170000X-0.140000X0.170000X0.140000X-0.170000X0.140000X-0.170000X-0.140000X0*%
%ADD51RoundRect,0.150000X0.150000X-0.512500X0.150000X0.512500X-0.150000X0.512500X-0.150000X-0.512500X0*%
%ADD52RoundRect,0.150000X0.150000X-0.587500X0.150000X0.587500X-0.150000X0.587500X-0.150000X-0.587500X0*%
%ADD53RoundRect,0.100000X0.021213X0.162635X-0.162635X-0.021213X-0.021213X-0.162635X0.162635X0.021213X0*%
%ADD54O,0.850000X0.850000*%
%ADD55R,0.850000X0.850000*%
%ADD56RoundRect,0.150000X0.587500X0.150000X-0.587500X0.150000X-0.587500X-0.150000X0.587500X-0.150000X0*%
%ADD57RoundRect,0.100000X-0.021213X-0.162635X0.162635X0.021213X0.021213X0.162635X-0.162635X-0.021213X0*%
%ADD58RoundRect,0.100000X-0.100000X0.130000X-0.100000X-0.130000X0.100000X-0.130000X0.100000X0.130000X0*%
%ADD59RoundRect,0.140000X0.219203X0.021213X0.021213X0.219203X-0.219203X-0.021213X-0.021213X-0.219203X0*%
%ADD60R,0.600000X1.500000*%
%ADD61O,2.500000X1.800000*%
G04 APERTURE END LIST*
D10*
%TO.C,R8*%
X150065000Y-101750000D03*
X151085000Y-101750000D03*
%TD*%
D11*
%TO.C,C15*%
X142075000Y-101400000D03*
X143625000Y-101400000D03*
%TD*%
D12*
%TO.C,C4*%
X149676871Y-95529087D03*
X150129419Y-95981635D03*
%TD*%
D13*
%TO.C,U1*%
X155525000Y-94944669D03*
D14*
X151149777Y-94458533D03*
X151503330Y-94104980D03*
X151856884Y-93751426D03*
X152210437Y-93397873D03*
X152563990Y-93044320D03*
X152917544Y-92690766D03*
X153271097Y-92337213D03*
X153624651Y-91983659D03*
X153978204Y-91630106D03*
X154331757Y-91276553D03*
X154685311Y-90922999D03*
X155038864Y-90569446D03*
D15*
X156011136Y-90569446D03*
X156364689Y-90922999D03*
X156718243Y-91276553D03*
X157071796Y-91630106D03*
X157425349Y-91983659D03*
X157778903Y-92337213D03*
X158132456Y-92690766D03*
X158486010Y-93044320D03*
X158839563Y-93397873D03*
X159193116Y-93751426D03*
X159546670Y-94104980D03*
X159900223Y-94458533D03*
D14*
X159900223Y-95430805D03*
X159546670Y-95784358D03*
X159193116Y-96137912D03*
X158839563Y-96491465D03*
X158486010Y-96845018D03*
X158132456Y-97198572D03*
X157778903Y-97552125D03*
X157425349Y-97905679D03*
X157071796Y-98259232D03*
X156718243Y-98612785D03*
X156364689Y-98966339D03*
X156011136Y-99319892D03*
D15*
X155038864Y-99319892D03*
X154685311Y-98966339D03*
X154331757Y-98612785D03*
X153978204Y-98259232D03*
X153624651Y-97905679D03*
X153271097Y-97552125D03*
X152917544Y-97198572D03*
X152563990Y-96845018D03*
X152210437Y-96491465D03*
X151856884Y-96137912D03*
X151503330Y-95784358D03*
X151149777Y-95430805D03*
%TD*%
D16*
%TO.C,SW1*%
X142975001Y-83800000D03*
X138524999Y-83800000D03*
%TD*%
D17*
%TO.C,R23*%
X175550000Y-87650000D03*
X174910000Y-87650000D03*
%TD*%
D18*
%TO.C,D12*%
X179746376Y-82255334D03*
X179525000Y-79725000D03*
%TD*%
%TO.C,D14*%
X192234315Y-92349509D03*
X190288563Y-90716829D03*
%TD*%
D19*
%TO.C,R25*%
X192077124Y-97866340D03*
X191057124Y-97866340D03*
%TD*%
D20*
%TO.C,D7*%
X135077501Y-99250001D03*
X134107501Y-99250001D03*
%TD*%
D17*
%TO.C,R7*%
X151090000Y-102634997D03*
X150450000Y-102634997D03*
%TD*%
D21*
%TO.C,L1*%
X148225000Y-102224999D03*
X148225000Y-100475001D03*
%TD*%
D22*
%TO.C,R19*%
X136200000Y-102200001D03*
X136840000Y-102200001D03*
%TD*%
D20*
%TO.C,D6*%
X135125000Y-95525000D03*
X134155000Y-95525000D03*
%TD*%
D23*
%TO.C,C18*%
X152655000Y-104017500D03*
X152655000Y-103057500D03*
%TD*%
D24*
%TO.C,R35*%
X189040000Y-105415001D03*
X189040000Y-106434999D03*
%TD*%
D25*
%TO.C,U7*%
X187502500Y-105400000D03*
X187502500Y-106350000D03*
X187502500Y-107300000D03*
X185227500Y-107300000D03*
X185227500Y-106350000D03*
X185227500Y-105400000D03*
%TD*%
D17*
%TO.C,R10*%
X162305000Y-81937501D03*
X161665000Y-81937501D03*
%TD*%
D22*
%TO.C,R17*%
X136207501Y-99250002D03*
X136847501Y-99250002D03*
%TD*%
D17*
%TO.C,R31*%
X148215000Y-83920000D03*
X147575000Y-83920000D03*
%TD*%
D26*
%TO.C,R4*%
X192100000Y-95844999D03*
X192100000Y-94825001D03*
%TD*%
D17*
%TO.C,R22*%
X145070000Y-109020709D03*
X144430000Y-109020709D03*
%TD*%
D18*
%TO.C,D15*%
X190379248Y-102932680D03*
X192325000Y-101300000D03*
%TD*%
D20*
%TO.C,D9*%
X135085000Y-102200000D03*
X134115000Y-102200000D03*
%TD*%
D22*
%TO.C,R18*%
X136202498Y-100750000D03*
X136842498Y-100750000D03*
%TD*%
D18*
%TO.C,Q1*%
X194622879Y-94266339D03*
X193649999Y-93449999D03*
%TD*%
D20*
%TO.C,D10*%
X135095000Y-103675000D03*
X134125000Y-103675000D03*
%TD*%
D19*
%TO.C,R5*%
X192085000Y-96835000D03*
X191065000Y-96835000D03*
%TD*%
D22*
%TO.C,C14*%
X142970001Y-100475000D03*
X143610001Y-100475000D03*
%TD*%
D27*
%TO.C,C6*%
X157098311Y-90052197D03*
X156645763Y-89599649D03*
%TD*%
D25*
%TO.C,U8*%
X187487500Y-87450000D03*
X187487500Y-88400000D03*
X187487500Y-89350000D03*
X185212500Y-89350000D03*
X185212500Y-88400000D03*
X185212500Y-87450000D03*
%TD*%
D20*
%TO.C,D11*%
X135105000Y-105175000D03*
X134135000Y-105175000D03*
%TD*%
D22*
%TO.C,R9*%
X137125000Y-107775000D03*
X137765000Y-107775000D03*
%TD*%
%TO.C,R15*%
X136096000Y-94050000D03*
X136736000Y-94050000D03*
%TD*%
%TO.C,R16*%
X136131000Y-95516001D03*
X136771000Y-95516001D03*
%TD*%
D18*
%TO.C,D13*%
X180089312Y-115090167D03*
X180310688Y-112559833D03*
%TD*%
D24*
%TO.C,R36*%
X189000000Y-87440001D03*
X189000000Y-88459999D03*
%TD*%
D28*
%TO.C,U4*%
X142400000Y-96375000D03*
D29*
X142400000Y-97375000D03*
D28*
X142400000Y-97375000D03*
X142400000Y-98375000D03*
D30*
X141200000Y-98625000D03*
X141199999Y-98125000D03*
X141200000Y-97625000D03*
X141200000Y-97125001D03*
X141200000Y-96625000D03*
X141200000Y-96125000D03*
X143600000Y-96125000D03*
X143600000Y-96625000D03*
X143600000Y-97125000D03*
X143600000Y-97625000D03*
X143600000Y-98125000D03*
X143600000Y-98625000D03*
%TD*%
D22*
%TO.C,R12*%
X136120000Y-89575000D03*
X136760000Y-89575000D03*
%TD*%
D31*
%TO.C,R33*%
X176512502Y-115179998D03*
X176512502Y-115819998D03*
%TD*%
D32*
%TO.C,C2*%
X161388681Y-96788449D03*
X160709859Y-97467271D03*
%TD*%
D33*
%TO.C,U2*%
X162075000Y-115450000D03*
D34*
X160612500Y-116200000D03*
X160612500Y-115700000D03*
X160612500Y-115200000D03*
X160612500Y-114700000D03*
D35*
X161325000Y-113987500D03*
X161825000Y-113987500D03*
X162325000Y-113987500D03*
X162825000Y-113987500D03*
D34*
X163537500Y-114700000D03*
X163537500Y-115200000D03*
X163537500Y-115700000D03*
X163537500Y-116200000D03*
D35*
X162825000Y-116912500D03*
X162325000Y-116912500D03*
X161825000Y-116912500D03*
X161325000Y-116912500D03*
%TD*%
D31*
%TO.C,R34*%
X176512502Y-113259998D03*
X176512502Y-113899998D03*
%TD*%
D22*
%TO.C,R14*%
X136096000Y-92550000D03*
X136736000Y-92550000D03*
%TD*%
D23*
%TO.C,C21*%
X191027124Y-99846340D03*
X191027124Y-98886340D03*
%TD*%
D36*
%TO.C,SP1*%
X172914499Y-80625000D03*
X176564499Y-80625000D03*
%TD*%
D12*
%TO.C,C8*%
X152348726Y-98943393D03*
X152801274Y-99395941D03*
%TD*%
D37*
%TO.C,U3*%
X164175001Y-96487500D03*
X164675000Y-96487500D03*
X165174999Y-96487500D03*
D38*
X165837501Y-96650000D03*
X165837500Y-97150000D03*
X165837500Y-97650000D03*
X165837501Y-98150000D03*
D37*
X165174999Y-98312500D03*
X164675000Y-98312500D03*
X164175001Y-98312500D03*
D38*
X163512499Y-98150000D03*
X163512500Y-97650000D03*
X163512500Y-97150000D03*
X163512499Y-96650000D03*
%TD*%
D31*
%TO.C,R3*%
X159525000Y-116180000D03*
X159525000Y-116820000D03*
%TD*%
D22*
%TO.C,R20*%
X136200000Y-103675000D03*
X136840000Y-103675000D03*
%TD*%
D39*
%TO.C,SW2*%
X150625000Y-110402200D03*
X149125000Y-110425000D03*
X146125000Y-110374200D03*
D40*
X152025000Y-113202200D03*
X152025000Y-111102200D03*
X144725000Y-113202200D03*
X144725000Y-111102200D03*
%TD*%
D22*
%TO.C,R32*%
X149450000Y-83910000D03*
X150090000Y-83910000D03*
%TD*%
D41*
%TO.C,C22*%
X180140000Y-87775002D03*
X179180000Y-87775002D03*
%TD*%
D22*
%TO.C,R6*%
X149152499Y-108597501D03*
X149792499Y-108597501D03*
%TD*%
D42*
%TO.C,L2*%
X148100000Y-92375001D03*
X148100000Y-94124999D03*
%TD*%
D43*
%TO.C,C25*%
X189600000Y-92349999D03*
X190560000Y-92349999D03*
%TD*%
D20*
%TO.C,D2*%
X135160000Y-89575000D03*
X134190000Y-89575000D03*
%TD*%
D44*
%TO.C,J2*%
X159175000Y-120325000D03*
D45*
X163175000Y-119625000D03*
X161175000Y-119625000D03*
D44*
X165175000Y-120325000D03*
%TD*%
D33*
%TO.C,U6*%
X162050000Y-79312500D03*
D46*
X163512500Y-78562500D03*
X163512500Y-79062500D03*
X163512500Y-79562500D03*
X163512500Y-80062500D03*
D47*
X162800000Y-80775000D03*
X162300000Y-80775000D03*
X161800000Y-80775000D03*
X161300000Y-80775000D03*
D46*
X160587500Y-80062500D03*
X160587500Y-79562500D03*
X160587500Y-79062500D03*
X160587500Y-78562500D03*
D47*
X161300000Y-77850000D03*
X161800000Y-77850000D03*
X162300000Y-77850000D03*
X162800000Y-77850000D03*
%TD*%
D20*
%TO.C,D4*%
X135123000Y-92550000D03*
X134153000Y-92550000D03*
%TD*%
D41*
%TO.C,C23*%
X180169999Y-106954999D03*
X179209999Y-106954999D03*
%TD*%
D48*
%TO.C,J8*%
X145160000Y-82625000D03*
X145160001Y-81355000D03*
X146430000Y-82625000D03*
X146430000Y-81355000D03*
X147700000Y-82625000D03*
X147700000Y-81355000D03*
X148970000Y-82625000D03*
X148969999Y-81355000D03*
X150240000Y-82625001D03*
D49*
X150240000Y-81355000D03*
%TD*%
D18*
%TO.C,Q4*%
X193627124Y-100141340D03*
X194600000Y-99325000D03*
%TD*%
D22*
%TO.C,R21*%
X136210000Y-105175000D03*
X136850000Y-105175000D03*
%TD*%
D50*
%TO.C,C17*%
X152675000Y-104957500D03*
X152675000Y-105917500D03*
%TD*%
D51*
%TO.C,U5*%
X154000001Y-103600000D03*
X155899999Y-103600000D03*
X155899999Y-105875000D03*
X154950000Y-105875000D03*
X154000001Y-105875000D03*
%TD*%
D20*
%TO.C,D8*%
X135087499Y-100750000D03*
X134117499Y-100750000D03*
%TD*%
D22*
%TO.C,C1*%
X142340002Y-85800000D03*
X142980002Y-85800000D03*
%TD*%
%TO.C,R2*%
X161820000Y-112867502D03*
X162460000Y-112867502D03*
%TD*%
D52*
%TO.C,Q3*%
X175880000Y-84287499D03*
X176830000Y-86162500D03*
X174930000Y-86162500D03*
%TD*%
D10*
%TO.C,R28*%
X179155001Y-108030000D03*
X180174999Y-108030000D03*
%TD*%
D18*
%TO.C,Q5*%
X180146376Y-85330335D03*
X180035688Y-84065167D03*
%TD*%
D48*
%TO.C,J5*%
X149850000Y-105579999D03*
D49*
X149850000Y-106850000D03*
%TD*%
D24*
%TO.C,R27*%
X178140000Y-86740003D03*
X178140000Y-87760001D03*
%TD*%
D53*
%TO.C,C5*%
X160526012Y-96413684D03*
X160978560Y-95961136D03*
%TD*%
D54*
%TO.C,J9*%
X175000000Y-111250000D03*
D55*
X175000000Y-110250000D03*
%TD*%
D56*
%TO.C,Q7*%
X173150001Y-114224999D03*
X175025002Y-113274999D03*
X175025002Y-115174999D03*
%TD*%
D20*
%TO.C,D1*%
X136060000Y-107775000D03*
X135090000Y-107775000D03*
%TD*%
D57*
%TO.C,C7*%
X150545199Y-93454440D03*
X150092651Y-93906988D03*
%TD*%
D27*
%TO.C,R1*%
X151301275Y-91770942D03*
X150848727Y-91318394D03*
%TD*%
D58*
%TO.C,C19*%
X164637499Y-80707501D03*
X164637499Y-80067501D03*
%TD*%
D22*
%TO.C,R13*%
X136072000Y-91050000D03*
X136712000Y-91050000D03*
%TD*%
D18*
%TO.C,Q6*%
X180489311Y-110790168D03*
X180600001Y-109525000D03*
%TD*%
D22*
%TO.C,R30*%
X145185000Y-83940000D03*
X145825000Y-83940000D03*
%TD*%
D54*
%TO.C,J4*%
X146125000Y-93700000D03*
D55*
X146125000Y-92700000D03*
%TD*%
D20*
%TO.C,D3*%
X135135000Y-91050000D03*
X134165000Y-91050000D03*
%TD*%
D54*
%TO.C,J3*%
X146250000Y-101825000D03*
D55*
X146250000Y-100825000D03*
%TD*%
D22*
%TO.C,C13*%
X140555000Y-99425000D03*
X141195000Y-99425000D03*
%TD*%
D20*
%TO.C,D5*%
X135123000Y-94050000D03*
X134153000Y-94050000D03*
%TD*%
D31*
%TO.C,C9*%
X159424998Y-114072498D03*
X159424998Y-114712498D03*
%TD*%
D22*
%TO.C,R11*%
X163230000Y-76762500D03*
X163870000Y-76762500D03*
%TD*%
D10*
%TO.C,R26*%
X179125001Y-86720000D03*
X180144999Y-86720000D03*
%TD*%
D24*
%TO.C,R24*%
X192077124Y-98856341D03*
X192077124Y-99876339D03*
%TD*%
D50*
%TO.C,C16*%
X191050000Y-94839999D03*
X191050000Y-95799999D03*
%TD*%
D59*
%TO.C,C3*%
X148816323Y-95925780D03*
X149495145Y-96604602D03*
%TD*%
D58*
%TO.C,C12*%
X166929999Y-97276001D03*
X166929999Y-96636001D03*
%TD*%
D16*
%TO.C,SW3*%
X143025001Y-110850000D03*
X138574999Y-110850000D03*
%TD*%
D43*
%TO.C,C24*%
X177395000Y-82625000D03*
X178355000Y-82625000D03*
%TD*%
D60*
%TO.C,J1*%
X165674600Y-105400001D03*
X163674600Y-105400000D03*
D61*
X161674600Y-104400000D03*
D60*
X163674600Y-103400001D03*
X165674600Y-103400000D03*
D61*
X167674600Y-104400000D03*
%TD*%
D22*
%TO.C,C20*%
X144430712Y-109875000D03*
X145070712Y-109875000D03*
%TD*%
D44*
%TO.C,J7*%
X165175000Y-74525000D03*
D45*
X161175000Y-75225000D03*
X163175000Y-75225000D03*
D44*
X159175000Y-74525000D03*
%TD*%
D22*
%TO.C,C11*%
X165204999Y-99306001D03*
X165844999Y-99306001D03*
%TD*%
D52*
%TO.C,Q2*%
X146575000Y-105024999D03*
X147525000Y-106900000D03*
X145625000Y-106900000D03*
%TD*%
D17*
%TO.C,C10*%
X164365000Y-99300000D03*
X163725000Y-99300000D03*
%TD*%
D60*
%TO.C,J6*%
X163575400Y-89449999D03*
X165575400Y-89450000D03*
D61*
X167575400Y-90450000D03*
D60*
X165575400Y-91449999D03*
X163575400Y-91450000D03*
D61*
X161575400Y-90450000D03*
%TD*%
D26*
%TO.C,R29*%
X178164999Y-108024998D03*
X178164999Y-107005000D03*
%TD*%
M02*
