%TF.GenerationSoftware,KiCad,Pcbnew,8.0.4-8.0.4-0~ubuntu22.04.1*%
%TF.CreationDate,2025-02-28T00:25:37+09:00*%
%TF.ProjectId,main,6d61696e-2e6b-4696-9361-645f70636258,rev?*%
%TF.SameCoordinates,Original*%
%TF.FileFunction,Profile,NP*%
%FSLAX46Y46*%
G04 Gerber Fmt 4.6, Leading zero omitted, Abs format (unit mm)*
G04 Created by KiCad (PCBNEW 8.0.4-8.0.4-0~ubuntu22.04.1) date 2025-02-28 00:25:37*
%MOMM*%
%LPD*%
G01*
G04 APERTURE LIST*
%TA.AperFunction,Profile*%
%ADD10C,0.080000*%
%TD*%
%TA.AperFunction,Profile*%
%ADD11C,0.120000*%
%TD*%
G04 APERTURE END LIST*
D10*
X164674999Y-120425000D02*
X164674999Y-121425000D01*
X159675000Y-73424999D02*
X158675000Y-73424999D01*
X162762965Y-110424998D02*
X170674998Y-110424999D01*
X162762965Y-111924999D02*
X162762965Y-110424998D01*
X155674999Y-110424999D02*
X161262965Y-110424999D01*
X165675000Y-82425000D02*
G75*
G02*
X165174999Y-82925000I-500000J0D01*
G01*
X165175000Y-111925000D02*
X162762965Y-111924999D01*
X146674999Y-114925000D02*
X153675000Y-114924999D01*
X159175001Y-82924999D02*
G75*
G02*
X158675001Y-82424999I-1J499999D01*
G01*
X165675000Y-73425000D02*
X164674999Y-73424999D01*
X158675000Y-121425000D02*
X159674999Y-121424999D01*
X199675000Y-98425000D02*
X199675000Y-96424999D01*
X172675000Y-116425000D02*
G75*
G02*
X171675000Y-115425000I0J1000000D01*
G01*
X170674998Y-110424999D02*
G75*
G02*
X171675001Y-111425000I2J-1000001D01*
G01*
X181675000Y-78424999D02*
X172674998Y-78424999D01*
X160174999Y-120425000D02*
X164175001Y-120424998D01*
X154675000Y-113924998D02*
G75*
G02*
X153675000Y-114925000I-1000000J-2D01*
G01*
X171674999Y-79424999D02*
X171674999Y-83425000D01*
X154675001Y-83425002D02*
X154675000Y-80925001D01*
X181675000Y-78424999D02*
G75*
G02*
X199675001Y-96424999I0J-18000001D01*
G01*
X164175001Y-120425000D02*
G75*
G02*
X164674999Y-120425000I249999J2D01*
G01*
X164674999Y-121425000D02*
X165675000Y-121424999D01*
X155674998Y-84424999D02*
G75*
G02*
X154675001Y-83425002I2J999999D01*
G01*
X162762964Y-84425000D02*
X162762964Y-82924999D01*
X159175001Y-82924999D02*
X161262965Y-82925000D01*
X158675000Y-112424999D02*
X158675000Y-121425000D01*
X164175001Y-74425000D02*
X160174999Y-74425000D01*
X131674998Y-94925000D02*
G75*
G02*
X146674999Y-79924998I15000002J0D01*
G01*
X171475001Y-85925000D02*
G75*
G02*
X169875001Y-85925000I-800000J0D01*
G01*
X169875001Y-85925000D02*
G75*
G02*
X171475001Y-85925000I800000J0D01*
G01*
X171674999Y-111425000D02*
X171674999Y-115425000D01*
X164674999Y-74425000D02*
G75*
G02*
X164175001Y-74425000I-249999J-1D01*
G01*
X170675001Y-84425000D02*
X162762964Y-84425000D01*
X154674998Y-111425000D02*
G75*
G02*
X155674999Y-110424998I1000002J0D01*
G01*
X159674999Y-121424999D02*
X159674999Y-120425000D01*
X171475001Y-108925000D02*
G75*
G02*
X169875001Y-108925000I-800000J0D01*
G01*
X169875001Y-108925000D02*
G75*
G02*
X171475001Y-108925000I800000J0D01*
G01*
X161262965Y-82925000D02*
X161262965Y-84425000D01*
X154675000Y-113924998D02*
X154674998Y-111425000D01*
X172675000Y-116425000D02*
X181675000Y-116425000D01*
X165675000Y-82425000D02*
X165675000Y-73425000D01*
X146674999Y-114925000D02*
G75*
G02*
X131675000Y-99925000I1J15000000D01*
G01*
X153675001Y-79924999D02*
G75*
G02*
X154675001Y-80925001I-1J-1000001D01*
G01*
X161262965Y-110424999D02*
X161262965Y-111924999D01*
X154475000Y-85925000D02*
G75*
G02*
X152875000Y-85925000I-800000J0D01*
G01*
X152875000Y-85925000D02*
G75*
G02*
X154475000Y-85925000I800000J0D01*
G01*
X165675000Y-121424999D02*
X165675000Y-112424999D01*
X199675000Y-98425000D02*
G75*
G02*
X181675000Y-116425000I-18000000J0D01*
G01*
X158675000Y-73424999D02*
X158675000Y-82424999D01*
X161262965Y-111924999D02*
X159175000Y-111925000D01*
X165175000Y-111925000D02*
G75*
G02*
X165675000Y-112424999I0J-500000D01*
G01*
X171674999Y-79424999D02*
G75*
G02*
X172674998Y-78424999I1000001J-1D01*
G01*
X131674998Y-94925000D02*
X131674998Y-99925000D01*
X162762964Y-82924999D02*
X165174999Y-82924999D01*
X154475000Y-108925000D02*
G75*
G02*
X152875000Y-108925000I-800000J0D01*
G01*
X152875000Y-108925000D02*
G75*
G02*
X154475000Y-108925000I800000J0D01*
G01*
X153675001Y-79924999D02*
X146674999Y-79924999D01*
X160174999Y-74425000D02*
G75*
G02*
X159674999Y-74425000I-250000J1D01*
G01*
X164674999Y-73424999D02*
X164674999Y-74425000D01*
X181674998Y-97425000D02*
G75*
G02*
X173674998Y-97425000I-4000000J0D01*
G01*
X173674998Y-97425000D02*
G75*
G02*
X181674998Y-97425000I4000000J0D01*
G01*
X159674999Y-74425000D02*
X159675000Y-73424999D01*
X159674999Y-120425000D02*
G75*
G02*
X160174999Y-120425000I250000J1D01*
G01*
X171674999Y-83425000D02*
G75*
G02*
X170675001Y-84424999I-999999J0D01*
G01*
X158675000Y-112424999D02*
G75*
G02*
X159175000Y-111925000I500000J-1D01*
G01*
X161262965Y-84425000D02*
X155674998Y-84424999D01*
D11*
%TO.C,SW1*%
X141125000Y-84700000D02*
G75*
G02*
X140375000Y-84700000I-375000J0D01*
G01*
X140375000Y-84700000D02*
G75*
G02*
X141125000Y-84700000I375000J0D01*
G01*
X141125000Y-82900000D02*
G75*
G02*
X140375000Y-82900000I-375000J0D01*
G01*
X140375000Y-82900000D02*
G75*
G02*
X141125000Y-82900000I375000J0D01*
G01*
%TO.C,SW2*%
X150325000Y-112152200D02*
G75*
G02*
X149425000Y-112152200I-450000J0D01*
G01*
X149425000Y-112152200D02*
G75*
G02*
X150325000Y-112152200I450000J0D01*
G01*
X147325000Y-112152200D02*
G75*
G02*
X146425000Y-112152200I-450000J0D01*
G01*
X146425000Y-112152200D02*
G75*
G02*
X147325000Y-112152200I450000J0D01*
G01*
%TO.C,SW3*%
X141175000Y-111750000D02*
G75*
G02*
X140425000Y-111750000I-375000J0D01*
G01*
X140425000Y-111750000D02*
G75*
G02*
X141175000Y-111750000I375000J0D01*
G01*
X141175000Y-109950000D02*
G75*
G02*
X140425000Y-109950000I-375000J0D01*
G01*
X140425000Y-109950000D02*
G75*
G02*
X141175000Y-109950000I375000J0D01*
G01*
%TD*%
M02*
